
<svg id="D10" viewBox="0 0 90 123" xmlns="http://www.w3.org/2000/svg">
	<linearGradient id="SVGID_73_" gradientUnits="userSpaceOnUse" x1="45.05" y1="123" x2="45.05" y2="0" gradientTransform="matrix(1 0 0 -1 0 123)">
		<stop  offset="0" style="stop-color:#F5F5F5"/>
		<stop  offset="1" style="stop-color:#D1D1D1"/>
	</linearGradient>
	<linearGradient id="SVGID_74_" gradientUnits="userSpaceOnUse" x1="45.05" y1="80.8" x2="45.05" y2="0.1" gradientTransform="matrix(1 0 0 -1 0 123)">
		<stop  offset="0" style="stop-color:#D0D2D3"/>
		<stop  offset="1" style="stop-color:#CCCECF"/>
	</linearGradient>
	<linearGradient id="SVGID_75_" gradientUnits="userSpaceOnUse" x1="30.35" y1="116.825" x2="30.35" y2="94.1833" gradientTransform="matrix(1 0 0 -1 0 123)">
		<stop  offset="0" style="stop-color:#B72026"/>
		<stop  offset="0.3" style="stop-color:#B11F24"/>
		<stop  offset="1" style="stop-color:#710506"/>
	</linearGradient>
	<linearGradient id="SVGID_76_" gradientUnits="userSpaceOnUse" x1="46.45" y1="101.725" x2="46.45" y2="79.0833" gradientTransform="matrix(1 0 0 -1 0 123)">
		<stop  offset="0" style="stop-color:#B72026"/>
		<stop  offset="0.3" style="stop-color:#B11F24"/>
		<stop  offset="1" style="stop-color:#710506"/>
	</linearGradient>
	<linearGradient id="SVGID_77_" gradientUnits="userSpaceOnUse" x1="62.85" y1="116.825" x2="62.85" y2="94.1833" gradientTransform="matrix(1 0 0 -1 0 123)">
		<stop  offset="0" style="stop-color:#B72026"/>
		<stop  offset="0.3" style="stop-color:#B11F24"/>
		<stop  offset="1" style="stop-color:#710506"/>
	</linearGradient>
	<linearGradient id="SVGID_78_" gradientUnits="userSpaceOnUse" x1="30.45" y1="87.2865" x2="30.45" y2="64.6487" gradientTransform="matrix(1 0 0 -1 0 123)">
		<stop  offset="0" style="stop-color:#B72026"/>
		<stop  offset="0.3" style="stop-color:#B11F24"/>
		<stop  offset="1" style="stop-color:#710506"/>
	</linearGradient>
	<linearGradient id="SVGID_79_" gradientUnits="userSpaceOnUse" x1="62.85" y1="87.2865" x2="62.85" y2="64.6487" gradientTransform="matrix(1 0 0 -1 0 123)">
		<stop  offset="0" style="stop-color:#B72026"/>
		<stop  offset="0.3" style="stop-color:#B11F24"/>
		<stop  offset="1" style="stop-color:#710506"/>
	</linearGradient>
	<linearGradient id="SVGID_80_" gradientUnits="userSpaceOnUse" x1="30.35" y1="58.5015" x2="30.35" y2="35.8597" gradientTransform="matrix(1 0 0 -1 0 123)">
		<stop  offset="0" style="stop-color:#B72026"/>
		<stop  offset="0.3" style="stop-color:#B11F24"/>
		<stop  offset="1" style="stop-color:#710506"/>
	</linearGradient>
	<linearGradient id="SVGID_81_" gradientUnits="userSpaceOnUse" x1="46.45" y1="43.425" x2="46.45" y2="20.7832" gradientTransform="matrix(1 0 0 -1 0 123)">
		<stop  offset="0" style="stop-color:#B72026"/>
		<stop  offset="0.3" style="stop-color:#B11F24"/>
		<stop  offset="1" style="stop-color:#710506"/>
	</linearGradient>
	<linearGradient id="SVGID_82_" gradientUnits="userSpaceOnUse" x1="62.9" y1="58.5128" x2="62.9" y2="35.875" gradientTransform="matrix(1 0 0 -1 0 123)">
		<stop  offset="0" style="stop-color:#B72026"/>
		<stop  offset="0.3" style="stop-color:#B11F24"/>
		<stop  offset="1" style="stop-color:#710506"/>
	</linearGradient>
	<linearGradient id="SVGID_83_" gradientUnits="userSpaceOnUse" x1="30.35" y1="29" x2="30.35" y2="6.375" gradientTransform="matrix(1 0 0 -1 0 123)">
		<stop  offset="0" style="stop-color:#B72026"/>
		<stop  offset="0.3" style="stop-color:#B11F24"/>
		<stop  offset="1" style="stop-color:#710506"/>
	</linearGradient>
	<linearGradient id="SVGID_84_" gradientUnits="userSpaceOnUse" x1="62.85" y1="29" x2="62.85" y2="6.375" gradientTransform="matrix(1 0 0 -1 0 123)">
		<stop  offset="0" style="stop-color:#B72026"/>
		<stop  offset="0.3" style="stop-color:#B11F24"/>
		<stop  offset="1" style="stop-color:#710506"/>
	</linearGradient>
	<linearGradient id="SVGID_85_" gradientUnits="userSpaceOnUse" x1="9.25" y1="105.075" x2="9.25" y2="91.9259" gradientTransform="matrix(1 0 0 -1 0 123)">
		<stop  offset="0" style="stop-color:#B72026"/>
		<stop  offset="0.3" style="stop-color:#B11F24"/>
		<stop  offset="1" style="stop-color:#710506"/>
	</linearGradient>
	<path style="display:inline;fill:url(#SVGID_73_);" d="M90,117.7c0,3-2.4,5.3-5.4,5.3H5.4c-3,0-5.4-2.4-5.4-5.3V5.3 C0,2.4,2.4,0,5.4,0h79.3c3,0,5.4,2.4,5.4,5.3v112.4H90z"/>
	<path style="fill:#B92025;" d="M1.9,14.5v-1.3L3.8,13V5.3H1.9V4.1l4-0.7V13l1.9,0.2v1.3H1.9z"/>
	<path style="fill:#B92025;" d="M12.7,14.7c-1.2,0-2.1-0.4-2.7-1.1c-0.7-0.8-1-1.9-1-3.3V7.7c0-1.5,0.3-2.6,1-3.3 c0.7-0.8,1.6-1.1,2.7-1.1s2.1,0.4,2.7,1.1c0.7,0.8,1,1.9,1,3.3v2.5c0,1.5-0.3,2.6-1,3.3C14.8,14.3,13.9,14.7,12.7,14.7z  M12.7,13.1c0.5,0,0.9-0.2,1.2-0.6c0.3-0.4,0.4-1.1,0.4-2v-3c0-0.9-0.1-1.6-0.4-2c-0.3-0.4-0.7-0.6-1.2-0.6s-1,0.1-1.2,0.6 c-0.3,0.4-0.4,1.1-0.4,2v3c0,0.9,0.1,1.6,0.4,2C11.8,12.9,12.2,13.1,12.7,13.1z"/>
	<path style="display:inline;opacity:0.3;fill:url(#SVGID_74_);enable-background:new    ;" d="M0,101v16.6c0,3,2.4,5.3,5.4,5.3 h79.3c3,0,5.4-2.4,5.4-5.3V42.2C48.6,44,13.7,67.9,0,101z"/>
	<path style="display:inline;fill:url(#SVGID_75_);" d="M29.4,7.3c-0.6,0.9-6.8,10.1-6.8,10.1s6.8,10.2,7.2,10.8 c0.5,0.7,0.6,0.7,1.1,0c0.4-0.6,7.2-10.8,7.2-10.8S32,8.2,31.3,7.3C30.5,5.8,30.4,5.8,29.4,7.3z"/>
	<path style="display:inline;fill:url(#SVGID_76_);" d="M45.5,22.4c-0.6,0.9-6.8,10.1-6.8,10.1s6.8,10.2,7.2,10.8 c0.5,0.7,0.6,0.7,1.1,0c0.4-0.6,7.2-10.8,7.2-10.8s-6.1-9.2-6.8-10.1C46.6,20.9,46.5,20.9,45.5,22.4z"/>
	<path style="display:inline;fill:url(#SVGID_77_);" d="M61.9,7.3c-0.6,0.9-6.8,10.1-6.8,10.1s6.8,10.2,7.2,10.8 c0.5,0.7,0.6,0.7,1.1,0c0.4-0.6,7.2-10.8,7.2-10.8s-6-9.1-6.6-10.1C63,5.8,62.9,5.8,61.9,7.3z"/>
	<path style="display:inline;fill:url(#SVGID_78_);" d="M29.4,36.8C28.8,37.7,22.7,47,22.7,47s6.8,10.2,7.2,10.8 c0.5,0.7,0.6,0.7,1.1,0c0.4-0.6,7.2-10.8,7.2-10.8s-6.1-9.2-6.8-10.1C30.5,35.3,30.4,35.3,29.4,36.8z"/>
	<path style="display:inline;fill:url(#SVGID_79_);" d="M61.9,36.8C61.3,37.7,55.1,47,55.1,47s6.8,10.2,7.2,10.8 c0.5,0.7,0.6,0.7,1.1,0c0.4-0.6,7.2-10.8,7.2-10.8s-6.1-9.2-6.8-10.1C63,35.3,62.9,35.3,61.9,36.8z"/>
	<path style="display:inline;fill:url(#SVGID_80_);" d="M29.4,65.6c-0.6,0.9-6.8,10.1-6.8,10.1s6.8,10.2,7.2,10.8 c0.5,0.7,0.6,0.7,1.1,0c0.4-0.6,7.2-10.8,7.2-10.8s-6.1-9.2-6.8-10.1C30.5,64.1,30.4,64.1,29.4,65.6z"/>
	<path style="display:inline;fill:url(#SVGID_81_);" d="M45.5,80.7c-0.6,0.9-6.8,10.1-6.8,10.1s6.8,10.2,7.2,10.8 c0.5,0.7,0.6,0.7,1.1,0c0.4-0.6,7.2-10.8,7.2-10.8s-6.1-9.2-6.8-10.1C46.6,79.2,46.5,79.2,45.5,80.7z"/>
	<path style="display:inline;fill:url(#SVGID_82_);" d="M61.9,65.6c-0.6,0.9-6.8,10.1-6.8,10.1S62,86,62.4,86.6 c0.5,0.7,0.6,0.7,1.1,0c0.4-0.6,7.2-10.8,7.2-10.8s-6.1-9.2-6.8-10.1C63,64.1,62.9,64.1,61.9,65.6z"/>
	<path style="display:inline;fill:url(#SVGID_83_);" d="M29.4,95.2c-0.6,0.9-6.8,10.1-6.8,10.1s6.8,10.2,7.2,10.8 c0.5,0.7,0.6,0.7,1.1,0c0.4-0.6,7.2-10.8,7.2-10.8s-6.1-9.2-6.8-10.1C30.5,93.6,30.4,93.6,29.4,95.2z"/>
	<path style="display:inline;fill:url(#SVGID_84_);" d="M61.9,95.2c-0.6,0.9-6.8,10.1-6.8,10.1s6.8,10.2,7.2,10.8 c0.5,0.7,0.6,0.7,1.1,0c0.4-0.6,7.2-10.8,7.2-10.8s-6.1-9.2-6.8-10.1C63,93.6,62.9,93.6,61.9,95.2z"/>
	<path style="display:inline;fill:url(#SVGID_85_);" d="M8.6,18.6c-0.3,0.5-3.9,5.9-3.9,5.9s4,5.9,4.2,6.3c0.3,0.4,0.4,0.4,0.7,0 c0.2-0.3,4.2-6.3,4.2-6.3s-3.6-5.3-3.9-5.9C9.3,17.7,9.2,17.7,8.6,18.6z"/>
</svg>
