
<svg id="H2" viewBox="0 0 90 123" xmlns="http://www.w3.org/2000/svg">
	<linearGradient id="SVGID_301_" gradientUnits="userSpaceOnUse" x1="45.05" y1="123" x2="45.05" y2="0" gradientTransform="matrix(1 0 0 -1 0 123)">
		<stop  offset="0" style="stop-color:#F5F5F5"/>
		<stop  offset="1" style="stop-color:#D1D1D1"/>
	</linearGradient>
	<linearGradient id="SVGID_302_" gradientUnits="userSpaceOnUse" x1="45.05" y1="80.8" x2="45.05" y2="0.1" gradientTransform="matrix(1 0 0 -1 0 123)">
		<stop  offset="0" style="stop-color:#D0D2D3"/>
		<stop  offset="1" style="stop-color:#CCCECF"/>
	</linearGradient>
	<linearGradient id="SVGID_303_" gradientUnits="userSpaceOnUse" x1="9.2085" y1="104.5405" x2="9.2085" y2="93.6567" gradientTransform="matrix(1 0 0 -1 0 123)">
		<stop  offset="0" style="stop-color:#B72026"/>
		<stop  offset="0.3" style="stop-color:#B11F24"/>
		<stop  offset="1" style="stop-color:#710506"/>
	</linearGradient>
	<linearGradient id="SVGID_304_" gradientUnits="userSpaceOnUse" x1="46.4204" y1="115.8399" x2="46.4204" y2="97.3399" gradientTransform="matrix(1 0 0 -1 0 123)">
		<stop  offset="0" style="stop-color:#B72026"/>
		<stop  offset="0.3" style="stop-color:#B11F24"/>
		<stop  offset="1" style="stop-color:#710506"/>
	</linearGradient>
	<linearGradient id="SVGID_305_" gradientUnits="userSpaceOnUse" x1="46.6796" y1="25.6718" x2="46.6796" y2="7.1718" gradientTransform="matrix(1 0 0 -1 0 123)">
		<stop  offset="0" style="stop-color:#B72026"/>
		<stop  offset="0.3" style="stop-color:#B11F24"/>
		<stop  offset="1" style="stop-color:#710506"/>
	</linearGradient>
	<path style="fill:url(#SVGID_301_);" d="M90,117.7c0,3-2.4,5.3-5.4,5.3H5.4c-3,0-5.4-2.4-5.4-5.3V5.3 C0,2.4,2.4,0,5.4,0h79.3c3,0,5.4,2.4,5.4,5.3v112.4H90z"/>
	<path style="fill:#B92025;" d="M5.5,14.5v-1.4l3.6-3.9C9.5,8.8,9.8,8.4,10,8.1c0.2-0.3,0.4-0.6,0.5-0.9s0.1-0.5,0.1-0.8 c0-0.5-0.1-0.9-0.4-1.2C10,5,9.6,4.8,9.1,4.8S8.1,5,7.8,5.3C7.5,5.7,7.4,6.2,7.4,6.8h-2l0,0c0-0.7,0.1-1.3,0.4-1.8s0.7-1,1.3-1.3 s1.2-0.5,2-0.5s1.4,0.1,1.9,0.4s1,0.7,1.3,1.1c0.3,0.5,0.4,1,0.4,1.7c0,0.4-0.1,0.8-0.2,1.2c-0.2,0.4-0.4,0.8-0.7,1.2 s-0.8,0.9-1.3,1.5l-2.3,2.5l0,0h3.1l0.1-1.1H13v2.7H5.5V14.5z"/>
	<path style="opacity:0.3;fill:url(#SVGID_302_);enable-background:new    ;" d="M0,101v16.6c0,3,2.4,5.3,5.4,5.3 h79.3c3,0,5.4-2.4,5.4-5.3V42.2C48.6,44,13.7,67.9,0,101z"/>
	<path style="fill:url(#SVGID_303_);" d="M12,18.5c-1.2,0-2.3,1-2.8,2.1c-0.5-1-1.6-2.1-2.8-2.1 c-1.7,0-3.1,1.4-3.1,3.1c0,3.5,3.3,5.4,5.9,7.8c2.4-2.4,5.6-4.3,5.9-7.8C15.3,19.8,13.7,18.5,12,18.5z"/>
	<path style="fill:url(#SVGID_304_);" d="M51.3,7.2c-2.1,0-3.9,1.7-4.8,3.5c-0.8-1.8-2.7-3.5-4.8-3.5 c-2.9,0-5.3,2.4-5.3,5.2c0,5.9,5.6,9.2,10,13.3c4.1-4,9.5-7.4,10-13.3C56.8,9.5,54.2,7.2,51.3,7.2z"/>
	<path style="fill:url(#SVGID_305_);" d="M41.8,115.8c2.1,0,3.9-1.7,4.8-3.5c0.8,1.8,2.7,3.5,4.8,3.5 c2.9,0,5.3-2.4,5.3-5.2c0-5.9-5.6-9.2-10-13.3c-4.1,4-9.5,7.4-10,13.3C36.3,113.5,38.9,115.8,41.8,115.8z"/>
</svg>
