
<svg id="S3" viewBox="0 0 90 123" xmlns="http://www.w3.org/2000/svg">
	<linearGradient id="SVGID_454_" gradientUnits="userSpaceOnUse" x1="45.05" y1="123" x2="45.05" y2="0" gradientTransform="matrix(1 0 0 -1 0 123)">
		<stop  offset="0" style="stop-color:#F5F5F5"/>
		<stop  offset="1" style="stop-color:#D1D1D1"/>
	</linearGradient>
	<linearGradient id="SVGID_455_" gradientUnits="userSpaceOnUse" x1="9.3114" y1="105.1449" x2="9.3114" y2="93.0523" gradientTransform="matrix(1 0 0 -1 0 123)">
		<stop  offset="0" style="stop-color:#4A4A4C"/>
		<stop  offset="0.3" style="stop-color:#404041"/>
		<stop  offset="1" style="stop-color:#231F20"/>
	</linearGradient>
	<linearGradient id="SVGID_456_" gradientUnits="userSpaceOnUse" x1="45.05" y1="80.8" x2="45.05" y2="0.1" gradientTransform="matrix(1 0 0 -1 0 123)">
		<stop  offset="0" style="stop-color:#D0D2D3"/>
		<stop  offset="1" style="stop-color:#CCCECF"/>
	</linearGradient>
	<linearGradient id="SVGID_457_" gradientUnits="userSpaceOnUse" x1="46.306" y1="116.4803" x2="46.306" y2="95.8078" gradientTransform="matrix(1 0 0 -1 0 123)">
		<stop  offset="0" style="stop-color:#4A4A4C"/>
		<stop  offset="0.3" style="stop-color:#404041"/>
		<stop  offset="1" style="stop-color:#231F20"/>
	</linearGradient>
	<linearGradient id="SVGID_458_" gradientUnits="userSpaceOnUse" x1="46.306" y1="71.6" x2="46.306" y2="50.9274" gradientTransform="matrix(1 0 0 -1 0 123)">
		<stop  offset="0" style="stop-color:#4A4A4C"/>
		<stop  offset="0.3" style="stop-color:#404041"/>
		<stop  offset="1" style="stop-color:#231F20"/>
	</linearGradient>
	<linearGradient id="SVGID_459_" gradientUnits="userSpaceOnUse" x1="46.394" y1="27.2" x2="46.394" y2="6.5274" gradientTransform="matrix(1 0 0 -1 0 123)">
		<stop  offset="0" style="stop-color:#4A4A4C"/>
		<stop  offset="0.3" style="stop-color:#404041"/>
		<stop  offset="1" style="stop-color:#231F20"/>
	</linearGradient>
	<path style="fill:url(#SVGID_454_);" d="M90,117.7c0,3-2.4,5.3-5.4,5.3H5.4c-3,0-5.4-2.4-5.4-5.3V5.3 C0,2.4,2.4,0,5.4,0h79.3c3,0,5.4,2.4,5.4,5.3v112.4H90z"/>
	<path style="fill:url(#SVGID_455_);" d="M13.2,22c-1.7-2-2.9-3-4-4.1l0,0l0,0l0,0c-0.9,0.9-2.2,2-4,4.1 c-2.6,2.8-0.2,7.4,3.3,5.2c-0.2,1.5-1,1.8-1.8,2.2v0.5h5.1v-0.5c-0.8-0.5-1.6-0.7-1.8-2.2C13.4,29.5,16.3,25.3,13.2,22L13.2,22z"/>
	<path style="fill:#231F20;" d="M9.2,14.7c-0.7,0-1.4-0.1-1.9-0.4c-0.6-0.2-1-0.6-1.4-1.1c-0.3-0.5-0.5-1-0.5-1.7l0,0h2 c0,0.3,0.1,0.6,0.2,0.8s0.3,0.4,0.6,0.6c0.3,0.1,0.6,0.2,0.9,0.2c0.5,0,1-0.2,1.3-0.5s0.5-0.7,0.5-1.3s-0.2-1-0.5-1.3 S9.6,9.6,9,9.6H7.9V8.1h1.3c0.4,0,0.7-0.1,0.9-0.2c0.2-0.1,0.4-0.3,0.5-0.6c0.1-0.2,0.2-0.5,0.2-0.9c0-0.5-0.1-0.9-0.4-1.2 C10.1,5,9.7,4.8,9.2,4.8C8.9,4.8,8.6,4.9,8.4,5C8.1,5.1,7.9,5.3,7.8,5.5C7.7,5.8,7.6,6,7.6,6.3h-2l0,0c0-0.6,0.1-1.1,0.4-1.6 s0.7-0.8,1.3-1.1s1.2-0.4,1.9-0.4c1.1,0,2,0.3,2.7,0.8s1,1.3,1,2.3c0,0.5-0.1,1-0.4,1.4c-0.3,0.4-0.7,0.8-1.3,1 c0.6,0.2,1.1,0.6,1.4,1c0.3,0.5,0.5,1,0.5,1.6c0,0.7-0.2,1.3-0.5,1.8s-0.8,0.9-1.4,1.1C10.6,14.6,9.9,14.7,9.2,14.7z"/>	
	<path style="opacity:0.3;fill:url(#SVGID_456_);enable-background:new    ;" d="M0,101v16.6c0,3,2.4,5.3,5.4,5.3 h79.3c3,0,5.4-2.4,5.4-5.3V42.2C48.6,44,13.7,67.9,0,101z"/>
	<path style="fill:url(#SVGID_457_);" d="M53,13.6c-2.9-3.5-5-5.2-6.9-7l0,0l0,0l0,0c-1.5,1.5-3.8,3.5-6.9,7 c-4.5,4.8-0.3,12.7,5.7,9c-0.4,2.6-1.8,3-3.2,3.8v0.8h8.7v-0.8c-1.4-0.8-2.8-1.2-3.2-3.8C53.4,26.4,58.4,19.2,53,13.6L53,13.6z"/>
	<path style="fill:url(#SVGID_458_);" d="M53,58.4c-2.9-3.5-5-5.2-6.9-7l0,0l0,0l0,0c-1.5,1.5-3.8,3.5-6.9,7 c-4.5,4.8-0.3,12.7,5.7,9c-0.4,2.6-1.8,3-3.2,3.8V72h8.7v-0.8c-1.4-0.8-2.8-1.2-3.2-3.8C53.4,71.3,58.4,64,53,58.4L53,58.4z"/>
	<path style="fill:url(#SVGID_459_);" d="M39.7,109.4c2.9,3.5,5,5.2,6.9,7l0,0l0,0l0,0c1.5-1.5,3.8-3.5,6.9-7 c4.5-4.8,0.3-12.7-5.7-9c0.4-2.6,1.8-3,3.2-3.8v-0.8h-8.7v0.8c1.4,0.8,2.8,1.2,3.2,3.8C39.3,96.6,34.3,103.8,39.7,109.4L39.7,109.4 z"/>
</svg>
