
<svg id="S6" viewBox="0 0 90 123" xmlns="http://www.w3.org/2000/svg">
	<linearGradient id="SVGID_475_" gradientUnits="userSpaceOnUse" x1="45.05" y1="123" x2="45.05" y2="0" gradientTransform="matrix(1 0 0 -1 0 123)">
		<stop  offset="0" style="stop-color:#F5F5F5"/>
		<stop  offset="1" style="stop-color:#D1D1D1"/>
	</linearGradient>
	<linearGradient id="SVGID_477_" gradientUnits="userSpaceOnUse" x1="45.05" y1="80.8" x2="45.05" y2="0.1" gradientTransform="matrix(1 0 0 -1 0 123)">
		<stop  offset="0" style="stop-color:#D0D2D3"/>
		<stop  offset="1" style="stop-color:#CCCECF"/>
	</linearGradient>
	<linearGradient id="SVGID_476_" gradientUnits="userSpaceOnUse" x1="9.3114" y1="105.1449" x2="9.3114" y2="93.0523" gradientTransform="matrix(1 0 0 -1 0 123)">
		<stop  offset="0" style="stop-color:#4A4A4C"/>
		<stop  offset="0.3" style="stop-color:#404041"/>
		<stop  offset="1" style="stop-color:#231F20"/>
	</linearGradient>
	<linearGradient id="SVGID_478_" gradientUnits="userSpaceOnUse" x1="29.506" y1="116.4803" x2="29.506" y2="95.8078" gradientTransform="matrix(1 0 0 -1 0 123)">
		<stop  offset="0" style="stop-color:#4A4A4C"/>
		<stop  offset="0.3" style="stop-color:#404041"/>
		<stop  offset="1" style="stop-color:#231F20"/>
	</linearGradient>
	<linearGradient id="SVGID_479_" gradientUnits="userSpaceOnUse" x1="63.106" y1="116.4803" x2="63.106" y2="95.8078" gradientTransform="matrix(1 0 0 -1 0 123)">
		<stop  offset="0" style="stop-color:#4A4A4C"/>
		<stop  offset="0.3" style="stop-color:#404041"/>
		<stop  offset="1" style="stop-color:#231F20"/>
	</linearGradient>
	<linearGradient id="SVGID_480_" gradientUnits="userSpaceOnUse" x1="29.506" y1="71.6" x2="29.506" y2="50.9274" gradientTransform="matrix(1 0 0 -1 0 123)">
		<stop  offset="0" style="stop-color:#4A4A4C"/>
		<stop  offset="0.3" style="stop-color:#404041"/>
		<stop  offset="1" style="stop-color:#231F20"/>
	</linearGradient>
	<linearGradient id="SVGID_481_" gradientUnits="userSpaceOnUse" x1="63.106" y1="71.6" x2="63.106" y2="50.9274" gradientTransform="matrix(1 0 0 -1 0 123)">
		<stop  offset="0" style="stop-color:#4A4A4C"/>
		<stop  offset="0.3" style="stop-color:#404041"/>
		<stop  offset="1" style="stop-color:#231F20"/>
	</linearGradient>
	<linearGradient id="SVGID_482_" gradientUnits="userSpaceOnUse" x1="63.1254" y1="27.2" x2="63.1254" y2="6.5274" gradientTransform="matrix(1 0 0 -1 0 123)">
		<stop  offset="0" style="stop-color:#4A4A4C"/>
		<stop  offset="0.3" style="stop-color:#404041"/>
		<stop  offset="1" style="stop-color:#231F20"/>
	</linearGradient>
	<linearGradient id="SVGID_483_" gradientUnits="userSpaceOnUse" x1="29.594" y1="27.2" x2="29.594" y2="6.5274" gradientTransform="matrix(1 0 0 -1 0 123)">
		<stop  offset="0" style="stop-color:#4A4A4C"/>
		<stop  offset="0.3" style="stop-color:#404041"/>
		<stop  offset="1" style="stop-color:#231F20"/>
	</linearGradient>
	<path style="fill:url(#SVGID_475_);" d="M90,117.7c0,3-2.4,5.3-5.4,5.3H5.4c-3,0-5.4-2.4-5.4-5.3V5.3 C0,2.4,2.4,0,5.4,0h79.3c3,0,5.4,2.4,5.4,5.3v112.4H90z"/>
	<path style="fill:url(#SVGID_476_);" d="M13.2,22c-1.7-2-2.9-3-4-4.1l0,0l0,0l0,0c-0.9,0.9-2.2,2-4,4.1 c-2.6,2.8-0.2,7.4,3.3,5.2c-0.2,1.5-1,1.8-1.8,2.2v0.5h5.1v-0.5c-0.8-0.5-1.6-0.7-1.8-2.2C13.4,29.5,16.3,25.3,13.2,22L13.2,22z"/>
	<path style="fill:#231F20;" d="M9.5,14.7c-0.8,0-1.5-0.2-2.1-0.5c-0.6-0.4-1.1-0.9-1.4-1.6c-0.3-0.7-0.5-1.5-0.5-2.4V8.3 c0-1.1,0.2-2,0.6-2.8S7,4.2,7.7,3.8S9.1,3.2,10,3.2c0.4,0,0.8,0,1.2,0.1s0.7,0.2,1,0.3l-0.4,1.5C11.6,5.1,11.3,5,11,5 c-0.3-0.1-0.6-0.1-0.9-0.1c-0.7,0-1.3,0.3-1.7,0.8C7.9,6.1,7.7,6.9,7.7,7.9l0,0c0.3-0.3,0.6-0.5,1-0.6C9.1,7.1,9.6,7.1,10,7.1 c0.7,0,1.3,0.2,1.7,0.5c0.5,0.3,0.9,0.8,1.1,1.3c0.3,0.6,0.4,1.2,0.4,1.9c0,0.8-0.2,1.4-0.5,2s-0.7,1-1.3,1.4 C10.9,14.5,10.3,14.7,9.5,14.7z M9.5,13.1c0.3,0,0.6-0.1,0.9-0.3c0.2-0.2,0.4-0.5,0.6-0.8s0.2-0.7,0.2-1.2c0-0.6-0.2-1.1-0.5-1.5 C10.4,8.8,10,8.6,9.4,8.6c-0.3,0-0.5,0-0.7,0.1C8.5,8.8,8.3,8.9,8.1,9C7.9,9.1,7.8,9.3,7.7,9.5v0.8c0,0.9,0.2,1.6,0.5,2.1 C8.5,12.8,9,13.1,9.5,13.1z"/>
	<path style="opacity:0.3;fill:url(#SVGID_477_);enable-background:new    ;" d="M0,101v16.6c0,3,2.4,5.3,5.4,5.3 h79.3c3,0,5.4-2.4,5.4-5.3V42.2C48.6,44,13.7,67.9,0,101z"/>
	<path style="fill:url(#SVGID_478_);" d="M36.2,13.6c-2.9-3.5-5-5.2-6.9-7l0,0l0,0l0,0c-1.5,1.5-3.8,3.5-6.9,7 c-4.5,4.8-0.3,12.7,5.7,9c-0.4,2.6-1.8,3-3.2,3.8v0.8h8.7v-0.8c-1.4-0.8-2.8-1.2-3.2-3.8C36.6,26.4,41.6,19.2,36.2,13.6L36.2,13.6z "/>
	<path style="fill:url(#SVGID_479_);" d="M69.8,13.6c-2.9-3.5-5-5.2-6.9-7l0,0l0,0l0,0c-1.5,1.5-3.8,3.5-6.9,7 c-4.5,4.8-0.3,12.7,5.7,9c-0.4,2.6-1.8,3-3.2,3.8v0.8h8.7v-0.8c-1.4-0.8-2.8-1.2-3.2-3.8C70.2,26.4,75.2,19.2,69.8,13.6L69.8,13.6z "/>
	<path style="fill:url(#SVGID_480_);" d="M36.2,58.4c-2.9-3.5-5-5.2-6.9-7l0,0l0,0l0,0c-1.5,1.5-3.8,3.5-6.9,7 c-4.5,4.8-0.3,12.7,5.7,9c-0.4,2.6-1.8,3-3.2,3.8V72h8.7v-0.8c-1.4-0.8-2.8-1.2-3.2-3.8C36.6,71.3,41.6,64,36.2,58.4L36.2,58.4z"/>
	<path style="fill:url(#SVGID_481_);" d="M69.8,58.4c-2.9-3.5-5-5.2-6.9-7l0,0l0,0l0,0c-1.5,1.5-3.8,3.5-6.9,7 c-4.5,4.8-0.3,12.7,5.7,9c-0.4,2.6-1.8,3-3.2,3.8V72h8.7v-0.8c-1.4-0.8-2.8-1.2-3.2-3.8C70.2,71.3,75.2,64,69.8,58.4L69.8,58.4z"/>
	<path style="fill:url(#SVGID_482_);" d="M56.4,109.4c2.9,3.5,5,5.2,6.9,7l0,0l0,0l0,0c1.5-1.5,3.8-3.5,6.9-7 c4.5-4.8,0.3-12.7-5.7-9c0.4-2.6,1.8-3,3.2-3.8v-0.8H59v0.8c1.4,0.8,2.8,1.2,3.2,3.8C56.1,96.6,51.1,103.8,56.4,109.4L56.4,109.4z" />
	<path style="fill:url(#SVGID_483_);" d="M22.9,109.4c2.9,3.5,5,5.2,6.9,7l0,0l0,0l0,0c1.5-1.5,3.8-3.5,6.9-7 c4.5-4.8,0.3-12.7-5.7-9c0.4-2.6,1.8-3,3.2-3.8v-0.8h-8.7v0.8c1.4,0.8,2.8,1.2,3.2,3.8C22.5,96.6,17.5,103.8,22.9,109.4L22.9,109.4 z"/>
</svg>
