
<svg id="C2" viewBox="0 0 90 123" xmlns="http://www.w3.org/2000/svg">

		<linearGradient id="SVGID_153_" gradientUnits="userSpaceOnUse" x1="45.05" y1="123" x2="45.05" y2="0" gradientTransform="matrix(1 0 0 -1 0 123)">
		<stop  offset="0" style="stop-color:#F5F5F5"/>
		<stop  offset="1" style="stop-color:#D1D1D1"/>
	</linearGradient>
	<path style="display:inline;fill:url(#SVGID_153_);" d="M90,117.7c0,3-2.4,5.3-5.4,5.3H5.4c-3,0-5.4-2.4-5.4-5.3V5.3
		C0,2.4,2.4,0,5.4,0h79.3c3,0,5.4,2.4,5.4,5.3v112.4H90z"/>
	<g style="display:inline;">
		<path style="fill:#231F20;" d="M5.5,14.5v-1.4l3.6-3.9C9.5,8.8,9.8,8.4,10,8.1c0.2-0.3,0.4-0.6,0.5-0.9s0.1-0.5,0.1-0.8
			c0-0.5-0.1-0.9-0.4-1.2C10,5,9.6,4.8,9.1,4.8S8.1,5,7.8,5.3C7.5,5.7,7.4,6.2,7.4,6.8h-2l0,0c0-0.7,0.1-1.3,0.4-1.8s0.7-1,1.3-1.3
			s1.2-0.5,2-0.5s1.4,0.1,1.9,0.4s1,0.7,1.3,1.1c0.3,0.5,0.4,1,0.4,1.7c0,0.4-0.1,0.8-0.2,1.2c-0.2,0.4-0.4,0.8-0.7,1.2
			s-0.8,0.9-1.3,1.5l-2.3,2.5l0,0h3.1l0.1-1.1H13v2.7H5.5V14.5z"/>
	</g>
	
		<linearGradient id="SVGID_154_" gradientUnits="userSpaceOnUse" x1="45.05" y1="80.8" x2="45.05" y2="0.1" gradientTransform="matrix(1 0 0 -1 0 123)">
		<stop  offset="0" style="stop-color:#D0D2D3"/>
		<stop  offset="1" style="stop-color:#CCCECF"/>
	</linearGradient>
	<path style="display:inline;opacity:0.3;fill:url(#SVGID_154_);enable-background:new    ;" d="M0,101v16.6c0,3,2.4,5.3,5.4,5.3
		h79.3c3,0,5.4-2.4,5.4-5.3V42.2C48.6,44,13.7,67.9,0,101z"/>
	
		<linearGradient id="SVGID_155_" gradientUnits="userSpaceOnUse" x1="46.45" y1="115.9692" x2="46.45" y2="95.7817" gradientTransform="matrix(1 0 0 -1 0 123)">
		<stop  offset="0" style="stop-color:#4A4A4C"/>
		<stop  offset="0.3" style="stop-color:#404041"/>
		<stop  offset="1" style="stop-color:#231F20"/>
	</linearGradient>
	<path style="display:inline;fill:url(#SVGID_155_);" d="M52,15c-1.2,0-2.3,0.5-3.1,1.3c-0.3,0.3-0.9,0.8-1.5,1.1
		c0.3-1.1,1.2-2.5,1.8-3.1c0.8-0.8,1.3-1.9,1.3-3.1c0-2.3-1.9-4.2-4.2-4.3c-2.3,0-4.2,1.9-4.2,4.3c0,1.2,0.5,2.3,1.3,3.1
		c0.6,0.6,1.5,2,1.8,3.1c-0.6-0.4-1.2-0.8-1.5-1.1C43.1,15.5,42,15,40.8,15c-2.3,0-4.2,1.9-4.2,4.3s1.9,4.3,4.2,4.3
		c1.2,0,2.3-0.5,3.1-1.3c0.3-0.4,1-0.8,1.6-1.2c-0.1,3-1.5,4.5-3,5.4v0.8h7.9v-0.8c-1.5-0.9-2.9-2.4-3-5.4c0.7,0.4,1.3,0.8,1.6,1.2
		c0.8,0.8,1.9,1.3,3.1,1.3c2.3,0,4.2-1.9,4.2-4.3C56.3,17,54.4,15,52,15L52,15z"/>
	
		<linearGradient id="SVGID_156_" gradientUnits="userSpaceOnUse" x1="46.5428" y1="27.2509" x2="46.5428" y2="7.0634" gradientTransform="matrix(1 0 0 -1 0 123)">
		<stop  offset="0" style="stop-color:#4A4A4C"/>
		<stop  offset="0.3" style="stop-color:#404041"/>
		<stop  offset="1" style="stop-color:#231F20"/>
	</linearGradient>
	<path style="display:inline;fill:url(#SVGID_156_);" d="M40.8,107.9c1.2,0,2.3-0.5,3.1-1.3c0.3-0.3,0.9-0.8,1.5-1.1
		c-0.3,1.1-1.2,2.5-1.8,3.1c-0.8,0.8-1.3,1.9-1.3,3.1c0,2.3,1.9,4.2,4.2,4.3c2.3,0,4.2-1.9,4.2-4.3c0-1.2-0.5-2.3-1.3-3.1
		c-0.6-0.6-1.5-2-1.8-3.1c0.6,0.4,1.2,0.8,1.5,1.1c0.8,0.8,1.9,1.3,3.1,1.3c2.3,0,4.2-1.9,4.2-4.3s-1.9-4.3-4.2-4.3
		c-1.2,0-2.3,0.5-3.1,1.3c-0.3,0.4-1,0.8-1.6,1.2c0.1-3,1.5-4.5,3-5.4v-0.8h-7.9v0.8c1.5,0.9,2.9,2.4,3,5.4
		c-0.7-0.4-1.3-0.8-1.6-1.2c-0.8-0.8-1.9-1.3-3.1-1.3c-2.3,0-4.2,1.9-4.2,4.3C36.5,106,38.4,107.9,40.8,107.9L40.8,107.9z"/>
	
		<linearGradient id="SVGID_157_" gradientUnits="userSpaceOnUse" x1="9.25" y1="104.7147" x2="9.25" y2="93.0647" gradientTransform="matrix(1 0 0 -1 0 123)">
		<stop  offset="0" style="stop-color:#4A4A4C"/>
		<stop  offset="0.3" style="stop-color:#404041"/>
		<stop  offset="1" style="stop-color:#231F20"/>
	</linearGradient>
	<path style="display:inline;fill:url(#SVGID_157_);" d="M12.4,22.9c-0.7,0-1.3,0.3-1.8,0.8c-0.2,0.2-0.5,0.4-0.9,0.6
		c0.2-0.6,0.7-1.4,1.1-1.8c0.5-0.4,0.8-1.1,0.8-1.8c0-1.4-1.1-2.4-2.4-2.5c-1.3,0-2.4,1.1-2.4,2.5c0,0.7,0.3,1.3,0.8,1.8
		c0.4,0.3,0.9,1.1,1.1,1.8c-0.4-0.2-0.7-0.4-0.9-0.6c-0.4-0.5-1.1-0.8-1.8-0.8c-1.4,0-2.4,1.1-2.4,2.5s1.1,2.5,2.4,2.5
		c0.7,0,1.3-0.3,1.8-0.8c0.2-0.2,0.5-0.5,0.9-0.7c0,1.7-0.9,2.6-1.7,3.1v0.4h4.5v-0.4c-0.8-0.5-1.7-1.4-1.7-3.1
		c0.4,0.2,0.7,0.5,0.9,0.7c0.4,0.5,1.1,0.8,1.8,0.8c1.4,0,2.4-1.1,2.4-2.5C14.9,24,13.8,22.9,12.4,22.9L12.4,22.9z"/>
</svg>
