
<svg id="C4" viewBox="0 0 90 123" xmlns="http://www.w3.org/2000/svg">

		<linearGradient id="SVGID_164_" gradientUnits="userSpaceOnUse" x1="45.05" y1="123" x2="45.05" y2="0" gradientTransform="matrix(1 0 0 -1 0 123)">
		<stop  offset="0" style="stop-color:#F5F5F5"/>
		<stop  offset="1" style="stop-color:#D1D1D1"/>
	</linearGradient>
	<path style="display:inline;fill:url(#SVGID_164_);" d="M90,117.7c0,3-2.4,5.3-5.4,5.3H5.4c-3,0-5.4-2.4-5.4-5.3V5.3
		C0,2.4,2.4,0,5.4,0h79.3c3,0,5.4,2.4,5.4,5.3v112.4H90z"/>
	<g style="display:inline;">
		<path style="fill:#231F20;" d="M8.6,14.5v-1.3L9.9,13v-1.2H5.2l-0.1-1l4.7-7.5h2.1v7.1h1.3v1.4h-1.3V13l1.2,0.2v1.3H8.6z
			 M7.1,10.5h2.8V6.2l0,0L9.6,6.5L7.1,10.5z"/>
	</g>
	
		<linearGradient id="SVGID_165_" gradientUnits="userSpaceOnUse" x1="45.05" y1="80.8" x2="45.05" y2="0.1" gradientTransform="matrix(1 0 0 -1 0 123)">
		<stop  offset="0" style="stop-color:#D0D2D3"/>
		<stop  offset="1" style="stop-color:#CCCECF"/>
	</linearGradient>
	<path style="display:inline;opacity:0.3;fill:url(#SVGID_165_);enable-background:new    ;" d="M0,101v16.6c0,3,2.4,5.3,5.4,5.3
		h79.3c3,0,5.4-2.4,5.4-5.3V42.2C48.6,44,13.7,67.9,0,101z"/>
	
		<linearGradient id="SVGID_166_" gradientUnits="userSpaceOnUse" x1="29.45" y1="116.0025" x2="29.45" y2="95.815" gradientTransform="matrix(1 0 0 -1 0 123)">
		<stop  offset="0" style="stop-color:#4A4A4C"/>
		<stop  offset="0.3" style="stop-color:#404041"/>
		<stop  offset="1" style="stop-color:#231F20"/>
	</linearGradient>
	<path style="display:inline;fill:url(#SVGID_166_);" d="M35.1,15c-1.2,0-2.3,0.5-3.1,1.3c-0.3,0.3-0.9,0.8-1.5,1.1
		c0.3-1.1,1.2-2.5,1.8-3.1c0.8-0.8,1.3-1.9,1.3-3.1c0-2.3-1.9-4.2-4.2-4.3c-2.3,0-4.2,1.9-4.2,4.3c0,1.2,0.5,2.3,1.3,3.1
		c0.6,0.6,1.5,2,1.8,3.1c-0.6-0.4-1.2-0.8-1.5-1.1c-0.7-0.8-1.8-1.3-3-1.3c-2.3,0-4.2,1.9-4.2,4.3s1.9,4.3,4.2,4.3
		c1.2,0,2.3-0.5,3.1-1.3c0.3-0.4,1-0.8,1.6-1.2c-0.1,3-1.5,4.5-3,5.4v0.8h7.9v-0.8c-1.5-0.9-2.9-2.4-3-5.4c0.7,0.4,1.3,0.8,1.6,1.2
		c0.8,0.8,1.9,1.3,3.1,1.3c2.3,0,4.2-1.9,4.2-4.3S37.4,15,35.1,15L35.1,15z"/>
	
		<linearGradient id="SVGID_167_" gradientUnits="userSpaceOnUse" x1="63" y1="116" x2="63" y2="95.8125" gradientTransform="matrix(1 0 0 -1 0 123)">
		<stop  offset="0" style="stop-color:#4A4A4C"/>
		<stop  offset="0.3" style="stop-color:#404041"/>
		<stop  offset="1" style="stop-color:#231F20"/>
	</linearGradient>
	<path style="display:inline;fill:url(#SVGID_167_);" d="M68.7,15c-1.2,0-2.3,0.5-3.1,1.3c-0.3,0.3-0.9,0.8-1.5,1.1
		c0.3-1.1,1.2-2.5,1.8-3.1c0.8-0.8,1.3-1.9,1.3-3.1C67.2,8.9,65.4,7,63,7c-2.3,0-4.2,1.9-4.2,4.3c0,1.2,0.5,2.3,1.3,3.1
		c0.6,0.6,1.5,2,1.8,3.1c-0.6-0.4-1.2-0.8-1.5-1.1c-0.8-0.8-1.9-1.3-3.1-1.3c-2.3,0-4.2,1.9-4.2,4.3s1.9,4.3,4.2,4.3
		c1.2,0,2.3-0.5,3.1-1.3c0.3-0.4,1-0.8,1.6-1.2c-0.1,3-1.5,4.5-3,5.4v0.8h8v-0.8c-1.5-0.9-2.9-2.4-3-5.4c0.7,0.4,1.3,0.8,1.6,1.2
		c0.8,0.8,1.9,1.3,3.1,1.3c2.3,0,4.2-1.9,4.2-4.3C72.9,16.9,71,15,68.7,15L68.7,15z"/>
	
		<linearGradient id="SVGID_168_" gradientUnits="userSpaceOnUse" x1="63.1481" y1="27.2849" x2="63.1481" y2="7.0974" gradientTransform="matrix(1 0 0 -1 0 123)">
		<stop  offset="0" style="stop-color:#4A4A4C"/>
		<stop  offset="0.3" style="stop-color:#404041"/>
		<stop  offset="1" style="stop-color:#231F20"/>
	</linearGradient>
	<path style="display:inline;fill:url(#SVGID_168_);" d="M57.4,107.9c1.2,0,2.3-0.5,3.1-1.3c0.3-0.3,0.9-0.8,1.5-1.1
		c-0.3,1.1-1.2,2.5-1.8,3.1c-0.8,0.8-1.3,1.9-1.3,3.1c0,2.3,1.9,4.2,4.2,4.3c2.3,0,4.2-1.9,4.2-4.3c0-1.2-0.5-2.3-1.3-3.1
		c-0.6-0.6-1.5-2-1.8-3.1c0.6,0.4,1.2,0.8,1.5,1.1c0.8,0.8,1.9,1.3,3.1,1.3c2.3,0,4.2-1.9,4.2-4.3s-1.9-4.3-4.2-4.3
		c-1.2,0-2.3,0.5-3.1,1.3c-0.3,0.4-1,0.8-1.6,1.2c0.1-3,1.5-4.5,3-5.4v-0.8h-7.9v0.8c1.5,0.9,2.9,2.4,3,5.4
		c-0.7-0.4-1.3-0.8-1.6-1.2c-0.8-0.8-1.9-1.3-3.1-1.3c-2.3,0-4.2,1.9-4.2,4.3C53.2,106,55.1,107.9,57.4,107.9L57.4,107.9z"/>
	
		<linearGradient id="SVGID_169_" gradientUnits="userSpaceOnUse" x1="29.5481" y1="27.2849" x2="29.5481" y2="7.0974" gradientTransform="matrix(1 0 0 -1 0 123)">
		<stop  offset="0" style="stop-color:#4A4A4C"/>
		<stop  offset="0.3" style="stop-color:#404041"/>
		<stop  offset="1" style="stop-color:#231F20"/>
	</linearGradient>
	<path style="display:inline;fill:url(#SVGID_169_);" d="M23.8,107.9c1.2,0,2.3-0.5,3.1-1.3c0.3-0.3,0.9-0.8,1.5-1.1
		c-0.3,1.1-1.2,2.5-1.8,3.1c-0.8,0.8-1.3,1.9-1.3,3.1c0,2.3,1.9,4.2,4.2,4.3c2.3,0,4.2-1.9,4.2-4.3c0-1.2-0.5-2.3-1.3-3.1
		c-0.6-0.6-1.5-2-1.8-3.1c0.6,0.4,1.2,0.8,1.5,1.1c0.8,0.8,1.9,1.3,3.1,1.3c2.3,0,4.2-1.9,4.2-4.3s-1.9-4.3-4.2-4.3
		c-1.2,0-2.3,0.5-3.1,1.3c-0.3,0.4-1,0.8-1.6,1.2c0.1-3,1.5-4.5,3-5.4v-0.8h-7.9v0.8c1.5,0.9,2.9,2.4,3,5.4
		c-0.7-0.4-1.3-0.8-1.6-1.2c-0.8-0.8-1.9-1.3-3.1-1.3c-2.3,0-4.2,1.9-4.2,4.3C19.6,106,21.5,107.9,23.8,107.9L23.8,107.9z"/>
	
		<linearGradient id="SVGID_170_" gradientUnits="userSpaceOnUse" x1="9.25" y1="104.688" x2="9.25" y2="93.038" gradientTransform="matrix(1 0 0 -1 0 123)">
		<stop  offset="0" style="stop-color:#4A4A4C"/>
		<stop  offset="0.3" style="stop-color:#404041"/>
		<stop  offset="1" style="stop-color:#231F20"/>
	</linearGradient>
	<path style="display:inline;fill:url(#SVGID_170_);" d="M12.4,22.9c-0.7,0-1.3,0.3-1.8,0.8c-0.2,0.2-0.5,0.4-0.9,0.6
		c0.2-0.6,0.7-1.4,1.1-1.8c0.5-0.4,0.8-1.1,0.8-1.8c0-1.4-1.1-2.4-2.4-2.5c-1.3,0-2.4,1.1-2.4,2.5c0,0.7,0.3,1.3,0.8,1.8
		c0.4,0.4,0.9,1.1,1.1,1.8c-0.4-0.2-0.7-0.4-0.9-0.6c-0.4-0.5-1.1-0.8-1.8-0.8c-1.4,0-2.4,1.1-2.4,2.5s1.1,2.5,2.4,2.5
		c0.7,0,1.3-0.3,1.8-0.8c0.2-0.2,0.5-0.5,0.9-0.7c0,1.7-0.9,2.6-1.7,3.1V30h4.5v-0.4c-0.8-0.5-1.7-1.4-1.7-3.1
		c0.4,0.2,0.7,0.5,0.9,0.7c0.4,0.5,1.1,0.8,1.8,0.8c1.4,0,2.4-1.1,2.4-2.5C14.8,24,13.7,22.9,12.4,22.9L12.4,22.9z"/>

</svg>
