
<svg id="C6" viewBox="0 0 90 123" xmlns="http://www.w3.org/2000/svg">
	<linearGradient id="SVGID_179_" gradientUnits="userSpaceOnUse" x1="45.05" y1="123" x2="45.05" y2="0" gradientTransform="matrix(1 0 0 -1 0 123)">
		<stop  offset="0" style="stop-color:#F5F5F5"/>
		<stop  offset="1" style="stop-color:#D1D1D1"/>
	</linearGradient>
	<linearGradient id="SVGID_180_" gradientUnits="userSpaceOnUse" x1="45.05" y1="80.8" x2="45.05" y2="0.1" gradientTransform="matrix(1 0 0 -1 0 123)">
		<stop  offset="0" style="stop-color:#D0D2D3"/>
		<stop  offset="1" style="stop-color:#CCCECF"/>
	</linearGradient>
	<linearGradient id="SVGID_181_" gradientUnits="userSpaceOnUse" x1="29.3572" y1="116.0861" x2="29.3572" y2="95.8986" gradientTransform="matrix(1 0 0 -1 0 123)">
		<stop  offset="0" style="stop-color:#4A4A4C"/>
		<stop  offset="0.3" style="stop-color:#404041"/>
		<stop  offset="1" style="stop-color:#231F20"/>
	</linearGradient>
	<linearGradient id="SVGID_182_" gradientUnits="userSpaceOnUse" x1="63.0019" y1="116.0861" x2="63.0019" y2="95.8986" gradientTransform="matrix(1 0 0 -1 0 123)">
		<stop  offset="0" style="stop-color:#4A4A4C"/>
		<stop  offset="0.3" style="stop-color:#404041"/>
		<stop  offset="1" style="stop-color:#231F20"/>
	</linearGradient>
	<linearGradient id="SVGID_183_" gradientUnits="userSpaceOnUse" x1="29.3572" y1="70.9618" x2="29.3572" y2="50.7737" gradientTransform="matrix(1 0 0 -1 0 123)">
		<stop  offset="0" style="stop-color:#4A4A4C"/>
		<stop  offset="0.3" style="stop-color:#404041"/>
		<stop  offset="1" style="stop-color:#231F20"/>
	</linearGradient>
	<linearGradient id="SVGID_184_" gradientUnits="userSpaceOnUse" x1="63.0019" y1="70.9618" x2="63.0019" y2="50.7737" gradientTransform="matrix(1 0 0 -1 0 123)">
		<stop  offset="0" style="stop-color:#4A4A4C"/>
		<stop  offset="0.3" style="stop-color:#404041"/>
		<stop  offset="1" style="stop-color:#231F20"/>
	</linearGradient>
	<linearGradient id="SVGID_185_" gradientUnits="userSpaceOnUse" x1="63.1481" y1="27.3698" x2="63.1481" y2="7.1823" gradientTransform="matrix(1 0 0 -1 0 123)">
		<stop  offset="0" style="stop-color:#4A4A4C"/>
		<stop  offset="0.3" style="stop-color:#404041"/>
		<stop  offset="1" style="stop-color:#231F20"/>
	</linearGradient>
	<linearGradient id="SVGID_186_" gradientUnits="userSpaceOnUse" x1="29.6428" y1="27.3698" x2="29.6428" y2="7.1823" gradientTransform="matrix(1 0 0 -1 0 123)">
		<stop  offset="0" style="stop-color:#4A4A4C"/>
		<stop  offset="0.3" style="stop-color:#404041"/>
		<stop  offset="1" style="stop-color:#231F20"/>
	</linearGradient>
	<linearGradient id="SVGID_187_" gradientUnits="userSpaceOnUse" x1="9.25" y1="104.7715" x2="9.25" y2="93.1216" gradientTransform="matrix(1 0 0 -1 0 123)">
		<stop  offset="0" style="stop-color:#4A4A4C"/>
		<stop  offset="0.3" style="stop-color:#404041"/>
		<stop  offset="1" style="stop-color:#231F20"/>
	</linearGradient>
	<path style="fill:url(#SVGID_179_);" d="M90,117.7c0,3-2.4,5.3-5.4,5.3H5.4c-3,0-5.4-2.4-5.4-5.3V5.3 C0,2.4,2.4,0,5.4,0h79.3c3,0,5.4,2.4,5.4,5.3v112.4H90z"/>
	<path style="fill:#231F20;" d="M9.5,14.7c-0.8,0-1.5-0.2-2.1-0.5c-0.6-0.4-1.1-0.9-1.4-1.6c-0.3-0.7-0.5-1.5-0.5-2.4V8.3 c0-1.1,0.2-2,0.6-2.8S7,4.2,7.7,3.8S9.1,3.2,10,3.2c0.4,0,0.8,0,1.2,0.1s0.7,0.2,1,0.3l-0.4,1.5C11.6,5.1,11.3,5,11,5 c-0.3-0.1-0.6-0.1-0.9-0.1c-0.7,0-1.3,0.3-1.7,0.8C7.9,6.1,7.7,6.9,7.7,7.9l0,0c0.3-0.3,0.6-0.5,1-0.6C9.1,7.1,9.6,7.1,10,7.1 c0.7,0,1.3,0.2,1.7,0.5c0.5,0.3,0.9,0.8,1.1,1.3c0.3,0.6,0.4,1.2,0.4,1.9c0,0.8-0.2,1.4-0.5,2s-0.7,1-1.3,1.4 C10.9,14.5,10.3,14.7,9.5,14.7z M9.5,13.1c0.3,0,0.6-0.1,0.9-0.3c0.2-0.2,0.4-0.5,0.6-0.8s0.2-0.7,0.2-1.2c0-0.6-0.2-1.1-0.5-1.5 C10.4,8.8,10,8.6,9.4,8.6c-0.3,0-0.5,0-0.7,0.1C8.5,8.8,8.3,8.9,8.1,9C7.9,9.1,7.8,9.3,7.7,9.5v0.8c0,0.9,0.2,1.6,0.5,2.1 C8.5,12.8,9,13.1,9.5,13.1z"/>
	<path style="opacity:0.3;fill:url(#SVGID_180_);enable-background:new    ;" d="M0,101v16.6c0,3,2.4,5.3,5.4,5.3 h79.3c3,0,5.4-2.4,5.4-5.3V42.2C48.6,44,13.7,67.9,0,101z"/>
	<path style="fill:url(#SVGID_181_);" d="M35.1,14.9c-1.2,0-2.3,0.5-3.1,1.3c-0.3,0.3-0.9,0.8-1.5,1.1 c0.3-1.1,1.2-2.5,1.8-3.1c0.8-0.8,1.3-1.9,1.3-3.1c0-2.3-1.9-4.2-4.2-4.3c-2.3,0-4.2,1.9-4.2,4.3c0,1.2,0.5,2.3,1.3,3.1 c0.6,0.6,1.5,2,1.8,3.1c-0.6-0.4-1.2-0.8-1.5-1.1c-0.8-0.8-1.9-1.3-3.1-1.3c-2.3,0-4.2,1.9-4.2,4.3s1.9,4.3,4.2,4.3 c1.2,0,2.3-0.5,3.1-1.3c0.3-0.4,1-0.8,1.6-1.2c-0.1,3-1.5,4.5-3,5.4v0.8h7.9v-0.8c-1.5-0.9-2.9-2.4-3-5.4c0.7,0.4,1.3,0.8,1.6,1.2 c0.8,0.8,1.9,1.3,3.1,1.3c2.3,0,4.2-1.9,4.2-4.3C39.4,16.8,37.5,14.9,35.1,14.9L35.1,14.9z"/>
	<path style="fill:url(#SVGID_182_);" d="M68.7,14.9c-1.2,0-2.3,0.5-3.1,1.3c-0.3,0.3-0.9,0.8-1.5,1.1 c0.3-1.1,1.2-2.5,1.8-3.1c0.8-0.8,1.3-1.9,1.3-3.1c0-2.3-1.9-4.2-4.2-4.3c-2.3,0-4.2,1.9-4.2,4.3c0,1.2,0.5,2.3,1.3,3.1 c0.6,0.6,1.5,2,1.8,3.1c-0.6-0.4-1.2-0.8-1.5-1.1c-0.8-0.8-1.9-1.3-3.1-1.3c-2.3,0-4.2,1.9-4.2,4.3s1.9,4.3,4.2,4.3 c1.2,0,2.3-0.5,3.1-1.3c0.3-0.4,1-0.8,1.6-1.2c-0.1,3-1.5,4.5-3,5.4v0.8h8v-0.8c-1.5-0.9-2.9-2.4-3-5.4c0.7,0.4,1.3,0.8,1.6,1.2 c0.8,0.8,1.9,1.3,3.1,1.3c2.3,0,4.2-1.9,4.2-4.3C73,16.8,71.1,14.9,68.7,14.9L68.7,14.9z"/>
	<path style="fill:url(#SVGID_183_);" d="M35.1,60c-1.2,0-2.3,0.5-3.1,1.3c-0.3,0.3-0.9,0.8-1.5,1.1 c0.3-1.1,1.2-2.5,1.8-3.1c0.8-0.8,1.3-1.9,1.3-3.1c0-2.3-1.9-4.2-4.2-4.3c-2.3,0-4.2,1.9-4.2,4.3c0,1.2,0.5,2.3,1.3,3.1 c0.6,0.6,1.5,2,1.8,3.1c-0.6-0.4-1.2-0.8-1.5-1.1C26,60.5,24.9,60,23.7,60c-2.3,0-4.2,1.9-4.2,4.3s1.9,4.3,4.2,4.3 c1.2,0,2.3-0.5,3.1-1.3c0.3-0.4,1-0.8,1.6-1.2c-0.1,3-1.5,4.5-3,5.4v0.8h7.9v-0.8c-1.5-0.9-2.9-2.4-3-5.4c0.7,0.4,1.3,0.8,1.6,1.2 c0.8,0.8,1.9,1.3,3.1,1.3c2.3,0,4.2-1.9,4.2-4.3C39.4,62,37.5,60,35.1,60L35.1,60z"/>
	<path style="fill:url(#SVGID_184_);" d="M68.7,60c-1.2,0-2.3,0.5-3.1,1.3c-0.3,0.3-0.9,0.8-1.5,1.1 c0.3-1.1,1.2-2.5,1.8-3.1c0.8-0.8,1.3-1.9,1.3-3.1c0-2.3-1.9-4.2-4.2-4.3c-2.3,0-4.2,1.9-4.2,4.3c0,1.2,0.5,2.3,1.3,3.1 c0.6,0.6,1.5,2,1.8,3.1c-0.6-0.4-1.2-0.8-1.5-1.1c-0.8-0.8-1.9-1.3-3.1-1.3c-2.3,0-4.2,1.9-4.2,4.3s1.9,4.3,4.2,4.3 c1.2,0,2.3-0.5,3.1-1.3c0.3-0.4,1-0.8,1.6-1.2c-0.1,3-1.5,4.5-3,5.4v0.8h8v-0.8c-1.5-0.9-2.9-2.4-3-5.4c0.7,0.4,1.3,0.8,1.6,1.2 c0.8,0.8,1.9,1.3,3.1,1.3c2.3,0,4.2-1.9,4.2-4.3C73,62,71.1,60,68.7,60L68.7,60z"/>
	<path style="fill:url(#SVGID_185_);" d="M57.4,107.8c1.2,0,2.3-0.5,3.1-1.3c0.3-0.3,0.9-0.8,1.5-1.1 c-0.3,1.1-1.2,2.5-1.8,3.1c-0.8,0.8-1.3,1.9-1.3,3.1c0,2.3,1.9,4.2,4.2,4.3c2.3,0,4.2-1.9,4.2-4.3c0-1.2-0.5-2.3-1.3-3.1 c-0.6-0.6-1.5-2-1.8-3.1c0.6,0.4,1.2,0.8,1.5,1.1c0.8,0.8,1.9,1.3,3.1,1.3c2.3,0,4.2-1.9,4.2-4.3s-1.9-4.3-4.2-4.3 c-1.2,0-2.3,0.5-3.1,1.3c-0.3,0.4-1,0.8-1.6,1.2c0.1-3,1.5-4.5,3-5.4v-0.8h-7.9v0.8c1.5,0.9,2.9,2.4,3,5.4 c-0.7-0.4-1.3-0.8-1.6-1.2c-0.8-0.8-1.9-1.3-3.1-1.3c-2.3,0-4.2,1.9-4.2,4.3C53.2,105.9,55.1,107.8,57.4,107.8L57.4,107.8z"/>
	<path style="fill:url(#SVGID_186_);" d="M23.9,107.8c1.2,0,2.3-0.5,3.1-1.3c0.3-0.3,0.9-0.8,1.5-1.1 c-0.3,1.1-1.2,2.5-1.8,3.1c-0.8,0.8-1.3,1.9-1.3,3.1c0,2.3,1.9,4.2,4.2,4.3c2.3,0,4.2-1.9,4.2-4.3c0-1.2-0.5-2.3-1.3-3.1 c-0.6-0.6-1.5-2-1.8-3.1c0.6,0.4,1.2,0.8,1.5,1.1c0.8,0.8,1.9,1.3,3.1,1.3c2.3,0,4.2-1.9,4.2-4.3s-1.9-4.3-4.2-4.3 c-1.2,0-2.3,0.5-3.1,1.3c-0.3,0.4-1,0.8-1.6,1.2c0.1-3,1.5-4.5,3-5.4v-0.8h-7.9v0.8c1.5,0.9,2.9,2.4,3,5.4 c-0.7-0.4-1.3-0.8-1.6-1.2c-0.8-0.8-1.9-1.3-3.1-1.3c-2.3,0-4.2,1.9-4.2,4.3C19.6,105.9,21.5,107.8,23.9,107.8L23.9,107.8z"/>
	<path style="fill:url(#SVGID_187_);" d="M12.4,22.9c-0.7,0-1.3,0.3-1.8,0.8c-0.2,0.2-0.5,0.4-0.9,0.6 c0.2-0.6,0.7-1.4,1.1-1.8c0.5-0.4,0.8-1.1,0.8-1.8c0-1.4-1.1-2.4-2.4-2.5c-1.3,0-2.4,1.1-2.4,2.5c0,0.7,0.3,1.3,0.8,1.8 c0.4,0.4,0.9,1.1,1.1,1.8c-0.4-0.2-0.7-0.4-0.9-0.6c-0.4-0.5-1.1-0.8-1.8-0.8c-1.4,0-2.4,1.1-2.4,2.5s1.1,2.5,2.4,2.5 c0.7,0,1.3-0.3,1.8-0.8c0.2-0.2,0.5-0.5,0.9-0.7c0,1.7-0.9,2.6-1.7,3.1v0.4h4.5v-0.4c-0.8-0.5-1.7-1.4-1.7-3.1 c0.4,0.2,0.7,0.5,0.9,0.7c0.4,0.5,1.1,0.8,1.8,0.8c1.4,0,2.4-1.1,2.4-2.5C14.9,24,13.8,22.9,12.4,22.9L12.4,22.9z"/>
</svg>
