
<svg id="C7" viewBox="0 0 90 123" xmlns="http://www.w3.org/2000/svg">

		<linearGradient id="SVGID_188_" gradientUnits="userSpaceOnUse" x1="45.05" y1="123" x2="45.05" y2="0" gradientTransform="matrix(1 0 0 -1 0 123)">
		<stop  offset="0" style="stop-color:#F5F5F5"/>
		<stop  offset="1" style="stop-color:#D1D1D1"/>
	</linearGradient>
	<path style="display:inline;fill:url(#SVGID_188_);" d="M90,117.7c0,3-2.4,5.3-5.4,5.3H5.4c-3,0-5.4-2.4-5.4-5.3V5.3
		C0,2.4,2.4,0,5.4,0h79.3c3,0,5.4,2.4,5.4,5.3v112.4H90z"/>
	<g style="display:inline;">
		<path style="fill:#231F20;" d="M7.5,14.5l0.1-1.1c0.1-1.1,0.3-2.2,0.6-3.1c0.3-1,0.7-1.9,1.2-2.8C10,6.6,10.5,5.8,11.2,5H7.1
			L7,6.1H5.4V3.4h7.8V5c-0.6,0.7-1.1,1.4-1.5,2.1c-0.4,0.6-0.7,1.3-1,1.9s-0.5,1.3-0.6,2s-0.3,1.5-0.4,2.4l-0.1,1.1H7.5z"/>
	</g>
	
		<linearGradient id="SVGID_189_" gradientUnits="userSpaceOnUse" x1="45.05" y1="80.8" x2="45.05" y2="0.1" gradientTransform="matrix(1 0 0 -1 0 123)">
		<stop  offset="0" style="stop-color:#D0D2D3"/>
		<stop  offset="1" style="stop-color:#CCCECF"/>
	</linearGradient>
	<path style="display:inline;opacity:0.3;fill:url(#SVGID_189_);enable-background:new    ;" d="M0,101v16.6c0,3,2.4,5.3,5.4,5.3
		h79.3c3,0,5.4-2.4,5.4-5.3V42.2C48.6,44,13.7,67.9,0,101z"/>
	
		<linearGradient id="SVGID_190_" gradientUnits="userSpaceOnUse" x1="29.3519" y1="115.9516" x2="29.3519" y2="95.7641" gradientTransform="matrix(1 0 0 -1 0 123)">
		<stop  offset="0" style="stop-color:#4A4A4C"/>
		<stop  offset="0.3" style="stop-color:#404041"/>
		<stop  offset="1" style="stop-color:#231F20"/>
	</linearGradient>
	<path style="display:inline;fill:url(#SVGID_190_);" d="M35.1,15.1c-1.2,0-2.3,0.5-3.1,1.3c-0.3,0.3-0.9,0.8-1.5,1.1
		c0.3-1.1,1.2-2.5,1.8-3.1c0.8-0.8,1.3-1.9,1.3-3.1c0-2.3-1.9-4.2-4.2-4.3c-2.3,0-4.2,1.9-4.2,4.3c0,1.2,0.5,2.3,1.3,3.1
		c0.6,0.6,1.5,2,1.8,3.1c-0.6-0.4-1.2-0.8-1.5-1.1c-0.8-0.8-1.9-1.3-3.1-1.3c-2.3,0-4.2,1.9-4.2,4.3s1.9,4.3,4.2,4.3
		c1.2,0,2.3-0.5,3.1-1.3c0.3-0.4,1-0.8,1.6-1.2c-0.1,3-1.5,4.5-3,5.4v0.8h7.9v-0.8c-1.5-0.9-2.9-2.4-3-5.4c0.7,0.4,1.3,0.8,1.6,1.2
		c0.8,0.8,1.9,1.3,3.1,1.3c2.3,0,4.2-1.9,4.2-4.3C39.3,17,37.4,15.1,35.1,15.1L35.1,15.1z"/>
	
		<linearGradient id="SVGID_191_" gradientUnits="userSpaceOnUse" x1="63" y1="115.9516" x2="63" y2="95.7641" gradientTransform="matrix(1 0 0 -1 0 123)">
		<stop  offset="0" style="stop-color:#4A4A4C"/>
		<stop  offset="0.3" style="stop-color:#404041"/>
		<stop  offset="1" style="stop-color:#231F20"/>
	</linearGradient>
	<path style="display:inline;fill:url(#SVGID_191_);" d="M68.7,15.1c-1.2,0-2.3,0.5-3.1,1.3c-0.3,0.3-0.9,0.8-1.5,1.1
		c0.3-1.1,1.2-2.5,1.8-3.1c0.8-0.8,1.3-1.9,1.3-3.1C67.2,9,65.4,7.1,63,7c-2.3,0-4.2,1.9-4.2,4.3c0,1.2,0.5,2.3,1.3,3.1
		c0.6,0.6,1.5,2,1.8,3.1c-0.6-0.4-1.2-0.8-1.5-1.1c-0.8-0.8-1.9-1.3-3.1-1.3c-2.3,0-4.2,1.9-4.2,4.3s1.9,4.3,4.2,4.3
		c1.2,0,2.3-0.5,3.1-1.3c0.3-0.4,1-0.8,1.6-1.2c-0.1,3-1.5,4.5-3,5.4v0.8h8v-0.8c-1.5-0.9-2.9-2.4-3-5.4c0.7,0.4,1.3,0.8,1.6,1.2
		c0.8,0.8,1.9,1.3,3.1,1.3c2.3,0,4.2-1.9,4.2-4.3C72.9,17,71,15.1,68.7,15.1L68.7,15.1z"/>
	
		<linearGradient id="SVGID_192_" gradientUnits="userSpaceOnUse" x1="29.3519" y1="70.8274" x2="29.3519" y2="50.6392" gradientTransform="matrix(1 0 0 -1 0 123)">
		<stop  offset="0" style="stop-color:#4A4A4C"/>
		<stop  offset="0.3" style="stop-color:#404041"/>
		<stop  offset="1" style="stop-color:#231F20"/>
	</linearGradient>
	<path style="display:inline;fill:url(#SVGID_192_);" d="M35.1,60.2c-1.2,0-2.3,0.5-3.1,1.3c-0.3,0.3-0.9,0.8-1.5,1.1
		c0.3-1.1,1.2-2.5,1.8-3.1c0.8-0.8,1.3-1.9,1.3-3.1c0-2.3-1.9-4.2-4.2-4.3c-2.3,0-4.2,1.9-4.2,4.3c0,1.2,0.5,2.3,1.3,3.1
		c0.6,0.6,1.5,2,1.8,3.1c-0.6-0.4-1.2-0.8-1.5-1.1c-0.8-0.8-1.9-1.3-3.1-1.3c-2.3,0-4.2,1.9-4.2,4.3c0,2.4,1.9,4.3,4.2,4.3
		c1.2,0,2.3-0.5,3.1-1.3c0.3-0.4,1-0.8,1.6-1.2c-0.1,3-1.5,4.5-3,5.4v0.8h7.9v-0.8c-1.5-0.9-2.9-2.4-3-5.4c0.7,0.4,1.3,0.8,1.6,1.2
		c0.8,0.8,1.9,1.3,3.1,1.3c2.3,0,4.2-1.9,4.2-4.3C39.3,62.1,37.4,60.2,35.1,60.2L35.1,60.2z"/>
	
		<linearGradient id="SVGID_193_" gradientUnits="userSpaceOnUse" x1="63" y1="70.8274" x2="63" y2="50.6392" gradientTransform="matrix(1 0 0 -1 0 123)">
		<stop  offset="0" style="stop-color:#4A4A4C"/>
		<stop  offset="0.3" style="stop-color:#404041"/>
		<stop  offset="1" style="stop-color:#231F20"/>
	</linearGradient>
	<path style="display:inline;fill:url(#SVGID_193_);" d="M68.7,60.2c-1.2,0-2.3,0.5-3.1,1.3c-0.3,0.3-0.9,0.8-1.5,1.1
		c0.3-1.1,1.2-2.5,1.8-3.1c0.8-0.8,1.3-1.9,1.3-3.1c0-2.3-1.9-4.2-4.2-4.3c-2.3,0-4.2,1.9-4.2,4.3c0,1.2,0.5,2.3,1.3,3.1
		c0.6,0.6,1.5,2,1.8,3.1c-0.6-0.4-1.2-0.8-1.5-1.1c-0.8-0.8-1.9-1.3-3.1-1.3c-2.3,0-4.2,1.9-4.2,4.3c0,2.4,1.9,4.3,4.2,4.3
		c1.2,0,2.3-0.5,3.1-1.3c0.3-0.4,1-0.8,1.6-1.2c-0.1,3-1.5,4.5-3,5.4v0.8h8v-0.8c-1.5-0.9-2.9-2.4-3-5.4c0.7,0.4,1.3,0.8,1.6,1.2
		c0.8,0.8,1.9,1.3,3.1,1.3c2.3,0,4.2-1.9,4.2-4.3C72.9,62.1,71,60.2,68.7,60.2L68.7,60.2z"/>
	
		<linearGradient id="SVGID_194_" gradientUnits="userSpaceOnUse" x1="46.2519" y1="92.7429" x2="46.2519" y2="72.5548" gradientTransform="matrix(1 0 0 -1 0 123)">
		<stop  offset="0" style="stop-color:#4A4A4C"/>
		<stop  offset="0.3" style="stop-color:#404041"/>
		<stop  offset="1" style="stop-color:#231F20"/>
	</linearGradient>
	<path style="display:inline;fill:url(#SVGID_194_);" d="M52,38.3c-1.2,0-2.3,0.5-3.1,1.3c-0.3,0.3-0.9,0.8-1.5,1.1
		c0.3-1.1,1.2-2.5,1.8-3.1c0.8-0.8,1.3-1.9,1.3-3.1c0-2.3-1.9-4.2-4.2-4.3c-2.3,0-4.2,1.9-4.2,4.3c0,1.2,0.5,2.3,1.3,3.1
		c0.6,0.6,1.5,2,1.8,3.1c-0.6-0.4-1.2-0.8-1.5-1.1c-0.8-0.8-1.9-1.3-3.1-1.3c-2.3,0-4.2,1.9-4.2,4.3c0,2.4,1.9,4.3,4.2,4.3
		c1.2,0,2.3-0.5,3.1-1.3c0.3-0.4,1-0.8,1.6-1.2c-0.1,3-1.5,4.5-3,5.4v0.8h7.9v-0.8c-1.5-0.9-2.9-2.4-3-5.4c0.7,0.4,1.3,0.8,1.6,1.2
		c0.8,0.8,1.9,1.3,3.1,1.3c2.3,0,4.2-1.9,4.2-4.3C56.2,40.2,54.3,38.3,52,38.3L52,38.3z"/>
	
		<linearGradient id="SVGID_195_" gradientUnits="userSpaceOnUse" x1="63.1481" y1="27.2353" x2="63.1481" y2="7.0478" gradientTransform="matrix(1 0 0 -1 0 123)">
		<stop  offset="0" style="stop-color:#4A4A4C"/>
		<stop  offset="0.3" style="stop-color:#404041"/>
		<stop  offset="1" style="stop-color:#231F20"/>
	</linearGradient>
	<path style="display:inline;fill:url(#SVGID_195_);" d="M57.4,107.9c1.2,0,2.3-0.5,3.1-1.3c0.3-0.3,0.9-0.8,1.5-1.1
		c-0.3,1.1-1.2,2.5-1.8,3.1c-0.8,0.8-1.3,1.9-1.3,3.1c0,2.3,1.9,4.2,4.2,4.3c2.3,0,4.2-1.9,4.2-4.3c0-1.2-0.5-2.3-1.3-3.1
		c-0.6-0.6-1.5-2-1.8-3.1c0.6,0.4,1.2,0.8,1.5,1.1c0.8,0.8,1.9,1.3,3.1,1.3c2.3,0,4.2-1.9,4.2-4.3s-1.9-4.3-4.2-4.3
		c-1.2,0-2.3,0.5-3.1,1.3c-0.3,0.4-1,0.8-1.6,1.2c0.1-3,1.5-4.5,3-5.4v-0.8h-7.9v0.8c1.5,0.9,2.9,2.4,3,5.4
		c-0.7-0.4-1.3-0.8-1.6-1.2c-0.8-0.8-1.9-1.3-3.1-1.3c-2.3,0-4.2,1.9-4.2,4.3C53.2,106,55.1,107.9,57.4,107.9L57.4,107.9z"/>
	
		<linearGradient id="SVGID_196_" gradientUnits="userSpaceOnUse" x1="29.5481" y1="27.2353" x2="29.5481" y2="7.0478" gradientTransform="matrix(1 0 0 -1 0 123)">
		<stop  offset="0" style="stop-color:#4A4A4C"/>
		<stop  offset="0.3" style="stop-color:#404041"/>
		<stop  offset="1" style="stop-color:#231F20"/>
	</linearGradient>
	<path style="display:inline;fill:url(#SVGID_196_);" d="M23.8,107.9c1.2,0,2.3-0.5,3.1-1.3c0.3-0.3,0.9-0.8,1.5-1.1
		c-0.3,1.1-1.2,2.5-1.8,3.1c-0.8,0.8-1.3,1.9-1.3,3.1c0,2.3,1.9,4.2,4.2,4.3c2.3,0,4.2-1.9,4.2-4.3c0-1.2-0.5-2.3-1.3-3.1
		c-0.6-0.6-1.5-2-1.8-3.1c0.6,0.4,1.2,0.8,1.5,1.1c0.8,0.8,1.9,1.3,3.1,1.3c2.3,0,4.2-1.9,4.2-4.3s-1.9-4.3-4.2-4.3
		c-1.2,0-2.3,0.5-3.1,1.3c-0.3,0.4-1,0.8-1.6,1.2c0.1-3,1.5-4.5,3-5.4v-0.8h-7.9v0.8c1.5,0.9,2.9,2.4,3,5.4
		c-0.7-0.4-1.3-0.8-1.6-1.2c-0.8-0.8-1.9-1.3-3.1-1.3c-2.3,0-4.2,1.9-4.2,4.3C19.6,106,21.5,107.9,23.8,107.9L23.8,107.9z"/>
	
		<linearGradient id="SVGID_197_" gradientUnits="userSpaceOnUse" x1="9.15" y1="104.637" x2="9.15" y2="92.9871" gradientTransform="matrix(1 0 0 -1 0 123)">
		<stop  offset="0" style="stop-color:#4A4A4C"/>
		<stop  offset="0.3" style="stop-color:#404041"/>
		<stop  offset="1" style="stop-color:#231F20"/>
	</linearGradient>
	<path style="display:inline;fill:url(#SVGID_197_);" d="M12.4,23c-0.7,0-1.3,0.3-1.8,0.8c-0.2,0.2-0.5,0.4-0.9,0.6
		c0.2-0.6,0.7-1.4,1.1-1.8c0.5-0.4,0.8-1.1,0.8-1.8c0-1.4-1.1-2.4-2.4-2.5c-1.3,0-2.4,1.1-2.4,2.5c0,0.7,0.3,1.3,0.8,1.8
		c0.4,0.3,0.9,1.1,1.1,1.8C8.3,24.2,8,24,7.8,23.8C7.2,23.3,6.6,23,5.9,23c-1.4,0-2.4,1.1-2.4,2.5S4.6,28,5.9,28
		c0.7,0,1.3-0.3,1.8-0.8c0.2-0.2,0.5-0.5,0.9-0.7c0,1.7-0.9,2.6-1.7,3.1V30h4.5v-0.4c-0.8-0.5-1.7-1.4-1.7-3.1
		c0.4,0.2,0.7,0.5,0.9,0.7c0.4,0.5,1.1,0.8,1.8,0.8c1.4,0,2.4-1.1,2.4-2.5C14.8,24.1,13.7,23,12.4,23L12.4,23z"/>

</svg>
