
<svg id="C8" viewBox="0 0 90 123" xmlns="http://www.w3.org/2000/svg">
	<linearGradient id="SVGID_198_" gradientUnits="userSpaceOnUse" x1="45.05" y1="123" x2="45.05" y2="0" gradientTransform="matrix(1 0 0 -1 0 123)">
		<stop  offset="0" style="stop-color:#F5F5F5"/>
		<stop  offset="1" style="stop-color:#D1D1D1"/>
	</linearGradient>
	<linearGradient id="SVGID_199_" gradientUnits="userSpaceOnUse" x1="45.05" y1="80.8" x2="45.05" y2="0.1" gradientTransform="matrix(1 0 0 -1 0 123)">
		<stop  offset="0" style="stop-color:#D0D2D3"/>
		<stop  offset="1" style="stop-color:#CCCECF"/>
	</linearGradient>
	<linearGradient id="SVGID_200_" gradientUnits="userSpaceOnUse" x1="29.45" y1="116.0195" x2="29.45" y2="95.832" gradientTransform="matrix(1 0 0 -1 0 123)">
		<stop  offset="0" style="stop-color:#4A4A4C"/>
		<stop  offset="0.3" style="stop-color:#404041"/>
		<stop  offset="1" style="stop-color:#231F20"/>
	</linearGradient>
	<linearGradient id="SVGID_201_" gradientUnits="userSpaceOnUse" x1="62.9519" y1="116" x2="62.9519" y2="95.8125" gradientTransform="matrix(1 0 0 -1 0 123)">
		<stop  offset="0" style="stop-color:#4A4A4C"/>
		<stop  offset="0.3" style="stop-color:#404041"/>
		<stop  offset="1" style="stop-color:#231F20"/>
	</linearGradient>
	<linearGradient id="SVGID_202_" gradientUnits="userSpaceOnUse" x1="29.2572" y1="86.9387" x2="29.2572" y2="66.7505" gradientTransform="matrix(1 0 0 -1 0 123)">
		<stop  offset="0" style="stop-color:#4A4A4C"/>
		<stop  offset="0.3" style="stop-color:#404041"/>
		<stop  offset="1" style="stop-color:#231F20"/>
	</linearGradient>
	<linearGradient id="SVGID_203_" gradientUnits="userSpaceOnUse" x1="62.8572" y1="86.9387" x2="62.8572" y2="66.7505" gradientTransform="matrix(1 0 0 -1 0 123)">
		<stop  offset="0" style="stop-color:#4A4A4C"/>
		<stop  offset="0.3" style="stop-color:#404041"/>
		<stop  offset="1" style="stop-color:#231F20"/>
	</linearGradient>
	<linearGradient id="SVGID_204_" gradientUnits="userSpaceOnUse" x1="63.05" y1="27.3032" x2="63.05" y2="7.1157" gradientTransform="matrix(1 0 0 -1 0 123)">
		<stop  offset="0" style="stop-color:#4A4A4C"/>
		<stop  offset="0.3" style="stop-color:#404041"/>
		<stop  offset="1" style="stop-color:#231F20"/>
	</linearGradient>
	<linearGradient id="SVGID_205_" gradientUnits="userSpaceOnUse" x1="29.5428" y1="27.3032" x2="29.5428" y2="7.1157" gradientTransform="matrix(1 0 0 -1 0 123)">
		<stop  offset="0" style="stop-color:#4A4A4C"/>
		<stop  offset="0.3" style="stop-color:#404041"/>
		<stop  offset="1" style="stop-color:#231F20"/>
	</linearGradient>
	<linearGradient id="SVGID_206_" gradientUnits="userSpaceOnUse" x1="63.05" y1="56.3865" x2="63.05" y2="36.1964" gradientTransform="matrix(1 0 0 -1 0 123)">
		<stop  offset="0" style="stop-color:#4A4A4C"/>
		<stop  offset="0.3" style="stop-color:#404041"/>
		<stop  offset="1" style="stop-color:#231F20"/>
	</linearGradient>
	<linearGradient id="SVGID_207_" gradientUnits="userSpaceOnUse" x1="29.5428" y1="56.3865" x2="29.5428" y2="36.1964" gradientTransform="matrix(1 0 0 -1 0 123)">
		<stop  offset="0" style="stop-color:#4A4A4C"/>
		<stop  offset="0.3" style="stop-color:#404041"/>
		<stop  offset="1" style="stop-color:#231F20"/>
	</linearGradient>
	<linearGradient id="SVGID_208_" gradientUnits="userSpaceOnUse" x1="9.15" y1="104.705" x2="9.15" y2="93.055" gradientTransform="matrix(1 0 0 -1 0 123)">
		<stop  offset="0" style="stop-color:#4A4A4C"/>
		<stop  offset="0.3" style="stop-color:#404041"/>
		<stop  offset="1" style="stop-color:#231F20"/>
	</linearGradient>
	<path style="fill:url(#SVGID_198_);" d="M90,117.7c0,3-2.4,5.3-5.4,5.3H5.4c-3,0-5.4-2.4-5.4-5.3V5.3 C0,2.4,2.4,0,5.4,0h79.3c3,0,5.4,2.4,5.4,5.3v112.4H90z"/>
	<path style="fill:#231F20;" d="M9.3,14.7c-0.8,0-1.4-0.1-2-0.4c-0.6-0.2-1-0.6-1.3-1.1s-0.5-1.1-0.5-1.8c0-0.6,0.2-1.2,0.5-1.6 C6.4,9.3,6.8,9,7.4,8.7c-0.5-0.2-0.9-0.6-1.2-1C5.9,7.4,5.8,6.9,5.8,6.3c0-0.7,0.1-1.2,0.4-1.7s0.7-0.8,1.2-1.1 C8,3.3,8.6,3.2,9.3,3.2s1.3,0.1,1.8,0.4c0.5,0.2,0.9,0.6,1.2,1.1s0.4,1,0.4,1.7c0,0.6-0.2,1.1-0.5,1.5c-0.3,0.4-0.7,0.8-1.2,1 c0.6,0.2,1.1,0.6,1.4,1.1c0.4,0.5,0.5,1,0.5,1.6c0,0.7-0.2,1.3-0.5,1.8s-0.8,0.8-1.3,1.1C10.7,14.6,10,14.7,9.3,14.7z M9.3,13.1 c0.3,0,0.6-0.1,0.9-0.2c0.3-0.1,0.5-0.3,0.6-0.6s0.2-0.6,0.2-0.9c0-0.3-0.1-0.7-0.2-0.9c-0.1-0.3-0.3-0.5-0.6-0.6 C9.9,9.7,9.6,9.6,9.3,9.6S8.7,9.7,8.4,9.8c-0.3,0.1-0.5,0.4-0.6,0.6c-0.1,0.3-0.2,0.6-0.2,0.9c0,0.5,0.2,1,0.5,1.3 C8.4,12.9,8.8,13.1,9.3,13.1z M9.3,8C9.6,8,9.8,7.9,10,7.8s0.4-0.3,0.5-0.6c0.1-0.2,0.2-0.5,0.2-0.8s-0.1-0.6-0.2-0.8 C10.4,5.3,10.2,5.2,10,5C9.8,4.9,9.6,4.8,9.3,4.8c-0.4,0-0.8,0.1-1,0.4C8,5.5,7.9,5.9,7.9,6.4S8,7.3,8.3,7.6C8.5,7.9,8.8,8,9.3,8z "/>
	<path style="opacity:0.3;fill:url(#SVGID_199_);enable-background:new    ;" d="M0,101v16.6c0,3,2.4,5.3,5.4,5.3 h79.3c3,0,5.4-2.4,5.4-5.3V42.2C48.6,44,13.7,67.9,0,101z"/>
	<path style="fill:url(#SVGID_200_);" d="M35,15c-1.2,0-2.3,0.5-3.1,1.3c-0.3,0.3-0.9,0.8-1.5,1.1 c0.3-1.1,1.2-2.5,1.8-3.1c0.8-0.8,1.3-1.9,1.3-3.1c0-2.3-1.9-4.2-4.2-4.3c-2.3,0-4.2,1.9-4.2,4.3c0,1.2,0.5,2.3,1.3,3.1 c0.6,0.6,1.5,2,1.8,3.1c-0.6-0.4-1.2-0.8-1.5-1.1C26.1,15.5,25,15,23.8,15c-2.3,0-4.2,1.9-4.2,4.3s1.9,4.3,4.2,4.3 c1.2,0,2.3-0.5,3.1-1.3c0.3-0.4,1-0.8,1.6-1.2c-0.1,3-1.5,4.5-3,5.4v0.8h7.9v-0.8c-1.5-0.9-2.9-2.4-3-5.4c0.7,0.4,1.3,0.8,1.6,1.2 c0.8,0.8,1.9,1.3,3.1,1.3c2.3,0,4.2-1.9,4.2-4.3S37.4,15,35,15L35,15z"/>
	<path style="fill:url(#SVGID_201_);" d="M68.6,15c-1.2,0-2.3,0.5-3.1,1.3c-0.3,0.3-0.9,0.8-1.5,1.1 c0.3-1.1,1.2-2.5,1.8-3.1c0.8-0.8,1.3-1.9,1.3-3.1C67.2,8.9,65.3,7,63,7c-2.3,0-4.2,1.9-4.2,4.3c0,1.2,0.5,2.3,1.3,3.1 c0.6,0.6,1.5,2,1.8,3.1c-0.6-0.4-1.2-0.8-1.5-1.1c-0.8-0.8-1.9-1.3-3.1-1.3c-2.3,0-4.2,1.9-4.2,4.3s1.9,4.3,4.2,4.3 c1.2,0,2.3-0.5,3.1-1.3c0.3-0.4,1-0.8,1.6-1.2c-0.1,3-1.5,4.5-3,5.4v0.8h7.9v-0.8c-1.5-0.9-2.9-2.4-3-5.4c0.7,0.4,1.3,0.8,1.6,1.2 c0.8,0.8,1.9,1.3,3.1,1.3c2.3,0,4.2-1.9,4.2-4.3C72.9,16.9,71,15,68.6,15L68.6,15z"/>
	<path style="fill:url(#SVGID_202_);" d="M35,44.1c-1.2,0-2.3,0.5-3.1,1.3c-0.3,0.3-0.9,0.8-1.5,1.1 c0.3-1.1,1.2-2.5,1.8-3.1c0.8-0.8,1.3-1.9,1.3-3.1c0-2.3-1.9-4.2-4.2-4.3c-2.3,0-4.2,1.9-4.2,4.3c0,1.2,0.5,2.3,1.3,3.1 c0.6,0.6,1.5,2,1.8,3.1c-0.6-0.4-1.2-0.8-1.5-1.1c-0.8-0.8-1.9-1.3-3.1-1.3c-2.3,0-4.2,1.9-4.2,4.3c0,2.4,1.9,4.3,4.2,4.3 c1.2,0,2.3-0.5,3.1-1.3c0.3-0.4,1-0.8,1.6-1.2c-0.1,3-1.5,4.5-3,5.4v0.8h7.9v-0.8c-1.5-0.9-2.9-2.4-3-5.4c0.7,0.4,1.3,0.8,1.6,1.2 c0.8,0.8,1.9,1.3,3.1,1.3c2.3,0,4.2-1.9,4.2-4.3C39.3,46,37.4,44.1,35,44.1L35,44.1z"/>
	<path style="fill:url(#SVGID_203_);" d="M68.6,44.1c-1.2,0-2.3,0.5-3.1,1.3c-0.3,0.3-0.9,0.8-1.5,1.1 c0.3-1.1,1.2-2.5,1.8-3.1c0.8-0.8,1.3-1.9,1.3-3.1c0-2.3-1.9-4.2-4.2-4.3c-2.3,0-4.2,1.9-4.2,4.3c0,1.2,0.5,2.3,1.3,3.1 c0.6,0.6,1.5,2,1.8,3.1c-0.6-0.4-1.2-0.8-1.5-1.1c-0.8-0.8-1.9-1.3-3.1-1.3c-2.3,0-4.2,1.9-4.2,4.3c0,2.4,1.9,4.3,4.2,4.3 c1.2,0,2.3-0.5,3.1-1.3c0.3-0.4,1-0.8,1.6-1.2c-0.1,3-1.5,4.5-3,5.4v0.8h7.9v-0.8c-1.5-0.9-2.9-2.4-3-5.4c0.7,0.4,1.3,0.8,1.6,1.2 c0.8,0.8,1.9,1.3,3.1,1.3c2.3,0,4.2-1.9,4.2-4.3C72.9,46,71,44.1,68.6,44.1L68.6,44.1z"/>
	<path style="fill:url(#SVGID_204_);" d="M57.4,107.9c1.2,0,2.3-0.5,3.1-1.3c0.3-0.3,0.9-0.8,1.5-1.1 c-0.3,1.1-1.2,2.5-1.8,3.1c-0.8,0.8-1.3,1.9-1.3,3.1c0,2.3,1.9,4.2,4.2,4.3c2.3,0,4.2-1.9,4.2-4.3c0-1.2-0.5-2.3-1.3-3.1 c-0.6-0.6-1.5-2-1.8-3.1c0.6,0.4,1.2,0.8,1.5,1.1c0.8,0.8,1.9,1.3,3.1,1.3c2.3,0,4.2-1.9,4.2-4.3s-1.9-4.3-4.2-4.3 c-1.2,0-2.3,0.5-3.1,1.3c-0.3,0.4-1,0.8-1.6,1.2c0.1-3,1.5-4.5,3-5.4v-0.8H59v0.8c1.5,0.9,2.9,2.4,3,5.4c-0.7-0.4-1.3-0.8-1.6-1.2 c-0.8-0.8-1.9-1.3-3.1-1.3c-2.3,0-4.2,1.9-4.2,4.3C53.1,106,55,107.9,57.4,107.9L57.4,107.9z"/>
	<path style="fill:url(#SVGID_205_);" d="M23.8,107.9c1.2,0,2.3-0.5,3.1-1.3c0.3-0.3,0.9-0.8,1.5-1.1 c-0.3,1.1-1.2,2.5-1.8,3.1c-0.8,0.8-1.3,1.9-1.3,3.1c0,2.3,1.9,4.2,4.2,4.3c2.3,0,4.2-1.9,4.2-4.3c0-1.2-0.5-2.3-1.3-3.1 c-0.6-0.6-1.5-2-1.8-3.1c0.6,0.4,1.2,0.8,1.5,1.1c0.8,0.8,1.9,1.3,3.1,1.3c2.3,0,4.2-1.9,4.2-4.3s-1.9-4.3-4.2-4.3 c-1.2,0-2.3,0.5-3.1,1.3c-0.3,0.4-1,0.8-1.6,1.2c0.1-3,1.5-4.5,3-5.4v-0.8h-7.9v0.8c1.5,0.9,2.9,2.4,3,5.4 c-0.7-0.4-1.3-0.8-1.6-1.2c-0.8-0.8-1.9-1.3-3.1-1.3c-2.3,0-4.2,1.9-4.2,4.3C19.5,106,21.4,107.9,23.8,107.9L23.8,107.9z"/>
	<path style="fill:url(#SVGID_206_);" d="M57.4,78.8c1.2,0,2.3-0.5,3.1-1.3c0.3-0.3,0.9-0.8,1.5-1.1 c-0.3,1.1-1.2,2.5-1.8,3.1c-0.8,0.8-1.3,1.9-1.3,3.1c0,2.3,1.9,4.2,4.2,4.3c2.3,0,4.2-1.9,4.2-4.3c0-1.2-0.5-2.3-1.3-3.1 c-0.6-0.6-1.5-2-1.8-3.1c0.6,0.4,1.2,0.8,1.5,1.1c0.8,0.8,1.9,1.3,3.1,1.3c2.3,0,4.2-1.9,4.2-4.3s-1.9-4.3-4.2-4.3 c-1.2,0-2.3,0.5-3.1,1.3c-0.3,0.4-1,0.8-1.6,1.2c0.1-3,1.5-4.5,3-5.4v-0.8H59v0.8c1.5,0.9,2.9,2.4,3,5.4c-0.7-0.4-1.3-0.8-1.6-1.2 c-0.8-0.8-1.9-1.3-3.1-1.3c-2.3,0-4.2,1.9-4.2,4.3C53.1,76.9,55,78.8,57.4,78.8L57.4,78.8z"/>
	<path style="fill:url(#SVGID_207_);" d="M23.8,78.8c1.2,0,2.3-0.5,3.1-1.3c0.3-0.3,0.9-0.8,1.5-1.1 c-0.3,1.1-1.2,2.5-1.8,3.1c-0.8,0.8-1.3,1.9-1.3,3.1c0,2.3,1.9,4.2,4.2,4.3c2.3,0,4.2-1.9,4.2-4.3c0-1.2-0.5-2.3-1.3-3.1 c-0.6-0.6-1.5-2-1.8-3.1c0.6,0.4,1.2,0.8,1.5,1.1c0.8,0.8,1.9,1.3,3.1,1.3c2.3,0,4.2-1.9,4.2-4.3s-1.9-4.3-4.2-4.3 c-1.2,0-2.3,0.5-3.1,1.3c-0.3,0.4-1,0.8-1.6,1.2c0.1-3,1.5-4.5,3-5.4v-0.8h-7.9v0.8c1.5,0.9,2.9,2.4,3,5.4 c-0.7-0.4-1.3-0.8-1.6-1.2c-0.8-0.8-1.9-1.3-3.1-1.3c-2.3,0-4.2,1.9-4.2,4.3C19.5,76.9,21.4,78.8,23.8,78.8L23.8,78.8z"/>
	<path style="fill:url(#SVGID_208_);" d="M12.3,22.9c-0.7,0-1.3,0.3-1.8,0.8c-0.2,0.2-0.5,0.4-0.9,0.6 c0.2-0.6,0.7-1.4,1.1-1.8c0.5-0.4,0.8-1.1,0.8-1.8c0-1.4-1.1-2.4-2.4-2.5c-1.3,0-2.4,1.1-2.4,2.5c0,0.7,0.3,1.3,0.8,1.8 c0.4,0.4,0.9,1.1,1.1,1.8c-0.4-0.2-0.7-0.4-0.9-0.6c-0.4-0.5-1.1-0.8-1.8-0.8c-1.4,0-2.4,1.1-2.4,2.5s1.1,2.5,2.4,2.5 c0.7,0,1.3-0.3,1.8-0.8c0.2-0.2,0.5-0.5,0.9-0.7c0,1.7-0.9,2.6-1.7,3.1v0.4h4.5v-0.4c-0.8-0.5-1.7-1.4-1.7-3.1 c0.4,0.2,0.7,0.5,0.9,0.7c0.4,0.5,1.1,0.8,1.8,0.8c1.4,0,2.4-1.1,2.4-2.5C14.8,24,13.7,22.9,12.3,22.9L12.3,22.9z"/>
</svg>
