
<svg id="CA" viewBox="0 0 90 123" xmlns="http://www.w3.org/2000/svg">
	<filter x="-10%" y="-10%" width="120%" height="120%" filterUnits="objectBoundingBox" id="ds">
		<feOffset dx="0" dy="2" in="SourceAlpha" result="shadowOffsetOuter2"/>
		<feGaussianBlur stdDeviation="1.5" in="shadowOffsetOuter2" result="shadowBlurOuter2"/>
		<feColorMatrix values="0.2 0 0 0 0 0 0.2 0 0 0 0 0 0.2 0 0 0 0 0 0.75 0" type="matrix" in="shadowBlurOuter2" result="shadowMatrixOuter2"/>
		<feMerge>
			<feMergeNode in="shadowMatrixOuter2"/>
			<feMergeNode in="SourceGraphic"/>
		</feMerge>
	</filter>
	<linearGradient id="SVGID_149_" gradientUnits="userSpaceOnUse" x1="45.05" y1="123" x2="45.05" y2="0" gradientTransform="matrix(1 0 0 -1 0 123)">
		<stop  offset="0" style="stop-color:#F5F5F5"/>
		<stop  offset="1" style="stop-color:#D1D1D1"/>
	</linearGradient>
	<linearGradient id="SVGID_150_" gradientUnits="userSpaceOnUse" x1="45.05" y1="80.8" x2="45.05" y2="0.1" gradientTransform="matrix(1 0 0 -1 0 123)">
		<stop  offset="0" style="stop-color:#D0D2D3"/>
		<stop  offset="1" style="stop-color:#CCCECF"/>
	</linearGradient>
	<linearGradient id="SVGID_151_" gradientUnits="userSpaceOnUse" x1="45.05" y1="84.2283" x2="45.05" y2="38.7283" gradientTransform="matrix(1 0 0 -1 0 123)">
		<stop  offset="0" style="stop-color:#4A4A4C"/>
		<stop  offset="0.3" style="stop-color:#404041"/>
		<stop  offset="1" style="stop-color:#231F20"/>
	</linearGradient>
	<linearGradient id="SVGID_152_" gradientUnits="userSpaceOnUse" x1="9.25" y1="104.7024" x2="9.25" y2="93.0523" gradientTransform="matrix(1 0 0 -1 0 123)">
		<stop  offset="0" style="stop-color:#4A4A4C"/>
		<stop  offset="0.3" style="stop-color:#404041"/>
		<stop  offset="1" style="stop-color:#231F20"/>
	</linearGradient>
	<path style=";fill:url(#SVGID_149_);" d="M90,117.7c0,3-2.4,5.3-5.4,5.3H5.4c-3,0-5.4-2.4-5.4-5.3V5.3 C0,2.4,2.4,0,5.4,0h79.3c3,0,5.4,2.4,5.4,5.3v112.4H90z"/>
	<path style=";fill:#231F20;" d="M3.8,14.5v-1.3l0.8-0.1l3.6-9.8h2.1l3.6,9.8l0.8,0.1v1.3H11v-1.3l0.8-0.1l-0.5-1.6 H7.2l-0.5,1.6l0.8,0.1v1.3H3.8z M7.7,9.9h3L9.4,6L9.3,5.6l0,0L9.1,6L7.7,9.9z"/>
	<path style=";opacity:0.3;fill:url(#SVGID_150_);enable-background:new    ;" d="M0,101v16.6c0,3,2.4,5.3,5.4,5.3 h79.3c3,0,5.4-2.4,5.4-5.3V42.2C48.6,44,13.7,67.9,0,101z"/>
	<path style=";fill:url(#SVGID_151_);" filter="url(#ds)" d="M57.6,56.8c-2.7,0-5.2,1.1-6.9,3c-0.7,0.8-2,1.7-3.4,2.5 c0.6-2.5,2.7-5.6,4.1-7c1.8-1.8,3-4.2,3-7c0-5.3-4.2-9.6-9.4-9.6c-5.2,0.1-9.4,4.3-9.4,9.6c0,2.7,1.1,5.2,3,7 c1.4,1.4,3.5,4.5,4.1,7c-1.4-0.8-2.7-1.7-3.4-2.5c-1.7-1.8-4.2-3-6.9-3c-5.3,0-9.6,4.3-9.6,9.6s4.3,9.6,9.6,9.6 c2.7,0,5.2-1.2,6.9-3c0.8-0.8,2.1-1.8,3.6-2.7c-0.1,6.8-3.4,10.2-6.7,12.2v1.7h17.7v-1.7c-3.3-2-6.6-5.4-6.7-12.2 c1.5,0.8,2.8,1.9,3.6,2.7c1.7,1.8,4.2,3,6.9,3c5.3,0,9.6-4.3,9.6-9.6C67.2,61.1,62.9,56.8,57.6,56.8L57.6,56.8z"/>
	<path style=";fill:url(#SVGID_152_);" d="M12.4,22.9c-0.7,0-1.3,0.3-1.8,0.8c-0.2,0.2-0.5,0.4-0.9,0.6 c0.2-0.6,0.7-1.4,1.1-1.8c0.5-0.4,0.8-1.1,0.8-1.8c0-1.4-1.1-2.4-2.4-2.5c-1.3,0-2.4,1.1-2.4,2.5c0,0.7,0.3,1.3,0.8,1.8 c0.4,0.3,0.9,1.1,1.1,1.8c-0.4-0.2-0.7-0.4-0.9-0.6c-0.4-0.5-1.1-0.8-1.8-0.8c-1.4,0-2.4,1.1-2.4,2.5s1.1,2.5,2.4,2.5 c0.7,0,1.3-0.3,1.8-0.8c0.2-0.2,0.5-0.5,0.9-0.7c0,1.7-0.9,2.6-1.7,3.1v0.4h4.5v-0.4c-0.8-0.5-1.7-1.4-1.7-3.1 c0.4,0.2,0.7,0.5,0.9,0.7c0.4,0.5,1.1,0.8,1.8,0.8c1.4,0,2.4-1.1,2.4-2.5C14.9,24,13.8,22.9,12.4,22.9L12.4,22.9z"/>
</svg>
