
<svg id="D3" viewBox="0 0 90 123" xmlns="http://www.w3.org/2000/svg">
	<linearGradient id="SVGID_10_" gradientUnits="userSpaceOnUse" x1="45.05" y1="123" x2="45.05" y2="0" gradientTransform="matrix(1 0 0 -1 0 123)">
		<stop  offset="0" style="stop-color:#F5F5F5"/>
		<stop  offset="1" style="stop-color:#D1D1D1"/>
	</linearGradient>
	<linearGradient id="SVGID_11_" gradientUnits="userSpaceOnUse" x1="45.05" y1="80.8" x2="45.05" y2="0.1" gradientTransform="matrix(1 0 0 -1 0 123)">
		<stop  offset="0" style="stop-color:#D0D2D3"/>
		<stop  offset="1" style="stop-color:#CCCECF"/>
	</linearGradient>
	<linearGradient id="SVGID_12_" gradientUnits="userSpaceOnUse" x1="9.25" y1="105.075" x2="9.25" y2="91.926" gradientTransform="matrix(1 0 0 -1 0 123)">
		<stop  offset="0" style="stop-color:#B72026"/>
		<stop  offset="0.3" style="stop-color:#B11F24"/>
		<stop  offset="1" style="stop-color:#710506"/>
	</linearGradient>
	<linearGradient id="SVGID_13_" gradientUnits="userSpaceOnUse" x1="46.85" y1="116.8014" x2="46.85" y2="94.1596" gradientTransform="matrix(1 0 0 -1 0 123)">
		<stop  offset="0" style="stop-color:#B72026"/>
		<stop  offset="0.3" style="stop-color:#B11F24"/>
		<stop  offset="1" style="stop-color:#710506"/>
	</linearGradient>
	<linearGradient id="SVGID_14_" gradientUnits="userSpaceOnUse" x1="46.75" y1="72.5826" x2="46.75" y2="49.9448" gradientTransform="matrix(1 0 0 -1 0 123)">
		<stop  offset="0" style="stop-color:#B72026"/>
		<stop  offset="0.3" style="stop-color:#B11F24"/>
		<stop  offset="1" style="stop-color:#710506"/>
	</linearGradient>
	<linearGradient id="SVGID_15_" gradientUnits="userSpaceOnUse" x1="46.85" y1="28.9762" x2="46.85" y2="6.3512" gradientTransform="matrix(1 0 0 -1 0 123)">
		<stop  offset="0" style="stop-color:#B72026"/>
		<stop  offset="0.3" style="stop-color:#B11F24"/>
		<stop  offset="1" style="stop-color:#710506"/>
	</linearGradient>
	<path style="display:inline;fill:url(#SVGID_10_);" d="M90,117.7c0,3-2.4,5.3-5.4,5.3H5.4c-3,0-5.4-2.4-5.4-5.3V5.3 C0,2.4,2.4,0,5.4,0h79.3c3,0,5.4,2.4,5.4,5.3v112.4H90z"/>
	<path style="fill:#B92025;" d="M9.2,14.7c-0.7,0-1.4-0.1-1.9-0.4c-0.6-0.2-1-0.6-1.4-1.1c-0.3-0.5-0.5-1-0.5-1.7l0,0h2 c0,0.3,0.1,0.6,0.2,0.8s0.3,0.4,0.6,0.6c0.3,0.1,0.6,0.2,0.9,0.2c0.5,0,1-0.2,1.3-0.5s0.5-0.7,0.5-1.3s-0.2-1-0.5-1.3 S9.6,9.6,9,9.6H7.9V8.1h1.3c0.4,0,0.7-0.1,0.9-0.2c0.2-0.1,0.4-0.3,0.5-0.6c0.1-0.2,0.2-0.5,0.2-0.9c0-0.5-0.1-0.9-0.4-1.2 C10.1,5,9.7,4.8,9.2,4.8C8.9,4.8,8.6,4.9,8.4,5C8.1,5.1,7.9,5.3,7.8,5.5C7.7,5.8,7.6,6,7.6,6.3h-2l0,0c0-0.6,0.1-1.1,0.4-1.6 s0.7-0.8,1.3-1.1s1.2-0.4,1.9-0.4c1.1,0,2,0.3,2.7,0.8s1,1.3,1,2.3c0,0.5-0.1,1-0.4,1.4c-0.3,0.4-0.7,0.8-1.3,1 c0.6,0.2,1.1,0.6,1.4,1c0.3,0.5,0.5,1,0.5,1.6c0,0.7-0.2,1.3-0.5,1.8s-0.8,0.9-1.4,1.1C10.6,14.6,9.9,14.7,9.2,14.7z"/>
	<path style="display:inline;opacity:0.3;fill:url(#SVGID_11_);enable-background:new    ;" d="M0,101v16.6c0,3,2.4,5.3,5.4,5.3 h79.3c3,0,5.4-2.4,5.4-5.3V42.2C48.6,44,13.7,67.9,0,101z"/>
	<path style="display:inline;fill:url(#SVGID_12_);" d="M8.6,18.6c-0.3,0.5-3.9,5.9-3.9,5.9s4,5.9,4.2,6.3c0.3,0.4,0.4,0.4,0.7,0 c0.2-0.3,4.2-6.3,4.2-6.3s-3.6-5.3-3.9-5.9C9.3,17.7,9.2,17.7,8.6,18.6z"/>
	<path style="display:inline;fill:url(#SVGID_13_);" d="M45.9,7.3c-0.6,0.9-6.8,10.1-6.8,10.1s6.8,10.2,7.2,10.8 c0.5,0.7,0.6,0.7,1.1,0c0.4-0.6,7.2-10.8,7.2-10.8s-6-9.1-6.6-10.1C47,5.8,46.9,5.8,45.9,7.3z"/>
	<path style="display:inline;fill:url(#SVGID_14_);" d="M45.7,51.5c-0.6,1-6.7,10.2-6.7,10.2s6.8,10.2,7.2,10.8 c0.5,0.7,0.6,0.7,1.1,0c0.4-0.6,7.2-10.8,7.2-10.8s-6.1-9.2-6.8-10.1C46.9,50,46.7,50,45.7,51.5z"/>
	<path style="display:inline;fill:url(#SVGID_15_);" d="M45.9,95.2c-0.6,0.9-6.8,10.1-6.8,10.1s6.8,10.2,7.2,10.8 c0.5,0.7,0.6,0.7,1.1,0c0.4-0.6,7.2-10.8,7.2-10.8s-6.1-9.2-6.8-10.1C47,93.6,46.9,93.6,45.9,95.2z"/>
</svg>
