
<svg id="D4" viewBox="0 0 90 123" xmlns="http://www.w3.org/2000/svg">
	<linearGradient id="SVGID_16_" gradientUnits="userSpaceOnUse" x1="45.05" y1="123" x2="45.05" y2="0" gradientTransform="matrix(1 0 0 -1 0 123)">
		<stop  offset="0" style="stop-color:#F5F5F5"/>
		<stop  offset="1" style="stop-color:#D1D1D1"/>
	</linearGradient>
	<linearGradient id="SVGID_17_" gradientUnits="userSpaceOnUse" x1="45.05" y1="80.8" x2="45.05" y2="0.1" gradientTransform="matrix(1 0 0 -1 0 123)">
		<stop  offset="0" style="stop-color:#D0D2D3"/>
		<stop  offset="1" style="stop-color:#CCCECF"/>
	</linearGradient>
	<linearGradient id="SVGID_18_" gradientUnits="userSpaceOnUse" x1="9.65" y1="105.1929" x2="9.65" y2="92.0439" gradientTransform="matrix(1 0 0 -1 0 123)">
		<stop  offset="0" style="stop-color:#B72026"/>
		<stop  offset="0.3" style="stop-color:#B11F24"/>
		<stop  offset="1" style="stop-color:#710506"/>
	</linearGradient>
	<linearGradient id="SVGID_19_" gradientUnits="userSpaceOnUse" x1="30.75" y1="116.925" x2="30.75" y2="94.2833" gradientTransform="matrix(1 0 0 -1 0 123)">
		<stop  offset="0" style="stop-color:#B72026"/>
		<stop  offset="0.3" style="stop-color:#B11F24"/>
		<stop  offset="1" style="stop-color:#710506"/>
	</linearGradient>
	<linearGradient id="SVGID_20_" gradientUnits="userSpaceOnUse" x1="63.25" y1="116.925" x2="63.25" y2="94.2833" gradientTransform="matrix(1 0 0 -1 0 123)">
		<stop  offset="0" style="stop-color:#B72026"/>
		<stop  offset="0.3" style="stop-color:#B11F24"/>
		<stop  offset="1" style="stop-color:#710506"/>
	</linearGradient>
	<linearGradient id="SVGID_21_" gradientUnits="userSpaceOnUse" x1="30.75" y1="29.125" x2="30.75" y2="6.4832" gradientTransform="matrix(1 0 0 -1 0 123)">
		<stop  offset="0" style="stop-color:#B72026"/>
		<stop  offset="0.3" style="stop-color:#B11F24"/>
		<stop  offset="1" style="stop-color:#710506"/>
	</linearGradient>
	<linearGradient id="SVGID_22_" gradientUnits="userSpaceOnUse" x1="63.25" y1="29.125" x2="63.25" y2="6.4832" gradientTransform="matrix(1 0 0 -1 0 123)">
		<stop  offset="0" style="stop-color:#B72026"/>
		<stop  offset="0.3" style="stop-color:#B11F24"/>
		<stop  offset="1" style="stop-color:#710506"/>
	</linearGradient>
	<path style="display:inline;fill:url(#SVGID_16_);" d="M90,117.7c0,3-2.4,5.3-5.4,5.3H5.4c-3,0-5.4-2.4-5.4-5.3V5.3 C0,2.4,2.4,0,5.4,0h79.3c3,0,5.4,2.4,5.4,5.3v112.4H90z"/>
	<path style="fill:#B92025;" d="M8.6,14.5v-1.3L9.9,13v-1.2H5.2l-0.1-1l4.7-7.5h2.1v7.1h1.3v1.4h-1.3V13l1.2,0.2v1.3H8.6z  M7.1,10.5h2.8V6.2l0,0L9.6,6.5L7.1,10.5z"/>
	<path style="display:inline;opacity:0.3;fill:url(#SVGID_17_);enable-background:new    ;" d="M0,101v16.6c0,3,2.4,5.3,5.4,5.3 h79.3c3,0,5.4-2.4,5.4-5.3V42.2C48.6,44,13.7,67.9,0,101z"/>
	<path style="display:inline;fill:url(#SVGID_18_);" d="M9,18.5c-0.3,0.5-3.9,5.9-3.9,5.9s4,5.9,4.2,6.3c0.3,0.4,0.4,0.4,0.7,0 c0.2-0.3,4.2-6.3,4.2-6.3s-3.6-5.3-3.9-5.9C9.6,17.6,9.6,17.6,9,18.5z"/>
	<path style="display:inline;fill:url(#SVGID_19_);" d="M29.8,7.2C29.2,8.1,23,17.3,23,17.3s6.8,10.2,7.2,10.8 c0.5,0.7,0.6,0.7,1.1,0c0.4-0.6,7.2-10.8,7.2-10.8s-6.1-9.2-6.8-10.1C30.9,5.7,30.8,5.7,29.8,7.2z"/>
	<path style="display:inline;fill:url(#SVGID_20_);" d="M62.3,7.2c-0.6,0.9-6.8,10.1-6.8,10.1s6.8,10.2,7.2,10.8 c0.5,0.7,0.6,0.7,1.1,0c0.4-0.6,7.2-10.8,7.2-10.8s-6-9.2-6.6-10.1C63.4,5.7,63.3,5.7,62.3,7.2z"/>
	<path style="display:inline;fill:url(#SVGID_21_);" d="M29.8,95c-0.6,0.9-6.8,10.1-6.8,10.1s6.8,10.2,7.2,10.8 c0.5,0.7,0.6,0.7,1.1,0c0.4-0.6,7.2-10.8,7.2-10.8s-6-9.1-6.6-10.1C30.9,93.5,30.8,93.5,29.8,95z"/>
	<path style="display:inline;fill:url(#SVGID_22_);" d="M62.3,95c-0.6,0.9-6.8,10.1-6.8,10.1s6.8,10.2,7.2,10.8 c0.5,0.7,0.6,0.7,1.1,0c0.4-0.6,7.2-10.8,7.2-10.8S65,96,64.4,95C63.4,93.5,63.3,93.5,62.3,95z"/>
</svg>
