
<svg id="D5" viewBox="0 0 90 123" xmlns="http://www.w3.org/2000/svg">
	<linearGradient id="SVGID_23_" gradientUnits="userSpaceOnUse" x1="45.05" y1="123" x2="45.05" y2="0" gradientTransform="matrix(1 0 0 -1 0 123)">
		<stop  offset="0" style="stop-color:#F5F5F5"/>
		<stop  offset="1" style="stop-color:#D1D1D1"/>
	</linearGradient>
	<linearGradient id="SVGID_24_" gradientUnits="userSpaceOnUse" x1="45.05" y1="80.8" x2="45.05" y2="0.1" gradientTransform="matrix(1 0 0 -1 0 123)">
		<stop  offset="0" style="stop-color:#D0D2D3"/>
		<stop  offset="1" style="stop-color:#CCCECF"/>
	</linearGradient>
	<linearGradient id="SVGID_25_" gradientUnits="userSpaceOnUse" x1="9.55" y1="105.188" x2="9.55" y2="92.0391" gradientTransform="matrix(1 0 0 -1 0 123)">
		<stop  offset="0" style="stop-color:#B72026"/>
		<stop  offset="0.3" style="stop-color:#B11F24"/>
		<stop  offset="1" style="stop-color:#710506"/>
	</linearGradient>
	<linearGradient id="SVGID_26_" gradientUnits="userSpaceOnUse" x1="30.85" y1="116.925" x2="30.85" y2="94.2832" gradientTransform="matrix(1 0 0 -1 0 123)">
		<stop  offset="0" style="stop-color:#B72026"/>
		<stop  offset="0.3" style="stop-color:#B11F24"/>
		<stop  offset="1" style="stop-color:#710506"/>
	</linearGradient>
	<linearGradient id="SVGID_27_" gradientUnits="userSpaceOnUse" x1="63.35" y1="116.925" x2="63.35" y2="94.2832" gradientTransform="matrix(1 0 0 -1 0 123)">
		<stop  offset="0" style="stop-color:#B72026"/>
		<stop  offset="0.3" style="stop-color:#B11F24"/>
		<stop  offset="1" style="stop-color:#710506"/>
	</linearGradient>
	<linearGradient id="SVGID_28_" gradientUnits="userSpaceOnUse" x1="46.85" y1="72.584" x2="46.85" y2="49.9421" gradientTransform="matrix(1 0 0 -1 0 123)">
		<stop  offset="0" style="stop-color:#B72026"/>
		<stop  offset="0.3" style="stop-color:#B11F24"/>
		<stop  offset="1" style="stop-color:#710506"/>
	</linearGradient>
	<linearGradient id="SVGID_29_" gradientUnits="userSpaceOnUse" x1="30.85" y1="29.125" x2="30.85" y2="6.4831" gradientTransform="matrix(1 0 0 -1 0 123)">
		<stop  offset="0" style="stop-color:#B72026"/>
		<stop  offset="0.3" style="stop-color:#B11F24"/>
		<stop  offset="1" style="stop-color:#710506"/>
	</linearGradient>
	<linearGradient id="SVGID_30_" gradientUnits="userSpaceOnUse" x1="63.35" y1="29.125" x2="63.35" y2="6.4831" gradientTransform="matrix(1 0 0 -1 0 123)">
		<stop  offset="0" style="stop-color:#B72026"/>
		<stop  offset="0.3" style="stop-color:#B11F24"/>
		<stop  offset="1" style="stop-color:#710506"/>
	</linearGradient>
	<path style="display:inline;fill:url(#SVGID_23_);" d="M90,117.7c0,3-2.4,5.3-5.4,5.3H5.4c-3,0-5.4-2.4-5.4-5.3V5.3 C0,2.4,2.4,0,5.4,0h79.3c3,0,5.4,2.4,5.4,5.3v112.4H90z"/>
	<path style="fill:#B92025;" d="M9.2,14.7c-0.7,0-1.3-0.1-1.8-0.4c-0.6-0.2-1-0.6-1.3-1.1s-0.5-1-0.5-1.7l0,0l2-0.1 c0,0.5,0.1,0.9,0.4,1.2C8.3,12.9,8.7,13,9.2,13s1-0.2,1.2-0.6c0.3-0.4,0.4-0.9,0.4-1.5c0-0.7-0.1-1.2-0.4-1.6 C10.2,9,9.7,8.8,9.2,8.8S8.4,8.9,8.2,9C7.9,9.2,7.7,9.4,7.6,9.7L5.8,9.6l0.6-6.2h6.3v2.5h-1.3l-0.2-0.8h-3L7.8,7.8 C8,7.7,8.1,7.6,8.3,7.5s0.4-0.1,0.6-0.2c0.2-0.1,0.4-0.1,0.7-0.1c0.7,0,1.3,0.1,1.8,0.4s0.9,0.7,1.2,1.3s0.4,1.2,0.4,2 c0,0.7-0.1,1.4-0.4,1.9c-0.3,0.6-0.7,1-1.3,1.3C10.7,14.5,10,14.7,9.2,14.7z"/>
	<path style="display:inline;opacity:0.3;fill:url(#SVGID_24_);enable-background:new    ;" d="M0,101v16.6c0,3,2.4,5.3,5.4,5.3 h79.3c3,0,5.4-2.4,5.4-5.3V42.2C48.6,44,13.7,67.9,0,101z"/>
	<path style="display:inline;fill:url(#SVGID_25_);" d="M8.9,18.5C8.6,19,5,24.3,5,24.3s4,5.9,4.2,6.3c0.3,0.4,0.4,0.4,0.7,0 c0.2-0.3,4.2-6.3,4.2-6.3s-3.6-5.3-3.9-5.9C9.6,17.6,9.5,17.6,8.9,18.5z"/>
	<path style="display:inline;fill:url(#SVGID_26_);" d="M29.9,7.2c-0.6,0.9-6.8,10.1-6.8,10.1s6.8,10.2,7.2,10.8 c0.5,0.7,0.6,0.7,1.1,0c0.4-0.6,7.2-10.8,7.2-10.8s-6-9.2-6.6-10.1C31,5.7,30.9,5.7,29.9,7.2z"/>
	<path style="display:inline;fill:url(#SVGID_27_);" d="M62.4,7.2c-0.6,0.9-6.8,10.1-6.8,10.1s6.8,10.2,7.2,10.8 c0.5,0.7,0.6,0.7,1.1,0c0.4-0.6,7.2-10.8,7.2-10.8S65,8.1,64.3,7.2C63.5,5.7,63.4,5.7,62.4,7.2z"/>
	<path style="display:inline;fill:url(#SVGID_28_);" d="M45.9,51.5c-0.6,0.9-6.8,10.1-6.8,10.1s6.8,10.2,7.2,10.8 c0.5,0.7,0.6,0.7,1.1,0c0.4-0.6,7.2-10.8,7.2-10.8s-6.1-9.2-6.8-10.1C47,50,46.9,50,45.9,51.5z"/>
	<path style="display:inline;fill:url(#SVGID_29_);" d="M29.9,95c-0.6,0.9-6.8,10.1-6.8,10.1s6.8,10.2,7.2,10.8 c0.5,0.7,0.6,0.7,1.1,0c0.4-0.6,7.2-10.8,7.2-10.8S32.6,96,32,95C31,93.5,30.9,93.5,29.9,95z"/>
	<path style="display:inline;fill:url(#SVGID_30_);" d="M62.4,95c-0.6,0.9-6.8,10.1-6.8,10.1s6.8,10.2,7.2,10.8 c0.5,0.7,0.6,0.7,1.1,0c0.4-0.6,7.2-10.8,7.2-10.8s-6-9.1-6.6-10.1C63.5,93.5,63.4,93.5,62.4,95z"/>
</svg>
