
<svg id="D6" viewBox="0 0 90 123" xmlns="http://www.w3.org/2000/svg">
	<linearGradient id="SVGID_31_" gradientUnits="userSpaceOnUse" x1="45.05" y1="123" x2="45.05" y2="0" gradientTransform="matrix(1 0 0 -1 0 123)">
		<stop  offset="0" style="stop-color:#F5F5F5"/>
		<stop  offset="1" style="stop-color:#D1D1D1"/>
	</linearGradient>
	<linearGradient id="SVGID_32_" gradientUnits="userSpaceOnUse" x1="45.05" y1="80.8" x2="45.05" y2="0.1" gradientTransform="matrix(1 0 0 -1 0 123)">
		<stop  offset="0" style="stop-color:#D0D2D3"/>
		<stop  offset="1" style="stop-color:#CCCECF"/>
	</linearGradient>
	<linearGradient id="SVGID_33_" gradientUnits="userSpaceOnUse" x1="9.25" y1="105.075" x2="9.25" y2="91.9259" gradientTransform="matrix(1 0 0 -1 0 123)">
		<stop  offset="0" style="stop-color:#B72026"/>
		<stop  offset="0.3" style="stop-color:#B11F24"/>
		<stop  offset="1" style="stop-color:#710506"/>
	</linearGradient>
	<linearGradient id="SVGID_34_" gradientUnits="userSpaceOnUse" x1="30.55" y1="116.825" x2="30.55" y2="94.1833" gradientTransform="matrix(1 0 0 -1 0 123)">
		<stop  offset="0" style="stop-color:#B72026"/>
		<stop  offset="0.3" style="stop-color:#B11F24"/>
		<stop  offset="1" style="stop-color:#710506"/>
	</linearGradient>
	<linearGradient id="SVGID_35_" gradientUnits="userSpaceOnUse" x1="62.95" y1="116.825" x2="62.95" y2="94.1833" gradientTransform="matrix(1 0 0 -1 0 123)">
		<stop  offset="0" style="stop-color:#B72026"/>
		<stop  offset="0.3" style="stop-color:#B11F24"/>
		<stop  offset="1" style="stop-color:#710506"/>
	</linearGradient>
	<linearGradient id="SVGID_36_" gradientUnits="userSpaceOnUse" x1="30.35" y1="72.584" x2="30.35" y2="49.9421" gradientTransform="matrix(1 0 0 -1 0 123)">
		<stop  offset="0" style="stop-color:#B72026"/>
		<stop  offset="0.3" style="stop-color:#B11F24"/>
		<stop  offset="1" style="stop-color:#710506"/>
	</linearGradient>
	<linearGradient id="SVGID_37_" gradientUnits="userSpaceOnUse" x1="62.85" y1="72.584" x2="62.85" y2="49.9421" gradientTransform="matrix(1 0 0 -1 0 123)">
		<stop  offset="0" style="stop-color:#B72026"/>
		<stop  offset="0.3" style="stop-color:#B11F24"/>
		<stop  offset="1" style="stop-color:#710506"/>
	</linearGradient>
	<linearGradient id="SVGID_38_" gradientUnits="userSpaceOnUse" x1="30.55" y1="29" x2="30.55" y2="6.375" gradientTransform="matrix(1 0 0 -1 0 123)">
		<stop  offset="0" style="stop-color:#B72026"/>
		<stop  offset="0.3" style="stop-color:#B11F24"/>
		<stop  offset="1" style="stop-color:#710506"/>
	</linearGradient>
	<linearGradient id="SVGID_39_" gradientUnits="userSpaceOnUse" x1="62.95" y1="29" x2="62.95" y2="6.375" gradientTransform="matrix(1 0 0 -1 0 123)">
		<stop  offset="0" style="stop-color:#B72026"/>
		<stop  offset="0.3" style="stop-color:#B11F24"/>
		<stop  offset="1" style="stop-color:#710506"/>
	</linearGradient>
	<path style="display:inline;fill:url(#SVGID_31_);" d="M90,117.7c0,3-2.4,5.3-5.4,5.3H5.4c-3,0-5.4-2.4-5.4-5.3V5.3 C0,2.4,2.4,0,5.4,0h79.3c3,0,5.4,2.4,5.4,5.3v112.4H90z"/>
	<path style="fill:#B92025;" d="M9.5,14.7c-0.8,0-1.5-0.2-2.1-0.5c-0.6-0.4-1.1-0.9-1.4-1.6c-0.3-0.7-0.5-1.5-0.5-2.4V8.3 c0-1.1,0.2-2,0.6-2.8S7,4.2,7.7,3.8S9.1,3.2,10,3.2c0.4,0,0.8,0,1.2,0.1s0.7,0.2,1,0.3l-0.4,1.5C11.6,5.1,11.3,5,11,5 c-0.3-0.1-0.6-0.1-0.9-0.1c-0.7,0-1.3,0.3-1.7,0.8C7.9,6.1,7.7,6.9,7.7,7.9l0,0c0.3-0.3,0.6-0.5,1-0.6C9.1,7.1,9.6,7.1,10,7.1 c0.7,0,1.3,0.2,1.7,0.5c0.5,0.3,0.9,0.8,1.1,1.3c0.3,0.6,0.4,1.2,0.4,1.9c0,0.8-0.2,1.4-0.5,2s-0.7,1-1.3,1.4 C10.9,14.5,10.3,14.7,9.5,14.7z M9.5,13.1c0.3,0,0.6-0.1,0.9-0.3c0.2-0.2,0.4-0.5,0.6-0.8s0.2-0.7,0.2-1.2c0-0.6-0.2-1.1-0.5-1.5 C10.4,8.8,10,8.6,9.4,8.6c-0.3,0-0.5,0-0.7,0.1C8.5,8.8,8.3,8.9,8.1,9C7.9,9.1,7.8,9.3,7.7,9.5v0.8c0,0.9,0.2,1.6,0.5,2.1 C8.5,12.8,9,13.1,9.5,13.1z"/>
	<path style="display:inline;opacity:0.3;fill:url(#SVGID_32_);enable-background:new    ;" d="M0,101v16.6c0,3,2.4,5.3,5.4,5.3 h79.3c3,0,5.4-2.4,5.4-5.3V42.2C48.6,44,13.7,67.9,0,101z"/>
	<path style="display:inline;fill:url(#SVGID_33_);" d="M8.6,18.6c-0.3,0.5-3.9,5.9-3.9,5.9s4,5.9,4.2,6.3c0.3,0.4,0.4,0.4,0.7,0 c0.2-0.3,4.2-6.3,4.2-6.3s-3.6-5.3-3.9-5.9C9.3,17.7,9.2,17.7,8.6,18.6z"/>
	<path style="display:inline;fill:url(#SVGID_34_);" d="M29.6,7.3c-0.6,0.9-6.8,10.1-6.8,10.1s6.8,10.2,7.2,10.8 c0.5,0.7,0.6,0.7,1.1,0c0.4-0.6,7.2-10.8,7.2-10.8s-6.1-9.2-6.8-10.1C30.7,5.8,30.6,5.8,29.6,7.3z"/>
	<path style="display:inline;fill:url(#SVGID_35_);" d="M62,7.3c-0.6,0.9-6.8,10.1-6.8,10.1s6.8,10.2,7.2,10.8 c0.5,0.7,0.6,0.7,1.1,0c0.4-0.6,7.2-10.8,7.2-10.8s-6.1-9.2-6.8-10.1C63.2,5.8,63,5.8,62,7.3z"/>
	<path style="display:inline;fill:url(#SVGID_36_);" d="M29.4,51.5c-0.6,0.9-6.8,10.1-6.8,10.1s6.8,10.2,7.2,10.8 c0.5,0.7,0.6,0.7,1.1,0c0.4-0.6,7.2-10.8,7.2-10.8s-6.1-9.2-6.8-10.1C30.5,50,30.4,50,29.4,51.5z"/>
	<path style="display:inline;fill:url(#SVGID_37_);" d="M61.9,51.5c-0.6,0.9-6.8,10.1-6.8,10.1s6.8,10.2,7.2,10.8 c0.5,0.7,0.6,0.7,1.1,0c0.4-0.6,7.2-10.8,7.2-10.8s-6.1-9.2-6.8-10.1C63,50,62.9,50,61.9,51.5z"/>
	<path style="display:inline;fill:url(#SVGID_38_);" d="M29.6,95.2c-0.6,0.9-6.8,10.1-6.8,10.1s6.8,10.2,7.2,10.8 c0.5,0.7,0.6,0.7,1.1,0c0.4-0.6,7.2-10.8,7.2-10.8s-6.1-9.2-6.8-10.1C30.7,93.6,30.6,93.6,29.6,95.2z"/>
	<path style="display:inline;fill:url(#SVGID_39_);" d="M62,95.2c-0.6,0.9-6.8,10.1-6.8,10.1s6.8,10.2,7.2,10.8 c0.5,0.7,0.6,0.7,1.1,0c0.4-0.6,7.2-10.8,7.2-10.8s-6.1-9.2-6.8-10.1C63.2,93.6,63,93.6,62,95.2z"/>
</svg>
