
<svg id="D7" viewBox="0 0 90 123" xmlns="http://www.w3.org/2000/svg">
	<linearGradient id="SVGID_40_" gradientUnits="userSpaceOnUse" x1="45.05" y1="123" x2="45.05" y2="0" gradientTransform="matrix(1 0 0 -1 0 123)">
		<stop  offset="0" style="stop-color:#F5F5F5"/>
		<stop  offset="1" style="stop-color:#D1D1D1"/>
	</linearGradient>
	<linearGradient id="SVGID_41_" gradientUnits="userSpaceOnUse" x1="45.05" y1="80.8" x2="45.05" y2="0.1" gradientTransform="matrix(1 0 0 -1 0 123)">
		<stop  offset="0" style="stop-color:#D0D2D3"/>
		<stop  offset="1" style="stop-color:#CCCECF"/>
	</linearGradient>
	<linearGradient id="SVGID_42_" gradientUnits="userSpaceOnUse" x1="9.35" y1="105.075" x2="9.35" y2="91.9259" gradientTransform="matrix(1 0 0 -1 0 123)">
		<stop  offset="0" style="stop-color:#B72026"/>
		<stop  offset="0.3" style="stop-color:#B11F24"/>
		<stop  offset="1" style="stop-color:#710506"/>
	</linearGradient>
	<linearGradient id="SVGID_43_" gradientUnits="userSpaceOnUse" x1="30.45" y1="116.825" x2="30.45" y2="94.1833" gradientTransform="matrix(1 0 0 -1 0 123)">
		<stop  offset="0" style="stop-color:#B72026"/>
		<stop  offset="0.3" style="stop-color:#B11F24"/>
		<stop  offset="1" style="stop-color:#710506"/>
	</linearGradient>
	<linearGradient id="SVGID_44_" gradientUnits="userSpaceOnUse" x1="46.55" y1="94.1606" x2="46.55" y2="71.5188" gradientTransform="matrix(1 0 0 -1 0 123)">
		<stop  offset="0" style="stop-color:#B72026"/>
		<stop  offset="0.3" style="stop-color:#B11F24"/>
		<stop  offset="1" style="stop-color:#710506"/>
	</linearGradient>
	<linearGradient id="SVGID_45_" gradientUnits="userSpaceOnUse" x1="62.95" y1="116.825" x2="62.95" y2="94.1833" gradientTransform="matrix(1 0 0 -1 0 123)">
		<stop  offset="0" style="stop-color:#B72026"/>
		<stop  offset="0.3" style="stop-color:#B11F24"/>
		<stop  offset="1" style="stop-color:#710506"/>
	</linearGradient>
	<linearGradient id="SVGID_46_" gradientUnits="userSpaceOnUse" x1="30.35" y1="72.584" x2="30.35" y2="49.9421" gradientTransform="matrix(1 0 0 -1 0 123)">
		<stop  offset="0" style="stop-color:#B72026"/>
		<stop  offset="0.3" style="stop-color:#B11F24"/>
		<stop  offset="1" style="stop-color:#710506"/>
	</linearGradient>
	<linearGradient id="SVGID_47_" gradientUnits="userSpaceOnUse" x1="62.75" y1="72.584" x2="62.75" y2="49.9421" gradientTransform="matrix(1 0 0 -1 0 123)">
		<stop  offset="0" style="stop-color:#B72026"/>
		<stop  offset="0.3" style="stop-color:#B11F24"/>
		<stop  offset="1" style="stop-color:#710506"/>
	</linearGradient>
	<linearGradient id="SVGID_48_" gradientUnits="userSpaceOnUse" x1="30.45" y1="29" x2="30.45" y2="6.375" gradientTransform="matrix(1 0 0 -1 0 123)">
		<stop  offset="0" style="stop-color:#B72026"/>
		<stop  offset="0.3" style="stop-color:#B11F24"/>
		<stop  offset="1" style="stop-color:#710506"/>
	</linearGradient>
	<linearGradient id="SVGID_49_" gradientUnits="userSpaceOnUse" x1="62.95" y1="29" x2="62.95" y2="6.375" gradientTransform="matrix(1 0 0 -1 0 123)">
		<stop  offset="0" style="stop-color:#B72026"/>
		<stop  offset="0.3" style="stop-color:#B11F24"/>
		<stop  offset="1" style="stop-color:#710506"/>
	</linearGradient>
	<path style="display:inline;fill:url(#SVGID_40_);" d="M90,117.7c0,3-2.4,5.3-5.4,5.3H5.4c-3,0-5.4-2.4-5.4-5.3V5.3 C0,2.4,2.4,0,5.4,0h79.3c3,0,5.4,2.4,5.4,5.3v112.4H90z"/>
	<path style="fill:#B92025;" d="M7.5,14.5l0.1-1.1c0.1-1.1,0.3-2.2,0.6-3.1c0.3-1,0.7-1.9,1.2-2.8C10,6.6,10.5,5.8,11.2,5H7.1 L7,6.1H5.4V3.4h7.8V5c-0.6,0.7-1.1,1.4-1.5,2.1c-0.4,0.6-0.7,1.3-1,1.9s-0.5,1.3-0.6,2s-0.3,1.5-0.4,2.4l-0.1,1.1H7.5z"/>
	<path style="display:inline;opacity:0.3;fill:url(#SVGID_41_);enable-background:new    ;" d="M0,101v16.6c0,3,2.4,5.3,5.4,5.3 h79.3c3,0,5.4-2.4,5.4-5.3V42.2C48.6,44,13.7,67.9,0,101z"/>
	<path style="display:inline;fill:url(#SVGID_42_);" d="M8.7,18.6c-0.3,0.5-3.9,5.9-3.9,5.9s4,5.9,4.2,6.3c0.3,0.4,0.4,0.4,0.7,0 c0.2-0.3,4.2-6.3,4.2-6.3s-3.6-5.3-3.9-5.9C9.4,17.7,9.3,17.7,8.7,18.6z"/>
	<path style="display:inline;fill:url(#SVGID_43_);" d="M29.5,7.3c-0.6,0.9-6.8,10.1-6.8,10.1s6.8,10.2,7.2,10.8 c0.5,0.7,0.6,0.7,1.1,0c0.4-0.6,7.2-10.8,7.2-10.8s-6.1-9.2-6.8-10.1C30.6,5.8,30.5,5.8,29.5,7.3z"/>
	<path style="display:inline;fill:url(#SVGID_44_);" d="M45.6,30c-0.6,0.9-6.8,10.1-6.8,10.1s6.8,10.2,7.2,10.8 c0.5,0.7,0.6,0.7,1.1,0c0.4-0.6,7.2-10.8,7.2-10.8s-6.1-9.2-6.8-10.1C46.7,28.5,46.6,28.5,45.6,30z"/>
	<path style="display:inline;fill:url(#SVGID_45_);" d="M62,7.3c-0.6,0.9-6.8,10.1-6.8,10.1s6.8,10.2,7.2,10.8 c0.5,0.7,0.6,0.7,1.1,0c0.4-0.6,7.2-10.8,7.2-10.8s-6.1-9.2-6.8-10.1C63.1,5.8,63,5.8,62,7.3z"/>
	<path style="display:inline;fill:url(#SVGID_46_);" d="M29.4,51.5c-0.6,0.9-6.8,10.1-6.8,10.1s6.8,10.2,7.2,10.8 c0.5,0.7,0.6,0.7,1.1,0c0.4-0.6,7.2-10.8,7.2-10.8s-6.1-9.2-6.8-10.1C30.5,50,30.4,50,29.4,51.5z"/>
	<path style="display:inline;fill:url(#SVGID_47_);" d="M61.8,51.5C61.2,52.4,55,61.6,55,61.6s6.8,10.2,7.2,10.8 c0.5,0.7,0.6,0.7,1.1,0c0.4-0.6,7.2-10.8,7.2-10.8s-6.1-9.2-6.8-10.1C63,50,62.8,50,61.8,51.5z"/>
	<path style="display:inline;fill:url(#SVGID_48_);" d="M29.5,95.2c-0.6,0.9-6.8,10.1-6.8,10.1s6.8,10.2,7.2,10.8 c0.5,0.7,0.6,0.7,1.1,0c0.4-0.6,7.2-10.8,7.2-10.8s-6.1-9.2-6.8-10.1C30.6,93.6,30.5,93.6,29.5,95.2z"/>
	<path style="display:inline;fill:url(#SVGID_49_);" d="M62,95.2c-0.6,0.9-6.8,10.1-6.8,10.1s6.8,10.2,7.2,10.8 c0.5,0.7,0.6,0.7,1.1,0c0.4-0.6,7.2-10.8,7.2-10.8s-6.1-9.2-6.8-10.1C63.1,93.6,63,93.6,62,95.2z"/>
</svg>
