
<svg id="D8" viewBox="0 0 90 123" xmlns="http://www.w3.org/2000/svg">
	<linearGradient id="SVGID_50_" gradientUnits="userSpaceOnUse" x1="45.05" y1="123" x2="45.05" y2="0" gradientTransform="matrix(1 0 0 -1 0 123)">
		<stop  offset="0" style="stop-color:#F5F5F5"/>
		<stop  offset="1" style="stop-color:#D1D1D1"/>
	</linearGradient>
	<linearGradient id="SVGID_51_" gradientUnits="userSpaceOnUse" x1="45.05" y1="80.8" x2="45.05" y2="0.1" gradientTransform="matrix(1 0 0 -1 0 123)">
		<stop  offset="0" style="stop-color:#D0D2D3"/>
		<stop  offset="1" style="stop-color:#CCCECF"/>
	</linearGradient>
	<linearGradient id="SVGID_52_" gradientUnits="userSpaceOnUse" x1="9.25" y1="105.075" x2="9.25" y2="91.926" gradientTransform="matrix(1 0 0 -1 0 123)">
		<stop  offset="0" style="stop-color:#B72026"/>
		<stop  offset="0.3" style="stop-color:#B11F24"/>
		<stop  offset="1" style="stop-color:#710506"/>
	</linearGradient>
	<linearGradient id="SVGID_53_" gradientUnits="userSpaceOnUse" x1="30.35" y1="116.8014" x2="30.35" y2="94.1596" gradientTransform="matrix(1 0 0 -1 0 123)">
		<stop  offset="0" style="stop-color:#B72026"/>
		<stop  offset="0.3" style="stop-color:#B11F24"/>
		<stop  offset="1" style="stop-color:#710506"/>
	</linearGradient>
	<linearGradient id="SVGID_54_" gradientUnits="userSpaceOnUse" x1="62.85" y1="116.8014" x2="62.85" y2="94.1596" gradientTransform="matrix(1 0 0 -1 0 123)">
		<stop  offset="0" style="stop-color:#B72026"/>
		<stop  offset="0.3" style="stop-color:#B11F24"/>
		<stop  offset="1" style="stop-color:#710506"/>
	</linearGradient>
	<linearGradient id="SVGID_55_" gradientUnits="userSpaceOnUse" x1="30.45" y1="87.3" x2="30.45" y2="64.675" gradientTransform="matrix(1 0 0 -1 0 123)">
		<stop  offset="0" style="stop-color:#B72026"/>
		<stop  offset="0.3" style="stop-color:#B11F24"/>
		<stop  offset="1" style="stop-color:#710506"/>
	</linearGradient>
	<linearGradient id="SVGID_56_" gradientUnits="userSpaceOnUse" x1="62.85" y1="87.3" x2="62.85" y2="64.675" gradientTransform="matrix(1 0 0 -1 0 123)">
		<stop  offset="0" style="stop-color:#B72026"/>
		<stop  offset="0.3" style="stop-color:#B11F24"/>
		<stop  offset="1" style="stop-color:#710506"/>
	</linearGradient>
	<linearGradient id="SVGID_57_" gradientUnits="userSpaceOnUse" x1="30.35" y1="58.4963" x2="30.35" y2="35.8545" gradientTransform="matrix(1 0 0 -1 0 123)">
		<stop  offset="0" style="stop-color:#B72026"/>
		<stop  offset="0.3" style="stop-color:#B11F24"/>
		<stop  offset="1" style="stop-color:#710506"/>
	</linearGradient>
	<linearGradient id="SVGID_58_" gradientUnits="userSpaceOnUse" x1="62.9" y1="58.5128" x2="62.9" y2="35.875" gradientTransform="matrix(1 0 0 -1 0 123)">
		<stop  offset="0" style="stop-color:#B72026"/>
		<stop  offset="0.3" style="stop-color:#B11F24"/>
		<stop  offset="1" style="stop-color:#710506"/>
	</linearGradient>
	<linearGradient id="SVGID_59_" gradientUnits="userSpaceOnUse" x1="30.35" y1="28.9762" x2="30.35" y2="6.3512" gradientTransform="matrix(1 0 0 -1 0 123)">
		<stop  offset="0" style="stop-color:#B72026"/>
		<stop  offset="0.3" style="stop-color:#B11F24"/>
		<stop  offset="1" style="stop-color:#710506"/>
	</linearGradient>
	<linearGradient id="SVGID_60_" gradientUnits="userSpaceOnUse" x1="62.85" y1="28.9762" x2="62.85" y2="6.3512" gradientTransform="matrix(1 0 0 -1 0 123)">
		<stop  offset="0" style="stop-color:#B72026"/>
		<stop  offset="0.3" style="stop-color:#B11F24"/>
		<stop  offset="1" style="stop-color:#710506"/>
	</linearGradient>
	<path style="display:inline;fill:url(#SVGID_50_);" d="M90,117.7c0,3-2.4,5.3-5.4,5.3H5.4c-3,0-5.4-2.4-5.4-5.3V5.3 C0,2.4,2.4,0,5.4,0h79.3c3,0,5.4,2.4,5.4,5.3v112.4H90z"/>
	<path style="fill:#B92025;" d="M9.3,14.7c-0.8,0-1.4-0.1-2-0.4c-0.6-0.2-1-0.6-1.3-1.1s-0.5-1.1-0.5-1.8c0-0.6,0.2-1.2,0.5-1.6 C6.4,9.3,6.8,9,7.4,8.7c-0.5-0.2-0.9-0.6-1.2-1C5.9,7.4,5.8,6.9,5.8,6.3c0-0.7,0.1-1.2,0.4-1.7s0.7-0.8,1.2-1.1 C8,3.3,8.6,3.2,9.3,3.2s1.3,0.1,1.8,0.4c0.5,0.2,0.9,0.6,1.2,1.1s0.4,1,0.4,1.7c0,0.6-0.2,1.1-0.5,1.5c-0.3,0.4-0.7,0.8-1.2,1 c0.6,0.2,1.1,0.6,1.4,1.1c0.4,0.5,0.5,1,0.5,1.6c0,0.7-0.2,1.3-0.5,1.8s-0.8,0.8-1.3,1.1C10.7,14.6,10,14.7,9.3,14.7z M9.3,13.1 c0.3,0,0.6-0.1,0.9-0.2c0.3-0.1,0.5-0.3,0.6-0.6s0.2-0.6,0.2-0.9c0-0.3-0.1-0.7-0.2-0.9c-0.1-0.3-0.3-0.5-0.6-0.6 C9.9,9.7,9.6,9.6,9.3,9.6S8.7,9.7,8.4,9.8c-0.3,0.1-0.5,0.4-0.6,0.6c-0.1,0.3-0.2,0.6-0.2,0.9c0,0.5,0.2,1,0.5,1.3 C8.4,12.9,8.8,13.1,9.3,13.1z M9.3,8C9.6,8,9.8,7.9,10,7.8s0.4-0.3,0.5-0.6c0.1-0.2,0.2-0.5,0.2-0.8s-0.1-0.6-0.2-0.8 C10.4,5.3,10.2,5.2,10,5C9.8,4.9,9.6,4.8,9.3,4.8c-0.4,0-0.8,0.1-1,0.4C8,5.5,7.9,5.9,7.9,6.4S8,7.3,8.3,7.6C8.5,7.9,8.8,8,9.3,8z "/>
	<path style="display:inline;opacity:0.3;fill:url(#SVGID_51_);enable-background:new    ;" d="M0,101v16.6c0,3,2.4,5.3,5.4,5.3 h79.3c3,0,5.4-2.4,5.4-5.3V42.2C48.6,44,13.7,67.9,0,101z"/>
	<path style="display:inline;fill:url(#SVGID_52_);" d="M8.6,18.6c-0.3,0.5-3.9,5.9-3.9,5.9s4,5.9,4.2,6.3c0.3,0.4,0.4,0.4,0.7,0 c0.2-0.3,4.2-6.3,4.2-6.3s-3.6-5.3-3.9-5.9C9.3,17.7,9.2,17.7,8.6,18.6z"/>
	<path style="display:inline;fill:url(#SVGID_53_);" d="M29.4,7.3c-0.6,0.9-6.8,10.1-6.8,10.1s6.8,10.2,7.2,10.8 c0.5,0.7,0.6,0.7,1.1,0c0.4-0.6,7.2-10.8,7.2-10.8S32,8.2,31.3,7.3C30.5,5.8,30.4,5.8,29.4,7.3z"/>
	<path style="display:inline;fill:url(#SVGID_54_);" d="M61.9,7.3c-0.6,0.9-6.8,10.1-6.8,10.1s6.8,10.2,7.2,10.8 c0.5,0.7,0.6,0.7,1.1,0c0.4-0.6,7.2-10.8,7.2-10.8s-6-9.1-6.6-10.1C63,5.8,62.9,5.8,61.9,7.3z"/>
	<path style="display:inline;fill:url(#SVGID_55_);" d="M29.4,36.9C28.8,37.8,22.7,47,22.7,47s6.8,10.2,7.2,10.8 c0.5,0.7,0.6,0.7,1.1,0c0.4-0.6,7.2-10.8,7.2-10.8s-6.1-9.2-6.8-10.1C30.5,35.3,30.4,35.3,29.4,36.9z"/>
	<path style="display:inline;fill:url(#SVGID_56_);" d="M61.9,36.9C61.3,37.8,55.1,47,55.1,47s6.8,10.2,7.2,10.8 c0.5,0.7,0.6,0.7,1.1,0c0.4-0.6,7.2-10.8,7.2-10.8s-6.1-9.2-6.8-10.1C63,35.3,62.9,35.3,61.9,36.9z"/>
	<path style="display:inline;fill:url(#SVGID_57_);" d="M29.4,65.6c-0.6,0.9-6.8,10.1-6.8,10.1s6.8,10.2,7.2,10.8 c0.5,0.7,0.6,0.7,1.1,0c0.4-0.6,7.2-10.8,7.2-10.8s-6.1-9.2-6.8-10.1C30.5,64.1,30.4,64.1,29.4,65.6z"/>
	<path style="display:inline;fill:url(#SVGID_58_);" d="M61.9,65.6c-0.6,0.9-6.8,10.1-6.8,10.1S62,86,62.4,86.6 c0.5,0.7,0.6,0.7,1.1,0c0.4-0.6,7.2-10.8,7.2-10.8s-6.1-9.2-6.8-10.1C63,64.1,62.9,64.1,61.9,65.6z"/>
	<path style="display:inline;fill:url(#SVGID_59_);" d="M29.4,95.2c-0.6,0.9-6.8,10.1-6.8,10.1s6.8,10.2,7.2,10.8 c0.5,0.7,0.6,0.7,1.1,0c0.4-0.6,7.2-10.8,7.2-10.8s-6.1-9.2-6.8-10.1C30.5,93.6,30.4,93.6,29.4,95.2z"/>
	<path style="display:inline;fill:url(#SVGID_60_);" d="M61.9,95.2c-0.6,0.9-6.8,10.1-6.8,10.1s6.8,10.2,7.2,10.8 c0.5,0.7,0.6,0.7,1.1,0c0.4-0.6,7.2-10.8,7.2-10.8s-6.1-9.2-6.8-10.1C63,93.6,62.9,93.6,61.9,95.2z"/>
</svg>
