
<svg id="D9" viewBox="0 0 90 123" xmlns="http://www.w3.org/2000/svg">
	<linearGradient id="SVGID_61_" gradientUnits="userSpaceOnUse" x1="45.05" y1="123" x2="45.05" y2="0" gradientTransform="matrix(1 0 0 -1 0 123)">
		<stop  offset="0" style="stop-color:#F5F5F5"/>
		<stop  offset="1" style="stop-color:#D1D1D1"/>
	</linearGradient>
	<linearGradient id="SVGID_62_" gradientUnits="userSpaceOnUse" x1="45.05" y1="80.8" x2="45.05" y2="0.1" gradientTransform="matrix(1 0 0 -1 0 123)">
		<stop  offset="0" style="stop-color:#D0D2D3"/>
		<stop  offset="1" style="stop-color:#CCCECF"/>
	</linearGradient>
	<linearGradient id="SVGID_63_" gradientUnits="userSpaceOnUse" x1="9.15" y1="105.075" x2="9.15" y2="91.926" gradientTransform="matrix(1 0 0 -1 0 123)">
		<stop  offset="0" style="stop-color:#B72026"/>
		<stop  offset="0.3" style="stop-color:#B11F24"/>
		<stop  offset="1" style="stop-color:#710506"/>
	</linearGradient>
	<linearGradient id="SVGID_64_" gradientUnits="userSpaceOnUse" x1="30.25" y1="116.8014" x2="30.25" y2="94.1596" gradientTransform="matrix(1 0 0 -1 0 123)">
		<stop  offset="0" style="stop-color:#B72026"/>
		<stop  offset="0.3" style="stop-color:#B11F24"/>
		<stop  offset="1" style="stop-color:#710506"/>
	</linearGradient>
	<linearGradient id="SVGID_65_" gradientUnits="userSpaceOnUse" x1="46.25" y1="101.725" x2="46.25" y2="79.0833" gradientTransform="matrix(1 0 0 -1 0 123)">
		<stop  offset="0" style="stop-color:#B72026"/>
		<stop  offset="0.3" style="stop-color:#B11F24"/>
		<stop  offset="1" style="stop-color:#710506"/>
	</linearGradient>
	<linearGradient id="SVGID_66_" gradientUnits="userSpaceOnUse" x1="62.75" y1="116.8014" x2="62.75" y2="94.1596" gradientTransform="matrix(1 0 0 -1 0 123)">
		<stop  offset="0" style="stop-color:#B72026"/>
		<stop  offset="0.3" style="stop-color:#B11F24"/>
		<stop  offset="1" style="stop-color:#710506"/>
	</linearGradient>
	<linearGradient id="SVGID_67_" gradientUnits="userSpaceOnUse" x1="30.25" y1="87.3" x2="30.25" y2="64.675" gradientTransform="matrix(1 0 0 -1 0 123)">
		<stop  offset="0" style="stop-color:#B72026"/>
		<stop  offset="0.3" style="stop-color:#B11F24"/>
		<stop  offset="1" style="stop-color:#710506"/>
	</linearGradient>
	<linearGradient id="SVGID_68_" gradientUnits="userSpaceOnUse" x1="62.75" y1="87.3" x2="62.75" y2="64.675" gradientTransform="matrix(1 0 0 -1 0 123)">
		<stop  offset="0" style="stop-color:#B72026"/>
		<stop  offset="0.3" style="stop-color:#B11F24"/>
		<stop  offset="1" style="stop-color:#710506"/>
	</linearGradient>
	<linearGradient id="SVGID_69_" gradientUnits="userSpaceOnUse" x1="30.25" y1="58.4963" x2="30.25" y2="35.8545" gradientTransform="matrix(1 0 0 -1 0 123)">
		<stop  offset="0" style="stop-color:#B72026"/>
		<stop  offset="0.3" style="stop-color:#B11F24"/>
		<stop  offset="1" style="stop-color:#710506"/>
	</linearGradient>
	<linearGradient id="SVGID_70_" gradientUnits="userSpaceOnUse" x1="62.75" y1="58.5128" x2="62.75" y2="35.875" gradientTransform="matrix(1 0 0 -1 0 123)">
		<stop  offset="0" style="stop-color:#B72026"/>
		<stop  offset="0.3" style="stop-color:#B11F24"/>
		<stop  offset="1" style="stop-color:#710506"/>
	</linearGradient>
	<linearGradient id="SVGID_71_" gradientUnits="userSpaceOnUse" x1="30.25" y1="28.9762" x2="30.25" y2="6.3512" gradientTransform="matrix(1 0 0 -1 0 123)">
		<stop  offset="0" style="stop-color:#B72026"/>
		<stop  offset="0.3" style="stop-color:#B11F24"/>
		<stop  offset="1" style="stop-color:#710506"/>
	</linearGradient>
	<linearGradient id="SVGID_72_" gradientUnits="userSpaceOnUse" x1="62.65" y1="28.9762" x2="62.65" y2="6.3512" gradientTransform="matrix(1 0 0 -1 0 123)">
		<stop  offset="0" style="stop-color:#B72026"/>
		<stop  offset="0.3" style="stop-color:#B11F24"/>
		<stop  offset="1" style="stop-color:#710506"/>
	</linearGradient>
	<path style="display:inline;fill:url(#SVGID_61_);" d="M90,117.7c0,3-2.4,5.3-5.4,5.3H5.4c-3,0-5.4-2.4-5.4-5.3V5.3 C0,2.4,2.4,0,5.4,0h79.3c3,0,5.4,2.4,5.4,5.3v112.4H90z"/>
	<path style="fill:#B92025;" d="M8.7,14.7c-0.4,0-0.8,0-1.2-0.1c-0.4-0.1-0.8-0.2-1.1-0.3l0.3-1.5c0.3,0.1,0.6,0.2,1,0.3 c0.3,0.1,0.7,0.1,1,0.1c0.7,0,1.2-0.2,1.6-0.7c0.4-0.5,0.6-1.2,0.6-2.2v-0.1c-0.2,0.3-0.5,0.6-0.9,0.7C9.5,11,9.1,11,8.7,11 c-0.7,0-1.3-0.2-1.8-0.5C6.4,10.3,6,9.8,5.8,9.3C5.5,8.7,5.3,8,5.3,7.2s0.2-1.4,0.5-2s0.8-1.1,1.3-1.4C7.7,3.5,8.3,3.3,9,3.3 c0.8,0,1.4,0.2,2,0.5s1,0.9,1.3,1.5s0.5,1.5,0.5,2.4V10c0,1-0.2,1.9-0.5,2.6c-0.4,0.7-0.8,1.2-1.5,1.6 C10.3,14.5,9.5,14.7,8.7,14.7z M9.1,9.5c0.4,0,0.7-0.1,1-0.2c0.3-0.2,0.5-0.4,0.7-0.6V7.4c0-0.9-0.2-1.5-0.5-1.9 C10,5,9.6,4.8,9.1,4.8c-0.3,0-0.6,0.1-0.8,0.3C8,5.4,7.8,5.6,7.7,6C7.5,6.4,7.4,6.8,7.4,7.2c0,0.5,0.1,0.9,0.2,1.2 C7.8,8.8,7.9,9,8.2,9.2C8.4,9.4,8.7,9.5,9.1,9.5z"/>
	<path style="display:inline;opacity:0.3;fill:url(#SVGID_62_);enable-background:new    ;" d="M0,101v16.6c0,3,2.4,5.3,5.4,5.3 h79.3c3,0,5.4-2.4,5.4-5.3V42.2C48.6,44,13.7,67.9,0,101z"/>
	<path style="display:inline;fill:url(#SVGID_63_);" d="M8.5,18.6c-0.3,0.5-3.9,5.9-3.9,5.9s4,5.9,4.2,6.3c0.3,0.4,0.4,0.4,0.7,0 c0.2-0.3,4.2-6.3,4.2-6.3s-3.6-5.3-3.9-5.9C9.1,17.7,9,17.7,8.5,18.6z"/>
	<path style="display:inline;fill:url(#SVGID_64_);" d="M29.3,7.3c-0.6,0.9-6.8,10.1-6.8,10.1s6.8,10.2,7.2,10.8 c0.5,0.7,0.6,0.7,1.1,0c0.4-0.6,7.2-10.8,7.2-10.8s-6-9.1-6.6-10.1C30.4,5.8,30.3,5.8,29.3,7.3z"/>
	<path style="display:inline;fill:url(#SVGID_65_);" d="M45.3,22.4c-0.6,0.9-6.8,10.1-6.8,10.1s6.8,10.2,7.2,10.8 c0.5,0.7,0.6,0.7,1.1,0c0.4-0.6,7.2-10.8,7.2-10.8s-6.1-9.2-6.8-10.1C46.5,20.9,46.3,20.9,45.3,22.4z"/>
	<path style="display:inline;fill:url(#SVGID_66_);" d="M61.7,7.3C61.1,8.2,55,17.4,55,17.4s6.8,10.2,7.2,10.8 c0.5,0.7,0.6,0.7,1.1,0c0.4-0.6,7.2-10.8,7.2-10.8s-6.1-9.2-6.8-10.1C62.8,5.8,62.7,5.8,61.7,7.3z"/>
	<path style="display:inline;fill:url(#SVGID_67_);" d="M29.3,36.9C28.7,37.8,22.5,47,22.5,47s6.8,10.2,7.2,10.8 c0.5,0.7,0.6,0.7,1.1,0C31.2,57.2,38,47,38,47s-6.1-9.2-6.8-10.1C30.4,35.3,30.3,35.3,29.3,36.9z"/>
	<path style="display:inline;fill:url(#SVGID_68_);" d="M61.7,36.9C61.1,37.8,55,47,55,47s6.8,10.2,7.2,10.8c0.5,0.7,0.6,0.7,1.1,0 c0.4-0.6,7.2-10.8,7.2-10.8s-6.1-9.2-6.8-10.1C62.8,35.3,62.7,35.3,61.7,36.9z"/>
	<path style="display:inline;fill:url(#SVGID_69_);" d="M29.3,65.6c-0.6,0.9-6.8,10.1-6.8,10.1s6.8,10.2,7.2,10.8 c0.5,0.7,0.6,0.7,1.1,0c0.4-0.6,7.2-10.8,7.2-10.8s-6.1-9.2-6.8-10.1C30.4,64.1,30.3,64.1,29.3,65.6z"/>
	<path style="display:inline;fill:url(#SVGID_70_);" d="M61.7,65.6C61.1,66.5,55,75.8,55,75.8s6.8,10.2,7.2,10.8 c0.5,0.7,0.6,0.7,1.1,0c0.4-0.6,7.2-10.8,7.2-10.8s-6.1-9.2-6.8-10.1C62.8,64.1,62.7,64.1,61.7,65.6z"/>
	<path style="display:inline;fill:url(#SVGID_71_);" d="M29.3,95.2c-0.6,0.9-6.8,10.1-6.8,10.1s6.8,10.2,7.2,10.8 c0.5,0.7,0.6,0.7,1.1,0c0.4-0.6,7.2-10.8,7.2-10.8s-6.1-9.2-6.8-10.1C30.4,93.6,30.3,93.6,29.3,95.2z"/>
	<path style="display:inline;fill:url(#SVGID_72_);" d="M61.7,95.2c-0.6,0.9-6.8,10.1-6.8,10.1s6.8,10.2,7.2,10.8 c0.5,0.7,0.6,0.7,1.1,0c0.4-0.6,7.2-10.8,7.2-10.8s-6.1-9.2-6.8-10.1C62.8,93.6,62.7,93.6,61.7,95.2z"/>
</svg>
