
<svg id="DA" viewBox="0 0 90 123" xmlns="http://www.w3.org/2000/svg">
	<filter x="-10%" y="-10%" width="120%" height="120%" filterUnits="objectBoundingBox" id="ds">
		<feOffset dx="0" dy="2" in="SourceAlpha" result="shadowOffsetOuter2"/>
		<feGaussianBlur stdDeviation="1.5" in="shadowOffsetOuter2" result="shadowBlurOuter2"/>
		<feColorMatrix values="0.2 0 0 0 0 0 0.2 0 0 0 0 0 0.2 0 0 0 0 0 0.75 0" type="matrix" in="shadowBlurOuter2" result="shadowMatrixOuter2"/>
		<feMerge>
			<feMergeNode in="shadowMatrixOuter2"/>
			<feMergeNode in="SourceGraphic"/>
		</feMerge>
	</filter>
	<linearGradient id="SVGID_1_" gradientUnits="userSpaceOnUse" x1="45.05" y1="123" x2="45.05" y2="0" gradientTransform="matrix(1 0 0 -1 0 123)">
		<stop  offset="0" style="stop-color:#F5F5F5"/>
		<stop  offset="1" style="stop-color:#D1D1D1"/>
	</linearGradient>
	<linearGradient id="SVGID_2_" gradientUnits="userSpaceOnUse" x1="45.05" y1="80.8" x2="45.05" y2="0.1" gradientTransform="matrix(1 0 0 -1 0 123)">
		<stop  offset="0" style="stop-color:#D0D2D3"/>
		<stop  offset="1" style="stop-color:#CCCECF"/>
	</linearGradient>
	<linearGradient id="SVGID_3_" gradientUnits="userSpaceOnUse" x1="45" y1="89.075" x2="45" y2="33.95" gradientTransform="matrix(1 0 0 -1 0 123)">
		<stop  offset="0" style="stop-color:#B72026"/>
		<stop  offset="0.3" style="stop-color:#B11F24"/>
		<stop  offset="1" style="stop-color:#710506"/>
	</linearGradient>
	<linearGradient id="SVGID_4_" gradientUnits="userSpaceOnUse" x1="9.25" y1="104.5414" x2="9.25" y2="91.3924" gradientTransform="matrix(1 0 0 -1 0 123)">
		<stop  offset="0" style="stop-color:#B72026"/>
		<stop  offset="0.3" style="stop-color:#B11F24"/>
		<stop  offset="1" style="stop-color:#710506"/>
	</linearGradient>
	<path style="display:inline;fill:url(#SVGID_1_);" d="M90,117.7c0,3-2.4,5.3-5.4,5.3H5.4c-3,0-5.4-2.4-5.4-5.3V5.3 C0,2.4,2.4,0,5.4,0h79.3c3,0,5.4,2.4,5.4,5.3v112.4H90z"/>
	<path style="display:inline;fill:#B92025;" d="M3.8,14.5v-1.3l0.8-0.1l3.6-9.8h2.1l3.6,9.8l0.8,0.1v1.3H11v-1.3l0.8-0.1l-0.5-1.6 H7.2l-0.5,1.6l0.8,0.1v1.3H3.8z M7.7,9.9h3L9.4,6L9.3,5.6l0,0L9.1,6L7.7,9.9z"/>
	<path style="display:inline;opacity:0.3;fill:url(#SVGID_2_);enable-background:new    ;" d="M0,101v16.6c0,3,2.4,5.3,5.4,5.3h79.3 c3,0,5.4-2.4,5.4-5.3V42.2C48.6,44,13.7,67.9,0,101z"/>
	<path style="display:inline;fill:url(#SVGID_3_);" filter="url(#ds)" d="M42.4,36.7C41,38.9,26,61.3,26,61.3s16.6,24.9,17.6,26.4 c1.2,1.8,1.5,1.8,2.8,0c1-1.4,17.6-26.4,17.6-26.4S49.1,39,47.6,36.7C45.2,33,44.9,33,42.4,36.7z"/>
	<path style="display:inline;fill:url(#SVGID_4_);" d="M8.6,19.1C8.3,19.6,4.7,25,4.7,25s4,5.9,4.2,6.3c0.3,0.4,0.4,0.4,0.7,0 C9.8,31,13.8,25,13.8,25s-3.6-5.3-3.9-5.9C9.3,18.2,9.2,18.2,8.6,19.1z"/>
</svg>
