
<svg id="H10" viewBox="0 0 90 123" xmlns="http://www.w3.org/2000/svg">
	<linearGradient id="SVGID_369_" gradientUnits="userSpaceOnUse" x1="45.05" y1="123" x2="45.05" y2="0" gradientTransform="matrix(1 0 0 -1 0 123)">
		<stop  offset="0" style="stop-color:#F5F5F5"/>
		<stop  offset="1" style="stop-color:#D1D1D1"/>
	</linearGradient>
	<linearGradient id="SVGID_370_" gradientUnits="userSpaceOnUse" x1="9.2085" y1="103.9359" x2="9.2085" y2="93.0523" gradientTransform="matrix(1 0 0 -1 0 123)">
		<stop  offset="0" style="stop-color:#B72026"/>
		<stop  offset="0.3" style="stop-color:#B11F24"/>
		<stop  offset="1" style="stop-color:#710506"/>
	</linearGradient>
	<linearGradient id="SVGID_371_" gradientUnits="userSpaceOnUse" x1="45.05" y1="80.8" x2="45.05" y2="0.1" gradientTransform="matrix(1 0 0 -1 0 123)">
		<stop  offset="0" style="stop-color:#D0D2D3"/>
		<stop  offset="1" style="stop-color:#CCCECF"/>
	</linearGradient>
	<linearGradient id="SVGID_372_" gradientUnits="userSpaceOnUse" x1="29.4204" y1="116.0788" x2="29.4204" y2="97.5788" gradientTransform="matrix(1 0 0 -1 0 123)">
		<stop  offset="0" style="stop-color:#B72026"/>
		<stop  offset="0.3" style="stop-color:#B11F24"/>
		<stop  offset="1" style="stop-color:#710506"/>
	</linearGradient>
	<linearGradient id="SVGID_373_" gradientUnits="userSpaceOnUse" x1="63.0204" y1="116.0788" x2="63.0204" y2="97.5788" gradientTransform="matrix(1 0 0 -1 0 123)">
		<stop  offset="0" style="stop-color:#B72026"/>
		<stop  offset="0.3" style="stop-color:#B11F24"/>
		<stop  offset="1" style="stop-color:#710506"/>
	</linearGradient>
	<linearGradient id="SVGID_374_" gradientUnits="userSpaceOnUse" x1="29.4204" y1="85.2258" x2="29.4204" y2="66.7258" gradientTransform="matrix(1 0 0 -1 0 123)">
		<stop  offset="0" style="stop-color:#B72026"/>
		<stop  offset="0.3" style="stop-color:#B11F24"/>
		<stop  offset="1" style="stop-color:#710506"/>
	</linearGradient>
	<linearGradient id="SVGID_375_" gradientUnits="userSpaceOnUse" x1="63.0204" y1="85.2258" x2="63.0204" y2="66.7258" gradientTransform="matrix(1 0 0 -1 0 123)">
		<stop  offset="0" style="stop-color:#B72026"/>
		<stop  offset="0.3" style="stop-color:#B11F24"/>
		<stop  offset="1" style="stop-color:#710506"/>
	</linearGradient>
	<linearGradient id="SVGID_376_" gradientUnits="userSpaceOnUse" x1="46.2204" y1="100.9715" x2="46.2204" y2="82.4715" gradientTransform="matrix(1 0 0 -1 0 123)">
		<stop  offset="0" style="stop-color:#B72026"/>
		<stop  offset="0.3" style="stop-color:#B11F24"/>
		<stop  offset="1" style="stop-color:#710506"/>
	</linearGradient>
	<linearGradient id="SVGID_377_" gradientUnits="userSpaceOnUse" x1="63.2699" y1="25.0314" x2="63.2699" y2="6.5314" gradientTransform="matrix(1 0 0 -1 0 123)">
		<stop  offset="0" style="stop-color:#B72026"/>
		<stop  offset="0.3" style="stop-color:#B11F24"/>
		<stop  offset="1" style="stop-color:#710506"/>
	</linearGradient>
	<linearGradient id="SVGID_378_" gradientUnits="userSpaceOnUse" x1="29.6796" y1="25.0314" x2="29.6796" y2="6.5314" gradientTransform="matrix(1 0 0 -1 0 123)">
		<stop  offset="0" style="stop-color:#B72026"/>
		<stop  offset="0.3" style="stop-color:#B11F24"/>
		<stop  offset="1" style="stop-color:#710506"/>
	</linearGradient>
	<linearGradient id="SVGID_379_" gradientUnits="userSpaceOnUse" x1="63.2699" y1="55.9" x2="63.2699" y2="37.4" gradientTransform="matrix(1 0 0 -1 0 123)">
		<stop  offset="0" style="stop-color:#B72026"/>
		<stop  offset="0.3" style="stop-color:#B11F24"/>
		<stop  offset="1" style="stop-color:#710506"/>
	</linearGradient>
	<linearGradient id="SVGID_380_" gradientUnits="userSpaceOnUse" x1="29.6796" y1="55.9" x2="29.6796" y2="37.4" gradientTransform="matrix(1 0 0 -1 0 123)">
		<stop  offset="0" style="stop-color:#B72026"/>
		<stop  offset="0.3" style="stop-color:#B11F24"/>
		<stop  offset="1" style="stop-color:#710506"/>
	</linearGradient>
	<linearGradient id="SVGID_381_" gradientUnits="userSpaceOnUse" x1="46.4796" y1="40.1388" x2="46.4796" y2="21.6388" gradientTransform="matrix(1 0 0 -1 0 123)">
		<stop  offset="0" style="stop-color:#B72026"/>
		<stop  offset="0.3" style="stop-color:#B11F24"/>
		<stop  offset="1" style="stop-color:#710506"/>
	</linearGradient>
	<path style="fill:url(#SVGID_369_);" d="M90,117.7c0,3-2.4,5.3-5.4,5.3H5.4c-3,0-5.4-2.4-5.4-5.3V5.3 C0,2.4,2.4,0,5.4,0h79.3c3,0,5.4,2.4,5.4,5.3v112.4H90z"/>
	<path style="fill:url(#SVGID_370_);" d="M12,19.1c-1.2,0-2.3,1-2.8,2.1c-0.5-1-1.6-2.1-2.8-2.1 c-1.7,0-3.1,1.4-3.1,3.1c0,3.5,3.3,5.4,5.9,7.8c2.4-2.4,5.6-4.3,5.9-7.8C15.3,20.5,13.7,19.1,12,19.1z"/>
	<path style="fill:#B92025;" d="M1.9,14.5v-1.3L3.8,13V5.3H1.9V4.1l4-0.7V13l1.9,0.2v1.3H1.9z"/>
	<path style="fill:#B92025;" d="M12.7,14.7c-1.2,0-2.1-0.4-2.7-1.1c-0.7-0.8-1-1.9-1-3.3V7.7c0-1.5,0.3-2.6,1-3.3 c0.7-0.8,1.6-1.1,2.7-1.1s2.1,0.4,2.7,1.1c0.7,0.8,1,1.9,1,3.3v2.5c0,1.5-0.3,2.6-1,3.3C14.8,14.3,13.9,14.7,12.7,14.7z  M12.7,13.1c0.5,0,0.9-0.2,1.2-0.6c0.3-0.4,0.4-1.1,0.4-2v-3c0-0.9-0.1-1.6-0.4-2c-0.3-0.4-0.7-0.6-1.2-0.6s-1,0.1-1.2,0.6 c-0.3,0.4-0.4,1.1-0.4,2v3c0,0.9,0.1,1.6,0.4,2C11.8,12.9,12.2,13.1,12.7,13.1z"/>
	<path style="opacity:0.3;fill:url(#SVGID_371_);enable-background:new    ;" d="M0,101v16.6c0,3,2.4,5.3,5.4,5.3 h79.3c3,0,5.4-2.4,5.4-5.3V42.2C48.6,44,13.7,67.9,0,101z"/>
	<path style="fill:url(#SVGID_372_);" d="M34.3,6.9c-2.1,0-3.9,1.7-4.8,3.5c-0.8-1.8-2.7-3.5-4.8-3.5 c-2.9,0-5.3,2.4-5.3,5.2c0,5.9,5.6,9.2,10,13.3c4.1-4,9.5-7.4,10-13.3C39.8,9.3,37.2,6.9,34.3,6.9z"/>
	<path style="fill:url(#SVGID_373_);" d="M67.9,6.9c-2.1,0-3.9,1.7-4.8,3.5c-0.8-1.8-2.7-3.5-4.8-3.5 c-2.9,0-5.3,2.4-5.3,5.2c0,5.9,5.6,9.2,10,13.3c4.1-4,9.5-7.4,10-13.3C73.4,9.3,70.8,6.9,67.9,6.9z"/>
	<path style="fill:url(#SVGID_374_);" d="M34.3,37.8c-2.1,0-3.9,1.7-4.8,3.5c-0.8-1.8-2.7-3.5-4.8-3.5 c-2.9,0-5.3,2.4-5.3,5.2c0,5.9,5.6,9.2,10,13.3c4.1-4,9.5-7.4,10-13.3C39.8,40.1,37.2,37.8,34.3,37.8z"/>
	<path style="fill:url(#SVGID_375_);" d="M67.9,37.8c-2.1,0-3.9,1.7-4.8,3.5c-0.8-1.8-2.7-3.5-4.8-3.5 c-2.9,0-5.3,2.4-5.3,5.2c0,5.9,5.6,9.2,10,13.3c4.1-4,9.5-7.4,10-13.3C73.4,40.1,70.8,37.8,67.9,37.8z"/>
	<path style="fill:url(#SVGID_376_);" d="M51.1,22c-2.1,0-3.9,1.7-4.8,3.5c-0.8-1.8-2.7-3.5-4.8-3.5 c-2.9,0-5.3,2.4-5.3,5.2c0,5.9,5.6,9.2,10,13.3c4.1-4,9.5-7.4,10-13.3C56.6,24.4,54,22,51.1,22z"/>
	<path style="fill:url(#SVGID_377_);" d="M58.4,116.5c2.1,0,3.9-1.7,4.8-3.5c0.8,1.8,2.7,3.5,4.8,3.5 c2.9,0,5.3-2.4,5.3-5.2c0-5.9-5.6-9.2-10-13.3c-4.1,4-9.5,7.4-10,13.3C52.8,114.1,55.5,116.5,58.4,116.5z"/>
	<path style="fill:url(#SVGID_378_);" d="M24.8,116.5c2.1,0,3.9-1.7,4.8-3.5c0.8,1.8,2.7,3.5,4.8,3.5 c2.9,0,5.3-2.4,5.3-5.2c0-5.9-5.6-9.2-10-13.3c-4.1,4-9.5,7.4-10,13.3C19.3,114.1,21.9,116.5,24.8,116.5z"/>
	<path style="fill:url(#SVGID_379_);" d="M58.4,85.6c2.1,0,3.9-1.7,4.8-3.5c0.8,1.8,2.7,3.5,4.8,3.5 c2.9,0,5.3-2.4,5.3-5.2c0-5.9-5.6-9.2-10-13.3c-4.1,4-9.5,7.4-10,13.3C52.8,83.3,55.5,85.6,58.4,85.6z"/>
	<path style="fill:url(#SVGID_380_);" d="M24.8,85.6c2.1,0,3.9-1.7,4.8-3.5c0.8,1.8,2.7,3.5,4.8,3.5 c2.9,0,5.3-2.4,5.3-5.2c0-5.9-5.6-9.2-10-13.3c-4.1,4-9.5,7.4-10,13.3C19.3,83.3,21.9,85.6,24.8,85.6z"/>
	<path style="fill:url(#SVGID_381_);" d="M41.6,101.4c2.1,0,3.9-1.7,4.8-3.5c0.8,1.8,2.7,3.5,4.8,3.5 c2.9,0,5.3-2.4,5.3-5.2c0-5.9-5.6-9.2-10-13.3c-4.1,4-9.5,7.4-10,13.3C36.1,99,38.7,101.4,41.6,101.4z"/>

</svg>
