
<svg id="H4" viewBox="0 0 90 123" xmlns="http://www.w3.org/2000/svg">

		<linearGradient id="SVGID_312_" gradientUnits="userSpaceOnUse" x1="45.05" y1="123" x2="45.05" y2="0" gradientTransform="matrix(1 0 0 -1 0 123)">
		<stop  offset="0" style="stop-color:#F5F5F5"/>
		<stop  offset="1" style="stop-color:#D1D1D1"/>
	</linearGradient>
	<path style="display:inline;fill:url(#SVGID_312_);" d="M90,117.7c0,3-2.4,5.3-5.4,5.3H5.4c-3,0-5.4-2.4-5.4-5.3V5.3
		C0,2.4,2.4,0,5.4,0h79.3c3,0,5.4,2.4,5.4,5.3v112.4H90z"/>
	<g style="display:inline;">
		<path style="fill:#B92025;" d="M8.6,14.5v-1.3L9.9,13v-1.2H5.2l-0.1-1l4.7-7.5h2.1v7.1h1.3v1.4h-1.3V13l1.2,0.2v1.3H8.6z
			 M7.1,10.5h2.8V6.2l0,0L9.6,6.5L7.1,10.5z"/>
	</g>
	
		<linearGradient id="SVGID_313_" gradientUnits="userSpaceOnUse" x1="45.05" y1="80.8" x2="45.05" y2="0.1" gradientTransform="matrix(1 0 0 -1 0 123)">
		<stop  offset="0" style="stop-color:#D0D2D3"/>
		<stop  offset="1" style="stop-color:#CCCECF"/>
	</linearGradient>
	<path style="display:inline;opacity:0.3;fill:url(#SVGID_313_);enable-background:new    ;" d="M0,101v16.6c0,3,2.4,5.3,5.4,5.3
		h79.3c3,0,5.4-2.4,5.4-5.3V42.2C48.6,44,13.7,67.9,0,101z"/>
	
		<linearGradient id="SVGID_314_" gradientUnits="userSpaceOnUse" x1="9.2085" y1="104.5405" x2="9.2085" y2="93.6567" gradientTransform="matrix(1 0 0 -1 0 123)">
		<stop  offset="0" style="stop-color:#B72026"/>
		<stop  offset="0.3" style="stop-color:#B11F24"/>
		<stop  offset="1" style="stop-color:#710506"/>
	</linearGradient>
	<path style="display:inline;fill:url(#SVGID_314_);" d="M12,18.5c-1.2,0-2.3,1-2.8,2.1c-0.5-1-1.6-2.1-2.8-2.1
		c-1.7,0-3.1,1.4-3.1,3.1c0,3.5,3.3,5.4,5.9,7.8c2.4-2.4,5.6-4.3,5.9-7.8C15.3,19.8,13.7,18.5,12,18.5z"/>
	
		<linearGradient id="SVGID_315_" gradientUnits="userSpaceOnUse" x1="63.3204" y1="116.7604" x2="63.3204" y2="98.2604" gradientTransform="matrix(1 0 0 -1 0 123)">
		<stop  offset="0" style="stop-color:#B72026"/>
		<stop  offset="0.3" style="stop-color:#B11F24"/>
		<stop  offset="1" style="stop-color:#710506"/>
	</linearGradient>
	<path style="display:inline;fill:url(#SVGID_315_);" d="M68.2,6.2c-2.1,0-3.9,1.7-4.8,3.5c-0.8-1.8-2.7-3.5-4.8-3.5
		c-2.9,0-5.3,2.4-5.3,5.2c0,5.9,5.6,9.2,10,13.3c4.1-4,9.5-7.4,10-13.3C73.7,8.6,71.1,6.2,68.2,6.2z"/>
	
		<linearGradient id="SVGID_316_" gradientUnits="userSpaceOnUse" x1="63.4796" y1="26.6" x2="63.4796" y2="8.1" gradientTransform="matrix(1 0 0 -1 0 123)">
		<stop  offset="0" style="stop-color:#B72026"/>
		<stop  offset="0.3" style="stop-color:#B11F24"/>
		<stop  offset="1" style="stop-color:#710506"/>
	</linearGradient>
	<path style="display:inline;fill:url(#SVGID_316_);" d="M58.6,114.9c2.1,0,3.9-1.7,4.8-3.5c0.8,1.8,2.7,3.5,4.8,3.5
		c2.9,0,5.3-2.4,5.3-5.2c0-5.9-5.6-9.2-10-13.3c-4.1,4-9.5,7.4-10,13.3C53.1,112.6,55.7,114.9,58.6,114.9z"/>
	
		<linearGradient id="SVGID_317_" gradientUnits="userSpaceOnUse" x1="29.7204" y1="116.7604" x2="29.7204" y2="98.2604" gradientTransform="matrix(1 0 0 -1 0 123)">
		<stop  offset="0" style="stop-color:#B72026"/>
		<stop  offset="0.3" style="stop-color:#B11F24"/>
		<stop  offset="1" style="stop-color:#710506"/>
	</linearGradient>
	<path style="display:inline;fill:url(#SVGID_317_);" d="M34.6,6.2c-2.1,0-3.9,1.7-4.8,3.5C29,7.9,27.1,6.2,25,6.2
		c-2.9,0-5.3,2.4-5.3,5.2c0,5.9,5.6,9.2,10,13.3c4.1-4,9.5-7.4,10-13.3C40.1,8.6,37.5,6.2,34.6,6.2z"/>
	
		<linearGradient id="SVGID_318_" gradientUnits="userSpaceOnUse" x1="29.969" y1="26.6" x2="29.969" y2="8.1" gradientTransform="matrix(1 0 0 -1 0 123)">
		<stop  offset="0" style="stop-color:#B72026"/>
		<stop  offset="0.3" style="stop-color:#B11F24"/>
		<stop  offset="1" style="stop-color:#710506"/>
	</linearGradient>
	<path style="display:inline;fill:url(#SVGID_318_);" d="M25.1,114.9c2.1,0,3.9-1.7,4.8-3.5c0.8,1.8,2.7,3.5,4.8,3.5
		c2.9,0,5.3-2.4,5.3-5.2c0-5.9-5.6-9.2-10-13.3c-4.1,4-9.5,7.4-10,13.3C19.5,112.6,22.1,114.9,25.1,114.9z"/>

</svg>
