
<svg id="H5" viewBox="0 0 90 123" xmlns="http://www.w3.org/2000/svg">
	<linearGradient id="SVGID_319_" gradientUnits="userSpaceOnUse" x1="45.05" y1="123" x2="45.05" y2="0" gradientTransform="matrix(1 0 0 -1 0 123)">
		<stop  offset="0" style="stop-color:#F5F5F5"/>
		<stop  offset="1" style="stop-color:#D1D1D1"/>
	</linearGradient>
	<linearGradient id="SVGID_320_" gradientUnits="userSpaceOnUse" x1="45.05" y1="80.8" x2="45.05" y2="0.1" gradientTransform="matrix(1 0 0 -1 0 123)">
		<stop  offset="0" style="stop-color:#D0D2D3"/>
		<stop  offset="1" style="stop-color:#CCCECF"/>
	</linearGradient>
	<linearGradient id="SVGID_321_" gradientUnits="userSpaceOnUse" x1="9.5024" y1="104.7409" x2="9.5024" y2="93.8572" gradientTransform="matrix(1 0 0 -1 0 123)">
		<stop  offset="0" style="stop-color:#B72026"/>
		<stop  offset="0.3" style="stop-color:#B11F24"/>
		<stop  offset="1" style="stop-color:#710506"/>
	</linearGradient>
	<linearGradient id="SVGID_322_" gradientUnits="userSpaceOnUse" x1="63.3204" y1="116.4803" x2="63.3204" y2="97.9803" gradientTransform="matrix(1 0 0 -1 0 123)">
		<stop  offset="0" style="stop-color:#B72026"/>
		<stop  offset="0.3" style="stop-color:#B11F24"/>
		<stop  offset="1" style="stop-color:#710506"/>
	</linearGradient>
	<linearGradient id="SVGID_323_" gradientUnits="userSpaceOnUse" x1="46.2204" y1="70.5192" x2="46.2204" y2="52.0192" gradientTransform="matrix(1 0 0 -1 0 123)">
		<stop  offset="0" style="stop-color:#B72026"/>
		<stop  offset="0.3" style="stop-color:#B11F24"/>
		<stop  offset="1" style="stop-color:#710506"/>
	</linearGradient>
	<linearGradient id="SVGID_324_" gradientUnits="userSpaceOnUse" x1="63.4796" y1="26.3" x2="63.4796" y2="7.8" gradientTransform="matrix(1 0 0 -1 0 123)">
		<stop  offset="0" style="stop-color:#B72026"/>
		<stop  offset="0.3" style="stop-color:#B11F24"/>
		<stop  offset="1" style="stop-color:#710506"/>
	</linearGradient>
	<linearGradient id="SVGID_325_" gradientUnits="userSpaceOnUse" x1="29.7204" y1="116.4803" x2="29.7204" y2="97.9803" gradientTransform="matrix(1 0 0 -1 0 123)">
		<stop  offset="0" style="stop-color:#B72026"/>
		<stop  offset="0.3" style="stop-color:#B11F24"/>
		<stop  offset="1" style="stop-color:#710506"/>
	</linearGradient>
	<linearGradient id="SVGID_326_" gradientUnits="userSpaceOnUse" x1="29.969" y1="26.3" x2="29.969" y2="7.8" gradientTransform="matrix(1 0 0 -1 0 123)">
		<stop  offset="0" style="stop-color:#B72026"/>
		<stop  offset="0.3" style="stop-color:#B11F24"/>
		<stop  offset="1" style="stop-color:#710506"/>
	</linearGradient>
	<path style="fill:url(#SVGID_319_);" d="M90,117.7c0,3-2.4,5.3-5.4,5.3H5.4c-3,0-5.4-2.4-5.4-5.3V5.3 C0,2.4,2.4,0,5.4,0h79.3c3,0,5.4,2.4,5.4,5.3v112.4H90z"/>
	<path style="fill:#B92025;" d="M9.2,14.7c-0.7,0-1.3-0.1-1.8-0.4c-0.6-0.2-1-0.6-1.3-1.1s-0.5-1-0.5-1.7l0,0l2-0.1 c0,0.5,0.1,0.9,0.4,1.2C8.3,12.9,8.7,13,9.2,13s1-0.2,1.2-0.6c0.3-0.4,0.4-0.9,0.4-1.5c0-0.7-0.1-1.2-0.4-1.6 C10.2,9,9.7,8.8,9.2,8.8S8.4,8.9,8.2,9C7.9,9.2,7.7,9.4,7.6,9.7L5.8,9.6l0.6-6.2h6.3v2.5h-1.3l-0.2-0.8h-3L7.8,7.8 C8,7.7,8.1,7.6,8.3,7.5s0.4-0.1,0.6-0.2c0.2-0.1,0.4-0.1,0.7-0.1c0.7,0,1.3,0.1,1.8,0.4s0.9,0.7,1.2,1.3s0.4,1.2,0.4,2 c0,0.7-0.1,1.4-0.4,1.9c-0.3,0.6-0.7,1-1.3,1.3C10.7,14.5,10,14.7,9.2,14.7z"/>
	<path style="opacity:0.3;fill:url(#SVGID_320_);enable-background:new    ;" d="M0,101v16.6c0,3,2.4,5.3,5.4,5.3 h79.3c3,0,5.4-2.4,5.4-5.3V42.2C48.6,44,13.7,67.9,0,101z"/>
	<path style="fill:url(#SVGID_321_);" d="M12.3,18.3c-1.2,0-2.3,1-2.8,2.1c-0.5-1-1.6-2.1-2.8-2.1 c-1.7,0-3.1,1.4-3.1,3.1c0,3.5,3.3,5.4,5.9,7.8c2.4-2.4,5.6-4.3,5.9-7.8C15.5,19.6,14,18.3,12.3,18.3z"/>
	<path style="fill:url(#SVGID_322_);" d="M68.2,6.5c-2.1,0-3.9,1.7-4.8,3.5c-0.8-1.8-2.7-3.5-4.8-3.5 c-2.9,0-5.3,2.4-5.3,5.2c0,5.9,5.6,9.2,10,13.3c4.1-4,9.5-7.4,10-13.3C73.7,8.9,71.1,6.5,68.2,6.5z"/>
	<path style="fill:url(#SVGID_323_);" d="M51.1,52.5c-2.1,0-3.9,1.7-4.8,3.5c-0.8-1.8-2.7-3.5-4.8-3.5 c-2.9,0-5.3,2.4-5.3,5.2c0,5.9,5.6,9.2,10,13.3c4.1-4,9.5-7.4,10-13.3C56.6,54.8,54,52.5,51.1,52.5z"/>
	<path style="fill:url(#SVGID_324_);" d="M58.6,115.2c2.1,0,3.9-1.7,4.8-3.5c0.8,1.8,2.7,3.5,4.8,3.5 c2.9,0,5.3-2.4,5.3-5.2c0-5.9-5.6-9.2-10-13.3c-4.1,4-9.5,7.4-10,13.3C53.1,112.8,55.7,115.2,58.6,115.2z"/>
	<path style="fill:url(#SVGID_325_);" d="M34.6,6.5c-2.1,0-3.9,1.7-4.8,3.5C29,8.2,27.1,6.5,25,6.5 c-2.9,0-5.3,2.4-5.3,5.2c0,5.9,5.6,9.2,10,13.3c4.1-4,9.5-7.4,10-13.3C40.1,8.9,37.5,6.5,34.6,6.5z"/>
	<path style="fill:url(#SVGID_326_);" d="M25.1,115.2c2.1,0,3.9-1.7,4.8-3.5c0.8,1.8,2.7,3.5,4.8,3.5 c2.9,0,5.3-2.4,5.3-5.2c0-5.9-5.6-9.2-10-13.3c-4.1,4-9.5,7.4-10,13.3C19.5,112.8,22.1,115.2,25.1,115.2z"/>
</svg>
