
<svg id="H6" viewBox="0 0 90 123" xmlns="http://www.w3.org/2000/svg">

		<linearGradient id="SVGID_327_" gradientUnits="userSpaceOnUse" x1="45.05" y1="123" x2="45.05" y2="0" gradientTransform="matrix(1 0 0 -1 0 123)">
		<stop  offset="0" style="stop-color:#F5F5F5"/>
		<stop  offset="1" style="stop-color:#D1D1D1"/>
	</linearGradient>
	<path style="display:inline;fill:url(#SVGID_327_);" d="M90,117.7c0,3-2.4,5.3-5.4,5.3H5.4c-3,0-5.4-2.4-5.4-5.3V5.3
		C0,2.4,2.4,0,5.4,0h79.3c3,0,5.4,2.4,5.4,5.3v112.4H90z"/>
	<g style="display:inline;">
		<path style="fill:#B92025;" d="M9.5,14.7c-0.8,0-1.5-0.2-2.1-0.5c-0.6-0.4-1.1-0.9-1.4-1.6c-0.3-0.7-0.5-1.5-0.5-2.4V8.3
			c0-1.1,0.2-2,0.6-2.8S7,4.2,7.7,3.8S9.1,3.2,10,3.2c0.4,0,0.8,0,1.2,0.1s0.7,0.2,1,0.3l-0.4,1.5C11.6,5.1,11.3,5,11,5
			c-0.3-0.1-0.6-0.1-0.9-0.1c-0.7,0-1.3,0.3-1.7,0.8C7.9,6.1,7.7,6.9,7.7,7.9l0,0c0.3-0.3,0.6-0.5,1-0.6C9.1,7.1,9.6,7.1,10,7.1
			c0.7,0,1.3,0.2,1.7,0.5c0.5,0.3,0.9,0.8,1.1,1.3c0.3,0.6,0.4,1.2,0.4,1.9c0,0.8-0.2,1.4-0.5,2s-0.7,1-1.3,1.4
			C10.9,14.5,10.3,14.7,9.5,14.7z M9.5,13.1c0.3,0,0.6-0.1,0.9-0.3c0.2-0.2,0.4-0.5,0.6-0.8s0.2-0.7,0.2-1.2c0-0.6-0.2-1.1-0.5-1.5
			C10.4,8.8,10,8.6,9.4,8.6c-0.3,0-0.5,0-0.7,0.1C8.5,8.8,8.3,8.9,8.1,9C7.9,9.1,7.8,9.3,7.7,9.5v0.8c0,0.9,0.2,1.6,0.5,2.1
			C8.5,12.8,9,13.1,9.5,13.1z"/>
	</g>
	
		<linearGradient id="SVGID_328_" gradientUnits="userSpaceOnUse" x1="45.05" y1="80.8" x2="45.05" y2="0.1" gradientTransform="matrix(1 0 0 -1 0 123)">
		<stop  offset="0" style="stop-color:#D0D2D3"/>
		<stop  offset="1" style="stop-color:#CCCECF"/>
	</linearGradient>
	<path style="display:inline;opacity:0.3;fill:url(#SVGID_328_);enable-background:new    ;" d="M0,101v16.6c0,3,2.4,5.3,5.4,5.3
		h79.3c3,0,5.4-2.4,5.4-5.3V42.2C48.6,44,13.7,67.9,0,101z"/>
	
		<linearGradient id="SVGID_329_" gradientUnits="userSpaceOnUse" x1="9.2085" y1="104.5405" x2="9.2085" y2="93.6567" gradientTransform="matrix(1 0 0 -1 0 123)">
		<stop  offset="0" style="stop-color:#B72026"/>
		<stop  offset="0.3" style="stop-color:#B11F24"/>
		<stop  offset="1" style="stop-color:#710506"/>
	</linearGradient>
	<path style="display:inline;fill:url(#SVGID_329_);" d="M12,18.5c-1.2,0-2.3,1-2.8,2.1c-0.5-1-1.6-2.1-2.8-2.1
		c-1.7,0-3.1,1.4-3.1,3.1c0,3.5,3.3,5.4,5.9,7.8c2.4-2.4,5.6-4.3,5.9-7.8C15.3,19.8,13.7,18.5,12,18.5z"/>
	
		<linearGradient id="SVGID_330_" gradientUnits="userSpaceOnUse" x1="63.0204" y1="116.2799" x2="63.0204" y2="97.7799" gradientTransform="matrix(1 0 0 -1 0 123)">
		<stop  offset="0" style="stop-color:#B72026"/>
		<stop  offset="0.3" style="stop-color:#B11F24"/>
		<stop  offset="1" style="stop-color:#710506"/>
	</linearGradient>
	<path style="display:inline;fill:url(#SVGID_330_);" d="M67.9,6.7c-2.1,0-3.9,1.7-4.8,3.5c-0.8-1.8-2.7-3.5-4.8-3.5
		c-2.9,0-5.3,2.4-5.3,5.2c0,5.9,5.6,9.2,10,13.3c4.1-4,9.5-7.4,10-13.3C73.4,9.1,70.8,6.7,67.9,6.7z"/>
	
		<linearGradient id="SVGID_331_" gradientUnits="userSpaceOnUse" x1="63.0204" y1="70.5192" x2="63.0204" y2="52.0192" gradientTransform="matrix(1 0 0 -1 0 123)">
		<stop  offset="0" style="stop-color:#B72026"/>
		<stop  offset="0.3" style="stop-color:#B11F24"/>
		<stop  offset="1" style="stop-color:#710506"/>
	</linearGradient>
	<path style="display:inline;fill:url(#SVGID_331_);" d="M67.9,52.5c-2.1,0-3.9,1.7-4.8,3.5c-0.8-1.8-2.7-3.5-4.8-3.5
		c-2.9,0-5.3,2.4-5.3,5.2c0,5.9,5.6,9.2,10,13.3c4.1-4,9.5-7.4,10-13.3C73.4,54.8,70.8,52.5,67.9,52.5z"/>
	
		<linearGradient id="SVGID_332_" gradientUnits="userSpaceOnUse" x1="63.2699" y1="26.1" x2="63.2699" y2="7.6" gradientTransform="matrix(1 0 0 -1 0 123)">
		<stop  offset="0" style="stop-color:#B72026"/>
		<stop  offset="0.3" style="stop-color:#B11F24"/>
		<stop  offset="1" style="stop-color:#710506"/>
	</linearGradient>
	<path style="display:inline;fill:url(#SVGID_332_);" d="M58.4,115.4c2.1,0,3.9-1.7,4.8-3.5c0.8,1.8,2.7,3.5,4.8,3.5
		c2.9,0,5.3-2.4,5.3-5.2c0-5.9-5.6-9.2-10-13.3c-4.1,4-9.5,7.4-10,13.3C52.8,113,55.5,115.4,58.4,115.4z"/>
	
		<linearGradient id="SVGID_333_" gradientUnits="userSpaceOnUse" x1="29.4204" y1="116.2799" x2="29.4204" y2="97.7799" gradientTransform="matrix(1 0 0 -1 0 123)">
		<stop  offset="0" style="stop-color:#B72026"/>
		<stop  offset="0.3" style="stop-color:#B11F24"/>
		<stop  offset="1" style="stop-color:#710506"/>
	</linearGradient>
	<path style="display:inline;fill:url(#SVGID_333_);" d="M34.3,6.7c-2.1,0-3.9,1.7-4.8,3.5c-0.8-1.8-2.7-3.5-4.8-3.5
		c-2.9,0-5.3,2.4-5.3,5.2c0,5.9,5.6,9.2,10,13.3c4.1-4,9.5-7.4,10-13.3C39.8,9.1,37.2,6.7,34.3,6.7z"/>
	
		<linearGradient id="SVGID_334_" gradientUnits="userSpaceOnUse" x1="29.4204" y1="70.5192" x2="29.4204" y2="52.0192" gradientTransform="matrix(1 0 0 -1 0 123)">
		<stop  offset="0" style="stop-color:#B72026"/>
		<stop  offset="0.3" style="stop-color:#B11F24"/>
		<stop  offset="1" style="stop-color:#710506"/>
	</linearGradient>
	<path style="display:inline;fill:url(#SVGID_334_);" d="M34.3,52.5c-2.1,0-3.9,1.7-4.8,3.5c-0.8-1.8-2.7-3.5-4.8-3.5
		c-2.9,0-5.3,2.4-5.3,5.2c0,5.9,5.6,9.2,10,13.3c4.1-4,9.5-7.4,10-13.3C39.8,54.8,37.2,52.5,34.3,52.5z"/>
	
		<linearGradient id="SVGID_335_" gradientUnits="userSpaceOnUse" x1="29.6796" y1="26.1" x2="29.6796" y2="7.6" gradientTransform="matrix(1 0 0 -1 0 123)">
		<stop  offset="0" style="stop-color:#B72026"/>
		<stop  offset="0.3" style="stop-color:#B11F24"/>
		<stop  offset="1" style="stop-color:#710506"/>
	</linearGradient>
	<path style="display:inline;fill:url(#SVGID_335_);" d="M24.8,115.4c2.1,0,3.9-1.7,4.8-3.5c0.8,1.8,2.7,3.5,4.8,3.5
		c2.9,0,5.3-2.4,5.3-5.2c0-5.9-5.6-9.2-10-13.3c-4.1,4-9.5,7.4-10,13.3C19.3,113,21.9,115.4,24.8,115.4z"/>

</svg>
