
<svg id="H8" viewBox="0 0 90 123" xmlns="http://www.w3.org/2000/svg">
	<linearGradient id="SVGID_346_" gradientUnits="userSpaceOnUse" x1="45.05" y1="123" x2="45.05" y2="0" gradientTransform="matrix(1 0 0 -1 0 123)">
		<stop  offset="0" style="stop-color:#F5F5F5"/>
		<stop  offset="1" style="stop-color:#D1D1D1"/>
	</linearGradient>
	<linearGradient id="SVGID_347_" gradientUnits="userSpaceOnUse" x1="9.2085" y1="104.5405" x2="9.2085" y2="93.6567" gradientTransform="matrix(1 0 0 -1 0 123)">
		<stop  offset="0" style="stop-color:#B72026"/>
		<stop  offset="0.3" style="stop-color:#B11F24"/>
		<stop  offset="1" style="stop-color:#710506"/>
	</linearGradient>
	<linearGradient id="SVGID_348_" gradientUnits="userSpaceOnUse" x1="45.05" y1="80.8" x2="45.05" y2="0.1" gradientTransform="matrix(1 0 0 -1 0 123)">
		<stop  offset="0" style="stop-color:#D0D2D3"/>
		<stop  offset="1" style="stop-color:#CCCECF"/>
	</linearGradient>
	<linearGradient id="SVGID_349_" gradientUnits="userSpaceOnUse" x1="29.4204" y1="116.2799" x2="29.4204" y2="97.7799" gradientTransform="matrix(1 0 0 -1 0 123)">
		<stop  offset="0" style="stop-color:#B72026"/>
		<stop  offset="0.3" style="stop-color:#B11F24"/>
		<stop  offset="1" style="stop-color:#710506"/>
	</linearGradient>
	<linearGradient id="SVGID_350_" gradientUnits="userSpaceOnUse" x1="63.0204" y1="116.2799" x2="63.0204" y2="97.7799" gradientTransform="matrix(1 0 0 -1 0 123)">
		<stop  offset="0" style="stop-color:#B72026"/>
		<stop  offset="0.3" style="stop-color:#B11F24"/>
		<stop  offset="1" style="stop-color:#710506"/>
	</linearGradient>
	<linearGradient id="SVGID_351_" gradientUnits="userSpaceOnUse" x1="29.4204" y1="85.4268" x2="29.4204" y2="66.9268" gradientTransform="matrix(1 0 0 -1 0 123)">
		<stop  offset="0" style="stop-color:#B72026"/>
		<stop  offset="0.3" style="stop-color:#B11F24"/>
		<stop  offset="1" style="stop-color:#710506"/>
	</linearGradient>
	<linearGradient id="SVGID_352_" gradientUnits="userSpaceOnUse" x1="63.0204" y1="85.4268" x2="63.0204" y2="66.9268" gradientTransform="matrix(1 0 0 -1 0 123)">
		<stop  offset="0" style="stop-color:#B72026"/>
		<stop  offset="0.3" style="stop-color:#B11F24"/>
		<stop  offset="1" style="stop-color:#710506"/>
	</linearGradient>
	<linearGradient id="SVGID_353_" gradientUnits="userSpaceOnUse" x1="63.2699" y1="25.2324" x2="63.2699" y2="6.7324" gradientTransform="matrix(1 0 0 -1 0 123)">
		<stop  offset="0" style="stop-color:#B72026"/>
		<stop  offset="0.3" style="stop-color:#B11F24"/>
		<stop  offset="1" style="stop-color:#710506"/>
	</linearGradient>
	<linearGradient id="SVGID_354_" gradientUnits="userSpaceOnUse" x1="29.6796" y1="25.2324" x2="29.6796" y2="6.7324" gradientTransform="matrix(1 0 0 -1 0 123)">
		<stop  offset="0" style="stop-color:#B72026"/>
		<stop  offset="0.3" style="stop-color:#B11F24"/>
		<stop  offset="1" style="stop-color:#710506"/>
	</linearGradient>
	<linearGradient id="SVGID_355_" gradientUnits="userSpaceOnUse" x1="63.2699" y1="56.1" x2="63.2699" y2="37.6" gradientTransform="matrix(1 0 0 -1 0 123)">
		<stop  offset="0" style="stop-color:#B72026"/>
		<stop  offset="0.3" style="stop-color:#B11F24"/>
		<stop  offset="1" style="stop-color:#710506"/>
	</linearGradient>
	<linearGradient id="SVGID_356_" gradientUnits="userSpaceOnUse" x1="29.6796" y1="56.1" x2="29.6796" y2="37.6" gradientTransform="matrix(1 0 0 -1 0 123)">
		<stop  offset="0" style="stop-color:#B72026"/>
		<stop  offset="0.3" style="stop-color:#B11F24"/>
		<stop  offset="1" style="stop-color:#710506"/>
	</linearGradient>
	<path style="fill:url(#SVGID_346_);" d="M90,117.7c0,3-2.4,5.3-5.4,5.3H5.4c-3,0-5.4-2.4-5.4-5.3V5.3 C0,2.4,2.4,0,5.4,0h79.3c3,0,5.4,2.4,5.4,5.3v112.4H90z"/>
	<path style="fill:url(#SVGID_347_);" d="M12,18.5c-1.2,0-2.3,1-2.8,2.1c-0.5-1-1.6-2.1-2.8-2.1 c-1.7,0-3.1,1.4-3.1,3.1c0,3.5,3.3,5.4,5.9,7.8c2.4-2.4,5.6-4.3,5.9-7.8C15.3,19.8,13.7,18.5,12,18.5z"/>
	<path style="fill:#B92025;" d="M9.3,14.7c-0.8,0-1.4-0.1-2-0.4c-0.6-0.2-1-0.6-1.3-1.1s-0.5-1.1-0.5-1.8c0-0.6,0.2-1.2,0.5-1.6 C6.4,9.3,6.8,9,7.4,8.7c-0.5-0.2-0.9-0.6-1.2-1C5.9,7.4,5.8,6.9,5.8,6.3c0-0.7,0.1-1.2,0.4-1.7s0.7-0.8,1.2-1.1 C8,3.3,8.6,3.2,9.3,3.2s1.3,0.1,1.8,0.4c0.5,0.2,0.9,0.6,1.2,1.1s0.4,1,0.4,1.7c0,0.6-0.2,1.1-0.5,1.5c-0.3,0.4-0.7,0.8-1.2,1 c0.6,0.2,1.1,0.6,1.4,1.1c0.4,0.5,0.5,1,0.5,1.6c0,0.7-0.2,1.3-0.5,1.8s-0.8,0.8-1.3,1.1C10.7,14.6,10,14.7,9.3,14.7z M9.3,13.1 c0.3,0,0.6-0.1,0.9-0.2c0.3-0.1,0.5-0.3,0.6-0.6s0.2-0.6,0.2-0.9c0-0.3-0.1-0.7-0.2-0.9c-0.1-0.3-0.3-0.5-0.6-0.6 C9.9,9.7,9.6,9.6,9.3,9.6S8.7,9.7,8.4,9.8c-0.3,0.1-0.5,0.4-0.6,0.6c-0.1,0.3-0.2,0.6-0.2,0.9c0,0.5,0.2,1,0.5,1.3 C8.4,12.9,8.8,13.1,9.3,13.1z M9.3,8C9.6,8,9.8,7.9,10,7.8s0.4-0.3,0.5-0.6c0.1-0.2,0.2-0.5,0.2-0.8s-0.1-0.6-0.2-0.8 C10.4,5.3,10.2,5.2,10,5C9.8,4.9,9.6,4.8,9.3,4.8c-0.4,0-0.8,0.1-1,0.4C8,5.5,7.9,5.9,7.9,6.4S8,7.3,8.3,7.6C8.5,7.9,8.8,8,9.3,8z "/>
	<path style="opacity:0.3;fill:url(#SVGID_348_);enable-background:new    ;" d="M0,101v16.6c0,3,2.4,5.3,5.4,5.3 h79.3c3,0,5.4-2.4,5.4-5.3V42.2C48.6,44,13.7,67.9,0,101z"/>
	<path style="fill:url(#SVGID_349_);" d="M34.3,6.7c-2.1,0-3.9,1.7-4.8,3.5c-0.8-1.8-2.7-3.5-4.8-3.5 c-2.9,0-5.3,2.4-5.3,5.2c0,5.9,5.6,9.2,10,13.3c4.1-4,9.5-7.4,10-13.3C39.8,9.1,37.2,6.7,34.3,6.7z"/>
	<path style="fill:url(#SVGID_350_);" d="M67.9,6.7c-2.1,0-3.9,1.7-4.8,3.5c-0.8-1.8-2.7-3.5-4.8-3.5 c-2.9,0-5.3,2.4-5.3,5.2c0,5.9,5.6,9.2,10,13.3c4.1-4,9.5-7.4,10-13.3C73.4,9.1,70.8,6.7,67.9,6.7z"/>
	<path style="fill:url(#SVGID_351_);" d="M34.3,37.6c-2.1,0-3.9,1.7-4.8,3.5c-0.8-1.8-2.7-3.5-4.8-3.5 c-2.9,0-5.3,2.4-5.3,5.2c0,5.9,5.6,9.2,10,13.3c4.1-4,9.5-7.4,10-13.3C39.8,39.9,37.2,37.6,34.3,37.6z"/>
	<path style="fill:url(#SVGID_352_);" d="M67.9,37.6c-2.1,0-3.9,1.7-4.8,3.5c-0.8-1.8-2.7-3.5-4.8-3.5 c-2.9,0-5.3,2.4-5.3,5.2c0,5.9,5.6,9.2,10,13.3c4.1-4,9.5-7.4,10-13.3C73.4,39.9,70.8,37.6,67.9,37.6z"/>
	<path style="fill:url(#SVGID_353_);" d="M58.4,116.3c2.1,0,3.9-1.7,4.8-3.5c0.8,1.8,2.7,3.5,4.8,3.5 c2.9,0,5.3-2.4,5.3-5.2c0-5.9-5.6-9.2-10-13.3c-4.1,4-9.5,7.4-10,13.3C52.8,113.9,55.5,116.3,58.4,116.3z"/>
	<path style="fill:url(#SVGID_354_);" d="M24.8,116.3c2.1,0,3.9-1.7,4.8-3.5c0.8,1.8,2.7,3.5,4.8,3.5 c2.9,0,5.3-2.4,5.3-5.2c0-5.9-5.6-9.2-10-13.3c-4.1,4-9.5,7.4-10,13.3C19.3,113.9,21.9,116.3,24.8,116.3z"/>
	<path style="fill:url(#SVGID_355_);" d="M58.4,85.4c2.1,0,3.9-1.7,4.8-3.5c0.8,1.8,2.7,3.5,4.8,3.5 c2.9,0,5.3-2.4,5.3-5.2c0-5.9-5.6-9.2-10-13.3c-4.1,4-9.5,7.4-10,13.3C52.8,83.1,55.5,85.4,58.4,85.4z"/>
	<path style="fill:url(#SVGID_356_);" d="M24.8,85.4c2.1,0,3.9-1.7,4.8-3.5c0.8,1.8,2.7,3.5,4.8,3.5 c2.9,0,5.3-2.4,5.3-5.2c0-5.9-5.6-9.2-10-13.3c-4.1,4-9.5,7.4-10,13.3C19.3,83.1,21.9,85.4,24.8,85.4z"/>
</svg>
