
<svg id="H9" viewBox="0 0 90 123" xmlns="http://www.w3.org/2000/svg">

		<linearGradient id="SVGID_357_" gradientUnits="userSpaceOnUse" x1="45.05" y1="123" x2="45.05" y2="0" gradientTransform="matrix(1 0 0 -1 0 123)">
		<stop  offset="0" style="stop-color:#F5F5F5"/>
		<stop  offset="1" style="stop-color:#D1D1D1"/>
	</linearGradient>
	<path style="display:inline;fill:url(#SVGID_357_);" d="M90,117.7c0,3-2.4,5.3-5.4,5.3H5.4c-3,0-5.4-2.4-5.4-5.3V5.3
		C0,2.4,2.4,0,5.4,0h79.3c3,0,5.4,2.4,5.4,5.3v112.4H90z"/>
	<g style="display:inline;">
		<path style="fill:#B92025;" d="M8.7,14.7c-0.4,0-0.8,0-1.2-0.1c-0.4-0.1-0.8-0.2-1.1-0.3l0.3-1.5c0.3,0.1,0.6,0.2,1,0.3
			c0.3,0.1,0.7,0.1,1,0.1c0.7,0,1.2-0.2,1.6-0.7c0.4-0.5,0.6-1.2,0.6-2.2v-0.1c-0.2,0.3-0.5,0.6-0.9,0.7C9.5,11,9.1,11,8.7,11
			c-0.7,0-1.3-0.2-1.8-0.5C6.4,10.3,6,9.8,5.8,9.3C5.5,8.7,5.3,8,5.3,7.2s0.2-1.4,0.5-2s0.8-1.1,1.3-1.4C7.7,3.5,8.3,3.3,9,3.3
			c0.8,0,1.4,0.2,2,0.5s1,0.9,1.3,1.5s0.5,1.5,0.5,2.4V10c0,1-0.2,1.9-0.5,2.6c-0.4,0.7-0.8,1.2-1.5,1.6
			C10.3,14.5,9.5,14.7,8.7,14.7z M9.1,9.5c0.4,0,0.7-0.1,1-0.2c0.3-0.2,0.5-0.4,0.7-0.6V7.4c0-0.9-0.2-1.5-0.5-1.9
			C10,5,9.6,4.8,9.1,4.8c-0.3,0-0.6,0.1-0.8,0.3C8,5.4,7.8,5.6,7.7,6C7.5,6.4,7.4,6.8,7.4,7.2c0,0.5,0.1,0.9,0.2,1.2
			C7.8,8.8,7.9,9,8.2,9.2C8.4,9.4,8.7,9.5,9.1,9.5z"/>
	</g>
	
		<linearGradient id="SVGID_358_" gradientUnits="userSpaceOnUse" x1="45.05" y1="80.8" x2="45.05" y2="0.1" gradientTransform="matrix(1 0 0 -1 0 123)">
		<stop  offset="0" style="stop-color:#D0D2D3"/>
		<stop  offset="1" style="stop-color:#CCCECF"/>
	</linearGradient>
	<path style="display:inline;opacity:0.3;fill:url(#SVGID_358_);enable-background:new    ;" d="M0,101v16.6c0,3,2.4,5.3,5.4,5.3
		h79.3c3,0,5.4-2.4,5.4-5.3V42.2C48.6,44,13.7,67.9,0,101z"/>
	
		<linearGradient id="SVGID_359_" gradientUnits="userSpaceOnUse" x1="29.4204" y1="116.2799" x2="29.4204" y2="97.7799" gradientTransform="matrix(1 0 0 -1 0 123)">
		<stop  offset="0" style="stop-color:#B72026"/>
		<stop  offset="0.3" style="stop-color:#B11F24"/>
		<stop  offset="1" style="stop-color:#710506"/>
	</linearGradient>
	<path style="display:inline;fill:url(#SVGID_359_);" d="M34.3,6.7c-2.1,0-3.9,1.7-4.8,3.5c-0.8-1.8-2.7-3.5-4.8-3.5
		c-2.9,0-5.3,2.4-5.3,5.2c0,5.9,5.6,9.2,10,13.3c4.1-4,9.5-7.4,10-13.3C39.8,9.1,37.2,6.7,34.3,6.7z"/>
	
		<linearGradient id="SVGID_360_" gradientUnits="userSpaceOnUse" x1="63.0204" y1="116.2799" x2="63.0204" y2="97.7799" gradientTransform="matrix(1 0 0 -1 0 123)">
		<stop  offset="0" style="stop-color:#B72026"/>
		<stop  offset="0.3" style="stop-color:#B11F24"/>
		<stop  offset="1" style="stop-color:#710506"/>
	</linearGradient>
	<path style="display:inline;fill:url(#SVGID_360_);" d="M67.9,6.7c-2.1,0-3.9,1.7-4.8,3.5c-0.8-1.8-2.7-3.5-4.8-3.5
		c-2.9,0-5.3,2.4-5.3,5.2c0,5.9,5.6,9.2,10,13.3c4.1-4,9.5-7.4,10-13.3C73.4,9.1,70.8,6.7,67.9,6.7z"/>
	
		<linearGradient id="SVGID_361_" gradientUnits="userSpaceOnUse" x1="29.4204" y1="85.4268" x2="29.4204" y2="66.9268" gradientTransform="matrix(1 0 0 -1 0 123)">
		<stop  offset="0" style="stop-color:#B72026"/>
		<stop  offset="0.3" style="stop-color:#B11F24"/>
		<stop  offset="1" style="stop-color:#710506"/>
	</linearGradient>
	<path style="display:inline;fill:url(#SVGID_361_);" d="M34.3,37.6c-2.1,0-3.9,1.7-4.8,3.5c-0.8-1.8-2.7-3.5-4.8-3.5
		c-2.9,0-5.3,2.4-5.3,5.2c0,5.9,5.6,9.2,10,13.3c4.1-4,9.5-7.4,10-13.3C39.8,39.9,37.2,37.6,34.3,37.6z"/>
	
		<linearGradient id="SVGID_362_" gradientUnits="userSpaceOnUse" x1="63.0204" y1="85.4268" x2="63.0204" y2="66.9268" gradientTransform="matrix(1 0 0 -1 0 123)">
		<stop  offset="0" style="stop-color:#B72026"/>
		<stop  offset="0.3" style="stop-color:#B11F24"/>
		<stop  offset="1" style="stop-color:#710506"/>
	</linearGradient>
	<path style="display:inline;fill:url(#SVGID_362_);" d="M67.9,37.6c-2.1,0-3.9,1.7-4.8,3.5c-0.8-1.8-2.7-3.5-4.8-3.5
		c-2.9,0-5.3,2.4-5.3,5.2c0,5.9,5.6,9.2,10,13.3c4.1-4,9.5-7.4,10-13.3C73.4,39.9,70.8,37.6,67.9,37.6z"/>
	
		<linearGradient id="SVGID_363_" gradientUnits="userSpaceOnUse" x1="46.2204" y1="69.2" x2="46.2204" y2="50.7" gradientTransform="matrix(1 0 0 -1 0 123)">
		<stop  offset="0" style="stop-color:#B72026"/>
		<stop  offset="0.3" style="stop-color:#B11F24"/>
		<stop  offset="1" style="stop-color:#710506"/>
	</linearGradient>
	<path style="display:inline;fill:url(#SVGID_363_);" d="M51.1,53.8c-2.1,0-3.9,1.7-4.8,3.5c-0.8-1.8-2.7-3.5-4.8-3.5
		c-2.9,0-5.3,2.4-5.3,5.2c0,5.9,5.6,9.2,10,13.3c4.1-4,9.5-7.4,10-13.3C56.6,56.2,54,53.8,51.1,53.8z"/>
	
		<linearGradient id="SVGID_364_" gradientUnits="userSpaceOnUse" x1="63.2699" y1="25.2324" x2="63.2699" y2="6.7324" gradientTransform="matrix(1 0 0 -1 0 123)">
		<stop  offset="0" style="stop-color:#B72026"/>
		<stop  offset="0.3" style="stop-color:#B11F24"/>
		<stop  offset="1" style="stop-color:#710506"/>
	</linearGradient>
	<path style="display:inline;fill:url(#SVGID_364_);" d="M58.4,116.3c2.1,0,3.9-1.7,4.8-3.5c0.8,1.8,2.7,3.5,4.8,3.5
		c2.9,0,5.3-2.4,5.3-5.2c0-5.9-5.6-9.2-10-13.3c-4.1,4-9.5,7.4-10,13.3C52.8,113.9,55.5,116.3,58.4,116.3z"/>
	
		<linearGradient id="SVGID_365_" gradientUnits="userSpaceOnUse" x1="29.6796" y1="25.2324" x2="29.6796" y2="6.7324" gradientTransform="matrix(1 0 0 -1 0 123)">
		<stop  offset="0" style="stop-color:#B72026"/>
		<stop  offset="0.3" style="stop-color:#B11F24"/>
		<stop  offset="1" style="stop-color:#710506"/>
	</linearGradient>
	<path style="display:inline;fill:url(#SVGID_365_);" d="M24.8,116.3c2.1,0,3.9-1.7,4.8-3.5c0.8,1.8,2.7,3.5,4.8,3.5
		c2.9,0,5.3-2.4,5.3-5.2c0-5.9-5.6-9.2-10-13.3c-4.1,4-9.5,7.4-10,13.3C19.3,113.9,21.9,116.3,24.8,116.3z"/>
	
		<linearGradient id="SVGID_366_" gradientUnits="userSpaceOnUse" x1="63.2699" y1="56.1" x2="63.2699" y2="37.6" gradientTransform="matrix(1 0 0 -1 0 123)">
		<stop  offset="0" style="stop-color:#B72026"/>
		<stop  offset="0.3" style="stop-color:#B11F24"/>
		<stop  offset="1" style="stop-color:#710506"/>
	</linearGradient>
	<path style="display:inline;fill:url(#SVGID_366_);" d="M58.4,85.4c2.1,0,3.9-1.7,4.8-3.5c0.8,1.8,2.7,3.5,4.8,3.5
		c2.9,0,5.3-2.4,5.3-5.2c0-5.9-5.6-9.2-10-13.3c-4.1,4-9.5,7.4-10,13.3C52.8,83.1,55.5,85.4,58.4,85.4z"/>
	
		<linearGradient id="SVGID_367_" gradientUnits="userSpaceOnUse" x1="29.6796" y1="56.1" x2="29.6796" y2="37.6" gradientTransform="matrix(1 0 0 -1 0 123)">
		<stop  offset="0" style="stop-color:#B72026"/>
		<stop  offset="0.3" style="stop-color:#B11F24"/>
		<stop  offset="1" style="stop-color:#710506"/>
	</linearGradient>
	<path style="display:inline;fill:url(#SVGID_367_);" d="M24.8,85.4c2.1,0,3.9-1.7,4.8-3.5c0.8,1.8,2.7,3.5,4.8,3.5
		c2.9,0,5.3-2.4,5.3-5.2c0-5.9-5.6-9.2-10-13.3c-4.1,4-9.5,7.4-10,13.3C19.3,83.1,21.9,85.4,24.8,85.4z"/>
	
		<linearGradient id="SVGID_368_" gradientUnits="userSpaceOnUse" x1="9.2085" y1="104.5405" x2="9.2085" y2="93.6567" gradientTransform="matrix(1 0 0 -1 0 123)">
		<stop  offset="0" style="stop-color:#B72026"/>
		<stop  offset="0.3" style="stop-color:#B11F24"/>
		<stop  offset="1" style="stop-color:#710506"/>
	</linearGradient>
	<path style="display:inline;fill:url(#SVGID_368_);" d="M12,18.5c-1.2,0-2.3,1-2.8,2.1c-0.5-1-1.6-2.1-2.8-2.1
		c-1.7,0-3.1,1.4-3.1,3.1c0,3.5,3.3,5.4,5.9,7.8c2.4-2.4,5.6-4.3,5.9-7.8C15.3,19.8,13.7,18.5,12,18.5z"/>

</svg>
