
<svg id="HA" viewBox="0 0 90 123" xmlns="http://www.w3.org/2000/svg">
	<filter x="-10%" y="-10%" width="120%" height="120%" filterUnits="objectBoundingBox" id="ds">
		<feOffset dx="0" dy="2" in="SourceAlpha" result="shadowOffsetOuter2"/>
		<feGaussianBlur stdDeviation="1.5" in="shadowOffsetOuter2" result="shadowBlurOuter2"/>
		<feColorMatrix values="0.2 0 0 0 0 0 0.2 0 0 0 0 0 0.2 0 0 0 0 0 0.75 0" type="matrix" in="shadowBlurOuter2" result="shadowMatrixOuter2"/>
		<feMerge>
			<feMergeNode in="shadowMatrixOuter2"/>
			<feMergeNode in="SourceGraphic"/>
		</feMerge>
	</filter>
	<linearGradient id="SVGID_297_" gradientUnits="userSpaceOnUse" x1="45.05" y1="123" x2="45.05" y2="0" gradientTransform="matrix(1 0 0 -1 0 123)">
		<stop  offset="0" style="stop-color:#F5F5F5"/>
		<stop  offset="1" style="stop-color:#D1D1D1"/>
	</linearGradient>
	<linearGradient id="SVGID_298_" gradientUnits="userSpaceOnUse" x1="45.05" y1="80.8" x2="45.05" y2="0.1" gradientTransform="matrix(1 0 0 -1 0 123)">
		<stop  offset="0" style="stop-color:#D0D2D3"/>
		<stop  offset="1" style="stop-color:#CCCECF"/>
	</linearGradient>
	<linearGradient id="SVGID_299_" gradientUnits="userSpaceOnUse" x1="9.2085" y1="104.5405" x2="9.2085" y2="93.6567" gradientTransform="matrix(1 0 0 -1 0 123)">
		<stop  offset="0" style="stop-color:#B72026"/>
		<stop  offset="0.3" style="stop-color:#B11F24"/>
		<stop  offset="1" style="stop-color:#710506"/>
	</linearGradient>
	<linearGradient id="SVGID_300_" gradientUnits="userSpaceOnUse" x1="45.1093" y1="83.1" x2="45.1093" y2="39.8474" gradientTransform="matrix(1 0 0 -1 0 123)">
		<stop  offset="0" style="stop-color:#B72026"/>
		<stop  offset="0.3" style="stop-color:#B11F24"/>
		<stop  offset="1" style="stop-color:#710506"/>
	</linearGradient>
	<path style="fill:url(#SVGID_297_);" d="M90,117.7c0,3-2.4,5.3-5.4,5.3H5.4c-3,0-5.4-2.4-5.4-5.3V5.3 C0,2.4,2.4,0,5.4,0h79.3c3,0,5.4,2.4,5.4,5.3v112.4H90z"/>
	<path style="fill:#B92025;" d="M3.8,14.5v-1.3l0.8-0.1l3.6-9.8h2.1l3.6,9.8l0.8,0.1v1.3H11v-1.3l0.8-0.1l-0.5-1.6H7.2l-0.5,1.6 l0.8,0.1v1.3H3.8z M7.7,9.9h3L9.4,6L9.3,5.6l0,0L9.1,6L7.7,9.9z"/>
	<path style="opacity:0.3;fill:url(#SVGID_298_);enable-background:new    ;" d="M0,101v16.6c0,3,2.4,5.3,5.4,5.3 h79.3c3,0,5.4-2.4,5.4-5.3V42.2C48.6,44,13.7,67.9,0,101z"/>
	<path style="fill:url(#SVGID_299_);" d="M12,18.5c-1.2,0-2.3,1-2.8,2.1c-0.5-1-1.6-2.1-2.8-2.1 c-1.7,0-3.1,1.4-3.1,3.1c0,3.5,3.3,5.4,5.9,7.8c2.4-2.4,5.6-4.3,5.9-7.8C15.3,19.8,13.7,18.5,12,18.5z"/>
	<path style="fill:url(#SVGID_300_);" filter="url(#ds)" d="M56.1,39.9c-4.9,0-9.2,4-11.1,8.2c-2-4.2-6.2-8.2-11.1-8.2 c-6.8,0-12.3,5.5-12.3,12.3c0,13.8,13.1,21.4,23.5,31c9.6-9.4,22.3-17.2,23.5-31C69,45.4,62.9,39.9,56.1,39.9z"/>
</svg>
