
<svg id="HJ" viewBox="0 0 90 123" xmlns="http://www.w3.org/2000/svg">

		<linearGradient id="SVGID_382_" gradientUnits="userSpaceOnUse" x1="45.05" y1="123" x2="45.05" y2="0" gradientTransform="matrix(1 0 0 -1 0 123)">
		<stop  offset="0" style="stop-color:#F5F5F5"/>
		<stop  offset="1" style="stop-color:#D1D1D1"/>
	</linearGradient>
	<path style="display:inline;fill:url(#SVGID_382_);" d="M90,117.7c0,3-2.4,5.3-5.4,5.3H5.4c-3,0-5.4-2.4-5.4-5.3V5.3
		C0,2.4,2.4,0,5.4,0h79.3c3,0,5.4,2.4,5.4,5.3v112.4H90z"/>
	<g style="display:inline;">
		<g>
			<path style="fill:#B92025;" d="M8.8,14.7c-0.7,0-1.4-0.1-2-0.4c-0.6-0.3-1-0.7-1.4-1.2c-0.3-0.5-0.5-1.2-0.5-2l0,0h2
				c0,0.7,0.2,1.3,0.5,1.6s0.7,0.5,1.2,0.5c0.3,0,0.6-0.1,0.9-0.2c0.2-0.1,0.4-0.4,0.6-0.6c0.1-0.3,0.2-0.6,0.2-1V4.9L8.8,4.7V3.4
				h4.8v1.3l-1.2,0.2v6.4c0,0.7-0.1,1.3-0.4,1.8c-0.3,0.5-0.7,0.9-1.2,1.2C10.2,14.6,9.6,14.7,8.8,14.7z"/>
		</g>
	</g>
	
		<linearGradient id="SVGID_383_" gradientUnits="userSpaceOnUse" x1="45.05" y1="80.8" x2="45.05" y2="0.1" gradientTransform="matrix(1 0 0 -1 0 123)">
		<stop  offset="0" style="stop-color:#D0D2D3"/>
		<stop  offset="1" style="stop-color:#CCCECF"/>
	</linearGradient>
	<path style="display:inline;opacity:0.3;fill:url(#SVGID_383_);enable-background:new    ;" d="M0,101v16.6c0,3,2.4,5.3,5.4,5.3
		h79.3c3,0,5.4-2.4,5.4-5.3V42.2C48.6,44,13.7,67.9,0,101z"/>
	
		<linearGradient id="SVGID_384_" gradientUnits="userSpaceOnUse" x1="46.1" y1="107.7" x2="46.1" y2="18.1" gradientTransform="matrix(1 0 0 -1 0 123)">
		<stop  offset="0" style="stop-color:#FFFFFF"/>
		<stop  offset="1" style="stop-color:#A6A8AB"/>
	</linearGradient>
	<path style="display:inline;fill:url(#SVGID_384_);" d="M73.9,103.9c0,0.7-0.2,1-0.9,1H19.2c-0.7,0-0.9-0.2-0.9-1V16.4
		c0-0.7,0.2-1.1,0.9-1.1h53.6c0.7,0,1.1,0.4,1.1,1.1V103.9z"/>
	<g style="display:inline;">
		<path style="fill:#8C5D37;" d="M73.6,66.8v-5.6c-4.6-2.1-8-7.4-8.1-12.6h0.1l-4.1-2.7C61.1,54,65.8,62.1,73.6,66.8z"/>
		<polygon style="fill:#D64656;" points="68.7,44.7 68.7,44.7 60.4,39.3 59.5,40.6 73.6,49.7 73.6,47.9 68.8,44.8 		"/>
		<path style="fill:#A87C4F;" d="M73.6,60.4v-6.6l-7.4-4.9C66.4,53.6,69.5,58.4,73.6,60.4z"/>
		<polygon style="fill:#C3996B;" points="59.2,41.2 58.1,42.8 73.6,53 73.6,50.5 		"/>
		<path style="fill:#8C5D37;" d="M68,80.4c2-5.7,1.4-12.4-1.8-17.5c-2.1-3.5-6.3-7.8-14.5-9c0.4,1.1,0.7,2.5,0.9,4.2
			c4.1,0.9,7.6,3.4,9.9,7.1c2.4,3.9,2.914,8.769,1.814,13.169C65.414,79.069,66.8,79.8,68,80.4z"/>
		<path style="fill:#8C5D37;" d="M24.1,40.4c-2,5.7-1.4,12.5,1.7,17.6c2.1,3.5,6.3,7.8,14.5,9c-0.4-1.1-0.7-2.5-0.9-4.2
			c-4.1-0.9-7.6-3.4-9.9-7.1c-2.4-4-3.1-9-1.9-13.4C26.4,41.7,25.2,41,24.1,40.4z"/>
		
			<linearGradient id="SVGID_385_" gradientUnits="userSpaceOnUse" x1="46.8" y1="88.3788" x2="46.8" y2="82.1576" gradientTransform="matrix(1 0 0 -1 0 123)">
			<stop  offset="0" style="stop-color:#1B75BB"/>
			<stop  offset="0.9995" style="stop-color:#2B388F"/>
		</linearGradient>
		<path style="fill:url(#SVGID_385_);" d="M39.9,37.4c-0.3,0.2-0.6,0.3-0.9,0.3c-0.2,0-0.4,0-0.6-0.1v3.2h15.1l1.7-2.6
			c-0.7,0.2-1.6,0.4-2.8,0.4c-1.7,0-4.9,0-7.2-4c-0.2,0.3-0.3,0.5-0.5,0.7c-0.2,0.3-0.3,0.5-0.5,0.8c-0.5,0.8-1.2,1.3-1.9,1.3l0,0
			c-0.4,0-0.9-0.2-1.1-0.6c-0.1-0.2-0.2-0.3-0.3-0.5C40.6,36.9,40.2,37.3,39.9,37.4z"/>
		
			<linearGradient id="SVGID_386_" gradientUnits="userSpaceOnUse" x1="45.7986" y1="81.489" x2="45.7986" y2="73.5294" gradientTransform="matrix(1 0 0 -1 0 123)">
			<stop  offset="0" style="stop-color:#25A9E0"/>
			<stop  offset="0.9995" style="stop-color:#1B75BB"/>
		</linearGradient>
		<path style="fill:url(#SVGID_386_);" d="M48.048,49.442L53.1,41.5H38.5l-0.003,5.768c2,0,4.185,0.253,6.385,0.853
			C46.083,48.521,47.148,48.942,48.048,49.442z"/>
		
			<linearGradient id="SVGID_387_" gradientUnits="userSpaceOnUse" x1="43.3455" y1="90.084" x2="43.3455" y2="86.2196" gradientTransform="matrix(1 0 0 -1 0 123)">
			<stop  offset="0" style="stop-color:#A6A8AB"/>
			<stop  offset="0.9995" style="stop-color:#404041"/>
		</linearGradient>
		<path style="fill:url(#SVGID_387_);" d="M41.8,36.4c0.2,0.2,0.4,0.4,0.6,0.3c0.4,0,1-0.4,1.4-1c0.2-0.3,0.3-0.5,0.5-0.8
			s0.4-0.7,0.8-1.2H45c-0.7,0-1.3-0.3-1.6-0.9l0,0c-0.2,0.3-0.4,0.7-0.7,1.1c0.1,0,0.1,0,0.1,0v0.7c-0.3,0-0.5,0.1-0.7,0.2
			c-0.1,0.2-0.3,0.4-0.4,0.6C41.5,35.8,41.6,36.2,41.8,36.4z"/>
		<path style="fill:#C3996B;" d="M38.8,57.4c-0.8-3.2-2.5-6.4-5-9.4l0,0l0,0c-0.5-0.8-1.2-1.5-2-2.3C31.6,52.7,35.3,56.3,38.8,57.4z
			"/>
		<path style="fill:#A87C4F;" d="M70,37c1.4,0,2.4-1,2.4-2.6c0-0.9-1.2-2.2-2.2-3.2c-1.5,1.6-2.1,2.5-2.1,3.2
			C68.1,35.2,68.3,37,70,37z"/>
		<path style="fill:#F1F1F2;" d="M56.5,26.3c-0.3-0.6-0.1-1.1,0.1-2.1c0.1-0.3,0.2-0.7,0.3-1.1c-1.4-1.3-4.3-2.2-7.8-2.2
			c-0.7,1.2-4.5,8.4-5.3,9.8c-0.3,0.7-0.3,1.4,0,1.9c0.3,0.4,0.7,0.6,1.2,0.6c0.5-0.1,0.9-0.4,1.1-0.8c0.2-0.5,0-1.1-0.5-1.5
			l0.5-0.5c0.7,0.6,0.9,1.4,0.6,2.2c-0.1,0.4-0.4,0.7-0.7,0.9c-0.1,0.2-0.2,0.4-0.4,0.5c2.1,3.9,5.1,3.9,6.8,3.9
			c1.8,0,2.9-0.3,3.4-0.8s0.4-1.3,0.3-2c0-0.2,0-0.4-0.1-0.6c-0.2,0.1-0.5,0.1-0.7,0.1c-0.3,0-0.5,0-0.8-0.1h-0.2l0.1-0.7h0.2
			c0.9,0.1,1.5,0.1,1.9-0.6c-0.3-0.6-0.2-1.3,0-1.9c-0.1,0-0.2,0-0.3,0s-0.3,0-0.4,0c-0.8-0.1-1.4-0.4-1.8-1l0.5-0.4
			c0.4,0.5,0.9,0.6,1.4,0.7c0.9,0.1,1.7-0.2,2-0.4c0.1-0.1,0.1-0.7-1.3-3.6C56.6,26.5,56.5,26.4,56.5,26.3z M54.3,22.3L54.2,23
			c-1.4-0.2-2.8,0.5-4.2,2.1l-0.5-0.4C51,22.9,52.7,22.1,54.3,22.3z M55.4,32l-0.1,0.7c-1.2-0.1-1.9,0.4-2.5,0.8
			c-0.2,0.1-0.4,0.2-0.5,0.3c-0.2,0.1-0.6,0.2-0.9,0.2c-0.5,0-1-0.1-1.4-0.5s-0.4-0.8-0.1-1.3c0.4-0.7,0.8-0.9,1.1-1.1
			c0.1,0,0.2-0.1,0.2-0.1h0.7c0,0.4-0.3,0.6-0.6,0.7s-0.6,0.3-0.8,0.8c-0.2,0.3-0.1,0.5,0,0.5c0.3,0.3,1.1,0.4,1.4,0.2
			c0.2-0.1,0.3-0.2,0.5-0.3C53.1,32.5,54,31.9,55.4,32z M54.5,27.5c-0.2-0.2-1.8-0.5-2.5-0.6c-1.2-0.2-1.5-0.2-1.5-0.6
			c0-0.1,0.1-0.3,0.4-0.4c1-0.2,2.6-1.2,3.7-1.8l0.3,0.6c-0.1,0.1-0.3,0.1-0.4,0.2c0.3,0.7,0.3,1.3,0,1.8c0.2,0.1,0.4,0.2,0.5,0.3
			L54.5,27.5z"/>
		<path style="fill:#F1717A;" d="M48.7,49.8c0.9,0.6,1.7,1.5,2.3,2.5L59.8,39l-3.1-1.9L48.7,49.8z"/>
		<path style="fill:#F1F1F2;" d="M53.9,25.3c-0.7,0.4-1.4,0.7-2,1H52c0.7,0.1,1.4,0.2,1.9,0.3C54.1,26.2,54.1,25.8,53.9,25.3z"/>
		<path style="fill:#A87C4F;" d="M72,23.6c0.3-0.5,0.4-1.4,0-2.1c-0.3-0.6-1-1-1.9-1c-1.3,0-1.9,0.8-2.1,1.2c-0.3,0.7-0.2,1.6,0.2,2
			c0.3,0.4,1,1.1,2,2C71,24.9,71.6,24.1,72,23.6z"/>
		<path style="fill:#A87C4F;" d="M70.2,30.2L70.2,30.2c0.5-0.5,1.1-1.1,1.9-1.9c-0.5-0.4-1.2-1-1.9-1.7l0,0
			c-0.6,0.6-1.2,1.2-1.9,1.9c0.3,0.3,0.6,0.6,0.9,0.9C69.6,29.7,69.9,30,70.2,30.2L70.2,30.2z"/>
		<path style="fill:#F1F1F2;" d="M71.3,45.6c0.6-0.1,1-0.5,1.1-0.8c0-0.2,0-0.4-0.2-0.6c-0.4,0.4-1,0.6-1.8,0.9L71.3,45.6z"/>
		<path style="fill:#F1F1F2;" d="M69.6,39.5c-0.3,0.4-0.5,0.6-0.8,0.7c0.2,0.3,0.4,0.6,0.5,0.9c0.4-0.2,1.2-0.6,2-1.1
			c0.4-0.3,0.6-0.6,0.6-0.7l0,0C71.4,39.6,70.6,39.8,69.6,39.5z"/>
		<path style="fill:#F1F1F2;" d="M69.8,44.6c1.4-0.3,2.3-0.8,2.5-1.4c0.1-0.2,0-0.4-0.1-0.7c-0.8,0.4-2.3,1-2.8,1.2
			c0,0.2,0,0.4-0.1,0.5L69.8,44.6L69.8,44.6z"/>
		<path style="fill:#F1F1F2;" d="M68.6,43.1l-0.2-0.3l0.3-0.2c0,0,0.2-0.3,0.1-0.7c0-0.4-0.2-1.1-0.9-1.7l-0.8-0.6h1
			c0.5,0,0.6,0,1.1-0.7l0.1-0.2l0.2,0.1c1.2,0.4,2,0.1,2.2-0.3c0.1-0.3-0.2-0.5-0.3-0.5c-0.6-0.3-2-0.5-3.4-0.4s-2.8,1.5-2.9,3.8
			l3.7,2.4C68.8,43.7,68.8,43.3,68.6,43.1z"/>
		
			<linearGradient id="SVGID_388_" gradientUnits="userSpaceOnUse" x1="42.25" y1="73.1422" x2="42.25" y2="66.3687" gradientTransform="matrix(1 0 0 -1 0 123)">
			<stop  offset="0" style="stop-color:#D0D2D3"/>
			<stop  offset="0.9995" style="stop-color:#6D6E70"/>
		</linearGradient>
		<path style="fill:url(#SVGID_388_);" d="M43.5,56.6v-5.8c0-0.1-0.4-0.7-0.5-0.9h-1.4C41.4,50,41,50.6,41,50.8v5.8
			c0,0,0,0.1,0.1,0.1L43.5,56.6L43.5,56.6z"/>
		
			<linearGradient id="SVGID_389_" gradientUnits="userSpaceOnUse" x1="47.8" y1="70.7281" x2="47.8" y2="66.3687" gradientTransform="matrix(1 0 0 -1 0 123)">
			<stop  offset="0" style="stop-color:#D0D2D3"/>
			<stop  offset="0.9995" style="stop-color:#6D6E70"/>
		</linearGradient>
		<path style="fill:url(#SVGID_389_);" d="M46.6,56.6H49c0,0,0.1,0,0.1-0.1v-3.4c0-0.1-0.4-0.7-0.5-0.9H47c-0.2,0.2-0.5,0.7-0.5,0.9
			L46.6,56.6C46.5,56.6,46.5,56.6,46.6,56.6z"/>
		
			<linearGradient id="SVGID_390_" gradientUnits="userSpaceOnUse" x1="44.2" y1="58.7849" x2="44.2" y2="54.4255" gradientTransform="matrix(1 0 0 -1 0 123)">
			<stop  offset="0" style="stop-color:#D0D2D3"/>
			<stop  offset="0.9995" style="stop-color:#6D6E70"/>
		</linearGradient>
		<path style="fill:url(#SVGID_390_);" d="M45.4,64.2H43c0,0-0.1,0-0.1,0.1v3.4c0,0.1,0.4,0.7,0.5,0.9H45c0.2-0.2,0.5-0.7,0.5-0.9
			L45.4,64.2C45.5,64.2,45.5,64.2,45.4,64.2z"/>
		<path style="fill:#A87C4F;" d="M30.1,55.4c1.5,2.4,4.3,5.5,9.2,6.7c0-0.5-0.1-0.9-0.1-1.4c0-0.8-0.1-1.7-0.3-2.6
			c-4-1.1-8.3-5-7.8-13c-0.9-0.8-2-1.6-3-2.3C27.1,47,27.8,51.7,30.1,55.4z"/>
		
			<linearGradient id="SVGID_391_" gradientUnits="userSpaceOnUse" x1="45.9" y1="63.9095" x2="45.9" y2="61.7905" gradientTransform="matrix(1 0 0 -1 0 123)">
			<stop  offset="0" style="stop-color:#D0D2D3"/>
			<stop  offset="0.9995" style="stop-color:#6D6E70"/>
		</linearGradient>
		<path style="fill:url(#SVGID_391_);" d="M48.7,59.6c-0.2-0.2-0.7-0.5-0.9-0.5H44c-0.1,0-0.7,0.4-0.9,0.5v1
			c0.2,0.2,0.7,0.5,0.9,0.5h3.8c0.2,0,0.7-0.4,0.9-0.5V59.6z"/>
		<path style="fill:#C3996B;" d="M53.2,63.5c1,3.8,3.6,7.8,6.9,11.1C60.4,66.6,55.5,64.2,53.2,63.5z"/>
		<path style="fill:#D64656;" d="M51.4,53c0,0,0,0.1,0.1,0.1c1.8,0.2,3.4,0.6,4.9,1.1l4.5-6.8c0-0.7,0-1.4,0-2.1H61l-3.1-2.1
			L51.4,53z"/>
		<path style="fill:#A87C4F;" d="M61.9,65.4c-1.5-2.4-4.3-5.5-9.2-6.7c0,0.5-0.028,0.866-0.028,1.366c0,0.8,0.158,1.715,0.358,2.615
			c4.1,1.1,8.261,5.088,7.761,12.688c1,0.9,2.12,1.76,3.22,2.56C64.811,73.828,64.1,69.1,61.9,65.4z"/>
		
			<linearGradient id="SVGID_392_" gradientUnits="userSpaceOnUse" x1="49.6875" y1="58.7849" x2="49.6875" y2="52.0114" gradientTransform="matrix(1 0 0 -1 0 123)">
			<stop  offset="0" style="stop-color:#D0D2D3"/>
			<stop  offset="0.9995" style="stop-color:#6D6E70"/>
		</linearGradient>
		<path style="fill:url(#SVGID_392_);" d="M50.9,64.2h-2.4c0,0-0.1,0-0.1,0.1v5.8c0,0.1,0.4,0.7,0.5,0.9h1.4
			c0.2-0.2,0.5-0.7,0.5-0.9L50.9,64.2C51,64.2,51,64.2,50.9,64.2z"/>
		
			<linearGradient id="SVGID_393_" gradientUnits="userSpaceOnUse" x1="46.1" y1="75.0817" x2="46.1" y2="50.0931" gradientTransform="matrix(1 0 0 -1 0 123)">
			<stop  offset="0" style="stop-color:#D0D2D3"/>
			<stop  offset="0.9995" style="stop-color:#6D6E70"/>
		</linearGradient>
		<path style="fill:url(#SVGID_393_);" d="M52,60.2c-0.2-7.9-2.8-10.1-7.3-11.4c-3.8-1.1-7.7-0.8-10-0.6c3.3,4,5.1,8.5,5.2,12.6
			c0.2,7.9,2.8,10.1,7.3,11.4c3.9,1.1,7.9,0.8,10.3,0.6C54.3,68.7,52.1,64.2,52,60.2z M45.8,53.1c0-0.3,0.6-1.5,1.1-1.5h1.6
			c0.5,0,1.1,1.3,1.1,1.5v3.4c0,0.4-0.3,0.7-0.7,0.7h-2.4c-0.4,0-0.7-0.3-0.7-0.7C45.8,56.5,45.8,53.1,45.8,53.1z M40.3,56.6v-5.8
			c0-0.3,0.6-1.5,1.1-1.5H43c0.5,0,1.1,1.3,1.1,1.5v5.8c0,0.4-0.3,0.7-0.7,0.7H41C40.7,57.3,40.3,57,40.3,56.6z M46.2,67.7
			c0,0.3-0.6,1.5-1.1,1.5h-1.6c-0.5,0-1.1-1.3-1.1-1.5v-3.4c0-0.4,0.3-0.7,0.7-0.7h2.4c0.4,0,0.7,0.3,0.7,0.7
			C46.2,64.3,46.2,67.7,46.2,67.7z M44,61.9c-0.3,0-1.5-0.6-1.5-1.1v-0.3h-1.3v-0.7h1.3v-0.3c0-0.5,1.3-1.1,1.5-1.1h3.8
			c0.3,0,1.5,0.6,1.5,1.1v0.3h1.2v0.7h-1.2v0.3c0,0.5-1.3,1.1-1.5,1.1H44z M51.7,70.1c0,0.3-0.6,1.5-1.1,1.5H49
			c-0.5,0-1.1-1.3-1.1-1.5v-5.8c0-0.4,0.3-0.7,0.7-0.7H51c0.4,0,0.7,0.3,0.7,0.7C51.7,64.3,51.7,70.1,51.7,70.1z"/>
		<path style="fill:#8C5D37;" d="M18.6,54.2v5.6c4.6,2.1,7.8,7.2,7.9,12.5h-0.1l4.1,2.7C30.9,66.7,26.4,58.8,18.6,54.2z"/>
		<polygon style="fill:#C3996B;" points="18.6,68 18.6,70.5 32.8,79.7 33.9,78.1 		"/>
		<path style="fill:#D64656;" d="M40.6,67.7c-1.8-0.2-3.4-0.6-4.9-1.1l-4.5,6.8c0,0.7,0,1.4,0,2.1l0,0l3.1,2.1l6.4-9.7
			C40.6,67.8,40.6,67.8,40.6,67.7z"/>
		<path style="fill:#A87C4F;" d="M18.6,60.6v6.6l7.2,4.8C25.6,67.1,22.7,62.5,18.6,60.6z"/>
		
			<linearGradient id="SVGID_394_" gradientUnits="userSpaceOnUse" x1="45.15" y1="43" x2="45.15" y2="36.7787" gradientTransform="matrix(1 0 0 -1 0 123)">
			<stop  offset="0" style="stop-color:#1B75BB"/>
			<stop  offset="0.9995" style="stop-color:#2B388F"/>
		</linearGradient>
		<path style="fill:url(#SVGID_394_);" d="M52.1,83.4c0.4-0.3,1-0.4,1.5-0.2V80H38.4l-1.7,2.6c0.7-0.2,1.6-0.4,2.8-0.4
			c1.7,0,4.9,0,7.2,4c0.2-0.3,0.3-0.5,0.5-0.7c0.2-0.3,0.3-0.5,0.5-0.8c0.5-0.8,1.2-1.3,1.9-1.3c0.5,0,0.9,0.2,1.2,0.6
			c0.1,0.2,0.2,0.3,0.3,0.5C51.4,84,51.8,83.6,52.1,83.4z"/>
		
			<linearGradient id="SVGID_395_" gradientUnits="userSpaceOnUse" x1="46.2" y1="51.5747" x2="46.2" y2="43.6639" gradientTransform="matrix(1 0 0 -1 0 123)">
			<stop  offset="0" style="stop-color:#25A9E0"/>
			<stop  offset="0.9995" style="stop-color:#1B75BB"/>
		</linearGradient>
		<path style="fill:url(#SVGID_395_);" d="M53.5,79.3v-5.8c-2,0-4.2-0.2-6.4-0.8c-1.2-0.3-2.3-0.8-3.2-1.3l-5,7.9
			C38.9,79.3,53.5,79.3,53.5,79.3z"/>
		
			<linearGradient id="SVGID_396_" gradientUnits="userSpaceOnUse" x1="48.6696" y1="35.069" x2="48.6696" y2="38.9265" gradientTransform="matrix(1 0 0 -1 0 123)">
			<stop  offset="0" style="stop-color:#A6A8AB"/>
			<stop  offset="0.9995" style="stop-color:#404041"/>
		</linearGradient>
		<path style="fill:url(#SVGID_396_);" d="M50.2,84.4c-0.2-0.2-0.4-0.3-0.6-0.3c-0.4,0-1,0.4-1.4,1c-0.2,0.3-0.3,0.5-0.5,0.8
			s-0.4,0.7-0.8,1.2c0.7,0,1.4,0.3,1.8,0.9l0,0c0.2-0.3,0.4-0.7,0.7-1.1h-0.1v-0.7c0.3,0,0.5-0.1,0.7-0.2c0.1-0.2,0.3-0.4,0.4-0.6
			C50.5,85,50.4,84.7,50.2,84.4z"/>
		<path style="fill:#F1F1F2;" d="M69.5,41.8c0,0.1,0,0.1,0,0.2c0,0.3-0.1,0.6-0.2,0.9c0,0.1,0,0.1,0,0.2c0.7-0.3,2.3-1,2.9-1.3
			c0.2-0.1,0.3-0.2,0.3-0.4c0-0.3-0.2-0.7-0.6-1c-0.1,0-0.1,0.1-0.2,0.1C70.8,41.2,69.9,41.6,69.5,41.8z"/>
		<path style="fill:#F1F1F2;" d="M35.5,94.6c0.3,0.6,0.1,1.1-0.1,2.1c-0.1,0.3-0.2,0.7-0.3,1.1c1.4,1.3,4.3,2.2,7.8,2.2
			c0.7-1.2,4.6-8.4,5.3-9.8c0.3-0.7,0.3-1.4,0-1.9c-0.3-0.4-0.7-0.6-1.2-0.6c-0.5,0.1-0.9,0.4-1.1,0.8c-0.2,0.5,0,1.1,0.5,1.5
			l-0.5,0.5c-0.7-0.6-0.9-1.4-0.6-2.2c0.1-0.4,0.4-0.7,0.7-0.9c0.1-0.2,0.2-0.4,0.4-0.5C44.3,83,41.3,83,39.6,83
			c-1.8,0-2.9,0.3-3.4,0.8s-0.4,1.3-0.3,2c0,0.2,0,0.4,0.1,0.6c0.5-0.1,1-0.1,1.5,0h0.2L37.5,87h-0.2c-0.9-0.1-1.5-0.1-1.9,0.6
			c0.3,0.5,0.2,1.3,0.1,1.9c0.2,0,0.5,0,0.7,0c0.8,0.1,1.4,0.4,1.8,1l-0.5,0.4c-0.4-0.5-0.9-0.6-1.4-0.7c-0.9-0.1-1.7,0.2-2,0.4
			c-0.1,0.1-0.1,0.7,1.3,3.6C35.4,94.4,35.5,94.5,35.5,94.6z M38.2,98.6c-0.2,0-0.3,0-0.5,0l0.1-0.7c1.4,0.2,2.8-0.5,4.2-2.1
			l0.5,0.4C41.1,97.8,39.6,98.6,38.2,98.6z M36.6,88.9l0.1-0.7c1.2,0.1,1.9-0.4,2.5-0.8c0.2-0.1,0.4-0.2,0.5-0.3
			c0.6-0.3,1.7-0.3,2.2,0.3c0.4,0.4,0.4,0.8,0.1,1.3c-0.4,0.7-0.8,0.9-1.1,1.1c-0.1,0-0.2,0.1-0.2,0.1H40c0-0.4,0.3-0.6,0.6-0.7
			s0.6-0.3,0.8-0.8c0.2-0.3,0.1-0.5,0-0.5c-0.3-0.3-1.1-0.4-1.4-0.2c-0.2,0.1-0.3,0.2-0.5,0.3C38.9,88.4,38,89,36.6,88.9z
			 M37.5,93.3c0.2,0.2,1.8,0.5,2.5,0.6c1.2,0.2,1.5,0.2,1.5,0.6c0,0.1-0.1,0.3-0.4,0.4c-1,0.2-2.6,1.2-3.7,1.8l-0.3-0.6
			c0.1-0.1,0.3-0.1,0.4-0.2c-0.3-0.7-0.3-1.3,0-1.8c-0.2-0.1-0.4-0.2-0.5-0.3L37.5,93.3z"/>
		
			<linearGradient id="SVGID_397_" gradientUnits="userSpaceOnUse" x1="35.4" y1="21.8234" x2="35.4" y2="14.7056" gradientTransform="matrix(1 0 0 -1 0 123)">
			<stop  offset="0" style="stop-color:#25A9E0"/>
			<stop  offset="0.9995" style="stop-color:#1B75BB"/>
		</linearGradient>
		<path style="fill:url(#SVGID_397_);" d="M38.3,101.7l-2.1-0.6l-3.7,5.7c0.3,0.4,1.2,1,2.2,1.2c1,0.3,1.8,0.2,2.2,0L38.3,101.7z"/>
		<path style="fill:#F1F1F2;" d="M38.1,95.5c0.7-0.4,1.4-0.7,2-1H40c-0.7-0.1-1.4-0.2-1.9-0.3C37.9,94.6,37.9,95,38.1,95.5z"/>
		
			<linearGradient id="SVGID_398_" gradientUnits="userSpaceOnUse" x1="43.65" y1="20.6191" x2="43.65" y2="13.8074" gradientTransform="matrix(1 0 0 -1 0 123)">
			<stop  offset="0" style="stop-color:#25A9E0"/>
			<stop  offset="0.9995" style="stop-color:#1B75BB"/>
		</linearGradient>
		<path style="fill:url(#SVGID_398_);" d="M41.8,102.4l-1,6.2c0.2,0.3,1.1,0.6,2.5,0.6c1.6,0,2.9-0.3,3.2-0.6l-0.6-6.2H41.8z"/>
		<path style="fill:#A87C4F;" d="M21.8,90.6L21.8,90.6c-0.5,0.5-1.1,1.1-1.9,1.9c0.5,0.4,1.2,1,1.9,1.7l0,0l0,0
			c0.6-0.6,1.2-1.2,1.9-1.9c-0.3-0.3-0.6-0.6-0.9-0.9C22.4,91.2,22.1,90.9,21.8,90.6L21.8,90.6z"/>
		
			<linearGradient id="SVGID_399_" gradientUnits="userSpaceOnUse" x1="52.15" y1="21.8607" x2="52.15" y2="14.5863" gradientTransform="matrix(1 0 0 -1 0 123)">
			<stop  offset="0" style="stop-color:#25A9E0"/>
			<stop  offset="0.9995" style="stop-color:#1B75BB"/>
		</linearGradient>
		<path style="fill:url(#SVGID_399_);" d="M49.4,101.8l1,6.4c0.4,0.3,1.6,0.2,2.8-0.2c1-0.3,1.6-0.7,1.7-1l-3.2-5.9L49.4,101.8z"/>
		<path style="fill:#A87C4F;" d="M22,83.9c-1.4,0-2.4,1-2.4,2.6c0,0.9,1.2,2.2,2.2,3.2c1.5-1.6,2.1-2.5,2.1-3.2
			C23.9,85.6,23.7,83.9,22,83.9z"/>
		<path style="fill:#F1F1F2;" d="M23.4,77.7l0.2,0.3l-0.3,0.2c0,0-0.2,0.3-0.1,0.7c0,0.4,0.2,1.1,0.9,1.7l0.8,0.6h-1
			c-0.5,0-0.6,0-1.1,0.7l-0.1,0.2L22.5,82c-1.2-0.4-2-0.1-2.2,0.3c-0.1,0.3,0.2,0.5,0.3,0.5c0.6,0.3,2,0.5,3.4,0.4s2.8-1.5,2.9-3.8
			L23.2,77C23.2,77.2,23.2,77.5,23.4,77.7z"/>
		<path style="fill:#F1717A;" d="M43.3,71.1c-0.9-0.6-1.7-1.5-2.3-2.5L32.2,82l3.1,1.9L43.3,71.1z"/>
		<path style="fill:#603813;" d="M60.9,48.6L57,54.5c5.1,1.9,8.1,5.2,9.8,8c3.2,5.3,3.9,12.2,1.8,18.1c1.7,0.8,3.4,1.3,5,1.5V67.6
			C66.3,63.4,61.5,56.2,60.9,48.6z"/>
		<path style="fill:#A87C4F;" d="M20,97.2c-0.3,0.5-0.4,1.4,0,2.1c0.3,0.6,1,1,1.9,1c1.3,0,1.9-0.8,2.1-1.2c0.3-0.7,0.2-1.6-0.2-2
			c-0.3-0.4-1-1.1-2-2C21,96,20.4,96.7,20,97.2z"/>
		<path style="fill:#BBBDBF;" d="M60,81.1l-1.7-1.7v-5.9c-0.1-0.1-0.1-0.2-0.2-0.2H58c-0.4,0-0.9,0.1-1.4,0.1v9.9
			c0.4-0.4,1-0.5,1.6-0.3c0.5,0.2,1.1,0.6,1.4,1.4c0.1,0,0.3-0.1,0.5-0.1v-3.2H60z"/>
		<path style="fill:#A6A8AB;" d="M61.8,83.6V77c-0.6-0.5-1.1-1-1.7-1.5H60l0,0c-0.4-0.4-0.8-0.8-1.1-1.2v4.8l1.7,1.7V84
			C61,83.9,61.4,83.8,61.8,83.6z"/>
		<path style="fill:#D0D2D3;" d="M55.9,73.5c-0.5,0-1.1,0.1-1.7,0.1v10.1c0.5,0.5,0.8,1.2,0.6,1.9c-0.1,0.3-0.2,0.5-0.4,0.7
			c0.3-0.4,0.6-0.8,0.8-1.2c0.2-0.3,0.5-0.6,0.6-0.9V73.5H55.9z"/>
		
			<linearGradient id="SVGID_400_" gradientUnits="userSpaceOnUse" x1="56.6" y1="110.4469" x2="56.6" y2="103.3288" gradientTransform="matrix(1 0 0 -1 0 123)">
			<stop  offset="0" style="stop-color:#25A9E0"/>
			<stop  offset="0.9995" style="stop-color:#1B75BB"/>
		</linearGradient>
		<path style="fill:url(#SVGID_400_);" d="M53.7,19.1l2.1,0.6l3.7-5.7c-0.3-0.4-1.2-1-2.2-1.2c-1-0.3-1.8-0.2-2.2,0L53.7,19.1z"/>
		
			<linearGradient id="SVGID_401_" gradientUnits="userSpaceOnUse" x1="52.4125" y1="23.5104" x2="52.4125" y2="34.8557" gradientTransform="matrix(1 0 0 -1 0 123)">
			<stop  offset="0" style="stop-color:#A6A8AB"/>
			<stop  offset="0.9995" style="stop-color:#404041"/>
		</linearGradient>
		<path style="fill:url(#SVGID_401_);" d="M53.2,89.2L53.2,89.2c0.1,0.6,0,1.2-0.3,1.8c-0.7,1.3-3.6,6.7-4.6,8.6
			c1.8-0.4,3.3-1,4.2-1.8c0.3-0.6,3.1-5.6,3.8-7.1c0.3-0.7,0.3-1.4,0-1.9c-0.3-0.4-0.7-0.6-1.2-0.6c-0.5,0.1-0.9,0.4-1.1,0.8
			c-0.2,0.5,0,1,0.5,1.5L54,90.9c-0.6-0.6-0.8-1.3-0.7-2C53.3,89,53.2,89.1,53.2,89.2z"/>
		
			<linearGradient id="SVGID_402_" gradientUnits="userSpaceOnUse" x1="43.85" y1="24.594" x2="43.85" y2="14.6752" gradientTransform="matrix(1 0 0 -1 0 123)">
			<stop  offset="0" style="stop-color:#F9EC31"/>
			<stop  offset="0.9995" style="stop-color:#C3996B"/>
		</linearGradient>
		<path style="fill:url(#SVGID_402_);" d="M43.4,100.7c-3.8,0-7-0.8-8.6-2.3c-0.9,1.3-3.7,5.6-4.4,6.7l1.7,1.3l3.8-6l3.2,0.8
			l-1.4,6.7l2.5,0.3l1.1-6.6h5.4l0.6,6.6l2.5-0.2l-1.1-6.8l3.3-1l3.4,6.3l1.9-1.2c-0.7-1-3-4.6-4.6-7
			C50.8,99.8,47.2,100.7,43.4,100.7z"/>
		
			<linearGradient id="SVGID_403_" gradientUnits="userSpaceOnUse" x1="49.1" y1="22.9665" x2="49.1" y2="39.2059" gradientTransform="matrix(1 0 0 -1 0 123)">
			<stop  offset="0" style="stop-color:#A6A8AB"/>
			<stop  offset="0.9995" style="stop-color:#404041"/>
		</linearGradient>
		<path style="fill:url(#SVGID_403_);" d="M53.6,87c-0.5,0.2-1,0.3-1.4,0.1l0.2-0.6c0.3,0.1,0.6,0.1,0.9-0.1c0.4-0.2,0.7-0.6,0.8-1
			c0.2-0.5-0.1-1-0.5-1.3s-0.8-0.3-1.2-0.1c-0.3,0.2-0.9,0.9-1.4,1.7c0,0.1,0,0.1-0.1,0.2c-0.1,0.2-0.3,0.4-0.4,0.5
			c-0.6,0.8-1.1,1.7-1.4,2.3l0,0c0.1,0.6,0.1,1.2-0.2,1.8c-0.7,1.4-4.1,7.7-5.1,9.6c1.3,0,2.6-0.1,3.8-0.4c0.6-1,4.1-7.6,4.9-9.1
			c0.3-0.7,0.3-1.4,0-1.9c-0.3-0.4-0.7-0.6-1.2-0.6s-0.9,0.4-1.1,0.8c-0.2,0.5,0,1,0.5,1.5L50,90.9c-0.7-0.6-0.9-1.4-0.6-2.2
			c0.2-0.7,0.9-1.2,1.7-1.3c0.7-0.1,1.4,0.2,1.9,0.9v0.1c0.4-0.5,0.9-1.3,1.4-2C54.1,86.6,53.9,86.8,53.6,87z"/>
		<path style="fill:#F1F1F2;" d="M22.4,81.3c0.3-0.4,0.5-0.6,0.8-0.7c-0.2-0.3-0.4-0.6-0.5-0.9c-0.4,0.2-1.2,0.6-2,1.1
			c-0.4,0.3-0.6,0.6-0.6,0.7l0,0C20.6,81.2,21.4,81,22.4,81.3z"/>
		<path style="fill:#BBBDBF;" d="M32,39.7l1.7,1.7v5.3c0.2,0.2,0.4,0.5,0.5,0.7c0.4,0,0.8-0.1,1.2-0.1v-9.8c-0.3,0.3-0.6,0.4-1,0.4
			c-0.2,0-0.4,0-0.6-0.1c-0.5-0.2-1.1-0.6-1.4-1.4c-0.1,0-0.3,0.1-0.5,0.1v3.2H32z"/>
		<path style="fill:#D0D2D3;" d="M36.1,47.3c0.5,0,1.1-0.1,1.7-0.1v-10c-0.5-0.5-0.8-1.2-0.6-1.9c0.1-0.3,0.2-0.5,0.4-0.7
			c-0.3,0.4-0.6,0.9-0.9,1.2c-0.2,0.3-0.4,0.6-0.6,0.9C36.1,36.7,36.1,47.3,36.1,47.3z"/>
		<path style="fill:#A6A8AB;" d="M30.2,37.2v6.2c1,0.8,2,1.7,2.8,2.6v-4.3L31.3,40v-3.2C31,36.9,30.6,37.1,30.2,37.2z"/>
		
			<linearGradient id="SVGID_404_" gradientUnits="userSpaceOnUse" x1="42.85" y1="102.2" x2="42.85" y2="85.9606" gradientTransform="matrix(1 0 0 -1 0 123)">
			<stop  offset="0" style="stop-color:#A6A8AB"/>
			<stop  offset="0.9995" style="stop-color:#404041"/>
		</linearGradient>
		<path style="fill:url(#SVGID_404_);" d="M38.4,33.9c0.5-0.2,1-0.3,1.4-0.1l-0.2,0.6c-0.3-0.1-0.6-0.1-0.9,0.1
			c-0.4,0.2-0.7,0.6-0.8,1c-0.2,0.5,0.1,1,0.5,1.3s0.8,0.3,1.2,0.1c0.3-0.2,0.9-0.9,1.4-1.7c0-0.1,0-0.1,0.1-0.2
			c0.1-0.2,0.3-0.4,0.4-0.5c0.6-0.8,1.1-1.7,1.4-2.3l0,0c-0.1-0.6-0.1-1.2,0.2-1.8c0.7-1.4,4.1-7.7,5.1-9.6c-1.3,0-2.6,0.1-3.8,0.4
			c-0.6,1-4.1,7.6-4.9,9.1c-0.3,0.7-0.3,1.4,0,1.9c0.3,0.4,0.7,0.6,1.2,0.6c0.5-0.1,0.9-0.4,1.1-0.8c0.2-0.5,0-1-0.5-1.5l0.5-0.5
			c0.7,0.6,0.9,1.4,0.6,2.2c-0.2,0.7-0.9,1.2-1.7,1.3c-0.1,0-0.1,0-0.2,0c-0.7,0-1.3-0.3-1.6-0.9v-0.1c-0.4,0.5-0.9,1.3-1.4,2
			C37.9,34.2,38.1,34,38.4,33.9z"/>
		<path style="fill:#808184;" d="M29.5,37.5c-1.4,0.6-2.9,1.5-4.2,2.8c1.4,0.8,2.9,1.7,4.2,2.6V37.5z"/>
		<path style="fill:#603813;" d="M31.1,72.2l3.9-5.9c-5.1-1.9-8.1-5.2-9.8-8C22,53,21.3,46.1,23.5,40.1c-1.9-0.9-3.6-1.5-4.9-1.8
			v15.1C25.9,57.6,30.5,64.6,31.1,72.2z"/>
		
			<linearGradient id="SVGID_405_" gradientUnits="userSpaceOnUse" x1="48.35" y1="111.345" x2="48.35" y2="104.534" gradientTransform="matrix(1 0 0 -1 0 123)">
			<stop  offset="0" style="stop-color:#25A9E0"/>
			<stop  offset="0.9995" style="stop-color:#1B75BB"/>
		</linearGradient>
		<path style="fill:url(#SVGID_405_);" d="M50.2,18.5l1-6.2c-0.2-0.3-1.1-0.6-2.5-0.6c-1.6,0-2.9,0.3-3.2,0.6l0.6,6.2H50.2z"/>
		
			<linearGradient id="SVGID_406_" gradientUnits="userSpaceOnUse" x1="39.5875" y1="101.6427" x2="39.5875" y2="90.2982" gradientTransform="matrix(1 0 0 -1 0 123)">
			<stop  offset="0" style="stop-color:#A6A8AB"/>
			<stop  offset="0.9995" style="stop-color:#404041"/>
		</linearGradient>
		<path style="fill:url(#SVGID_406_);" d="M38.8,31.7L38.8,31.7c-0.1-0.6,0-1.2,0.3-1.8c0.7-1.3,3.6-6.7,4.6-8.6
			c-1.8,0.4-3.3,1-4.2,1.8c-0.3,0.6-3.1,5.6-3.8,7.1c-0.3,0.7-0.3,1.4,0,1.9c0.3,0.4,0.7,0.6,1.2,0.6c0.5-0.1,0.9-0.4,1.1-0.8
			c0.2-0.5,0-1-0.5-1.5l0.5-0.5c0.6,0.6,0.8,1.3,0.7,2C38.7,31.8,38.8,31.7,38.8,31.7z"/>
		
			<linearGradient id="SVGID_407_" gradientUnits="userSpaceOnUse" x1="39.85" y1="110.5726" x2="39.85" y2="103.2923" gradientTransform="matrix(1 0 0 -1 0 123)">
			<stop  offset="0" style="stop-color:#25A9E0"/>
			<stop  offset="0.9995" style="stop-color:#1B75BB"/>
		</linearGradient>
		<path style="fill:url(#SVGID_407_);" d="M42.6,19l-1-6.4c-0.4-0.3-1.6-0.2-2.8,0.1c-1,0.3-1.6,0.7-1.7,1l3.2,5.9L42.6,19z"/>
		
			<linearGradient id="SVGID_408_" gradientUnits="userSpaceOnUse" x1="48.15" y1="110.4778" x2="48.15" y2="100.5584" gradientTransform="matrix(1 0 0 -1 0 123)">
			<stop  offset="0" style="stop-color:#F9EC31"/>
			<stop  offset="0.9995" style="stop-color:#C3996B"/>
		</linearGradient>
		<path style="fill:url(#SVGID_408_);" d="M48.6,20.1c3.8,0,7,0.8,8.6,2.3c0.9-1.3,3.7-5.6,4.4-6.7l-1.7-1.3l-3.8,6l-3.2-0.8
			l1.4-6.7l-2.5-0.3l-1.1,6.6h-5.4l-0.6-6.6l-2.5,0.2l1.1,6.8l-3.3,1l-3.4-6.3l-1.9,1.2c0.7,1,3,4.6,4.6,7
			C41.2,21,44.8,20.1,48.6,20.1z"/>
		<path style="fill:#F1F1F2;" d="M20.7,75.2c-0.6,0.1-1.1,0.5-1.2,0.8c0,0.2,0,0.4,0.2,0.6c0.4-0.4,1-0.6,1.8-0.9L20.7,75.2z"/>
		<path style="fill:#F1F1F2;" d="M22.2,76.2c-1.4,0.3-2.3,0.8-2.5,1.4c-0.1,0.2,0,0.4,0.1,0.7c0.8-0.4,2.3-1,2.8-1.2
			c0-0.2,0.1-0.4,0.1-0.5L22.2,76.2L22.2,76.2z"/>
		<path style="fill:#F1F1F2;" d="M22.5,79c0-0.1,0-0.2,0-0.2c0-0.3,0.1-0.6,0.2-0.9c0-0.1,0-0.1,0-0.2c-0.7,0.3-2.3,1-2.9,1.3
			c-0.2,0.1-0.3,0.2-0.3,0.4c0,0.3,0.2,0.7,0.6,1c0.1,0,0.1-0.1,0.2-0.1C21.2,79.6,22.1,79.2,22.5,79z"/>
		<path style="fill:#808184;" d="M62.5,83.4c1.4-0.6,3-1.6,4.3-2.9c-1.5-0.8-2.9-1.8-4.3-2.9C62.5,77.6,62.5,83.4,62.5,83.4z"/>
		<polygon style="fill:#D64656;" points="32.4,80.2 18.6,71.3 18.6,73 31.6,81.5 		"/>
	</g>
	<path style="display:inline;fill:none;stroke:#000000;stroke-width:0.8;stroke-miterlimit:10;" d="M73.9,82.5
		c-9.8-0.8-21.3-12.9-21.5-22.3c-0.2-8.4-3.3-10.5-7.6-11.7c-4.2-1.2-8.5-0.8-10.7-0.6c-3.6-5.2-12.4-9.4-15.8-9.9"/>
	<path style="display:inline;fill:none;stroke:#000000;stroke-width:0.8;stroke-miterlimit:10;" d="M60.4,75.5
		c0.7-8.1-3.8-11.6-7.7-12.5"/>
	<path style="display:inline;fill:none;stroke:#000000;stroke-width:0.8;stroke-miterlimit:10;" d="M64,78.5c2.3-8-2-18.3-11.8-20.3
		"/>
	<path style="display:inline;fill:none;stroke:#000000;stroke-width:0.8;stroke-miterlimit:10;" d="M68.1,80.9
		c3.7-10-0.2-25.4-16.9-27.5"/>
	<path style="display:inline;fill:none;stroke:#000000;stroke-width:0.8;stroke-miterlimit:10;" d="M73.9,67.4
		c-8.3-4.7-13.3-13.2-12.7-22"/>
	<path style="display:inline;fill:none;stroke:#000000;stroke-width:0.8;stroke-miterlimit:10;" d="M73.9,61c-4.5-2-8-7.3-8.1-12.4"
		/>
	
		<line style="display:inline;fill:none;stroke:#000000;stroke-width:0.8;stroke-miterlimit:10;" x1="73.9" y1="53.6" x2="57.7" y2="42.9"/>
	
		<line style="display:inline;fill:none;stroke:#000000;stroke-width:0.8;stroke-miterlimit:10;" x1="73.9" y1="50.3" x2="59.2" y2="40.8"/>
	<polyline style="display:inline;fill:none;stroke:#000000;stroke-width:0.8;stroke-miterlimit:10;" points="73.9,47.7 60.3,38.9 
		51,53 	"/>
	
		<line style="display:inline;fill:none;stroke:#000000;stroke-width:0.8;stroke-miterlimit:10;" x1="56.4" y1="54.7" x2="61.1" y2="47.6"/>
	<polyline style="display:inline;fill:none;stroke:#000000;stroke-width:0.8;stroke-miterlimit:10;" points="48.2,49.9 56.6,36.7 
		60.3,38.9 	"/>
	<path style="display:inline;fill:none;stroke:#000000;stroke-width:0.8;stroke-miterlimit:10;" d="M24.8,40.3
		c2.7-2.8,6.8-4.1,7.8-4.2"/>
	
		<line style="display:inline;fill:none;stroke:#000000;stroke-width:0.8;stroke-miterlimit:10;" x1="29.9" y1="37" x2="29.9" y2="43.6"/>
	<polyline style="display:inline;fill:none;stroke:#000000;stroke-width:0.8;stroke-miterlimit:10;" points="31.6,36.4 31.6,39.9 
		33.4,41.6 33.4,46.9 	"/>
	
		<line style="display:inline;fill:none;stroke:#000000;stroke-width:0.8;stroke-miterlimit:10;" x1="35.8" y1="36.7" x2="35.8" y2="47.6"/>
	
		<line style="display:inline;fill:none;stroke:#000000;stroke-width:0.8;stroke-miterlimit:10;" x1="38.1" y1="47.6" x2="38.1" y2="37"/>
	
		<line style="display:inline;fill:none;stroke:#000000;stroke-width:0.8;stroke-miterlimit:10;" x1="38.1" y1="41.2" x2="53.7" y2="41.2"/>
	<path style="display:inline;fill:none;stroke:#000000;stroke-width:0.8;stroke-miterlimit:10;" d="M62.1,15.6c0,0-4.4,6.7-4.8,7.3
		c-3.2-3.4-14.2-3.2-18.1,0c-1.9-2.7-4.9-7.5-4.9-7.5l2.5-1.6l3.4,6.3l2.8-0.9l-1.1-6.8l3.2-0.3l0.6,6.6h4.8l1.1-6.6l3.2,0.4
		l-1.4,6.8L56,20l3.9-6.1L62.1,15.6z"/>
	<path style="display:inline;fill:none;stroke:#000000;stroke-width:0.8;stroke-miterlimit:10;" d="M36.8,13.8
		c0.2-1.1,4.2-2.3,5.2-1.4"/>
	<path style="display:inline;fill:none;stroke:#000000;stroke-width:0.8;stroke-miterlimit:10;" d="M45.1,12.2
		c0.6-1.1,5.9-1.2,6.5,0"/>
	<path style="display:inline;fill:none;stroke:#000000;stroke-width:0.8;stroke-miterlimit:10;" d="M54.8,12.6
		c1.1-1,4.7,0.2,5.1,1.4"/>
	<path style="display:inline;fill:none;stroke:#000000;stroke-width:0.8;stroke-miterlimit:10;" d="M48.9,20.5c0,0-4.6,8.4-5.4,10
		c-0.8,1.6,0.2,3.1,1.6,2.9c1.4-0.1,2-1.7,0.8-2.9"/>
	<path style="display:inline;fill:none;stroke:#000000;stroke-width:0.8;stroke-miterlimit:10;" d="M44.3,20.9c0,0-4.1,7.6-4.9,9.2
		c-0.8,1.6,0.2,3.1,1.6,2.9c1.4-0.1,2-1.7,0.8-2.9"/>
	<path style="display:inline;fill:none;stroke:#000000;stroke-width:0.8;stroke-miterlimit:10;" d="M39.2,22.9c0,0-3,5.5-3.8,7.2
		c-0.8,1.6,0.2,3.1,1.6,2.9c1.4-0.1,2-1.7,0.8-2.9"/>
	<path style="display:inline;fill:none;stroke:#000000;stroke-width:0.8;stroke-miterlimit:10;" d="M39.1,31.9c-1,1.3-3.5,5-3.7,5.3
		c-0.7,1-2.8,0.3-2.8-1.7c0-1.3,2-2,2.5-1.4"/>
	<path style="display:inline;fill:none;stroke:#000000;stroke-width:0.8;stroke-miterlimit:10;" d="M64.6,41.7
		c0.1-2.7,1.8-4.2,3.3-4.3s3,0,3.6,0.4c1.2,0.7,0.2,2.1-2.1,1.4C68.9,40,68.6,40,68.1,40c1.4,1.1,1.1,2.7,0.8,2.9
		c0.5,0.6,0.1,1.6,0,1.5"/>
	<path style="display:inline;fill:none;stroke:#000000;stroke-width:0.8;stroke-miterlimit:10;" d="M71.9,38.9
		c0.6,0.3,0.3,1-0.4,1.5c-1.2,0.8-2.4,1.3-2.4,1.3"/>
	<path style="display:inline;fill:none;stroke:#000000;stroke-width:0.8;stroke-miterlimit:10;" d="M71.9,40.1c1,0.7,1.2,1.6,0.4,2
		c-0.7,0.4-3.2,1.4-3.2,1.4"/>
	<path style="display:inline;fill:none;stroke:#000000;stroke-width:0.8;stroke-miterlimit:10;" d="M72.3,42.1
		c0.8,1.1,0,2.3-2.5,2.8"/>
	<path style="display:inline;fill:none;stroke:#000000;stroke-width:0.8;stroke-miterlimit:10;" d="M72.3,43.8
		c0.9,0.8,0.4,1.9-1.1,2.2"/>
	<path style="display:inline;fill:none;stroke:#000000;stroke-width:0.8;stroke-miterlimit:10;" d="M67.9,28.6
		c2-1.9,3.7-3.7,4.4-4.7c0.7-1,0.5-3.6-2.2-3.6s-3.1,2.8-2.2,3.8s3.7,3.5,4.6,4.4c-3.2,3.1-4.8,4.8-4.8,6.1c0,1.4,0.6,2.9,2.3,2.9
		c1.7,0,2.7-1.3,2.7-2.9C72.8,32.7,69.5,30.1,67.9,28.6z"/>
	<path style="display:inline;fill:none;stroke:#000000;stroke-width:0.8;stroke-miterlimit:10;" d="M39.7,34.1
		c-0.8-0.3-1.8,0.2-2.1,1.3c-0.4,1.3,1.1,2.5,2.2,1.8c0.9-0.6,3-3.9,3.5-4.8"/>
	<path style="display:inline;fill:none;stroke:#000000;stroke-width:0.8;stroke-miterlimit:10;" d="M45.8,33.2
		c-1.1,1.7-1.3,2.1-1.8,2.7c-0.8,1.2-1.9,1.5-2.6,0.7c-0.7-0.9-0.1-2.3,1.2-2.3"/>
	<path style="display:inline;fill:none;stroke:#000000;stroke-width:0.8;stroke-miterlimit:10;" d="M57.3,22.9
		c-0.5,2.1-0.8,2.6-0.5,3.2c0.3,0.7,2,3.8,1.4,4.3c-0.6,0.6-2.9,1-3.9-0.3"/>
	<path style="display:inline;fill:none;stroke:#000000;stroke-width:0.8;stroke-miterlimit:10;" d="M57,30.9c-0.2,0.8-0.5,1.7,0,2.3
		c-0.5,1.3-1.6,1.1-2.5,0.9"/>
	<path style="display:inline;fill:none;stroke:#000000;stroke-width:0.8;stroke-miterlimit:10;" d="M56.4,34c-0.2,1.6,1.6,4.3-4,4.3
		c-2.1,0-5-0.2-7.2-4.3"/>
	<path style="display:inline;fill:none;stroke:#000000;stroke-width:0.8;stroke-miterlimit:10;" d="M55.4,32.3
		c-1.6-0.2-2.5,0.7-3.2,1.1c-0.8,0.4-2.5,0-1.9-1.2c0.5-1,1.4-0.8,1.4-1.3"/>
	<path style="display:inline;fill:none;stroke:#000000;stroke-width:0.8;stroke-miterlimit:10;" d="M54.3,22.6
		c-1.5-0.2-3.1,0.6-4.5,2.2"/>
	<path style="display:inline;fill:none;stroke:#000000;stroke-width:0.8;stroke-miterlimit:10;" d="M54.8,24.5
		c-1.3,0.7-2.8,1.6-3.8,1.8c-1,0.3,3.4,0.4,3.8,1.1"/>
	<path style="display:inline;fill:none;stroke:#000000;stroke-width:0.8;stroke-miterlimit:10;" d="M54.1,24.8
		c0.4,0.8,0.4,1.5,0,2.1"/>
	<path style="display:inline;fill:none;stroke:#000000;stroke-width:0.8;stroke-miterlimit:10;" d="M41.2,39.4
		c0,0.2-0.1,0.3-0.3,0.3s-0.3-0.1-0.3-0.3s0.1-0.3,0.3-0.3C41.1,39.1,41.2,39.2,41.2,39.4z"/>
	<path style="display:inline;fill:none;stroke:#000000;stroke-width:0.8;stroke-miterlimit:10;" d="M44.1,39.4
		c0,0.2-0.1,0.3-0.3,0.3s-0.3-0.1-0.3-0.3s0.1-0.3,0.3-0.3C44,39.1,44.1,39.2,44.1,39.4z"/>
	<path style="display:inline;fill:none;stroke:#000000;stroke-width:0.8;stroke-miterlimit:10;" d="M47,39.4c0,0.2-0.1,0.3-0.3,0.3
		s-0.3-0.1-0.3-0.3s0.1-0.3,0.3-0.3C46.9,39.1,47,39.2,47,39.4z"/>
	<path style="display:inline;fill:none;stroke:#000000;stroke-width:0.8;stroke-miterlimit:10;" d="M49.9,39.4
		c0,0.2-0.1,0.3-0.3,0.3s-0.3-0.1-0.3-0.3s0.1-0.3,0.3-0.3C49.7,39.1,49.9,39.2,49.9,39.4z"/>
	<path style="display:inline;fill:none;stroke:#000000;stroke-width:0.8;stroke-miterlimit:10;" d="M52.8,39.4
		c0,0.2-0.1,0.3-0.3,0.3s-0.3-0.1-0.3-0.3s0.1-0.3,0.3-0.3S52.8,39.2,52.8,39.4z"/>
	
		<line style="display:inline;fill:none;stroke:#000000;stroke-width:0.8;stroke-linecap:round;stroke-miterlimit:10;" x1="44.1" y1="42.9" x2="44.1" y2="46.9"/>
	
		<line style="display:inline;fill:none;stroke:#000000;stroke-width:0.8;stroke-linecap:round;stroke-miterlimit:10;" x1="45.5" y1="44.3" x2="42.7" y2="44.3"/>
	<path style="display:inline;fill:none;stroke:#000000;stroke-width:0.8;stroke-miterlimit:10;" d="M43.9,50.7
		c0-0.2-0.6-1.2-0.8-1.2h-1.6c-0.2,0-0.8,1-0.8,1.2v5.8c0,0.2,0.2,0.4,0.4,0.4h2.4c0.2,0,0.4-0.2,0.4-0.4
		C43.9,56.5,43.9,50.7,43.9,50.7z"/>
	<path style="display:inline;fill:none;stroke:#000000;stroke-width:0.8;stroke-miterlimit:10;" d="M49.4,53.1
		c0-0.2-0.6-1.2-0.8-1.2H47c-0.2,0-0.8,1-0.8,1.2v3.4c0,0.2,0.2,0.4,0.4,0.4H49c0.2,0,0.4-0.2,0.4-0.4
		C49.4,56.5,49.4,53.1,49.4,53.1z"/>
	<path style="display:inline;fill:none;stroke:#000000;stroke-width:0.8;stroke-miterlimit:10;" d="M47.9,61.5
		c0.2,0,1.2-0.6,1.2-0.8v-1.2c0-0.2-1-0.8-1.2-0.8H44c-0.2,0-1.2,0.6-1.2,0.8v1.2c0,0.2,1,0.8,1.2,0.8H47.9z"/>
	
		<line style="display:inline;fill:none;stroke:#000000;stroke-width:0.8;stroke-miterlimit:10;" x1="41.2" y1="60.1" x2="42.8" y2="60.1"/>
	
		<line style="display:inline;fill:none;stroke:#000000;stroke-width:0.8;stroke-miterlimit:10;" x1="49.1" y1="60.1" x2="50.6" y2="60.1"/>
	<path style="display:inline;fill:none;stroke:#000000;stroke-width:0.8;stroke-miterlimit:10;" d="M55.2,107.1
		c-0.2,1.1-4.2,2.3-5.2,1.4"/>
	<path style="display:inline;fill:none;stroke:#000000;stroke-width:0.8;stroke-miterlimit:10;" d="M46.9,108.7
		c-0.6,1.1-5.9,1.2-6.5,0"/>
	<path style="display:inline;fill:none;stroke:#000000;stroke-width:0.8;stroke-miterlimit:10;" d="M37.2,108.3
		c-1.1,1-4.7-0.2-5.1-1.4"/>
	<path style="display:inline;fill:none;stroke:#000000;stroke-width:0.8;stroke-miterlimit:10;" d="M34.1,47.8
		c3.5,4.1,5.4,8.6,5.5,12.9c0.2,8.4,3.3,10.5,7.6,11.7c4.2,1.2,8.7,0.7,10.9,0.5"/>
	<path style="display:inline;fill:none;stroke:#000000;stroke-width:0.8;stroke-miterlimit:10;" d="M31.6,45
		c-0.7,8.1,3.9,11.9,7.7,12.9"/>
	<path style="display:inline;fill:none;stroke:#000000;stroke-width:0.8;stroke-miterlimit:10;" d="M28,42.3
		c-2.3,8,2,18.3,11.8,20.3"/>
	<path style="display:inline;fill:none;stroke:#000000;stroke-width:0.8;stroke-miterlimit:10;" d="M23.9,39.9
		c-3.7,10,0.2,25.4,16.9,27.5"/>
	<path style="display:inline;fill:none;stroke:#000000;stroke-width:0.8;stroke-miterlimit:10;" d="M18.4,53.7
		c8.3,4.7,13,13,12.4,21.8"/>
	<path style="display:inline;fill:none;stroke:#000000;stroke-width:0.8;stroke-miterlimit:10;" d="M18.4,60.1
		c4.5,2,7.7,7.1,7.8,12.3"/>
	
		<line style="display:inline;fill:none;stroke:#000000;stroke-width:0.8;stroke-miterlimit:10;" x1="18.4" y1="67.4" x2="34.3" y2="78"/>
	
		<line style="display:inline;fill:none;stroke:#000000;stroke-width:0.8;stroke-miterlimit:10;" x1="18.4" y1="70.7" x2="32.8" y2="80.1"/>
	<polyline style="display:inline;fill:none;stroke:#000000;stroke-width:0.8;stroke-miterlimit:10;" points="18.4,73.3 31.7,82 
		41,67.9 	"/>
	
		<line style="display:inline;fill:none;stroke:#000000;stroke-width:0.8;stroke-miterlimit:10;" x1="35.6" y1="66.2" x2="30.9" y2="73.2"/>
	<polyline style="display:inline;fill:none;stroke:#000000;stroke-width:0.8;stroke-miterlimit:10;" points="43.8,71 35.4,84.2 
		31.7,82 	"/>
	<path style="display:inline;fill:none;stroke:#000000;stroke-width:0.8;stroke-miterlimit:10;" d="M67.2,80.5
		c-2.7,2.8-6.8,4.1-7.8,4.2"/>
	
		<line style="display:inline;fill:none;stroke:#000000;stroke-width:0.8;stroke-miterlimit:10;" x1="62.1" y1="83.9" x2="62.1" y2="76.9"/>
	<polyline style="display:inline;fill:none;stroke:#000000;stroke-width:0.8;stroke-miterlimit:10;" points="60.4,84.5 60.4,81 
		58.6,79.3 58.6,73.5 	"/>
	
		<line style="display:inline;fill:none;stroke:#000000;stroke-width:0.8;stroke-miterlimit:10;" x1="56.2" y1="84.2" x2="56.2" y2="73.2"/>
	
		<line style="display:inline;fill:none;stroke:#000000;stroke-width:0.8;stroke-miterlimit:10;" x1="53.9" y1="73.3" x2="53.9" y2="83.8"/>
	
		<line style="display:inline;fill:none;stroke:#000000;stroke-width:0.8;stroke-miterlimit:10;" x1="53.9" y1="79.7" x2="38.2" y2="79.7"/>
	<path style="display:inline;fill:none;stroke:#000000;stroke-width:0.8;stroke-miterlimit:10;" d="M29.9,105.2c0,0,4.4-6.7,4.8-7.3
		c3.2,3.4,14.2,3.2,18.1,0c1.9,2.7,5,7.5,5,7.5l-2.5,1.6l-3.4-6.3l-2.8,0.9l1.1,6.8l-3.2,0.3l-0.6-6.6h-4.8l-1.1,6.6l-3.2-0.4
		l1.4-6.8l-2.6-0.7l-3.9,6.1L29.9,105.2z"/>
	<path style="display:inline;fill:none;stroke:#000000;stroke-width:0.8;stroke-miterlimit:10;" d="M43.1,100.4c0,0,4.6-8.4,5.4-10
		c0.8-1.6-0.2-3.1-1.6-3c-1.4,0.1-2,1.7-0.8,2.9"/>
	<path style="display:inline;fill:none;stroke:#000000;stroke-width:0.8;stroke-miterlimit:10;" d="M47.7,100c0,0,4.1-7.6,4.9-9.2
		c0.8-1.6-0.2-3.1-1.6-2.9c-1.4,0.1-2,1.7-0.8,2.9"/>
	<path style="display:inline;fill:none;stroke:#000000;stroke-width:0.8;stroke-miterlimit:10;" d="M52.8,97.9c0,0,3-5.5,3.9-7.2
		c0.8-1.6-0.2-3.1-1.6-2.9c-1.4,0.1-2,1.7-0.8,2.9"/>
	<path style="display:inline;fill:none;stroke:#000000;stroke-width:0.8;stroke-miterlimit:10;" d="M52.9,89c1-1.3,3.5-5,3.7-5.3
		c0.7-1,2.8-0.3,2.8,1.7c0,1.3-2,2-2.5,1.4"/>
	<path style="display:inline;fill:none;stroke:#000000;stroke-width:0.8;stroke-miterlimit:10;" d="M27.4,79.2
		c-0.1,2.7-1.8,4.2-3.3,4.3s-3,0-3.6-0.4c-1.2-0.7-0.2-2.1,2.1-1.4c0.6-0.8,0.8-0.8,1.4-0.8c-1.4-1.1-1.1-2.7-0.8-2.9
		c-0.5-0.6-0.1-1.6,0-1.5"/>
	<path style="display:inline;fill:none;stroke:#000000;stroke-width:0.8;stroke-miterlimit:10;" d="M20.1,82c-0.6-0.3-0.3-1,0.4-1.5
		c1.2-0.8,2.4-1.3,2.4-1.3"/>
	<path style="display:inline;fill:none;stroke:#000000;stroke-width:0.8;stroke-miterlimit:10;" d="M20.1,80.7c-1-0.7-1.2-1.6-0.4-2
		c0.7-0.4,3.2-1.4,3.2-1.4"/>
	<path style="display:inline;fill:none;stroke:#000000;stroke-width:0.8;stroke-miterlimit:10;" d="M19.6,78.7
		c-0.8-1.1,0-2.3,2.5-2.8"/>
	<path style="display:inline;fill:none;stroke:#000000;stroke-width:0.8;stroke-miterlimit:10;" d="M19.6,77.1
		c-0.9-0.8-0.4-1.9,1.1-2.2"/>
	<path style="display:inline;fill:none;stroke:#000000;stroke-width:0.8;stroke-miterlimit:10;" d="M24.1,92.3
		c-2,1.9-3.7,3.7-4.4,4.7c-0.7,1-0.5,3.6,2.2,3.6s3.1-2.8,2.2-3.8s-3.7-3.5-4.6-4.4c3.2-3.1,4.8-4.8,4.8-6.1c0-1.4-0.6-2.9-2.3-2.9
		c-1.7,0-2.7,1.3-2.7,2.9C19.2,88.1,22.5,90.7,24.1,92.3z"/>
	<path style="display:inline;fill:none;stroke:#000000;stroke-width:0.8;stroke-miterlimit:10;" d="M52.3,86.8
		c0.8,0.3,1.8-0.2,2.1-1.3c0.4-1.3-1.1-2.5-2.2-1.8c-0.9,0.6-3,3.9-3.5,4.8"/>
	<path style="display:inline;fill:none;stroke:#000000;stroke-width:0.8;stroke-miterlimit:10;" d="M46.2,87.6
		c1.1-1.7,1.3-2.1,1.8-2.7c0.8-1.2,1.9-1.5,2.6-0.7c0.7,0.9,0.1,2.3-1.2,2.3"/>
	<path style="display:inline;fill:none;stroke:#000000;stroke-width:0.8;stroke-miterlimit:10;" d="M34.7,97.9
		c0.5-2.1,0.8-2.6,0.5-3.2c-0.3-0.7-2-3.8-1.4-4.3c0.6-0.6,2.9-1,3.9,0.3"/>
	<path style="display:inline;fill:none;stroke:#000000;stroke-width:0.8;stroke-miterlimit:10;" d="M35,89.9c0.2-0.8,0.5-1.7,0-2.3
		c0.5-1.3,1.6-1.1,2.5-0.9"/>
	<path style="display:inline;fill:none;stroke:#000000;stroke-width:0.8;stroke-miterlimit:10;" d="M35.6,86.9
		c0.2-1.6-1.6-4.3,4-4.3c2.1,0,5,0.2,7.2,4.3"/>
	<path style="display:inline;fill:none;stroke:#000000;stroke-width:0.8;stroke-miterlimit:10;" d="M36.6,88.5
		c1.6,0.2,2.5-0.7,3.2-1.1c0.8-0.4,2.5,0,1.9,1.2c-0.5,1-1.4,0.8-1.4,1.3"/>
	<path style="display:inline;fill:none;stroke:#000000;stroke-width:0.8;stroke-miterlimit:10;" d="M37.7,98.2
		c1.5,0.2,3.1-0.6,4.5-2.2"/>
	<path style="display:inline;fill:none;stroke:#000000;stroke-width:0.8;stroke-miterlimit:10;" d="M37.2,96.4
		c1.3-0.7,2.8-1.6,3.8-1.8c1-0.3-3.4-0.4-3.8-1.1"/>
	<path style="display:inline;fill:none;stroke:#000000;stroke-width:0.8;stroke-miterlimit:10;" d="M37.9,96c-0.4-0.8-0.4-1.5,0-2.1
		"/>
	<path style="display:inline;fill:none;stroke:#000000;stroke-width:0.8;stroke-miterlimit:10;" d="M50.8,81.4
		c0-0.2,0.1-0.3,0.3-0.3s0.3,0.1,0.3,0.3c0,0.2-0.1,0.3-0.3,0.3C50.9,81.8,50.8,81.6,50.8,81.4z"/>
	<path style="display:inline;fill:none;stroke:#000000;stroke-width:0.8;stroke-miterlimit:10;" d="M47.9,81.4
		c0-0.2,0.1-0.3,0.3-0.3s0.3,0.1,0.3,0.3c0,0.2-0.1,0.3-0.3,0.3C48,81.8,47.9,81.6,47.9,81.4z"/>
	<path style="display:inline;fill:none;stroke:#000000;stroke-width:0.8;stroke-miterlimit:10;" d="M45,81.4c0-0.2,0.1-0.3,0.3-0.3
		s0.3,0.1,0.3,0.3c0,0.2-0.1,0.3-0.3,0.3C45.1,81.8,45,81.6,45,81.4z"/>
	<path style="display:inline;fill:none;stroke:#000000;stroke-width:0.8;stroke-miterlimit:10;" d="M42.1,81.4
		c0-0.2,0.1-0.3,0.3-0.3s0.3,0.1,0.3,0.3c0,0.2-0.1,0.3-0.3,0.3C42.2,81.8,42.1,81.6,42.1,81.4z"/>
	<path style="display:inline;fill:none;stroke:#000000;stroke-width:0.8;stroke-miterlimit:10;" d="M39.2,81.4
		c0-0.2,0.1-0.3,0.3-0.3s0.3,0.1,0.3,0.3c0,0.2-0.1,0.3-0.3,0.3C39.4,81.8,39.2,81.6,39.2,81.4z"/>
	
		<line style="display:inline;fill:none;stroke:#000000;stroke-width:0.8;stroke-linecap:round;stroke-miterlimit:10;" x1="47.9" y1="78" x2="47.9" y2="73.9"/>
	
		<line style="display:inline;fill:none;stroke:#000000;stroke-width:0.8;stroke-linecap:round;stroke-miterlimit:10;" x1="46.5" y1="76.5" x2="49.3" y2="76.5"/>
	<path style="display:inline;fill:none;stroke:#000000;stroke-width:0.8;stroke-miterlimit:10;" d="M48.1,70.1
		c0,0.2,0.6,1.2,0.8,1.2h1.6c0.2,0,0.8-1,0.8-1.2v-5.8c0-0.2-0.2-0.4-0.4-0.4h-2.4c-0.2,0-0.4,0.2-0.4,0.4
		C48.1,64.3,48.1,70.1,48.1,70.1z"/>
	<path style="display:inline;fill:none;stroke:#000000;stroke-width:0.8;stroke-miterlimit:10;" d="M42.6,67.7
		c0,0.2,0.6,1.2,0.8,1.2H45c0.2,0,0.8-1,0.8-1.2v-3.4c0-0.2-0.2-0.4-0.4-0.4H43c-0.2,0-0.4,0.2-0.4,0.4V67.7z"/>
	<path style="display:inline;fill:none;stroke:#000000;stroke-width:0.8;stroke-miterlimit:10;" d="M61.7,15.3h11.4
		c0.2,0,0.8,0.3,0.8,0.8s0,87.6,0,88c0,0.5-0.6,0.8-0.8,0.8H57.4"/>
	<path style="display:inline;fill:none;stroke:#000000;stroke-width:0.8;stroke-miterlimit:10;" d="M30.1,104.9H18.7
		c-0.2,0-0.4-0.2-0.4-0.4V15.7c0-0.2,0.2-0.4,0.4-0.4h15.7"/>
	
		<linearGradient id="SVGID_409_" gradientUnits="userSpaceOnUse" x1="9.2085" y1="103.6" x2="9.2085" y2="92.7164" gradientTransform="matrix(1 0 0 -1 0 123)">
		<stop  offset="0" style="stop-color:#B72026"/>
		<stop  offset="0.3" style="stop-color:#B11F24"/>
		<stop  offset="1" style="stop-color:#710506"/>
	</linearGradient>
	<path style="display:inline;fill:url(#SVGID_409_);" d="M12,19.4c-1.2,0-2.3,1-2.8,2.1c-0.5-1-1.6-2.1-2.8-2.1
		c-1.7,0-3.1,1.4-3.1,3.1c0,3.5,3.3,5.4,5.9,7.8c2.4-2.4,5.6-4.3,5.9-7.8C15.3,20.8,13.7,19.4,12,19.4z"/>

</svg>
