
<svg id="HQ" viewBox="0 0 90 123" xmlns="http://www.w3.org/2000/svg">

		<linearGradient id="SVGID_410_" gradientUnits="userSpaceOnUse" x1="45.05" y1="123" x2="45.05" y2="0" gradientTransform="matrix(1 0 0 -1 0 123)">
		<stop  offset="0" style="stop-color:#F5F5F5"/>
		<stop  offset="1" style="stop-color:#D1D1D1"/>
	</linearGradient>
	<path style="display:inline;fill:url(#SVGID_410_);" d="M90,117.7c0,3-2.4,5.3-5.4,5.3H5.4c-3,0-5.4-2.4-5.4-5.3V5.3
		C0,2.4,2.4,0,5.4,0h79.3c3,0,5.4,2.4,5.4,5.3v112.4H90z"/>
	<g style="display:inline;">
		<g>
			<path style="fill:#B92025;" d="M13.6,16.6l-3.1-2.1c-0.2,0-0.4,0.1-0.6,0.1c-0.2,0-0.4,0-0.7,0c-0.7,0-1.4-0.1-2-0.4
				C6.6,14,6,13.6,5.6,13.1s-0.8-1.1-1-1.8S4.2,9.9,4.2,9V8.9c0-0.8,0.1-1.6,0.4-2.3c0.2-0.7,0.6-1.3,1-1.8s1-0.9,1.6-1.2
				s1.3-0.4,2-0.4c0.8,0,1.4,0.1,2.1,0.4c0.6,0.3,1.1,0.7,1.6,1.2c0.4,0.5,0.8,1.1,1,1.8s0.4,1.4,0.4,2.3V9c0,1-0.2,1.9-0.5,2.7
				s-0.8,1.5-1.4,2l2.4,1.5L13.6,16.6z M9.2,13.1c0.7,0,1.2-0.2,1.6-0.5c0.4-0.3,0.8-0.8,1-1.4c0.2-0.6,0.3-1.3,0.3-2.1V8.9
				c0-0.8-0.1-1.5-0.3-2.1s-0.5-1.1-1-1.4c-0.4-0.3-1-0.5-1.6-0.5C8.6,4.9,8,5,7.6,5.4c-0.4,0.3-0.7,0.8-1,1.4
				C6.4,7.4,6.3,8.1,6.3,8.9V9c0,0.8,0.1,1.5,0.3,2.1c0.2,0.6,0.5,1.1,1,1.4C8.1,12.9,8.6,13.1,9.2,13.1z"/>
		</g>
	</g>
	
		<linearGradient id="SVGID_411_" gradientUnits="userSpaceOnUse" x1="45.05" y1="80.8" x2="45.05" y2="0.1" gradientTransform="matrix(1 0 0 -1 0 123)">
		<stop  offset="0" style="stop-color:#D0D2D3"/>
		<stop  offset="1" style="stop-color:#CCCECF"/>
	</linearGradient>
	<path style="display:inline;opacity:0.3;fill:url(#SVGID_411_);enable-background:new    ;" d="M0,101v16.6c0,3,2.4,5.3,5.4,5.3
		h79.3c3,0,5.4-2.4,5.4-5.3V42.2C48.6,44,13.7,67.9,0,101z"/>
	
		<linearGradient id="SVGID_412_" gradientUnits="userSpaceOnUse" x1="46.4" y1="108.1" x2="46.4" y2="18.5" gradientTransform="matrix(1 0 0 -1 0 123)">
		<stop  offset="0" style="stop-color:#FFFFFF"/>
		<stop  offset="1" style="stop-color:#A6A8AB"/>
	</linearGradient>
	<path style="display:inline;fill:url(#SVGID_412_);" d="M74.2,103.5c0,0.7-0.2,1-0.9,1H19.5c-0.7,0-0.9-0.2-0.9-1V16
		c0-0.7,0.2-1.1,0.9-1.1h53.6c0.7,0,1.1,0.4,1.1,1.1C74.2,16,74.2,103.5,74.2,103.5z"/>
	<g style="display:inline;">
		<path style="fill:#F1717A;" d="M61.4,36.2l-1.5-3.3c-2.5,1.4-7,3.5-11.3,3.5c-2.7,0-5.3-0.8-7.4-3.2c-1.3,0.5-2.7,1.1-4,1.8
			C43.5,39.8,51,40.2,61.4,36.2z"/>
		<path style="fill:#A87C4F;" d="M55.9,24.4c-0.9,1-1.3,2.4-1.1,3.7c0.2,1.3,1.1,3.2,4.1,4.6c0.2-0.1,0.5-0.2,0.7-0.4L55.9,24.4z"/>
		
			<linearGradient id="SVGID_413_" gradientUnits="userSpaceOnUse" x1="50" y1="91.9523" x2="50" y2="87.2537" gradientTransform="matrix(1 0 0 -1 0 123)">
			<stop  offset="0" style="stop-color:#F9EC31"/>
			<stop  offset="0.9995" style="stop-color:#C3996B"/>
		</linearGradient>
		<path style="fill:url(#SVGID_413_);" d="M58.2,33c-1.1-0.6-2-1.2-2.7-2c-0.7,1.2-2.9,4.2-7.7,4.2c-1,0-1.8-0.4-2.6-1.2
			c-0.5-0.5-0.8-1.1-1.2-1.9c-0.7,0.2-1.5,0.5-2.2,0.8C44,35.3,48.7,37.8,58.2,33z"/>
		
			<linearGradient id="SVGID_414_" gradientUnits="userSpaceOnUse" x1="58.65" y1="80.6" x2="58.65" y2="63.2235" gradientTransform="matrix(1 0 0 -1 0 123)">
			<stop  offset="0" style="stop-color:#1B75BB"/>
			<stop  offset="0.9995" style="stop-color:#2B388F"/>
		</linearGradient>
		<path style="fill:url(#SVGID_414_);" d="M56.9,43.7c-0.3,3.2-1.7,7.5-2.9,10.9c-0.8,2.2-1.4,4.1-1.6,5.2c0.4,0,0.8,0,1.2-0.1
			c0.7-4,3.9-6.8,6.9-6.9c0.6-3.8,2.1-6.8,4.4-9.2c-1.5-0.6-2.8-1.1-3.1-1.2C60.3,42.9,58.6,43.3,56.9,43.7z"/>
		<path style="fill:#A87C4F;" d="M53.1,18.5L52,16.3c-0.1,0-0.2,0-0.3,0c-0.9,0-1.9,0-2.9,0.1c0.1,0.5,0.3,0.9,0.7,1.3
			C50.5,18.4,51.8,18.7,53.1,18.5z"/>
		<path style="fill:#A87C4F;" d="M42.5,26.5c-2.3,1.3-3.2,5.2-3,6.7c1.4-0.6,2.9-1.2,4.3-1.7C43.2,30,42.8,28.3,42.5,26.5z"/>
		<path style="fill:#ACDFEF;" d="M55.2,16.6c-0.5-0.2-1.3-0.3-2.4-0.3l11.5,24.5c1-0.4,1.9-0.7,2.9-1.1l-9.9-18.8L55.2,16.6z"/>
		<path style="fill:#FFFFFF;" d="M45.9,18.3c-0.6,0.6-1.6,0.9-3,0.9c-0.1,0-0.3,0-0.4,0c0,0.7,0,1.6,0.1,2.6c1.2-0.1,2.5,0.4,3,0.9
			c0.1,0.1,0.1,0.2,0.2,0.3c0-0.9-0.3-1.9-0.8-2.5c-0.1-0.1-0.1-0.4,0-0.5s0.4-0.1,0.5,0c1.2,1.4,1.2,4.1,0.7,5.4
			c-0.3,0.7-0.5,1.7-0.1,2.3c0.2,0.3,0.5,0.4,0.9,0.4c0.6,0,1.1-0.1,1.3-0.3c0.2-0.2,0.2-0.6,0.2-0.8c0-0.2,0.1-0.4,0.3-0.4
			s0.4,0.1,0.4,0.3c0.1,0.5,0,1-0.3,1.4s-0.9,0.6-1.7,0.6c-0.1,0-0.1,0-0.2,0c-0.8,0-1.3-0.4-1.5-0.7c-0.6-1-0.1-2.4,0-2.9
			c0.2-0.4,0.3-1.1,0.3-1.8c-0.2,0.7-1.7,1.2-2.9,1.2c0.4,3.5,1.2,7.3,2.9,9c0.6,0.7,1.3,1,2.1,1c4.9,0,6.9-3.3,7.2-4.1
			c-0.5-0.7-0.8-1.5-1-2.3c-0.2-1.6,0.3-3.3,1.5-4.5l-2.1-4.5c-0.3,0-0.6,0.1-0.9,0.1c-1.3,0-2.6-0.4-3.4-1.1
			c-0.6-0.5-0.9-1.1-0.9-1.7c-0.5,0-1.1,0.1-1.5,0.1C46.6,17.3,46.4,17.8,45.9,18.3z M49.1,32.4c-0.1,0.1-0.3,0.1-0.5,0
			c-0.3-0.3-1.5-0.3-2,0c-0.1,0-0.1,0.1-0.2,0.1c-0.1,0-0.2,0-0.3-0.1S46,32,46.2,31.9c0.8-0.5,2.3-0.5,2.9,0
			C49.2,32.1,49.2,32.3,49.1,32.4z M50.4,30.7c-0.2,0-0.3,0-0.5,0c-0.7,0-1.3,0-1.9-0.1c-1.1-0.1-2-0.1-2.6,0.1
			c-0.2,0-0.4,0-0.4-0.2c-0.1-0.2,0-0.4,0.2-0.4c0.7-0.2,1.7-0.2,2.8-0.1c0.8,0,1.6,0.1,2.4,0.1c0.2,0,0.3,0.1,0.3,0.3
			C50.7,30.5,50.6,30.7,50.4,30.7z M48.3,19.8c2.1-0.4,4.8,0.9,6.3,3c0.1,0.1,0.1,0.4-0.1,0.5c-0.1,0-0.1,0.1-0.2,0.1
			c-0.1,0-0.2,0-0.3-0.1c-1.6-2.1-4.1-3-5.7-2.8c-0.2,0-0.4-0.1-0.4-0.3C48,20,48.1,19.9,48.3,19.8z M47.3,22.9
			c0.5-0.8,1.5-1.3,2.5-1.3c0.9,0,1.8,0.3,2.7,1l0.3,0.2L52.6,23c-0.7,0.8-1.6,1.2-2.7,1.2c-1.1,0-2.1-0.5-2.5-0.9l-0.2-0.2
			L47.3,22.9z"/>
		<path style="fill:#F1F1F2;" d="M51.8,22.8c-0.7-0.4-1.3-0.6-2-0.6c-0.8,0-1.4,0.4-1.8,0.8c0.4,0.3,1.1,0.5,1.9,0.5
			C50.4,23.5,51.1,23.4,51.8,22.8z"/>
		<path style="fill:#A87C4F;" d="M42.5,18.5c1.3,0.1,2.4-0.2,2.9-0.7c0.3-0.3,0.5-0.7,0.6-1.1c-1.8,0.2-3.2,0.5-3.5,0.7
			C42.6,17.6,42.5,18,42.5,18.5z"/>
		<path style="fill:#A87C4F;" d="M65.401,34.938c0-0.9,0.387-2.393,1.087-3.193c0.6-0.8,1.432-1.259,2.532-1.459
			c-2.2-2.7-4.211-7.572-4.211-12.372c0-0.6-0.509-1.215-1.009-1.815c-0.9-0.9-2.3-1.4-3.9-1.3l0,0l0,0c-0.1,0,0.822-3.009-2.1-2.8
			c-1.2,1.5-1.984,3.105-2.183,4.305L65.401,34.938z"/>
		<path style="fill:#D64656;" d="M63.7,41.1l-2-4.3c-4.9,1.9-9.1,2.8-12.9,2.8c-4.7,0-8.7-1.4-12.3-4.3c-1.6,0.8-3.1,1.6-4.6,2.5
			C37.7,42.7,47.7,46.8,63.7,41.1z"/>
		
			<linearGradient id="SVGID_415_" gradientUnits="userSpaceOnUse" x1="48.4" y1="111.9466" x2="48.4" y2="106.228" gradientTransform="matrix(1 0 0 -1 0 123)">
			<stop  offset="0" style="stop-color:#F9EC31"/>
			<stop  offset="0.9995" style="stop-color:#C3996B"/>
		</linearGradient>
		<path style="fill:url(#SVGID_415_);" d="M42.4,16.8c1.5-0.7,6.6-1.1,9.4-1.1c1.5,0,2.6,0.1,3.4,0.3c0.2-0.9,0.6-1.8,1.2-2.7
			c-1.5,0.7-3.1,0.8-4.1,0.5c-1.5-0.4-2.2-1.6-2.6-2.4c0-0.1-0.1-0.1-0.1-0.2c-0.4,0.8-1.3,2.3-3.1,2.5c-1.6,0.2-2.7-0.4-3.4-1.2
			c-0.1,0.5-0.3,1-0.7,1.4c-0.6,0.6-1.3,1-2,1.2C41.1,15.4,41.9,16,42.4,16.8z"/>
		
			<linearGradient id="SVGID_416_" gradientUnits="userSpaceOnUse" x1="35.35" y1="84.8673" x2="35.35" y2="76.4859" gradientTransform="matrix(1 0 0 -1 0 123)">
			<stop  offset="0" style="stop-color:#1B75BB"/>
			<stop  offset="0.9995" style="stop-color:#2B388F"/>
		</linearGradient>
		<path style="fill:url(#SVGID_416_);" d="M41.6,46.5c-0.3-1.2-0.6-2.2-0.6-3.1c-3.4-1-6.6-2.6-9.7-5.3c-0.8,0.4-1.5,0.9-2.2,1.4
			C31,41.7,35,45.2,41.6,46.5z"/>
		
			<linearGradient id="SVGID_417_" gradientUnits="userSpaceOnUse" x1="27.05" y1="83.1492" x2="27.05" y2="68.5236" gradientTransform="matrix(1 0 0 -1 0 123)">
			<stop  offset="0" style="stop-color:#25A9E0"/>
			<stop  offset="0.9995" style="stop-color:#1B75BB"/>
		</linearGradient>
		<path style="fill:url(#SVGID_417_);" d="M22.7,51.1c1.4,0,2.1,1,2.7,1.8s1.1,1.4,2.1,1.6c0.5-3.2,2.2-6.6,7.7-9.4
			c-3.3-1.7-5.5-3.7-6.8-5.2c-4.4,2.8-7.9,5.6-9.5,7.2v3C19.3,50.6,20.4,51,22.7,51.1z M24.4,46.8h1.8v-1.7c0-0.2,0.2-0.3,0.3-0.3
			s0.3,0.1,0.3,0.3v1.7h1.8c0.2,0,0.3,0.1,0.3,0.3s-0.2,0.3-0.3,0.3h-1.8v1.7c0,0.2-0.2,0.3-0.3,0.3s-0.3-0.1-0.3-0.3v-1.7h-1.8
			c-0.2,0-0.3-0.1-0.3-0.3S24.2,46.8,24.4,46.8z"/>
		<path style="fill:#A87C4F;" d="M52.5,13.1c0.3,0.1,0.6,0.1,1,0.1c1.1,0,2.7-0.4,3.8-1.4c-0.5-1.2-1.7-2.1-3.2-2.4
			c-1.6-0.3-3.2,0.2-4.1,1c0.1,0.1,0.2,0.3,0.3,0.5C50.7,11.7,51.3,12.7,52.5,13.1z"/>
		<path style="fill:#A87C4F;" d="M41.9,13.3c0.4-0.4,0.6-0.9,0.6-1.5c-1.8-0.5-2.9,0.2-3.3,0.9c-0.3,0.6-0.3,1.2,0.1,1.6
			C40,14.4,41.1,14.1,41.9,13.3z"/>
		<path style="fill:#A87C4F;" d="M46.4,12.9c1.6-0.2,2.3-1.6,2.6-2.3c0-0.1,0.1-0.1,0.1-0.2c-1.2-1.1-2.8-1.5-4.2-0.9
			c-1,0.4-1.7,1.2-1.7,1.9C44.1,12.7,45,13.1,46.4,12.9z"/>
		<path style="fill:#A87C4F;" d="M42.4,25.8c-0.2-1.4-0.3-2.7-0.4-3.9c-4.2,2.2-7.1,8.2-6.2,13c1-0.5,2-1,3.1-1.4
			C38.5,31.7,39.5,27.2,42.4,25.8z"/>
		<path style="fill:#F1F1F2;" d="M60.8,58.6c0.1,4.4-0.9,7.8-3,10.3l0,0c0,0,0,0-0.1,0.1c-1.5,1.8-3.6,3.1-6.3,4
			c2.1,0.4,4,1.1,5.6,1.8c8-4,8-9,8-13.4c0-0.5,0-1.1,0-1.6c0.1-3.3,1.3-10.2,5.1-13.3c-1-0.9-2.8-1.9-4.5-2.6
			C63.3,46.2,60.7,49.9,60.8,58.6z M59.6,70.8c-0.3,0-0.6-0.3-0.6-0.6c0-0.3,0.3-0.6,0.6-0.6s0.6,0.3,0.6,0.6
			C60.2,70.5,59.9,70.8,59.6,70.8z M62.5,64.7c-0.3,0-0.6-0.3-0.6-0.6c0-0.3,0.3-0.6,0.6-0.6s0.6,0.3,0.6,0.6
			C63.1,64.4,62.8,64.7,62.5,64.7z M63,58.1c-0.3,0-0.6-0.3-0.6-0.6s0.3-0.6,0.6-0.6s0.6,0.3,0.6,0.6C63.6,57.9,63.4,58.1,63,58.1z
			 M64.2,52.2c-0.3,0-0.6-0.3-0.6-0.6s0.3-0.6,0.6-0.6c0.3,0,0.6,0.3,0.6,0.6C64.8,51.9,64.5,52.2,64.2,52.2z M66.9,45.8
			c0.3,0,0.6,0.3,0.6,0.6S67.2,47,66.9,47s-0.6-0.3-0.6-0.6S66.5,45.8,66.9,45.8z"/>
		
			<linearGradient id="SVGID_418_" gradientUnits="userSpaceOnUse" x1="35.8" y1="71.1" x2="35.8" y2="56.3178" gradientTransform="matrix(1 0 0 -1 0 123)">
			<stop  offset="0" style="stop-color:#D0D2D3"/>
			<stop  offset="0.9995" style="stop-color:#6D6E70"/>
		</linearGradient>
		<path style="fill:url(#SVGID_418_);" d="M38.9,58.9c0-4.2-2.3-6.3-3.3-7c-0.9,1.1-1.6,2.5-2,4c1.1,0.8,1.7,1.8,1.7,2.9
			c0,0.6-0.1,2.3-2.3,3c0,1.8-0.1,3.4-0.3,4.9C35.6,66.4,38.9,63.1,38.9,58.9z"/>
		<path style="fill:#ACDFEF;" d="M34.5,58.8c0-0.4-0.1-1.3-1.2-2.2c-0.3,1.4-0.5,2.9-0.5,4.5C34.3,60.6,34.5,59.6,34.5,58.8z"/>
		<path style="fill:#ACDFEF;" d="M53.4,54.4c1.2-3.3,2.6-7.4,2.9-10.6c-1.9,0.4-3.9,0.6-5.9,0.7v2.1l3.4-0.5c0.2,0,0.4,0.1,0.4,0.3
			s-0.1,0.4-0.3,0.4l-3.5,0.5v1.8l2.6-0.6c0.2,0,0.4,0.1,0.4,0.3s-0.1,0.4-0.3,0.4l-2.8,0.6v1.6l2.1-0.3c0.2,0,0.4,0.1,0.4,0.3
			s-0.1,0.4-0.3,0.4L50.4,52v1.8l1.1-0.2c0.2,0,0.4,0.1,0.4,0.3s-0.1,0.4-0.3,0.4l-1.3,0.3v5c0.4,0.1,0.9,0.2,1.4,0.2
			C51.9,58.6,52.6,56.7,53.4,54.4z"/>
		
			<linearGradient id="SVGID_419_" gradientUnits="userSpaceOnUse" x1="39.95" y1="75.2188" x2="39.95" y2="67.9188" gradientTransform="matrix(1 0 0 -1 0 123)">
			<stop  offset="0" style="stop-color:#1B75BB"/>
			<stop  offset="0.9995" style="stop-color:#2B388F"/>
		</linearGradient>
		<path style="fill:url(#SVGID_419_);" d="M43.9,55.1c-0.1-1.8-0.8-4-1.5-6.1c-0.1-0.4-0.3-0.8-0.4-1.2c-2.5,0.8-4.5,2-6,3.6
			c0.7,0.5,1.8,1.5,2.6,3.2H41C42.2,54.6,43.1,54.8,43.9,55.1z"/>
		<path style="fill:#F1F1F2;" d="M67,53l2.7,2.3l4-2.3c0.2-0.6,0.3-1.9,0-2.2l0,0c-0.2,0.3-0.5,0.7-1,1.1c-0.1,0-0.1,0.1-0.2,0.1
			s-0.2,0-0.3-0.1c-0.1-0.1-0.1-0.4,0.1-0.5c0.8-0.6,1.1-1.3,0.9-1.8c-0.1-0.4-0.4-0.6-0.7-0.7c-0.4,0.6-1,1-1.4,1.4L71,50.4
			c0.2,0.3,0.2,0.7,0.2,1.1c-0.1,0.8-0.6,1.6-1.4,2c-0.1,0-0.1,0.1-0.2,0.1s-0.2-0.1-0.3-0.1c-0.1-0.2-0.1-0.4,0.1-0.5
			c0.6-0.4,1-1,1.1-1.6c0-0.2,0-0.6-0.2-0.9l-0.2-0.2l0.2-0.2c0.1-0.1,0.2-0.2,0.4-0.3c0.5-0.4,1.4-1,1.5-1.7c0-0.3,0-0.5-0.2-0.7
			c-0.2-0.3-0.6-0.4-1.1-0.4C68.9,48.3,67.7,50.7,67,53z"/>
		<path style="fill:#EC1C24;" d="M70.8,37.3L70.8,37.3l1,1c0.2,0.2,0.5,0.2,0.7,0l0.5-0.5c0.1-0.1,0.1-0.2,0.1-0.3s0-0.2-0.1-0.3
			L71.8,36l1.2-1.2c0.1-0.1,0.1-0.2,0.1-0.3s0-0.2-0.1-0.3l-0.5-0.5c-0.2-0.2-0.5-0.2-0.7,0l-1.2,1.2l-1.2-1.2
			c-0.2-0.2-0.5-0.2-0.7,0L68.2,34c-0.2,0.2-0.2,0.5,0,0.7l1.2,1.2l-1.2,1.2c-0.2,0.2-0.2,0.5,0,0.7l0.5,0.5c0.2,0.2,0.5,0.2,0.7,0
			l1.2-1.2L70.8,37.3z"/>
		<path style="fill:#ACDFEF;" d="M42.5,47.2L42.5,47.2c0.1,0.1,0.1,0.1,0.1,0.2c0.1,0.5,0.3,0.9,0.5,1.4c0.8,2.3,1.5,4.7,1.6,6.6
			c1,0.5,1.8,1.2,2.5,1.9c0.1,0.1,0.1,0.1,0.2,0.2v-3l-1.8-0.7c-0.2-0.1-0.3-0.3-0.2-0.4c0.1-0.2,0.3-0.3,0.4-0.2l1.5,0.6V52
			l-2.2-0.7c-0.2-0.1-0.3-0.3-0.2-0.4c0.1-0.2,0.3-0.3,0.4-0.2l1.9,0.7v-1.9l-3.1-0.7c-0.2,0-0.3-0.2-0.3-0.4s0.2-0.3,0.4-0.2l3,0.7
			v-1.5l-3.5-0.9c-0.2,0-0.3-0.2-0.2-0.4c0-0.2,0.2-0.3,0.4-0.2l3.4,0.8v-2.1c-1.9-0.1-3.8-0.4-5.6-0.9
			C41.7,44.6,42.1,45.8,42.5,47.2z"/>
		
			<linearGradient id="SVGID_420_" gradientUnits="userSpaceOnUse" x1="53.05" y1="57.9638" x2="53.05" y2="50.6638" gradientTransform="matrix(1 0 0 -1 0 123)">
			<stop  offset="0" style="stop-color:#1B75BB"/>
			<stop  offset="0.9995" style="stop-color:#2B388F"/>
		</linearGradient>
		<path style="fill:url(#SVGID_420_);" d="M54.4,65.5H52c-1.2,0-2.1-0.2-2.9-0.5c0.1,1.8,0.8,4,1.5,6.1c0.1,0.4,0.3,0.8,0.4,1.2
			c2.5-0.8,4.5-2,6-3.6C56.3,68.2,55.2,67.2,54.4,65.5z"/>
		<path style="fill:#FFFFFF;" d="M48,44.5v13.6c0.5,0.4,1.1,0.8,1.7,1.1V44.5c-0.2,0-0.4,0-0.6,0C48.7,44.5,48.3,44.5,48,44.5z"/>
		<path style="fill:#ACDFEF;" d="M36.8,76.3c1.9-0.4,3.9-0.6,5.9-0.7v-2.1L39.3,74l0,0c-0.2,0-0.3-0.1-0.3-0.3
			c0-0.2,0.1-0.4,0.3-0.4l3.5-0.5V71L40,71.6c0,0,0,0-0.1,0c-0.2,0-0.3-0.1-0.3-0.3c0-0.2,0.1-0.4,0.3-0.4l2.8-0.6v-1.6L40.6,69
			c0,0,0,0-0.1,0c-0.2,0-0.3-0.1-0.3-0.3c0-0.2,0.1-0.4,0.3-0.4l2.2-0.3v-1.8l-1.1,0.2c0,0,0,0-0.1,0c-0.2,0-0.3-0.1-0.3-0.3
			c0-0.2,0.1-0.4,0.3-0.4l1.3-0.3v-5c-0.4-0.1-0.9-0.2-1.4-0.2c-0.1,1.1-0.8,3-1.6,5.3C38.5,69.1,37.1,73.2,36.8,76.3z"/>
		<path style="fill:#FFFFFF;" d="M45,62c-0.5-0.4-1.1-0.8-1.7-1.1v14.7c0.6,0,1.2,0,1.7,0V62z"/>
		
			<linearGradient id="SVGID_421_" gradientUnits="userSpaceOnUse" x1="57.2" y1="69.5582" x2="57.2" y2="54.7767" gradientTransform="matrix(1 0 0 -1 0 123)">
			<stop  offset="0" style="stop-color:#D0D2D3"/>
			<stop  offset="0.9995" style="stop-color:#6D6E70"/>
		</linearGradient>
		<path style="fill:url(#SVGID_421_);" d="M54.1,61.2c0,1.5,0.3,2.8,0.7,3.8c0,0,0.1,0.1,0.1,0.2c0.8,1.7,1.9,2.7,2.5,3.1
			c0.9-1.1,1.6-2.5,2-4c-1.1-0.8-1.7-1.8-1.7-2.9c0-0.6,0.1-2.3,2.3-3c0-1.8,0.1-3.4,0.3-4.9C57.4,53.7,54.1,57,54.1,61.2z"/>
		<path style="fill:#ACDFEF;" d="M50.5,73C50.5,72.9,50.5,72.9,50.5,73c-0.1-0.1-0.1-0.2-0.1-0.2c-0.1-0.5-0.3-0.9-0.5-1.4
			c-0.8-2.3-1.5-4.7-1.6-6.6c-1-0.5-1.8-1.2-2.5-1.9c-0.1-0.1-0.1-0.1-0.2-0.2v3l1.8,0.7c0.2,0.1,0.3,0.3,0.2,0.4S47.4,67,47.3,67
			h-0.1l-1.5-0.6v1.8l2.2,0.7c0.2,0.1,0.3,0.3,0.2,0.4c0,0.1-0.2,0.2-0.3,0.2h-0.1l-1.9-0.7v1.9l3.1,0.7c0.2,0,0.3,0.2,0.3,0.4
			c0,0.2-0.2,0.3-0.3,0.3h-0.1l-3-0.7v1.5l3.5,0.9c0.2,0,0.3,0.2,0.2,0.4c0,0.2-0.2,0.3-0.3,0.3h-0.1l-3.4-0.8v2
			c1.9,0.1,3.8,0.4,5.6,0.9C51.3,75.5,51,74.3,50.5,73z"/>
		<path style="fill:#ACDFEF;" d="M58.5,61.3c0,0.4,0.1,1.3,1.2,2.2c0.3-1.4,0.5-2.9,0.5-4.5C58.8,59.5,58.5,60.4,58.5,61.3z"/>
		
			<linearGradient id="SVGID_422_" gradientUnits="userSpaceOnUse" x1="46.5" y1="67.7258" x2="46.5" y2="58.1556" gradientTransform="matrix(1 0 0 -1 0 123)">
			<stop  offset="0" style="stop-color:#D0D2D3"/>
			<stop  offset="0.9995" style="stop-color:#6D6E70"/>
		</linearGradient>
		<path style="fill:url(#SVGID_422_);" d="M40.9,59.7L40.9,59.7C41,59.7,41,59.7,40.9,59.7c2.3,0.1,3.6,0.9,4.7,1.9l0,0
			c0.3,0.2,0.5,0.5,0.8,0.7c1.4,1.3,2.7,2.5,5.6,2.5h2.1c-0.4-1-0.7-2.2-0.7-3.7c0-0.3,0-0.5,0-0.8c-0.4,0-0.7,0.1-1,0.1
			c-0.1,0-0.2,0-0.4,0l0,0l0,0l0,0c-2.2-0.1-3.5-0.9-4.6-1.9l0,0c-0.3-0.2-0.5-0.5-0.8-0.7c-1.4-1.3-2.7-2.5-5.6-2.5h-2.1
			c0.4,1,0.7,2.2,0.7,3.7c0,0.3,0,0.5,0,0.8C40,59.7,40.5,59.7,40.9,59.7z"/>
		<path style="fill:#F1F1F2;" d="M45.2,23.1c-0.1-0.2-1.2-0.7-2.5-0.7c0,0.5,0.1,1,0.1,1.4C44,23.8,45.1,23.3,45.2,23.1z"/>
		<path style="fill:#A87C4F;" d="M46.6,107.2c-1.6,0.2-2.3,1.6-2.6,2.3c0,0.1-0.1,0.1-0.1,0.2c1.2,1.1,2.8,1.5,4.2,0.9
			c1-0.4,1.7-1.2,1.7-1.9C48.9,107.4,48,107,46.6,107.2z"/>
		<path style="fill:#F1717A;" d="M31.6,84l1.5,3.3c4.1-2.3,13.4-6.4,18.7-0.3c1.4-0.5,2.7-1.1,4-1.7C49.5,80.3,42,79.9,31.6,84z"/>
		<path style="fill:#A87C4F;" d="M27.488,85.112c0,0.9-0.181,2.503-0.881,3.303c-0.6,0.8-1.515,1.094-2.615,1.294
			c2.2,2.7,4.239,7.778,4.239,12.578c0,0.6,0.469,1.114,0.969,1.714c0.9,0.9,2.3,1.4,3.9,1.3l0,0h0.2l0,0c0,0-0.1,1.1,0.2,1.7
			c0.2,0.4,0.6,1,1.7,1c1.2-1.5,1.9-2.9,2.1-4.1L27.488,85.112z"/>
		<path style="fill:#A87C4F;" d="M40.5,107.1c-0.3-0.1-0.6-0.1-1-0.1c-1.1,0-2.7,0.4-3.8,1.4c0.5,1.2,1.7,2.1,3.2,2.4
			c1.6,0.3,3.2-0.2,4.1-1c-0.1-0.1-0.2-0.3-0.3-0.5C42.3,108.4,41.7,107.4,40.5,107.1z"/>
		<path style="fill:#F1F1F2;" d="M41.2,97.3c0.7,0.4,1.3,0.6,2,0.6c0.8,0,1.4-0.4,1.8-0.8c-0.4-0.3-1.1-0.5-1.9-0.5
			C42.6,96.6,41.8,96.7,41.2,97.3z"/>
		
			<linearGradient id="SVGID_423_" gradientUnits="userSpaceOnUse" x1="65.85" y1="57.358" x2="65.85" y2="42.658" gradientTransform="matrix(1 0 0 -1 0 123)">
			<stop  offset="0" style="stop-color:#25A9E0"/>
			<stop  offset="0.9995" style="stop-color:#1B75BB"/>
		</linearGradient>
		<path style="fill:url(#SVGID_423_);" d="M70.3,69c-1.4,0-2.1-1-2.7-1.8s-1.1-1.4-2.1-1.6c-0.5,3.2-2.2,6.6-7.7,9.4
			c3.3,1.7,5.6,3.8,6.8,5.3c4.2-2.7,7.5-5.4,9.3-7.3v-2.3c-0.1,0-0.1-0.1-0.2-0.1C73.4,70.1,72.8,69.1,70.3,69z M68.6,73.3h-1.8V75
			c0,0.2-0.2,0.3-0.3,0.3s-0.3-0.1-0.3-0.3v-1.7h-1.8c-0.2,0-0.3-0.1-0.3-0.3c0-0.2,0.2-0.3,0.3-0.3h1.8V71c0-0.2,0.2-0.3,0.3-0.3
			s0.3,0.1,0.3,0.3v1.7h1.8c0.2,0,0.3,0.1,0.3,0.3C69,73.2,68.8,73.3,68.6,73.3z"/>
		<path style="fill:#A87C4F;" d="M51.2,106.8c-0.4,0.4-0.6,0.9-0.6,1.5c1.8,0.5,2.9-0.2,3.3-0.9c0.3-0.6,0.3-1.2-0.1-1.6
			C53,105.7,51.9,106,51.2,106.8z"/>
		
			<linearGradient id="SVGID_424_" gradientUnits="userSpaceOnUse" x1="43.1" y1="38.627" x2="43.1" y2="33.924" gradientTransform="matrix(1 0 0 -1 0 123)">
			<stop  offset="0" style="stop-color:#F9EC31"/>
			<stop  offset="0.9995" style="stop-color:#C3996B"/>
		</linearGradient>
		<path style="fill:url(#SVGID_424_);" d="M34.9,87.1c1.1,0.6,2,1.2,2.7,2c0.7-1.2,2.9-4.2,7.7-4.2c1,0,1.8,0.4,2.6,1.2
			c0.5,0.5,0.8,1.1,1.2,1.9c0.7-0.3,1.5-0.5,2.2-0.8C49,84.9,44.3,82.3,34.9,87.1z"/>
		
			<linearGradient id="SVGID_425_" gradientUnits="userSpaceOnUse" x1="44.6039" y1="19.6516" x2="44.6039" y2="13.7807" gradientTransform="matrix(1 0 0 -1 0 123)">
			<stop  offset="0" style="stop-color:#F9EC31"/>
			<stop  offset="0.9995" style="stop-color:#C3996B"/>
		</linearGradient>
		<path style="fill:url(#SVGID_425_);" d="M50.6,103.3c-1.5,0.7-6.6,1.1-9.4,1.1c-1.5,0-2.6-0.1-3.4-0.3
			c-0.2,0.9-0.708,2.037-1.308,2.937c1-0.5,2.255-0.753,3.055-0.753c0.4,0,0.797,0.045,1.197,0.145c1.5,0.4,2.156,1.472,2.556,2.272
			c0,0.1,0.086,0.25,0.086,0.35c0.4-0.8,1.338-2.36,3.138-2.56c1.6-0.2,2.758,0.418,3.458,1.218c0.1-0.5,0.333-1.086,0.733-1.486
			c0.6-0.6,1.302-0.935,2.002-1.135C52.016,104.787,51.1,104.1,50.6,103.3z"/>
		<path style="fill:#A87C4F;" d="M37.1,95.8c0.9-1,1.3-2.4,1.1-3.7c-0.2-1.3-1.1-3.2-4.1-4.6c-0.2,0.1-0.5,0.2-0.7,0.4L37.1,95.8z"
			/>
		<path style="fill:#F1F1F2;" d="M47.8,97c0.1,0.2,1.2,0.8,2.5,0.7c0-0.5-0.1-1-0.1-1.4C49,96.3,47.9,96.8,47.8,97z"/>
		<path style="fill:#A87C4F;" d="M39.9,101.6l1.1,2.2c0.1,0,0.2,0,0.3,0c0.9,0,1.9,0,2.9-0.1c-0.1-0.5-0.3-0.9-0.7-1.3
			C42.5,101.8,41.2,101.4,39.9,101.6z"/>
		<path style="fill:#A87C4F;" d="M53.6,86.9c-1.4,0.6-2.9,1.2-4.3,1.7c0.6,1.5,1,3.2,1.3,5C52.8,92.3,53.7,88.5,53.6,86.9z"/>
		<path style="fill:#FFFFFF;" d="M47.1,101.9c0.7-0.7,1.9-0.9,3.4-0.9c0-0.7,0-1.6-0.1-2.6c-0.1,0-0.1,0-0.2,0
			c-1.2,0-2.3-0.4-2.8-0.9c-0.1-0.1-0.1-0.2-0.1-0.2c0.1,0.9,0.3,1.9,0.8,2.5c0.1,0.1,0.1,0.4,0,0.5s-0.1,0.1-0.2,0.1
			c-0.1,0-0.2,0-0.3-0.1c-1.2-1.4-1.2-4.1-0.7-5.4c0.3-0.7,0.5-1.7,0.1-2.3c-0.2-0.3-0.5-0.4-0.9-0.4c-0.6,0-1.1,0.1-1.3,0.3
			c-0.2,0.2-0.2,0.6-0.2,0.8c0,0.2-0.1,0.4-0.3,0.4s-0.4-0.1-0.4-0.3c-0.1-0.5,0-1,0.3-1.4c0.4-0.4,1-0.6,1.9-0.6
			c0.8,0,1.3,0.4,1.5,0.7c0.6,1,0.1,2.4,0,2.9c-0.2,0.4-0.3,1-0.3,1.7c0.3-0.6,1.7-1.1,2.9-1.2c-0.4-3.5-1.2-7.3-2.9-9
			c-0.6-0.7-1.3-1-2.1-1c-5,0-6.9,3.3-7.2,4.1c0.5,0.7,0.8,1.5,1,2.3c0.2,1.6-0.3,3.3-1.5,4.5l2.1,4.5c1.5-0.2,3.2,0.2,4.2,1
			c0.6,0.5,0.9,1.1,0.9,1.7c0.5,0,1.1-0.1,1.5-0.1C46.4,102.9,46.6,102.3,47.1,101.9z M43.9,87.7c0.1-0.1,0.3-0.1,0.5,0
			c0.3,0.3,1.5,0.3,2,0c0.1-0.1,0.4-0.1,0.5,0.1s0.1,0.4-0.1,0.5c-0.4,0.3-0.9,0.4-1.5,0.4s-1.1-0.1-1.4-0.4
			C43.8,88.1,43.8,87.9,43.9,87.7z M42.6,89.4c0.8,0,1.7,0,2.4,0.1c1.1,0.1,2,0.1,2.6-0.1c0.2-0.1,0.4,0,0.4,0.2
			c0.1,0.2,0,0.4-0.2,0.4c-0.4,0.1-0.8,0.1-1.3,0.1s-1,0-1.5-0.1c-0.8,0-1.5-0.1-2.4-0.1l0,0c-0.2,0-0.3-0.1-0.3-0.3
			C42.3,89.6,42.4,89.5,42.6,89.4z M44.7,100.3c-0.2,0-0.5,0.1-0.7,0.1c-1.9,0-4.2-1.2-5.6-3.1c-0.1-0.1-0.1-0.4,0.1-0.5
			c0.1-0.1,0.4-0.1,0.5,0.1c1.6,2.1,4.1,3,5.7,2.8c0.2,0,0.4,0.1,0.4,0.3C45,100.1,44.9,100.3,44.7,100.3z M45.7,97.3
			c-0.5,0.8-1.5,1.3-2.5,1.3c-0.9,0-1.8-0.3-2.7-1l-0.3-0.2l0.3-0.3c0.7-0.8,1.6-1.2,2.7-1.2c1.1,0,2.1,0.5,2.6,0.9L46,97L45.7,97.3
			z"/>
		
			<linearGradient id="SVGID_426_" gradientUnits="userSpaceOnUse" x1="69.7" y1="69.4232" x2="69.7" y2="53.3059" gradientTransform="matrix(1 0 0 -1 0 123)">
			<stop  offset="0" style="stop-color:#1B75BB"/>
			<stop  offset="0.9995" style="stop-color:#2B388F"/>
		</linearGradient>
		<path style="fill:url(#SVGID_426_);" d="M66.7,53.7c-0.9,3.2-1,6-1,6.1c0,0.5,0,1,0,1.6c0,1.2,0,2.4-0.2,3.6c1.3,0.2,2,1,2.6,1.8
			s1.1,1.5,2.2,1.5c2.1,0.1,3,0.8,3.6,1.3v-16l-4.4,2.5L66.7,53.7z M70.3,58.6c0-0.2,0.2-0.3,0.3-0.3c0.2,0,0.3,0.1,0.3,0.3v1.2h1.3
			c0.2,0,0.3,0.1,0.3,0.3s-0.2,0.3-0.3,0.3H71v4.8c0,0.2-0.2,0.3-0.3,0.3c-0.2,0-0.3-0.1-0.3-0.3v-4.8h-1.5c-0.2,0-0.3-0.1-0.3-0.3
			s0.2-0.3,0.3-0.3h1.5v-1.2H70.3z"/>
		<path style="fill:#A87C4F;" d="M50.6,94.3c0.2,1.4,0.3,2.7,0.4,3.9c4.1-2.2,7-8.2,6.2-13c-1,0.5-2,1-3.1,1.4
			C54.5,88.5,53.5,92.9,50.6,94.3z"/>
		<path style="fill:#A87C4F;" d="M50.5,101.6c-1.3-0.1-2.4,0.2-2.9,0.7c-0.3,0.3-0.5,0.7-0.6,1.1c1.8-0.2,3.2-0.5,3.5-0.7
			C50.5,102.5,50.5,102.1,50.5,101.6z"/>
		<path style="fill:#EC1C24;" d="M22.2,82.9l-1-1c-0.2-0.2-0.5-0.2-0.7,0L20,82.4c-0.2,0.2-0.2,0.5,0,0.7l1.2,1.2L20,85.5
			c-0.2,0.2-0.2,0.5,0,0.7l0.5,0.5c0.2,0.2,0.5,0.2,0.7,0l1.2-1.2l1.2,1.2c0.2,0.2,0.5,0.2,0.7,0l0.5-0.5c0.1-0.1,0.1-0.2,0.1-0.3
			c0-0.1,0-0.2-0.1-0.3l-1.2-1.2l1.2-1.2c0.2-0.2,0.2-0.5,0-0.7L24.3,82c-0.2-0.2-0.5-0.2-0.7,0l-1.2,1.2L22.2,82.9z"/>
		
			<linearGradient id="SVGID_427_" gradientUnits="userSpaceOnUse" x1="23.2" y1="72.0265" x2="23.2" y2="56.3265" gradientTransform="matrix(1 0 0 -1 0 123)">
			<stop  offset="0" style="stop-color:#1B75BB"/>
			<stop  offset="0.9995" style="stop-color:#2B388F"/>
		</linearGradient>
		<path style="fill:url(#SVGID_427_);" d="M26.3,66.4c0.9-3.2,1-6,1-6.1c0-0.5,0-1,0-1.6c0-1.2,0-2.4,0.2-3.6c-1.3-0.2-2-1-2.6-1.8
			s-1.1-1.5-2.2-1.5c-2,0-3.1-0.4-3.8-0.8v15.7l0.1-0.1l4.5-2.6L26.3,66.4z M22.7,61.6c0,0.2-0.2,0.3-0.3,0.3
			c-0.2,0-0.3-0.1-0.3-0.3v-1.2h-1.3c-0.2,0-0.3-0.1-0.3-0.3s0.2-0.3,0.3-0.3H22V55c0-0.2,0.2-0.3,0.3-0.3c0.2,0,0.3,0.1,0.3,0.3
			v4.8h1.6c0.2,0,0.3,0.1,0.3,0.3s-0.2,0.3-0.3,0.3h-1.6v1.2H22.7z"/>
		
			<linearGradient id="SVGID_428_" gradientUnits="userSpaceOnUse" x1="57.7" y1="49.4" x2="57.7" y2="40.9604" gradientTransform="matrix(1 0 0 -1 0 123)">
			<stop  offset="0" style="stop-color:#1B75BB"/>
			<stop  offset="0.9995" style="stop-color:#2B388F"/>
		</linearGradient>
		<path style="fill:url(#SVGID_428_);" d="M51.4,73.6c0.3,1.1,0.6,2.2,0.6,3.1c3.4,1,6.7,2.7,9.8,5.3c0.8-0.4,1.5-0.9,2.2-1.3
			C62.1,78.5,58.1,75,51.4,73.6z"/>
		<path style="fill:#F1F1F2;" d="M26.1,67.1l-2.7-2.3l-4,2.3c-0.4,0.6-0.4,1.8-0.1,2.1c0.1,0.1,0.1,0.1,0.2,0.1
			c0.2-0.3,0.5-0.7,1-1.1c0.1-0.1,0.4-0.1,0.5,0.1c0.1,0.1,0.1,0.4-0.1,0.5c-0.8,0.6-1.1,1.3-0.9,1.8c0.1,0.4,0.5,0.6,0.7,0.7
			c0.4-0.6,1-1,1.4-1.4l0.1-0.1C22,69.5,22,69.1,22,68.7c0.1-0.8,0.6-1.6,1.4-2c0.2-0.1,0.4-0.1,0.5,0.1s0.1,0.4-0.1,0.5
			c-0.6,0.4-1,1-1.1,1.6c0,0.2,0,0.6,0.2,0.9l0.2,0.2l-0.2,0.2c-0.1,0.1-0.2,0.2-0.4,0.3c-0.5,0.4-1.4,1-1.5,1.7
			c0,0.3,0,0.5,0.2,0.7c0.2,0.3,0.6,0.4,1.1,0.4C24.1,71.8,25.3,69.5,26.1,67.1z"/>
		
			<linearGradient id="SVGID_429_" gradientUnits="userSpaceOnUse" x1="34.35" y1="62.6615" x2="34.35" y2="45.2894" gradientTransform="matrix(1 0 0 -1 0 123)">
			<stop  offset="0" style="stop-color:#1B75BB"/>
			<stop  offset="0.9995" style="stop-color:#2B388F"/>
		</linearGradient>
		<path style="fill:url(#SVGID_429_);" d="M36.1,76.4c0.3-3.2,1.7-7.5,2.9-10.9c0.8-2.2,1.4-4.1,1.6-5.2c-0.4,0-0.7,0-1.2,0.1
			c-0.7,4-3.9,6.8-6.9,7c-0.6,3.8-2.1,6.8-4.4,9.2c1.5,0.6,2.8,1.1,3.1,1.2C32.7,77.2,34.4,76.8,36.1,76.4z"/>
		<path style="fill:#ACDFEF;" d="M35.6,99.3L35.6,99.3l2.2,4.2c0.5,0.2,1.3,0.3,2.4,0.3L28.6,79.3c-1,0.4-1.9,0.7-2.9,1.1L35.6,99.3
			L35.6,99.3z"/>
		<path style="fill:#F1F1F2;" d="M32.2,61.6c-0.1-4.4,0.9-7.8,3-10.3l0,0l0,0c1.5-1.8,3.6-3.1,6.4-4c-2.1-0.4-4-1.1-5.6-1.8
			c-8,4-8,9-8,13.4c0,0.5,0,1.1,0,1.6c-0.1,3.3-1.3,10.2-5.1,13.3c1,0.9,2.8,1.9,4.5,2.6C29.8,74,32.3,70.2,32.2,61.6z M33.4,49.4
			c0.3,0,0.6,0.3,0.6,0.6s-0.3,0.6-0.6,0.6s-0.6-0.3-0.6-0.6C32.8,49.6,33.1,49.4,33.4,49.4z M30.5,55.4c0.3,0,0.6,0.3,0.6,0.6
			s-0.3,0.6-0.6,0.6c-0.3,0-0.6-0.3-0.6-0.6S30.2,55.4,30.5,55.4z M30,62c0.3,0,0.6,0.3,0.6,0.6s-0.3,0.6-0.6,0.6
			c-0.3,0-0.6-0.3-0.6-0.6S29.6,62,30,62z M28.8,68c0.3,0,0.6,0.3,0.6,0.6c0,0.3-0.3,0.6-0.6,0.6c-0.3,0-0.6-0.3-0.6-0.6
			C28.2,68.2,28.5,68,28.8,68z M26.1,74.3c-0.3,0-0.6-0.3-0.6-0.6c0-0.3,0.3-0.6,0.6-0.6c0.3,0,0.6,0.3,0.6,0.6S26.5,74.3,26.1,74.3
			z"/>
		<path style="fill:#D64656;" d="M29.3,79l2,4.3c10.8-4.2,18.6-3.7,25.2,1.5c1.6-0.8,3.2-1.6,4.7-2.5C55.4,77.5,45.4,73.3,29.3,79z"
			/>
	</g>
	<path style="display:inline;fill:none;stroke:#000000;stroke-width:0.8;stroke-linecap:round;stroke-miterlimit:10;" d="M42.2,17.3
		c-0.2,1.6,0,17.6,5.6,17.6c5.8,0,7.6-4.4,7.6-4.4"/>
	<path style="display:inline;fill:none;stroke:#000000;stroke-width:0.8;stroke-miterlimit:10;" d="M42.3,21.3
		c-4.6,2-8,8.9-6.8,14.1"/>
	<path style="display:inline;fill:none;stroke:#000000;stroke-width:0.8;stroke-miterlimit:10;" d="M42.8,26c-3,1.3-3.9,6.2-3.6,7.7
		"/>
	
		<line style="display:inline;fill:none;stroke:#000000;stroke-width:0.8;stroke-miterlimit:10;" x1="52.2" y1="15.8" x2="64.2" y2="41.2"/>
	<path style="display:inline;fill:none;stroke:#000000;stroke-width:0.8;stroke-linecap:round;stroke-miterlimit:10;" d="M55.4,16.4
		l12.3,23.5c-12.3,5.3-26,7.1-36.4-2.1"/>
	<path style="display:inline;fill:none;stroke:#000000;stroke-width:0.8;stroke-miterlimit:10;" d="M44.2,31.7
		C33.4,35.3,21.9,43.5,18.6,47"/>
	<path style="display:inline;fill:none;stroke:#000000;stroke-width:0.8;stroke-miterlimit:10;" d="M41.3,32.8
		c2.2,2.6,7.6,6,18.8-0.4"/>
	<path style="display:inline;fill:none;stroke:#000000;stroke-width:0.8;stroke-miterlimit:10;" d="M56,23.8
		c-2.2,1.9-2.9,6.7,2.9,9.3"/>
	<path style="display:inline;fill:none;stroke:#000000;stroke-width:0.8;stroke-miterlimit:10;" d="M36.6,34.9
		c6.3,5.1,14,5.9,25.3,1.4"/>
	<path style="display:inline;fill:none;stroke:#000000;stroke-width:0.8;stroke-miterlimit:10;" d="M42.3,18.8
		c2.7,0.2,4.1-0.7,4.1-2.6"/>
	<path style="display:inline;fill:none;stroke:#000000;stroke-width:0.8;stroke-miterlimit:10;" d="M53.6,18.8
		c-2.2,0.4-5.2-0.6-5.1-2.9"/>
	
		<line style="display:inline;fill:none;stroke:#000000;stroke-width:0.8;stroke-linecap:round;stroke-miterlimit:10;" x1="56.1" y1="17.7" x2="62.7" y2="17.7"/>
	<path style="display:inline;fill:none;stroke:#000000;stroke-width:0.8;stroke-linecap:round;stroke-miterlimit:10;" d="M57.7,20.7
		c0,0.1,3.3,0,3.3,0"/>
	
		<line style="display:inline;fill:none;stroke:#000000;stroke-width:0.8;stroke-linecap:round;stroke-miterlimit:10;" x1="59.031" y1="23.162" x2="64.131" y2="23.162"/>
	
		<line style="display:inline;fill:none;stroke:#000000;stroke-width:0.8;stroke-linecap:round;stroke-miterlimit:10;" x1="60.472" y1="25.752" x2="62.672" y2="25.752"/>
	
		<line style="display:inline;fill:none;stroke:#000000;stroke-width:0.8;stroke-linecap:round;stroke-miterlimit:10;" x1="62.052" y1="28.662" x2="65.652" y2="28.662"/>
	<path style="display:inline;fill:none;stroke:#000000;stroke-width:0.8;stroke-linecap:round;stroke-miterlimit:10;" d="M59.9,14.8
		c2.7-0.1,5.1,1.4,5.1,3.4c0,5.4,2.5,10.1,4.6,12.4c-4.8,0.2-3.8,5.5-3.8,5.5"/>
	<path style="display:inline;fill:none;stroke:#000000;stroke-width:0.8;stroke-linecap:round;stroke-miterlimit:10;" d="M46.4,32.1
		c0.7-0.5,2-0.4,2.4,0"/>
	<path style="display:inline;fill:none;stroke:#000000;stroke-width:0.8;stroke-linecap:round;stroke-miterlimit:10;" d="M45.2,30.3
		c1.1-0.3,3.1,0.1,5.1,0"/>
	<path style="display:inline;fill:none;stroke:#000000;stroke-width:0.8;stroke-linecap:round;stroke-miterlimit:10;" d="M45.2,20.1
		c1.1,1.3,1.1,3.8,0.6,5s-0.7,3.1,1.1,3.2s1.9-0.9,1.8-1.5"/>
	<path style="display:inline;fill:none;stroke:#000000;stroke-width:0.8;stroke-linecap:round;stroke-miterlimit:10;" d="M48.3,20.1
		c1.8-0.3,4.5,0.8,6,2.9"/>
	<path style="display:inline;fill:none;stroke:#000000;stroke-width:0.8;stroke-linecap:round;stroke-miterlimit:10;" d="M47.6,23
		c0.7-1.1,2.5-1.8,4.8-0.3C50.8,24.5,48.5,23.8,47.6,23z"/>
	<path style="display:inline;fill:none;stroke:#000000;stroke-width:0.8;stroke-linecap:round;stroke-miterlimit:10;" d="M42.4,22.1
		c1.6-0.2,3.2,0.6,3.1,1.1c-0.1,0.4-1.5,1-2.9,1"/>
	
		<line style="display:inline;fill:none;stroke:#000000;stroke-width:0.8;stroke-linecap:round;stroke-miterlimit:10;" x1="47.6" y1="44.3" x2="47.628" y2="58.208"/>
	
		<line style="display:inline;fill:none;stroke:#000000;stroke-width:0.8;stroke-linecap:round;stroke-miterlimit:10;" x1="50" y1="44.3" x2="50" y2="59.7"/>
	<path style="display:inline;fill:none;stroke:#000000;stroke-width:0.8;stroke-linecap:round;stroke-miterlimit:10;" d="M41.3,43.2
		c0.1,3.2,3,8.8,3,12.4"/>
	<path style="display:inline;fill:none;stroke:#000000;stroke-width:0.8;stroke-linecap:round;stroke-miterlimit:10;" d="M56.6,43.5
		c-0.4,5.5-4.475,14.004-4.575,16.504"/>
	
		<line style="display:inline;fill:none;stroke:#000000;stroke-width:0.8;stroke-linecap:round;stroke-miterlimit:10;" x1="50" y1="47" x2="53.8" y2="46.4"/>
	
		<line style="display:inline;fill:none;stroke:#000000;stroke-width:0.8;stroke-linecap:round;stroke-miterlimit:10;" x1="50" y1="49.5" x2="53.1" y2="48.8"/>
	
		<line style="display:inline;fill:none;stroke:#000000;stroke-width:0.8;stroke-linecap:round;stroke-miterlimit:10;" x1="50" y1="51.7" x2="52.5" y2="51.4"/>
	
		<line style="display:inline;fill:none;stroke:#000000;stroke-width:0.8;stroke-linecap:round;stroke-miterlimit:10;" x1="50" y1="54.3" x2="51.5" y2="53.9"/>
	
		<line style="display:inline;fill:none;stroke:#000000;stroke-width:0.8;stroke-linecap:round;stroke-miterlimit:10;" x1="47.6" y1="54.3" x2="45.7" y2="53.5"/>
	
		<line style="display:inline;fill:none;stroke:#000000;stroke-width:0.8;stroke-linecap:round;stroke-miterlimit:10;" x1="47.6" y1="51.7" x2="45.2" y2="50.9"/>
	
		<line style="display:inline;fill:none;stroke:#000000;stroke-width:0.8;stroke-linecap:round;stroke-miterlimit:10;" x1="47.6" y1="49.2" x2="44.2" y2="48.4"/>
	
		<line style="display:inline;fill:none;stroke:#000000;stroke-width:0.8;stroke-linecap:round;stroke-miterlimit:10;" x1="47.6" y1="47" x2="43.9" y2="46"/>
	<path style="display:inline;fill:none;stroke:#000000;stroke-width:0.8;stroke-linecap:round;stroke-miterlimit:10;" d="M28.5,39.4
		C30.7,42,35,45.7,42,47"/>
	<path style="display:inline;fill:none;stroke:#000000;stroke-width:0.8;stroke-linecap:round;stroke-miterlimit:10;" d="M61.9,42.1
		c0,0,6.7,2.2,8.8,4.4c-4.2,3.2-5.2,10.9-5.3,13.3c-0.2,4.8,0.9,10.7-8.3,15.3"/>
	<path style="display:inline;fill:none;stroke:#000000;stroke-width:0.8;stroke-linecap:round;stroke-miterlimit:10;" d="M65.5,43.5
		c-3.1,3-5.2,7.1-5.1,15.1c0.1,8-3.2,12.3-9.7,14.2"/>
	<path style="display:inline;fill:none;stroke:#000000;stroke-width:0.8;stroke-linecap:round;stroke-miterlimit:10;" d="M60.8,53.1
		c-3.4,0-7,3.7-7,8.1s2.5,6.7,3.7,7.5"/>
	<path style="display:inline;fill:none;stroke:#000000;stroke-width:0.8;stroke-linecap:round;stroke-miterlimit:10;" d="
		M59.766,64.009c-1.3-0.8-1.566-1.809-1.566-2.709c0-0.9,0.064-2.282,2.164-2.782"/>
	<path style="display:inline;fill:none;stroke:#000000;stroke-width:0.8;stroke-linecap:round;stroke-miterlimit:10;" d="M53.8,60
		c-7.3,0.8-6.3-5.1-12.8-5.1c-1.4,0-2.6,0-2.6,0"/>
	<path style="display:inline;fill:none;stroke:#000000;stroke-width:0.8;stroke-linecap:round;stroke-miterlimit:10;" d="M66.6,53.1
		l3,2.6l4.3-2.5c0.3-0.7,0.5-3.1-0.5-2.8"/>
	<path style="display:inline;fill:none;stroke:#000000;stroke-width:0.8;stroke-linecap:round;stroke-miterlimit:10;" d="M65.2,65.3
		c2.8,0,2.5,3.4,5.2,3.4c2.6,0.1,3.4,1.2,3.7,1.7"/>
	
		<line style="display:inline;fill:none;stroke:#000000;stroke-width:0.8;stroke-linecap:round;stroke-miterlimit:10;" x1="70.6" y1="58.6" x2="70.6" y2="65.3"/>
	
		<line style="display:inline;fill:none;stroke:#000000;stroke-width:0.8;stroke-linecap:round;stroke-miterlimit:10;" x1="68.8" y1="60.1" x2="72.3" y2="60.1"/>
	
		<line style="display:inline;fill:none;stroke:#000000;stroke-width:0.8;stroke-linecap:round;stroke-miterlimit:10;" x1="66.6" y1="70.9" x2="66.6" y2="75.1"/>
	
		<line style="display:inline;fill:none;stroke:#000000;stroke-width:0.8;stroke-linecap:round;stroke-miterlimit:10;" x1="68.6" y1="73" x2="64.5" y2="73"/>
	<path style="display:inline;fill:none;stroke:#000000;stroke-width:0.8;stroke-linecap:round;stroke-miterlimit:10;" d="M67.1,46.4
		c0,0.1-0.1,0.3-0.3,0.3c-0.1,0-0.3-0.1-0.3-0.3c0-0.1,0.1-0.3,0.3-0.3C67,46.2,67.1,46.3,67.1,46.4z"/>
	<path style="display:inline;fill:none;stroke:#000000;stroke-width:0.8;stroke-linecap:round;stroke-miterlimit:10;" d="M64.4,51.5
		c0,0.1-0.1,0.3-0.3,0.3c-0.1,0-0.3-0.1-0.3-0.3c0-0.1,0.1-0.3,0.3-0.3C64.3,51.3,64.4,51.4,64.4,51.5z"/>
	<path style="display:inline;fill:none;stroke:#000000;stroke-width:0.8;stroke-linecap:round;stroke-miterlimit:10;" d="M63.3,57.5
		c0,0.1-0.1,0.3-0.3,0.3c-0.1,0-0.3-0.1-0.3-0.3c0-0.1,0.1-0.3,0.3-0.3C63.2,57.3,63.3,57.4,63.3,57.5z"/>
	<path style="display:inline;fill:none;stroke:#000000;stroke-width:0.8;stroke-linecap:round;stroke-miterlimit:10;" d="M62.8,64.1
		c0,0.1-0.1,0.3-0.3,0.3c-0.1,0-0.3-0.1-0.3-0.3c0-0.1,0.1-0.3,0.3-0.3C62.6,63.8,62.8,63.9,62.8,64.1z"/>
	<path style="display:inline;fill:none;stroke:#000000;stroke-width:0.8;stroke-linecap:round;stroke-miterlimit:10;" d="M59.9,70.2
		c0,0.1-0.1,0.3-0.3,0.3c-0.1,0-0.3-0.1-0.3-0.3c0-0.1,0.1-0.3,0.3-0.3C59.7,69.9,59.9,70,59.9,70.2z"/>
	<path style="display:inline;fill:none;stroke:#000000;stroke-width:0.8;stroke-linecap:round;stroke-miterlimit:10;" d="M70.6,46.5
		c0.8-0.1,1.9,0.5,1.7,1.5c-0.2,1-1.6,1.8-2,2.2c0.7,0.8,0.2,2.2-0.9,2.9"/>
	<path style="display:inline;fill:none;stroke:#000000;stroke-width:0.8;stroke-linecap:round;stroke-miterlimit:10;" d="M72.2,48.4
		c0.9,0,2.3,1.6,0.2,3.2"/>
	
		<line style="display:inline;fill:none;stroke:#000000;stroke-width:0.8;stroke-linecap:round;stroke-miterlimit:10;" x1="70.6" y1="46.5" x2="70.6" y2="37.5"/>
	<path style="display:inline;fill:none;stroke:#000000;stroke-width:0.8;stroke-linecap:round;stroke-miterlimit:10;" d="M70.6,43.8
		c-1.1-1-2.2-2.1-2.9-2.1"/>
	<path style="display:inline;fill:none;stroke:#000000;stroke-width:0.8;stroke-linecap:round;stroke-miterlimit:10;" d="M70.6,44.6
		c0.7-1.9,2.2-2.6,2.2-3.6"/>
	<path style="display:inline;fill:none;stroke:#000000;stroke-width:0.8;stroke-linecap:round;stroke-miterlimit:10;" d="M73.2,36.8
		l-1-1l1-1c0.3-0.3,0.3-0.8,0-1.1l-0.5-0.5c-0.3-0.3-0.8-0.3-1.1,0l-1,1l-1-1c-0.3-0.3-0.8-0.3-1.1,0L68,33.8
		c-0.3,0.3-0.3,0.8,0,1.1l1,1l-1,1c-0.3,0.3-0.3,0.8,0,1.1l0.5,0.5c0.3,0.3,0.8,0.3,1.1,0l1-1l1,1c0.3,0.3,0.8,0.3,1.1,0l0.5-0.5
		C73.5,37.7,73.5,37.2,73.2,36.8z"/>
	
		<path style="display:inline;fill:none;stroke:#000000;stroke-width:0.8;stroke-linecap:round;stroke-linejoin:round;stroke-miterlimit:10;" d="
		M55.4,16.4c-2.4-1-12.7,0-13.2,0.9c-0.5-1.2-2.3-2.2-3.1-2.5c1.4,0.1,3.9-1,3.6-3.2c0.9,1.2,1.9,1.9,3.7,1.7
		c2.2-0.3,2.8-2.5,3.1-2.8c0.5,0.5,1,2.5,2.9,3c1.3,0.3,3.8,0,5.3-1.5C56.1,13.8,55.6,15.3,55.4,16.4z"/>
	<path style="display:inline;fill:none;stroke:#000000;stroke-width:0.8;stroke-linecap:round;stroke-miterlimit:10;" d="M39.1,14.7
		c-1.4-1.2,0-4.3,3.6-3.2c0-2,3.9-4.1,6.8-1.1c1.7-2.1,6.9-2,8.2,1.4c2.2-0.1,2.7,2.3,2.2,2.9"/>
	<path style="display:inline;fill:none;stroke:#000000;stroke-width:0.8;stroke-linecap:round;stroke-miterlimit:10;" d="
		M50.8,102.9c0.2-1.6,0-17.6-5.6-17.6c-5.8,0-7.6,4.4-7.6,4.4"/>
	<path style="display:inline;fill:none;stroke:#000000;stroke-width:0.8;stroke-miterlimit:10;" d="M50.7,98.8c4.6-2,8-8.9,6.8-14.1
		"/>
	<path style="display:inline;fill:none;stroke:#000000;stroke-width:0.8;stroke-miterlimit:10;" d="M50.3,94.2
		c3-1.3,3.9-6.2,3.6-7.7"/>
	
		<line style="display:inline;fill:none;stroke:#000000;stroke-width:0.8;stroke-miterlimit:10;" x1="40.8" y1="104.3" x2="28.8" y2="78.9"/>
	<path style="display:inline;fill:none;stroke:#000000;stroke-width:0.8;stroke-linecap:round;stroke-miterlimit:10;" d="
		M37.6,103.8L25.3,80.3c12.3-5.3,26-7.1,36.4,2.1"/>
	<path style="display:inline;fill:none;stroke:#000000;stroke-width:0.8;stroke-miterlimit:10;" d="M48.8,88.4
		c10.8-3.6,21.6-11,25.5-15.2"/>
	<path style="display:inline;fill:none;stroke:#000000;stroke-width:0.8;stroke-miterlimit:10;" d="M51.7,87.3
		c-2.2-2.6-7.6-6-18.8,0.4"/>
	<path style="display:inline;fill:none;stroke:#000000;stroke-width:0.8;stroke-miterlimit:10;" d="M37,96.4
		c2.2-1.9,2.9-6.7-2.9-9.3"/>
	<path style="display:inline;fill:none;stroke:#000000;stroke-width:0.8;stroke-miterlimit:10;" d="M56.4,85.2
		c-6.3-5.1-14-5.9-25.3-1.4"/>
	<path style="display:inline;fill:none;stroke:#000000;stroke-width:0.8;stroke-miterlimit:10;" d="M50.7,101.3
		c-2.7-0.2-4.1,0.7-4.1,2.6"/>
	<path style="display:inline;fill:none;stroke:#000000;stroke-width:0.8;stroke-miterlimit:10;" d="M39.4,101.3
		c2.2-0.4,5.2,0.6,5.1,2.9"/>
	
		<line style="display:inline;fill:none;stroke:#000000;stroke-width:0.8;stroke-linecap:round;stroke-miterlimit:10;" x1="36.9" y1="102.4" x2="30.3" y2="102.4"/>
	<path style="display:inline;fill:none;stroke:#000000;stroke-width:0.8;stroke-linecap:round;stroke-miterlimit:10;" d="M35.3,99.4
		c0-0.1-3.3,0-3.3,0"/>
	
		<line style="display:inline;fill:none;stroke:#000000;stroke-width:0.8;stroke-linecap:round;stroke-miterlimit:10;" x1="34" y1="96.9" x2="28.8" y2="96.9"/>
	
		<line style="display:inline;fill:none;stroke:#000000;stroke-width:0.8;stroke-linecap:round;stroke-miterlimit:10;" x1="32.6" y1="94.2" x2="30.3" y2="94.2"/>
	
		<line style="display:inline;fill:none;stroke:#000000;stroke-width:0.8;stroke-linecap:round;stroke-miterlimit:10;" x1="31.1" y1="91.4" x2="27.5" y2="91.4"/>
	<path style="display:inline;fill:none;stroke:#000000;stroke-width:0.8;stroke-linecap:round;stroke-miterlimit:10;" d="
		M33.1,105.3c-2.7,0.1-5.1-1.4-5.1-3.4c0-5.4-2.5-10.1-4.6-12.4c4.8-0.2,3.8-5.5,3.8-5.5"/>
	<path style="display:inline;fill:none;stroke:#000000;stroke-width:0.8;stroke-linecap:round;stroke-miterlimit:10;" d="M46.6,88
		c-0.7,0.5-2,0.4-2.4,0"/>
	<path style="display:inline;fill:none;stroke:#000000;stroke-width:0.8;stroke-linecap:round;stroke-miterlimit:10;" d="M47.8,89.8
		c-1.1,0.3-3.1-0.1-5.1,0"/>
	<path style="display:inline;fill:none;stroke:#000000;stroke-width:0.8;stroke-linecap:round;stroke-miterlimit:10;" d="M47.8,100
		c-1.1-1.3-1.1-3.8-0.6-5s0.7-3.1-1.1-3.2s-1.9,0.9-1.8,1.5"/>
	<path style="display:inline;fill:none;stroke:#000000;stroke-width:0.8;stroke-linecap:round;stroke-miterlimit:10;" d="M44.7,100
		c-1.8,0.3-4.5-0.8-6-2.9"/>
	
		<line style="display:inline;fill:none;stroke:#000000;stroke-width:0.8;stroke-linecap:round;stroke-miterlimit:10;" x1="45.4" y1="75.8" x2="45.419" y2="61.924"/>
	
		<line style="display:inline;fill:none;stroke:#000000;stroke-width:0.8;stroke-linecap:round;stroke-miterlimit:10;" x1="43" y1="75.8" x2="43" y2="60.4"/>
	<path style="display:inline;fill:none;stroke:#000000;stroke-width:0.8;stroke-linecap:round;stroke-miterlimit:10;" d="M51.7,76.9
		c-0.1-3.1-3-8.8-3-12.4"/>
	<path style="display:inline;fill:none;stroke:#000000;stroke-width:0.8;stroke-linecap:round;stroke-miterlimit:10;" d="M36.4,76.7
		c0.4-5.5,4.5-14.2,4.6-16.7"/>
	
		<line style="display:inline;fill:none;stroke:#000000;stroke-width:0.8;stroke-linecap:round;stroke-miterlimit:10;" x1="43" y1="73.2" x2="39.2" y2="73.7"/>
	
		<line style="display:inline;fill:none;stroke:#000000;stroke-width:0.8;stroke-linecap:round;stroke-miterlimit:10;" x1="43" y1="70.6" x2="39.9" y2="71.3"/>
	
		<line style="display:inline;fill:none;stroke:#000000;stroke-width:0.8;stroke-linecap:round;stroke-miterlimit:10;" x1="43" y1="68.4" x2="40.5" y2="68.8"/>
	
		<line style="display:inline;fill:none;stroke:#000000;stroke-width:0.8;stroke-linecap:round;stroke-miterlimit:10;" x1="43" y1="65.8" x2="41.456" y2="66.032"/>
	
		<line style="display:inline;fill:none;stroke:#000000;stroke-width:0.8;stroke-linecap:round;stroke-miterlimit:10;" x1="45.4" y1="65.8" x2="47.4" y2="66.6"/>
	
		<line style="display:inline;fill:none;stroke:#000000;stroke-width:0.8;stroke-linecap:round;stroke-miterlimit:10;" x1="45.4" y1="68.4" x2="47.8" y2="69.2"/>
	
		<line style="display:inline;fill:none;stroke:#000000;stroke-width:0.8;stroke-linecap:round;stroke-miterlimit:10;" x1="45.4" y1="71" x2="48.8" y2="71.7"/>
	
		<line style="display:inline;fill:none;stroke:#000000;stroke-width:0.8;stroke-linecap:round;stroke-miterlimit:10;" x1="45.4" y1="73.2" x2="49.2" y2="74.1"/>
	<path style="display:inline;fill:none;stroke:#000000;stroke-width:0.8;stroke-linecap:round;stroke-miterlimit:10;" d="M64.5,80.7
		c-2.2-2.6-6.5-6.3-13.5-7.5"/>
	<path style="display:inline;fill:none;stroke:#000000;stroke-width:0.8;stroke-linecap:round;stroke-miterlimit:10;" d="M31.1,78.1
		c0,0-6.7-2.2-8.8-4.4c4.2-3.2,5.2-10.9,5.3-13.3c0.2-4.8-0.9-10.7,8.3-15.3"/>
	<path style="display:inline;fill:none;stroke:#000000;stroke-width:0.8;stroke-linecap:round;stroke-miterlimit:10;" d="M27.5,76.7
		c3.1-3,5.2-7.1,5.1-15.1c-0.1-8,3.2-12.3,9.7-14.2"/>
	<path style="display:inline;fill:none;stroke:#000000;stroke-width:0.8;stroke-linecap:round;stroke-miterlimit:10;" d="M32.2,67
		c3.4,0,7-3.7,7-8.1s-2.5-6.7-3.7-7.5"/>
	<path style="display:inline;fill:none;stroke:#000000;stroke-width:0.8;stroke-linecap:round;stroke-miterlimit:10;" d="
		M33.199,56.082c1.3,0.8,1.601,1.818,1.601,2.718c0,0.9-0.12,2.252-2.22,2.752"/>
	<path style="display:inline;fill:none;stroke:#000000;stroke-width:0.8;stroke-linecap:round;stroke-miterlimit:10;" d="M39.2,60.1
		c7.3-0.8,6.3,5.1,12.8,5.1c1.4,0,2.6,0,2.6,0"/>
	<path style="display:inline;fill:none;stroke:#000000;stroke-width:0.8;stroke-linecap:round;stroke-miterlimit:10;" d="M26.5,67
		l-3-2.6l-4.3,2.5c-0.7,1-0.5,3.1,0.5,2.8"/>
	<path style="display:inline;fill:none;stroke:#000000;stroke-width:0.8;stroke-linecap:round;stroke-miterlimit:10;" d="M27.8,54.9
		c-2.8,0-2.5-3.4-5.2-3.4c-2.6-0.1-3.8-0.7-4.1-1.2"/>
	
		<line style="display:inline;fill:none;stroke:#000000;stroke-width:0.8;stroke-linecap:round;stroke-miterlimit:10;" x1="22.4" y1="61.6" x2="22.4" y2="54.9"/>
	
		<line style="display:inline;fill:none;stroke:#000000;stroke-width:0.8;stroke-linecap:round;stroke-miterlimit:10;" x1="24.3" y1="60" x2="20.7" y2="60"/>
	
		<line style="display:inline;fill:none;stroke:#000000;stroke-width:0.8;stroke-linecap:round;stroke-miterlimit:10;" x1="26.5" y1="49.2" x2="26.5" y2="45.1"/>
	
		<line style="display:inline;fill:none;stroke:#000000;stroke-width:0.8;stroke-linecap:round;stroke-miterlimit:10;" x1="24.4" y1="47.1" x2="28.5" y2="47.1"/>
	
		<circle style="display:inline;fill:none;stroke:#000000;stroke-width:0.8;stroke-linecap:round;stroke-miterlimit:10;" cx="26.1" cy="73.7" r="0.3"/>
	<path style="display:inline;fill:none;stroke:#000000;stroke-width:0.8;stroke-linecap:round;stroke-miterlimit:10;" d="M28.6,68.6
		c0-0.1,0.1-0.3,0.3-0.3c0.1,0,0.3,0.1,0.3,0.3c0,0.1-0.1,0.3-0.3,0.3C28.7,68.8,28.6,68.7,28.6,68.6z"/>
	<path style="display:inline;fill:none;stroke:#000000;stroke-width:0.8;stroke-linecap:round;stroke-miterlimit:10;" d="M29.7,62.6
		c0-0.1,0.1-0.3,0.3-0.3c0.1,0,0.3,0.1,0.3,0.3c0,0.1-0.1,0.3-0.3,0.3C29.8,62.9,29.7,62.7,29.7,62.6z"/>
	<path style="display:inline;fill:none;stroke:#000000;stroke-width:0.8;stroke-linecap:round;stroke-miterlimit:10;" d="M30.2,56
		c0-0.1,0.1-0.3,0.3-0.3c0.1,0,0.3,0.1,0.3,0.3c0,0.1-0.1,0.3-0.3,0.3C30.4,56.3,30.2,56.2,30.2,56z"/>
	<path style="display:inline;fill:none;stroke:#000000;stroke-width:0.8;stroke-linecap:round;stroke-miterlimit:10;" d="M33.2,50
		c0-0.1,0.1-0.3,0.3-0.3c0.1,0,0.3,0.1,0.3,0.3c0,0.1-0.1,0.3-0.3,0.3C33.3,50.2,33.2,50.1,33.2,50z"/>
	<path style="display:inline;fill:none;stroke:#000000;stroke-width:0.8;stroke-linecap:round;stroke-miterlimit:10;" d="M22.4,73.6
		c-0.8,0.1-1.9-0.5-1.7-1.5c0.2-1,1.6-1.8,2-2.2c-0.7-0.8-0.2-2.2,0.9-2.9"/>
	<path style="display:inline;fill:none;stroke:#000000;stroke-width:0.8;stroke-linecap:round;stroke-miterlimit:10;" d="M20.8,71.7
		c-0.9,0-2.3-1.6-0.2-3.2"/>
	
		<line style="display:inline;fill:none;stroke:#000000;stroke-width:0.8;stroke-linecap:round;stroke-miterlimit:10;" x1="22.4" y1="73.6" x2="22.4" y2="82.6"/>
	<path style="display:inline;fill:none;stroke:#000000;stroke-width:0.8;stroke-linecap:round;stroke-miterlimit:10;" d="M22.4,76.3
		c1.1,1,2.2,2.1,2.9,2.1"/>
	<path style="display:inline;fill:none;stroke:#000000;stroke-width:0.8;stroke-linecap:round;stroke-miterlimit:10;" d="M22.4,75.5
		c-0.7,1.9-2.2,2.6-2.2,3.6"/>
	<path style="display:inline;fill:none;stroke:#000000;stroke-width:0.8;stroke-linecap:round;stroke-miterlimit:10;" d="M19.8,83.3
		l1,1l-1,1c-0.3,0.3-0.3,0.8,0,1.1l0.5,0.5c0.3,0.3,0.8,0.3,1.1,0l1-1l1,1c0.3,0.3,0.8,0.3,1.1,0l0.5-0.5c0.3-0.3,0.3-0.8,0-1.1
		l-1-1l1-1c0.3-0.3,0.3-0.8,0-1.1l-0.5-0.5c-0.3-0.3-0.8-0.3-1.1,0l-1,1l-1-1c-0.3-0.3-0.8-0.3-1.1,0l-0.5,0.5
		C19.5,82.5,19.5,83,19.8,83.3z"/>
	
		<path style="display:inline;fill:none;stroke:#000000;stroke-width:0.8;stroke-linecap:round;stroke-linejoin:round;stroke-miterlimit:10;" d="
		M37.6,103.8c2.4,1,12.7,0,13.2-0.9c0.5,1.2,2.3,2.2,3.1,2.5c-1.4-0.1-3.9,1-3.6,3.2c-0.9-1.2-1.9-1.9-3.7-1.7
		c-2.2,0.3-2.8,2.5-3.1,2.8c-0.5-0.5-1-2.5-2.9-2.9c-1.3-0.3-3.8,0-5.3,1.5C36.9,106.3,37.4,104.8,37.6,103.8z"/>
	<path style="display:inline;fill:none;stroke:#000000;stroke-width:0.8;stroke-linecap:round;stroke-miterlimit:10;" d="
		M53.9,105.4c1.4,1.2,0,4.3-3.6,3.2c0,2-3.9,4.1-6.8,1.1c-1.8,2.1-6.9,2-8.2-1.4c-2.2,0.1-2.7-2.3-2.2-2.9"/>
	<path style="display:inline;fill:none;stroke:#000000;stroke-width:0.8;stroke-miterlimit:10;" d="M62,15.1h11.4
		c0.2,0,0.8,0.3,0.8,0.8c0,0.5,0,87.6,0,88c0,0.5-0.6,0.8-0.8,0.8H52.5"/>
	<path style="display:inline;fill:none;stroke:#000000;stroke-width:0.8;stroke-miterlimit:10;" d="M30.1,104.7H19
		c-0.2,0-0.4-0.2-0.4-0.4V15.5c0-0.2,0.2-0.4,0.4-0.4h21"/>
	<path style="display:inline;fill:none;stroke:#000000;stroke-width:0.8;stroke-linecap:round;stroke-miterlimit:10;" d="M45.4,97.1
		c-0.7,1.1-2.5,1.8-4.8,0.3C42.2,95.6,44.5,96.3,45.4,97.1z"/>
	<path style="display:inline;fill:none;stroke:#000000;stroke-width:0.8;stroke-linecap:round;stroke-miterlimit:10;" d="M50.6,98.1
		c-1.6,0.2-3.2-0.6-3.1-1.1c0.1-0.4,1.5-1,2.9-1"/>
	
		<linearGradient id="SVGID_430_" gradientUnits="userSpaceOnUse" x1="9.2085" y1="103.6" x2="9.2085" y2="92.7164" gradientTransform="matrix(1 0 0 -1 0 123)">
		<stop  offset="0" style="stop-color:#B72026"/>
		<stop  offset="0.3" style="stop-color:#B11F24"/>
		<stop  offset="1" style="stop-color:#710506"/>
	</linearGradient>
	<path style="display:inline;fill:url(#SVGID_430_);" d="M12,19.4c-1.2,0-2.3,1-2.8,2.1c-0.5-1-1.6-2.1-2.8-2.1
		c-1.7,0-3.1,1.4-3.1,3.1c0,3.5,3.3,5.4,5.9,7.8c2.4-2.4,5.6-4.3,5.9-7.8C15.3,20.8,13.7,19.4,12,19.4z"/>

</svg>
