
<svg id="S10" viewBox="0 0 90 123" xmlns="http://www.w3.org/2000/svg">

		<linearGradient id="SVGID_517_" gradientUnits="userSpaceOnUse" x1="45.05" y1="123" x2="45.05" y2="0" gradientTransform="matrix(1 0 0 -1 0 123)">
		<stop  offset="0" style="stop-color:#F5F5F5"/>
		<stop  offset="1" style="stop-color:#D1D1D1"/>
	</linearGradient>
	<path style="display:inline;fill:url(#SVGID_517_);" d="M90,117.7c0,3-2.4,5.3-5.4,5.3H5.4c-3,0-5.4-2.4-5.4-5.3V5.3
		C0,2.4,2.4,0,5.4,0h79.3c3,0,5.4,2.4,5.4,5.3v112.4H90z"/>
	
		<linearGradient id="SVGID_518_" gradientUnits="userSpaceOnUse" x1="9.3114" y1="105.1449" x2="9.3114" y2="93.0523" gradientTransform="matrix(1 0 0 -1 0 123)">
		<stop  offset="0" style="stop-color:#4A4A4C"/>
		<stop  offset="0.3" style="stop-color:#404041"/>
		<stop  offset="1" style="stop-color:#231F20"/>
	</linearGradient>
	<path style="display:inline;fill:url(#SVGID_518_);" d="M13.2,22c-1.7-2-2.9-3-4-4.1l0,0l0,0l0,0c-0.9,0.9-2.2,2-4,4.1
		c-2.6,2.8-0.2,7.4,3.3,5.2c-0.2,1.5-1,1.8-1.8,2.2v0.5h5.1v-0.5c-0.8-0.5-1.6-0.7-1.8-2.2C13.4,29.5,16.3,25.3,13.2,22L13.2,22z"/>
	<g style="display:inline;">
		<path style="fill:#231F20;" d="M1.9,14.5v-1.3L3.8,13V5.3H1.9V4.1l4-0.7V13l1.9,0.2v1.3H1.9z"/>
		<path style="fill:#231F20;" d="M12.7,14.7c-1.2,0-2.1-0.4-2.7-1.1c-0.7-0.8-1-1.9-1-3.3V7.7c0-1.5,0.3-2.6,1-3.3
			c0.7-0.8,1.6-1.1,2.7-1.1s2.1,0.4,2.7,1.1c0.7,0.8,1,1.9,1,3.3v2.5c0,1.5-0.3,2.6-1,3.3C14.8,14.3,13.9,14.7,12.7,14.7z
			 M12.7,13.1c0.5,0,0.9-0.2,1.2-0.6c0.3-0.4,0.4-1.1,0.4-2v-3c0-0.9-0.1-1.6-0.4-2c-0.3-0.4-0.7-0.6-1.2-0.6s-1,0.1-1.2,0.6
			c-0.3,0.4-0.4,1.1-0.4,2v3c0,0.9,0.1,1.6,0.4,2C11.8,12.9,12.2,13.1,12.7,13.1z"/>
	</g>
	
		<linearGradient id="SVGID_519_" gradientUnits="userSpaceOnUse" x1="45.05" y1="80.8" x2="45.05" y2="0.1" gradientTransform="matrix(1 0 0 -1 0 123)">
		<stop  offset="0" style="stop-color:#D0D2D3"/>
		<stop  offset="1" style="stop-color:#CCCECF"/>
	</linearGradient>
	<path style="display:inline;opacity:0.3;fill:url(#SVGID_519_);enable-background:new    ;" d="M0,101v16.6c0,3,2.4,5.3,5.4,5.3
		h79.3c3,0,5.4-2.4,5.4-5.3V42.2C48.6,44,13.7,67.9,0,101z"/>
	
		<linearGradient id="SVGID_520_" gradientUnits="userSpaceOnUse" x1="29.506" y1="116.4803" x2="29.506" y2="95.8078" gradientTransform="matrix(1 0 0 -1 0 123)">
		<stop  offset="0" style="stop-color:#4A4A4C"/>
		<stop  offset="0.3" style="stop-color:#404041"/>
		<stop  offset="1" style="stop-color:#231F20"/>
	</linearGradient>
	<path style="display:inline;fill:url(#SVGID_520_);" d="M36.2,13.6c-2.9-3.5-5-5.2-6.9-7l0,0l0,0l0,0c-1.5,1.5-3.8,3.5-6.9,7
		c-4.5,4.8-0.3,12.7,5.7,9c-0.4,2.6-1.8,3-3.2,3.8v0.8h8.7v-0.8c-1.4-0.8-2.8-1.2-3.2-3.8C36.6,26.4,41.6,19.2,36.2,13.6L36.2,13.6z
		"/>
	
		<linearGradient id="SVGID_521_" gradientUnits="userSpaceOnUse" x1="63.106" y1="116.4803" x2="63.106" y2="95.8078" gradientTransform="matrix(1 0 0 -1 0 123)">
		<stop  offset="0" style="stop-color:#4A4A4C"/>
		<stop  offset="0.3" style="stop-color:#404041"/>
		<stop  offset="1" style="stop-color:#231F20"/>
	</linearGradient>
	<path style="display:inline;fill:url(#SVGID_521_);" d="M69.8,13.6c-2.9-3.5-5-5.2-6.9-7l0,0l0,0l0,0c-1.5,1.5-3.8,3.5-6.9,7
		c-4.5,4.8-0.3,12.7,5.7,9c-0.4,2.6-1.8,3-3.2,3.8v0.8h8.7v-0.8c-1.4-0.8-2.8-1.2-3.2-3.8C70.2,26.4,75.2,19.2,69.8,13.6L69.8,13.6z
		"/>
	
		<linearGradient id="SVGID_522_" gradientUnits="userSpaceOnUse" x1="29.506" y1="87.6424" x2="29.506" y2="66.9699" gradientTransform="matrix(1 0 0 -1 0 123)">
		<stop  offset="0" style="stop-color:#4A4A4C"/>
		<stop  offset="0.3" style="stop-color:#404041"/>
		<stop  offset="1" style="stop-color:#231F20"/>
	</linearGradient>
	<path style="display:inline;fill:url(#SVGID_522_);" d="M36.2,42.4c-2.9-3.5-5-5.2-6.9-7l0,0l0,0l0,0c-1.5,1.5-3.8,3.5-6.9,7
		c-4.5,4.8-0.3,12.7,5.7,9c-0.4,2.6-1.8,3-3.2,3.8V56h8.7v-0.8c-1.4-0.8-2.8-1.2-3.2-3.8C36.6,55.2,41.6,48,36.2,42.4L36.2,42.4z"/>
	
		<linearGradient id="SVGID_523_" gradientUnits="userSpaceOnUse" x1="63.106" y1="87.6424" x2="63.106" y2="66.9699" gradientTransform="matrix(1 0 0 -1 0 123)">
		<stop  offset="0" style="stop-color:#4A4A4C"/>
		<stop  offset="0.3" style="stop-color:#404041"/>
		<stop  offset="1" style="stop-color:#231F20"/>
	</linearGradient>
	<path style="display:inline;fill:url(#SVGID_523_);" d="M69.8,42.4c-2.9-3.5-5-5.2-6.9-7l0,0l0,0l0,0c-1.5,1.5-3.8,3.5-6.9,7
		c-4.5,4.8-0.3,12.7,5.7,9c-0.4,2.6-1.8,3-3.2,3.8V56h8.7v-0.8c-1.4-0.8-2.8-1.2-3.2-3.8C70.2,55.2,75.2,48,69.8,42.4L69.8,42.4z"/>
	
		<linearGradient id="SVGID_524_" gradientUnits="userSpaceOnUse" x1="46.306" y1="99.7" x2="46.306" y2="79.0275" gradientTransform="matrix(1 0 0 -1 0 123)">
		<stop  offset="0" style="stop-color:#4A4A4C"/>
		<stop  offset="0.3" style="stop-color:#404041"/>
		<stop  offset="1" style="stop-color:#231F20"/>
	</linearGradient>
	<path style="display:inline;fill:url(#SVGID_524_);" d="M53,30.3c-2.9-3.5-5-5.2-6.9-7l0,0l0,0l0,0c-1.5,1.5-3.8,3.5-6.9,7
		c-4.5,4.8-0.3,12.7,5.7,9c-0.4,2.6-1.8,3-3.2,3.8V44h8.7v-0.8c-1.4-0.8-2.8-1.2-3.2-3.8C53.4,43.2,58.4,35.9,53,30.3L53,30.3z"/>
	
		<linearGradient id="SVGID_525_" gradientUnits="userSpaceOnUse" x1="63.1254" y1="27.2" x2="63.1254" y2="6.5274" gradientTransform="matrix(1 0 0 -1 0 123)">
		<stop  offset="0" style="stop-color:#4A4A4C"/>
		<stop  offset="0.3" style="stop-color:#404041"/>
		<stop  offset="1" style="stop-color:#231F20"/>
	</linearGradient>
	<path style="display:inline;fill:url(#SVGID_525_);" d="M56.4,109.4c2.9,3.5,5,5.2,6.9,7l0,0l0,0l0,0c1.5-1.5,3.8-3.5,6.9-7
		c4.5-4.8,0.3-12.7-5.7-9c0.4-2.6,1.8-3,3.2-3.8v-0.8H59v0.8c1.4,0.8,2.8,1.2,3.2,3.8C56.1,96.6,51.1,103.8,56.4,109.4L56.4,109.4z"
		/>
	
		<linearGradient id="SVGID_526_" gradientUnits="userSpaceOnUse" x1="29.594" y1="27.2" x2="29.594" y2="6.5274" gradientTransform="matrix(1 0 0 -1 0 123)">
		<stop  offset="0" style="stop-color:#4A4A4C"/>
		<stop  offset="0.3" style="stop-color:#404041"/>
		<stop  offset="1" style="stop-color:#231F20"/>
	</linearGradient>
	<path style="display:inline;fill:url(#SVGID_526_);" d="M22.9,109.4c2.9,3.5,5,5.2,6.9,7l0,0l0,0l0,0c1.5-1.5,3.8-3.5,6.9-7
		c4.5-4.8,0.3-12.7-5.7-9c0.4-2.6,1.8-3,3.2-3.8v-0.8h-8.7v0.8c1.4,0.8,2.8,1.2,3.2,3.8C22.5,96.6,17.5,103.8,22.9,109.4L22.9,109.4
		z"/>
	
		<linearGradient id="SVGID_527_" gradientUnits="userSpaceOnUse" x1="63.1254" y1="56.0294" x2="63.1254" y2="35.3569" gradientTransform="matrix(1 0 0 -1 0 123)">
		<stop  offset="0" style="stop-color:#4A4A4C"/>
		<stop  offset="0.3" style="stop-color:#404041"/>
		<stop  offset="1" style="stop-color:#231F20"/>
	</linearGradient>
	<path style="display:inline;fill:url(#SVGID_527_);" d="M56.4,80.6c2.9,3.5,5,5.2,6.9,7l0,0l0,0l0,0c1.5-1.5,3.8-3.5,6.9-7
		c4.5-4.8,0.3-12.7-5.7-9c0.4-2.6,1.8-3,3.2-3.8V67H59v0.8c1.4,0.8,2.8,1.2,3.2,3.8C56.1,67.8,51.1,75,56.4,80.6L56.4,80.6z"/>
	
		<linearGradient id="SVGID_528_" gradientUnits="userSpaceOnUse" x1="29.594" y1="56.0294" x2="29.594" y2="35.3569" gradientTransform="matrix(1 0 0 -1 0 123)">
		<stop  offset="0" style="stop-color:#4A4A4C"/>
		<stop  offset="0.3" style="stop-color:#404041"/>
		<stop  offset="1" style="stop-color:#231F20"/>
	</linearGradient>
	<path style="display:inline;fill:url(#SVGID_528_);" d="M22.9,80.6c2.9,3.5,5,5.2,6.9,7l0,0l0,0l0,0c1.5-1.5,3.8-3.5,6.9-7
		c4.5-4.8,0.3-12.7-5.7-9c0.4-2.6,1.8-3,3.2-3.8V67h-8.7v0.8c1.4,0.8,2.8,1.2,3.2,3.8C22.5,67.8,17.5,75,22.9,80.6L22.9,80.6z"/>
	
		<linearGradient id="SVGID_529_" gradientUnits="userSpaceOnUse" x1="46.394" y1="43.9773" x2="46.394" y2="23.3048" gradientTransform="matrix(1 0 0 -1 0 123)">
		<stop  offset="0" style="stop-color:#4A4A4C"/>
		<stop  offset="0.3" style="stop-color:#404041"/>
		<stop  offset="1" style="stop-color:#231F20"/>
	</linearGradient>
	<path style="display:inline;fill:url(#SVGID_529_);" d="M39.7,92.7c2.9,3.5,5,5.2,6.9,7l0,0l0,0l0,0c1.5-1.5,3.8-3.5,6.9-7
		c4.5-4.8,0.3-12.7-5.7-9c0.4-2.6,1.8-3,3.2-3.8V79h-8.7v0.8c1.4,0.8,2.8,1.2,3.2,3.8C39.3,79.8,34.3,87.1,39.7,92.7L39.7,92.7z"/>

</svg>
