
<svg id="S4" viewBox="0 0 90 123" xmlns="http://www.w3.org/2000/svg">
	<linearGradient id="SVGID_460_" gradientUnits="userSpaceOnUse" x1="45.05" y1="123" x2="45.05" y2="0" gradientTransform="matrix(1 0 0 -1 0 123)">
		<stop  offset="0" style="stop-color:#F5F5F5"/>
		<stop  offset="1" style="stop-color:#D1D1D1"/>
	</linearGradient>
	<linearGradient id="SVGID_462_" gradientUnits="userSpaceOnUse" x1="45.05" y1="80.8" x2="45.05" y2="0.1" gradientTransform="matrix(1 0 0 -1 0 123)">
		<stop  offset="0" style="stop-color:#D0D2D3"/>
		<stop  offset="1" style="stop-color:#CCCECF"/>
	</linearGradient>
	<linearGradient id="SVGID_461_" gradientUnits="userSpaceOnUse" x1="9.3114" y1="105.1449" x2="9.3114" y2="93.0523" gradientTransform="matrix(1 0 0 -1 0 123)">
		<stop  offset="0" style="stop-color:#4A4A4C"/>
		<stop  offset="0.3" style="stop-color:#404041"/>
		<stop  offset="1" style="stop-color:#231F20"/>
	</linearGradient>
	<linearGradient id="SVGID_463_" gradientUnits="userSpaceOnUse" x1="29.506" y1="116.4803" x2="29.506" y2="95.8078" gradientTransform="matrix(1 0 0 -1 0 123)">
		<stop  offset="0" style="stop-color:#4A4A4C"/>
		<stop  offset="0.3" style="stop-color:#404041"/>
		<stop  offset="1" style="stop-color:#231F20"/>
	</linearGradient>
	<linearGradient id="SVGID_464_" gradientUnits="userSpaceOnUse" x1="63.106" y1="116.4803" x2="63.106" y2="95.8078" gradientTransform="matrix(1 0 0 -1 0 123)">
		<stop  offset="0" style="stop-color:#4A4A4C"/>
		<stop  offset="0.3" style="stop-color:#404041"/>
		<stop  offset="1" style="stop-color:#231F20"/>
	</linearGradient>
	<linearGradient id="SVGID_465_" gradientUnits="userSpaceOnUse" x1="63.1254" y1="27.2" x2="63.1254" y2="6.5274" gradientTransform="matrix(1 0 0 -1 0 123)">
		<stop  offset="0" style="stop-color:#4A4A4C"/>
		<stop  offset="0.3" style="stop-color:#404041"/>
		<stop  offset="1" style="stop-color:#231F20"/>
	</linearGradient>
	<linearGradient id="SVGID_466_" gradientUnits="userSpaceOnUse" x1="29.594" y1="27.2" x2="29.594" y2="6.5274" gradientTransform="matrix(1 0 0 -1 0 123)">
		<stop  offset="0" style="stop-color:#4A4A4C"/>
		<stop  offset="0.3" style="stop-color:#404041"/>
		<stop  offset="1" style="stop-color:#231F20"/>
	</linearGradient>
	<path style="display:inline;fill:url(#SVGID_460_);" d="M90,117.7c0,3-2.4,5.3-5.4,5.3H5.4c-3,0-5.4-2.4-5.4-5.3V5.3 C0,2.4,2.4,0,5.4,0h79.3c3,0,5.4,2.4,5.4,5.3v112.4H90z"/>
	<path style="display:inline;fill:url(#SVGID_461_);" d="M13.2,22c-1.7-2-2.9-3-4-4.1l0,0l0,0l0,0c-0.9,0.9-2.2,2-4,4.1 c-2.6,2.8-0.2,7.4,3.3,5.2c-0.2,1.5-1,1.8-1.8,2.2v0.5h5.1v-0.5c-0.8-0.5-1.6-0.7-1.8-2.2C13.4,29.5,16.3,25.3,13.2,22L13.2,22z"/>
	<path style="fill:#231F20;" d="M8.6,14.5v-1.3L9.9,13v-1.2H5.2l-0.1-1l4.7-7.5h2.1v7.1h1.3v1.4h-1.3V13l1.2,0.2v1.3H8.6z  M7.1,10.5h2.8V6.2l0,0L9.6,6.5L7.1,10.5z"/>
	<path style="display:inline;opacity:0.3;fill:url(#SVGID_462_);enable-background:new    ;" d="M0,101v16.6c0,3,2.4,5.3,5.4,5.3 h79.3c3,0,5.4-2.4,5.4-5.3V42.2C48.6,44,13.7,67.9,0,101z"/>
	<path style="display:inline;fill:url(#SVGID_463_);" d="M36.2,13.6c-2.9-3.5-5-5.2-6.9-7l0,0l0,0l0,0c-1.5,1.5-3.8,3.5-6.9,7 c-4.5,4.8-0.3,12.7,5.7,9c-0.4,2.6-1.8,3-3.2,3.8v0.8h8.7v-0.8c-1.4-0.8-2.8-1.2-3.2-3.8C36.6,26.4,41.6,19.2,36.2,13.6L36.2,13.6z "/>
	<path style="display:inline;fill:url(#SVGID_464_);" d="M69.8,13.6c-2.9-3.5-5-5.2-6.9-7l0,0l0,0l0,0c-1.5,1.5-3.8,3.5-6.9,7 c-4.5,4.8-0.3,12.7,5.7,9c-0.4,2.6-1.8,3-3.2,3.8v0.8h8.7v-0.8c-1.4-0.8-2.8-1.2-3.2-3.8C70.2,26.4,75.2,19.2,69.8,13.6L69.8,13.6z "/>
	<path style="display:inline;fill:url(#SVGID_465_);" d="M56.4,109.4c2.9,3.5,5,5.2,6.9,7l0,0l0,0l0,0c1.5-1.5,3.8-3.5,6.9-7 c4.5-4.8,0.3-12.7-5.7-9c0.4-2.6,1.8-3,3.2-3.8v-0.8H59v0.8c1.4,0.8,2.8,1.2,3.2,3.8C56.1,96.6,51.1,103.8,56.4,109.4L56.4,109.4z" />
	<path style="display:inline;fill:url(#SVGID_466_);" d="M22.9,109.4c2.9,3.5,5,5.2,6.9,7l0,0l0,0l0,0c1.5-1.5,3.8-3.5,6.9-7 c4.5-4.8,0.3-12.7-5.7-9c0.4-2.6,1.8-3,3.2-3.8v-0.8h-8.7v0.8c1.4,0.8,2.8,1.2,3.2,3.8C22.5,96.6,17.5,103.8,22.9,109.4L22.9,109.4 z"/>
</svg>
