
<svg id="S5" viewBox="0 0 90 123" xmlns="http://www.w3.org/2000/svg">
		<linearGradient id="SVGID_467_" gradientUnits="userSpaceOnUse" x1="45.05" y1="123" x2="45.05" y2="0" gradientTransform="matrix(1 0 0 -1 0 123)">
		<stop  offset="0" style="stop-color:#F5F5F5"/>
		<stop  offset="1" style="stop-color:#D1D1D1"/>
	</linearGradient>
	<path style="display:inline;fill:url(#SVGID_467_);" d="M90,117.7c0,3-2.4,5.3-5.4,5.3H5.4c-3,0-5.4-2.4-5.4-5.3V5.3
		C0,2.4,2.4,0,5.4,0h79.3c3,0,5.4,2.4,5.4,5.3v112.4H90z"/>
	
		<linearGradient id="SVGID_468_" gradientUnits="userSpaceOnUse" x1="9.3114" y1="105.1449" x2="9.3114" y2="93.0523" gradientTransform="matrix(1 0 0 -1 0 123)">
		<stop  offset="0" style="stop-color:#4A4A4C"/>
		<stop  offset="0.3" style="stop-color:#404041"/>
		<stop  offset="1" style="stop-color:#231F20"/>
	</linearGradient>
	<path style="display:inline;fill:url(#SVGID_468_);" d="M13.2,22c-1.7-2-2.9-3-4-4.1l0,0l0,0l0,0c-0.9,0.9-2.2,2-4,4.1
		c-2.6,2.8-0.2,7.4,3.3,5.2c-0.2,1.5-1,1.8-1.8,2.2v0.5h5.1v-0.5c-0.8-0.5-1.6-0.7-1.8-2.2C13.4,29.5,16.3,25.3,13.2,22L13.2,22z"/>
	<g style="display:inline;">
		<path style="fill:#231F20;" d="M9.2,14.7c-0.7,0-1.3-0.1-1.8-0.4c-0.6-0.2-1-0.6-1.3-1.1s-0.5-1-0.5-1.7l0,0l2-0.1
			c0,0.5,0.1,0.9,0.4,1.2C8.3,12.9,8.7,13,9.2,13s1-0.2,1.2-0.6c0.3-0.4,0.4-0.9,0.4-1.5c0-0.7-0.1-1.2-0.4-1.6
			C10.2,9,9.7,8.8,9.2,8.8S8.4,8.9,8.2,9C7.9,9.2,7.7,9.4,7.6,9.7L5.8,9.6l0.6-6.2h6.3v2.5h-1.3l-0.2-0.8h-3L7.8,7.8
			C8,7.7,8.1,7.6,8.3,7.5s0.4-0.1,0.6-0.2c0.2-0.1,0.4-0.1,0.7-0.1c0.7,0,1.3,0.1,1.8,0.4s0.9,0.7,1.2,1.3s0.4,1.2,0.4,2
			c0,0.7-0.1,1.4-0.4,1.9c-0.3,0.6-0.7,1-1.3,1.3C10.7,14.5,10,14.7,9.2,14.7z"/>
	</g>
	
		<linearGradient id="SVGID_469_" gradientUnits="userSpaceOnUse" x1="45.05" y1="80.8" x2="45.05" y2="0.1" gradientTransform="matrix(1 0 0 -1 0 123)">
		<stop  offset="0" style="stop-color:#D0D2D3"/>
		<stop  offset="1" style="stop-color:#CCCECF"/>
	</linearGradient>
	<path style="display:inline;opacity:0.3;fill:url(#SVGID_469_);enable-background:new    ;" d="M0,101v16.6c0,3,2.4,5.3,5.4,5.3
		h79.3c3,0,5.4-2.4,5.4-5.3V42.2C48.6,44,13.7,67.9,0,101z"/>
	
		<linearGradient id="SVGID_470_" gradientUnits="userSpaceOnUse" x1="29.506" y1="116.4803" x2="29.506" y2="95.8078" gradientTransform="matrix(1 0 0 -1 0 123)">
		<stop  offset="0" style="stop-color:#4A4A4C"/>
		<stop  offset="0.3" style="stop-color:#404041"/>
		<stop  offset="1" style="stop-color:#231F20"/>
	</linearGradient>
	<path style="display:inline;fill:url(#SVGID_470_);" d="M36.2,13.6c-2.9-3.5-5-5.2-6.9-7l0,0l0,0l0,0c-1.5,1.5-3.8,3.5-6.9,7
		c-4.5,4.8-0.3,12.7,5.7,9c-0.4,2.6-1.8,3-3.2,3.8v0.8h8.7v-0.8c-1.4-0.8-2.8-1.2-3.2-3.8C36.6,26.4,41.6,19.2,36.2,13.6L36.2,13.6z
		"/>
	
		<linearGradient id="SVGID_471_" gradientUnits="userSpaceOnUse" x1="63.106" y1="116.4803" x2="63.106" y2="95.8078" gradientTransform="matrix(1 0 0 -1 0 123)">
		<stop  offset="0" style="stop-color:#4A4A4C"/>
		<stop  offset="0.3" style="stop-color:#404041"/>
		<stop  offset="1" style="stop-color:#231F20"/>
	</linearGradient>
	<path style="display:inline;fill:url(#SVGID_471_);" d="M69.8,13.6c-2.9-3.5-5-5.2-6.9-7l0,0l0,0l0,0c-1.5,1.5-3.8,3.5-6.9,7
		c-4.5,4.8-0.3,12.7,5.7,9c-0.4,2.6-1.8,3-3.2,3.8v0.8h8.7v-0.8c-1.4-0.8-2.8-1.2-3.2-3.8C70.2,26.4,75.2,19.2,69.8,13.6L69.8,13.6z
		"/>
	
		<linearGradient id="SVGID_472_" gradientUnits="userSpaceOnUse" x1="46.306" y1="71.836" x2="46.306" y2="51.1635" gradientTransform="matrix(1 0 0 -1 0 123)">
		<stop  offset="0" style="stop-color:#4A4A4C"/>
		<stop  offset="0.3" style="stop-color:#404041"/>
		<stop  offset="1" style="stop-color:#231F20"/>
	</linearGradient>
	<path style="display:inline;fill:url(#SVGID_472_);" d="M53,58.2c-2.9-3.5-5-5.2-6.9-7l0,0l0,0l0,0c-1.5,1.5-3.8,3.5-6.9,7
		c-4.5,4.8-0.3,12.7,5.7,9c-0.4,2.6-1.8,3-3.2,3.8v0.8h8.7V71c-1.4-0.8-2.8-1.2-3.2-3.8C53.4,71,58.4,63.8,53,58.2L53,58.2z"/>
	
		<linearGradient id="SVGID_473_" gradientUnits="userSpaceOnUse" x1="63.1254" y1="27.2" x2="63.1254" y2="6.5274" gradientTransform="matrix(1 0 0 -1 0 123)">
		<stop  offset="0" style="stop-color:#4A4A4C"/>
		<stop  offset="0.3" style="stop-color:#404041"/>
		<stop  offset="1" style="stop-color:#231F20"/>
	</linearGradient>
	<path style="display:inline;fill:url(#SVGID_473_);" d="M56.4,109.4c2.9,3.5,5,5.2,6.9,7l0,0l0,0l0,0c1.5-1.5,3.8-3.5,6.9-7
		c4.5-4.8,0.3-12.7-5.7-9c0.4-2.6,1.8-3,3.2-3.8v-0.8H59v0.8c1.4,0.8,2.8,1.2,3.2,3.8C56.1,96.6,51.1,103.8,56.4,109.4L56.4,109.4z"
		/>
	
		<linearGradient id="SVGID_474_" gradientUnits="userSpaceOnUse" x1="29.594" y1="27.2" x2="29.594" y2="6.5274" gradientTransform="matrix(1 0 0 -1 0 123)">
		<stop  offset="0" style="stop-color:#4A4A4C"/>
		<stop  offset="0.3" style="stop-color:#404041"/>
		<stop  offset="1" style="stop-color:#231F20"/>
	</linearGradient>
	<path style="display:inline;fill:url(#SVGID_474_);" d="M22.9,109.4c2.9,3.5,5,5.2,6.9,7l0,0l0,0l0,0c1.5-1.5,3.8-3.5,6.9-7
		c4.5-4.8,0.3-12.7-5.7-9c0.4-2.6,1.8-3,3.2-3.8v-0.8h-8.7v0.8c1.4,0.8,2.8,1.2,3.2,3.8C22.5,96.6,17.5,103.8,22.9,109.4L22.9,109.4
		z"/>
</svg>
