
<svg id="SA" viewBox="0 0 90 123" xmlns="http://www.w3.org/2000/svg">
	<filter x="-10%" y="-10%" width="120%" height="120%" filterUnits="objectBoundingBox" id="ds">
		<feOffset dx="0" dy="2" in="SourceAlpha" result="shadowOffsetOuter2"/>
		<feGaussianBlur stdDeviation="1.5" in="shadowOffsetOuter2" result="shadowBlurOuter2"/>
		<feColorMatrix values="0.2 0 0 0 0 0 0.2 0 0 0 0 0 0.2 0 0 0 0 0 0.75 0" type="matrix" in="shadowBlurOuter2" result="shadowMatrixOuter2"/>
		<feMerge>
			<feMergeNode in="shadowMatrixOuter2"/>
			<feMergeNode in="SourceGraphic"/>
		</feMerge>
	</filter>
	<linearGradient id="SVGID_445_" gradientUnits="userSpaceOnUse" x1="45.05" y1="123" x2="45.05" y2="0" gradientTransform="matrix(1 0 0 -1 0 123)">
		<stop  offset="0" style="stop-color:#F5F5F5"/>
		<stop  offset="1" style="stop-color:#D1D1D1"/>
	</linearGradient>
	<linearGradient id="SVGID_446_" gradientUnits="userSpaceOnUse" x1="9.243" y1="105.1449" x2="9.243" y2="93.0523" gradientTransform="matrix(1 0 0 -1 0 123)">
		<stop  offset="0" style="stop-color:#4A4A4C"/>
		<stop  offset="0.3" style="stop-color:#404041"/>
		<stop  offset="1" style="stop-color:#231F20"/>
	</linearGradient>
	<linearGradient id="SVGID_447_" gradientUnits="userSpaceOnUse" x1="45.05" y1="80.8" x2="45.05" y2="0.1" gradientTransform="matrix(1 0 0 -1 0 123)">
		<stop  offset="0" style="stop-color:#D0D2D3"/>
		<stop  offset="1" style="stop-color:#CCCECF"/>
	</linearGradient>
	<linearGradient id="SVGID_448_" gradientUnits="userSpaceOnUse" x1="44.8506" y1="84.5716" x2="44.8506" y2="38.4716" gradientTransform="matrix(1 0 0 -1 0 123)">
		<stop  offset="0" style="stop-color:#4A4A4C"/>
		<stop  offset="0.3" style="stop-color:#404041"/>
		<stop  offset="1" style="stop-color:#231F20"/>
	</linearGradient>
	<path style="fill:url(#SVGID_445_);" d="M90,117.7c0,3-2.4,5.3-5.4,5.3H5.4c-3,0-5.4-2.4-5.4-5.3V5.3 C0,2.4,2.4,0,5.4,0h79.3c3,0,5.4,2.4,5.4,5.3v112.4H90z"/>
	<path style="fill:url(#SVGID_446_);" d="M13.1,22c-1.7-2-2.9-3-4-4.1l0,0l0,0l0,0c-0.9,0.9-2.2,2-4,4.1 c-2.6,2.8-0.2,7.4,3.3,5.2c-0.2,1.5-1,1.8-1.8,2.2v0.5h5.1v-0.5c-0.8-0.5-1.6-0.7-1.8-2.2C13.4,29.5,16.3,25.3,13.1,22L13.1,22z"/>
	<path style="fill:#231F20;" d="M3.8,14.5v-1.3l0.8-0.1l3.6-9.8h2.1l3.6,9.8l0.8,0.1v1.3H11v-1.3l0.8-0.1l-0.5-1.6H7.2l-0.5,1.6 l0.8,0.1v1.3H3.8z M7.7,9.9h3L9.4,6L9.3,5.6l0,0L9.1,6L7.7,9.9z"/>
	<path style="opacity:0.3;fill:url(#SVGID_447_);enable-background:new    ;" d="M0,101v16.6c0,3,2.4,5.3,5.4,5.3 h79.3c3,0,5.4-2.4,5.4-5.3V42.2C48.6,44,13.7,67.9,0,101z"/>
	<path style="fill:url(#SVGID_448_);" filter="url(#ds)" d="M59.8,54.2c-6.6-7.8-11.1-11.6-15.4-15.7l0,0l0,0l0,0 c-3.3,3.4-8.6,7.8-15.4,15.7c-10,10.6-0.7,28.3,12.8,20c-0.9,5.9-4,6.7-7.1,8.5v1.9H54v-1.9c-3-1.9-6-2.7-6.9-8.6 C60.6,82.7,71.8,66.6,59.8,54.2L59.8,54.2z"/>
</svg>
