
<svg id="SK" viewBox="0 0 90 123" xmlns="http://www.w3.org/2000/svg">
	<linearGradient id="SVGID_579_" gradientUnits="userSpaceOnUse" x1="45" y1="0" x2="45" y2="123">
		<stop  offset="0" style="stop-color:#F5F5F5"/>
		<stop  offset="1" style="stop-color:#D1D1D1"/>
	</linearGradient>
	<linearGradient id="SVGID_580_" gradientUnits="userSpaceOnUse" x1="9.2373" y1="17.8551" x2="9.2373" y2="29.9477">
		<stop  offset="0" style="stop-color:#4A4A4C"/>
		<stop  offset="0.3" style="stop-color:#404041"/>
		<stop  offset="1" style="stop-color:#231F20"/>
	</linearGradient>
	<linearGradient id="SVGID_581_" gradientUnits="userSpaceOnUse" x1="45" y1="42.2251" x2="45" y2="123">
		<stop  offset="0" style="stop-color:#D0D2D3"/>
		<stop  offset="1" style="stop-color:#CCCECF"/>
	</linearGradient>
	<linearGradient id="SVGID_582_" gradientUnits="userSpaceOnUse" x1="46.4145" y1="14.9337" x2="46.4145" y2="104.4622">
		<stop  offset="0" style="stop-color:#FFFFFF"/>
		<stop  offset="0.9995" style="stop-color:#BBBDBF"/>
	</linearGradient>
	<linearGradient id="SVGID_583_" gradientUnits="userSpaceOnUse" x1="57.3723" y1="39.4814" x2="57.3723" y2="62.9153">
		<stop  offset="0" style="stop-color:#25A9E0"/>
		<stop  offset="0.9995" style="stop-color:#1B75BB"/>
	</linearGradient>
	<linearGradient id="SVGID_584_" gradientUnits="userSpaceOnUse" x1="38.3655" y1="24.8542" x2="58.686" y2="24.8542">
		<stop  offset="0" style="stop-color:#25A9E0"/>
		<stop  offset="0.9995" style="stop-color:#1B75BB"/>
	</linearGradient>
	<linearGradient id="SVGID_585_" gradientUnits="userSpaceOnUse" x1="50.1524" y1="42.0501" x2="50.1524" y2="52.3424">
		<stop  offset="0" style="stop-color:#1B75BB"/>
		<stop  offset="0.9995" style="stop-color:#2B388F"/>
	</linearGradient>
	<linearGradient id="SVGID_586_" gradientUnits="userSpaceOnUse" x1="36.6201" y1="41.114" x2="36.6201" y2="66.5763">
		<stop  offset="0" style="stop-color:#D0D2D3"/>
		<stop  offset="0.9995" style="stop-color:#6D6E70"/>
	</linearGradient>
	<linearGradient id="SVGID_587_" gradientUnits="userSpaceOnUse" x1="43.4904" y1="95.0861" x2="43.4904" y2="110.031">
		<stop  offset="0" style="stop-color:#F9EC31"/>
		<stop  offset="0.9995" style="stop-color:#C3996B"/>
	</linearGradient>
	<linearGradient id="SVGID_588_" gradientUnits="userSpaceOnUse" x1="49.3027" y1="9.6753" x2="49.3027" y2="24.6214">
		<stop  offset="0" style="stop-color:#F9EC31"/>
		<stop  offset="0.9995" style="stop-color:#C3996B"/>
	</linearGradient>
	<linearGradient id="SVGID_589_" gradientUnits="userSpaceOnUse" x1="35.4084" y1="56.5419" x2="35.4084" y2="79.9771">
		<stop  offset="0" style="stop-color:#25A9E0"/>
		<stop  offset="0.9995" style="stop-color:#1B75BB"/>
	</linearGradient>
	<linearGradient id="SVGID_590_" gradientUnits="userSpaceOnUse" x1="54.4273" y1="94.6061" x2="34.1068" y2="94.6061">
		<stop  offset="0" style="stop-color:#25A9E0"/>
		<stop  offset="0.9995" style="stop-color:#1B75BB"/>
	</linearGradient>
	<linearGradient id="SVGID_591_" gradientUnits="userSpaceOnUse" x1="56.1297" y1="52.9142" x2="56.1297" y2="78.6297">
		<stop  offset="0" style="stop-color:#D0D2D3"/>
		<stop  offset="0.9995" style="stop-color:#6D6E70"/>
	</linearGradient>
	<linearGradient id="SVGID_592_" gradientUnits="userSpaceOnUse" x1="42.6407" y1="67.1174" x2="42.6407" y2="77.4097">
		<stop  offset="0" style="stop-color:#1B75BB"/>
		<stop  offset="0.9995" style="stop-color:#2B388F"/>
	</linearGradient>
	<path style="fill:url(#SVGID_579_);" d="M90,117.652c0,2.953-2.406,5.348-5.373,5.348H5.373 C2.406,123,0,120.606,0,117.652V5.348C0,2.394,2.406,0,5.373,0h79.254C87.594,0,90,2.394,90,5.348V117.652z"/>
	<path style="fill:url(#SVGID_580_);" d="M13.15,21.975c-1.718-2.043-2.908-3.032-4.029-4.12l0,0l0,0l0,0 c-0.867,0.901-2.245,2.048-4.028,4.12c-2.614,2.79-0.176,7.418,3.345,5.239c-0.235,1.534-1.036,1.757-1.848,2.238v0.495h5.062 v-0.495c-0.813-0.482-1.614-0.704-1.848-2.238C13.355,29.468,16.278,25.251,13.15,21.975L13.15,21.975z"/>
	<polygon style="fill:#231F20;" points="13.7,13.1 10.1,8.2 13.4,4.8 14.4,4.6 14.4,3.4 10,3.4 10,4.6 11.1,4.7  11.1,4.8 7.1,8.9 7.1,4.9 8.3,4.6 8.3,3.4 3.8,3.4 3.8,4.6 5,4.9 5,13 3.8,13.3 3.8,14.5 8.3,14.5 8.3,13.3 7.1,13 7.1,11.3  8.7,9.6 11.3,13.2 11.3,13.2 10.3,13.3 10.3,14.5 14.8,14.5 14.8,13.3 	"/>
	<path style="opacity:0.3;fill:url(#SVGID_581_);" d="M0,101.015v16.637C0,120.606,2.406,123,5.373,123h79.254 c2.967,0,5.373-2.394,5.373-5.348V42.225C48.61,43.994,13.744,67.932,0,101.015z"/>
	<path style="fill:url(#SVGID_582_);" d="M74.235,103.491c0,0.738-0.181,0.969-0.923,0.969l-53.785,0.002 c-0.742,0-0.933-0.233-0.933-0.971v-87.46c0-0.738,0.182-1.097,0.924-1.097h53.604c0.742,0,1.113,0.359,1.113,1.097V103.491z"/>
	<path style="fill:#AA3040;" d="M59.901,73.721l4.484-1.836c1.009-4.625,6.474-10.25,9.535-11.508v-3.908 C67.295,59.303,60.308,69.77,59.901,73.721z"/>
	<path style="fill:#D64656;" d="M65.159,71.569l2.892-1.184c0.533-2.052,3.898-5.826,5.869-6.918v-2.365 C71.067,62.447,66.318,67.461,65.159,71.569z"/>
	<path style="fill:#25A9E0;" d="M61.8,77.006c2.187-1.344,5.569-3.357,8.237-4.936c0.003-0.002,0.003-0.006,0.006-0.007 c0.003-0.001,0.005,0.001,0.008-0.001c1.87-1.107,3.372-1.99,3.869-2.282v-1.074l-13.805,5.651 C60.753,75.489,61.348,76.395,61.8,77.006z"/>
	<path style="fill:#F1717A;" d="M68.887,70.043l5.033-2.06v-3.74C72.145,65.387,69.655,68.268,68.887,70.043z"/>
	<path style="fill:url(#SVGID_583_);" d="M72.255,45.641c-0.008-0.007-0.014-0.012-0.022-0.02l-2.687-2.517 c-0.005-0.005-0.009-0.007-0.013-0.012l-3.854-3.609H47.056c-0.244,0.449-0.587,0.845-0.954,1.144 c-0.567,0.463-1.319,0.826-1.983,0.826c-0.148,0-0.289-0.024-0.426-0.063c-0.58,0.716-1.293,1.137-1.931,1.378 c-0.308,0.116-0.624,0.194-0.938,0.251c0.166,0.894,0.337,2.015,0.502,3.313c2.892-0.145,7.216-2.402,7.943-4.715l0.074-0.234 h10.819l-0.357,0.522c-1.885,2.761-7.041,10.322-4.397,21.011c-0.152-1.088-0.243-2.195-0.243-3.315 c0-2.565,0.645-5.179,1.609-7.612c0.001-0.006,0.007-0.01,0.008-0.017c2.089-5.262,5.673-9.668,7.477-10.854l0.222-0.146 l9.439,8.893V47.2L72.255,45.641z"/>
	<path style="fill:#F1717A;" d="M62.498,43.702l9.782,12.836c0.546-0.309,1.094-0.581,1.64-0.803v-4.95l-9.507-8.958 C63.88,42.223,63.216,42.871,62.498,43.702z"/>
	<path style="fill:url(#SVGID_584_);" d="M46.977,24.621c1.795,0.072,3.488,0.838,5.126,1.578c1.484,0.671,2.886,1.305,4.157,1.305 h2.426v-2.267c-0.399,0.027-0.798,0.053-1.17,0.053c-0.579,0-1.098-0.041-1.593-0.099c-0.006,0-0.01,0.007-0.016,0.007 c-0.012,0-0.018-0.011-0.029-0.012c-2.111-0.256-3.529-0.971-4.797-1.624c-1.354-0.698-2.634-1.356-4.588-1.356 c-1.126,0-6.503,0.287-8.127,0.375l0.869,2.035C40.207,24.591,44.067,24.508,46.977,24.621z"/>
	<path style="fill:#FFFFFF;" d="M51.205,38.813c-0.016-3.126-0.502-4.368-1.018-5.67c-0.599-1.513-1.216-3.089-1.235-7.471 c-0.662-0.201-1.328-0.356-2.002-0.383c-0.803-0.032-1.678-0.049-2.545-0.055c1.222,0.593,2,1.508,2.345,1.92 c0.119,0.142,0.1,0.352-0.043,0.471c-0.063,0.052-0.139,0.078-0.215,0.078c-0.096,0-0.192-0.041-0.258-0.12 c-0.895-1.068-2.369-2.465-4.758-2.194c-0.119,0.014-0.215-0.052-0.285-0.142c-0.812,0.011-1.455,0.026-1.825,0.035 c0.22,3.336-0.613,6.177-1.37,7.336c0.275,0.44,0.64,0.731,1.086,0.866c0.626,0.189,1.389,0.061,2.197-0.374 c0.162-0.088,0.366-0.028,0.455,0.134c0.089,0.163,0.028,0.365-0.135,0.453c-0.665,0.359-1.316,0.541-1.918,0.541 c-0.182,0-0.352-0.042-0.525-0.076c-0.178,0.471-0.216,0.922-0.074,1.338c1.295-0.245,2.527-0.03,3.339,0.588 c0.147,0.112,0.176,0.322,0.063,0.469c-0.066,0.086-0.166,0.131-0.267,0.131c-0.072,0-0.143-0.022-0.204-0.068 c-0.466-0.355-1.337-0.617-2.445-0.493c-0.001,1.05-0.843,2.756-1.686,3.609c-0.676,0.685-1.211,0.716-1.543,0.624 c-0.417-0.118-0.745-0.492-0.977-1.118c-0.554,0.724-0.698,1.455-0.39,2.06c0.302,0.592,1.004,0.928,1.703,0.823 c1.677-0.257,4.335-1.721,4.757-3.695c0.039-0.181,0.223-0.292,0.398-0.258c0.182,0.039,0.298,0.216,0.259,0.396 c-0.361,1.692-2.037,3.017-3.659,3.717c0.737,0.219,1.953,0.289,3.095-0.141c1.072-0.406,2.395-1.396,2.613-3.808 c0.016-0.185,0.182-0.318,0.365-0.303c0.184,0.016,0.321,0.179,0.304,0.363c-0.089,0.992-0.35,1.768-0.701,2.386 c0.439,0.006,1.044-0.24,1.572-0.671c0.67-0.547,1.276-1.458,0.969-2.377c-0.432-1.289,0.064-2.042,0.397-2.376 c0.55-0.55,1.327-0.691,1.777-0.546c0.176,0.057,0.272,0.246,0.215,0.422c-0.058,0.176-0.247,0.27-0.424,0.214 c-0.216-0.071-0.734,0.024-1.091,0.382c-0.394,0.394-0.476,0.98-0.237,1.693c0.149,0.446,0.144,0.883,0.041,1.293H51.205z  M45.547,29.697c-1.291,0.954-2.319,1.424-3.272,1.505c-0.02,0.004-0.037,0.022-0.058,0.022c-0.011,0-0.018-0.011-0.028-0.012 c-0.065,0.004-0.134,0.024-0.199,0.024c-0.384,0-0.758-0.068-1.133-0.2c-0.175-0.061-0.267-0.253-0.205-0.426 c0.062-0.175,0.257-0.263,0.428-0.204c0.166,0.058,0.344,0.103,0.535,0.131c-0.296-0.715-0.215-1.599,0.092-2.348 c-0.231-0.011-0.457-0.005-0.665,0.042c-0.186,0.043-0.361-0.072-0.401-0.252c-0.041-0.18,0.072-0.359,0.253-0.4 c1.686-0.382,3.882,0.858,4.683,1.607l0.293,0.274L45.547,29.697z"/>
	<path style="fill:#FFFFFF;" d="M42.392,30.527c0.611-0.094,1.373-0.401,2.407-1.118c-0.576-0.43-1.489-0.911-2.385-1.122 C42.068,29.008,41.97,29.931,42.392,30.527z"/>
	<path style="fill:#BBBDBF;" d="M65.8,31.443c0.995-1.188,2.368-2.152,3.638-2.303v-2.694c-1.587-0.423-2.767-1.17-3.594-2.286 c-0.846,0.717-1.398,2.115-1.415,3.652C64.412,29.339,64.931,30.654,65.8,31.443z"/>
	<path style="fill:#D64656;" d="M46.637,66.576h4.189c-0.161-2.119-0.212-4.546-0.264-6.622h-3.925V66.576z"/>
	<path style="fill:#25A9E0;" d="M46.259,66.576l-0.102-6.622H42.23c0.044,2.422-0.054,4.885-0.251,6.622H46.259z"/>
	<path style="fill:url(#SVGID_585_);" d="M58.897,42.05h-9.069c-1.014,2.55-5.332,4.777-8.419,4.947 c0.196,1.618,0.38,3.439,0.534,5.346h9.116c0.007,0.001,0.012-0.007,0.02-0.005c0.004,0.001,0.005,0.005,0.009,0.005h3.361 C55.393,47.536,57.589,43.991,58.897,42.05z M45.482,51.503c-1.095,0-1.986-0.887-1.986-1.976c0-1.09,0.891-1.977,1.986-1.977 s1.986,0.887,1.986,1.977C47.468,50.616,46.577,51.503,45.482,51.503z M51.174,45.168c-0.315,0-0.571-0.255-0.571-0.569 c0-0.313,0.257-0.569,0.571-0.569c0.315,0,0.571,0.255,0.571,0.569C51.745,44.913,51.489,45.168,51.174,45.168z M54.947,44.03 c0.315,0,0.571,0.255,0.571,0.569c0,0.314-0.256,0.569-0.571,0.569c-0.316,0-0.572-0.255-0.572-0.569 C54.375,44.285,54.631,44.03,54.947,44.03z"/>
	<path style="fill:#25A9E0;" d="M45.482,48.219c-0.725,0-1.314,0.587-1.314,1.308c0,0.721,0.59,1.308,1.314,1.308 c0.725,0,1.314-0.587,1.314-1.308C46.797,48.805,46.207,48.219,45.482,48.219z"/>
	<path style="fill:#25A9E0;" d="M46.637,52.914v6.601h3.862c-0.045-2.423,0.029-4.862,0.227-6.601H46.637z"/>
	<path style="fill:url(#SVGID_586_);" d="M33.37,45.142c0.001,0.001-0.001,0.003,0,0.005c0.791,1.443,1.625,3.207,2.342,5.181 c0.003,0.005,0.009,0.005,0.011,0.01c3.044,6.237,3.389,11.677,2.645,16.111l3.127,0.127c0.769-6.077-0.517-18.594-1.433-23.489 c-0.134,0.009-0.274,0.033-0.405,0.033c-0.945,0-1.751-0.224-2.195-0.516c-0.272,0.08-0.534,0.141-0.779,0.179 c-0.125,0.019-0.25,0.029-0.372,0.029c-0.861,0-1.648-0.458-2.031-1.21c-0.08-0.157-0.131-0.321-0.169-0.488l-2.6,1.043 c0.502,0.691,1.157,1.707,1.854,2.979C33.366,45.139,33.369,45.139,33.37,45.142z M38.864,52.208 c-0.315,0-0.571-0.255-0.571-0.569c0-0.313,0.257-0.569,0.571-0.569c0.316,0,0.572,0.255,0.572,0.569 C39.436,51.953,39.18,52.208,38.864,52.208z M39.848,55.888c0.315,0,0.571,0.255,0.571,0.569c0,0.314-0.256,0.57-0.571,0.57 c-0.315,0-0.572-0.256-0.572-0.57C39.276,56.144,39.532,55.888,39.848,55.888z M37.506,44.379c1.064,0,1.93,0.861,1.93,1.92 c0,1.059-0.866,1.92-1.93,1.92c-1.064,0-1.929-0.861-1.929-1.92C35.577,45.24,36.442,44.379,37.506,44.379z"/>
	<path style="fill:#25A9E0;" d="M37.6,47.55c0.694,0,1.258-0.561,1.258-1.251c0-0.69-0.564-1.252-1.258-1.252 c-0.693,0-1.257,0.561-1.257,1.252C36.343,46.989,36.907,47.55,37.6,47.55z"/>
	<path style="fill:#D64656;" d="M20.947,62.556l9.73,12.836c0.494-0.608,1.065-1.452,1.574-2.207l-9.277-11.956 C22.38,61.691,21.553,62.185,20.947,62.556z"/>
	<path style="fill:#AA3040;" d="M35.296,67.487l-8.217-10.195c-1.145,1.319-2.558,2.609-3.844,3.67l9.402,11.627 C33.608,71.078,34.542,69.344,35.296,67.487z"/>
	<path style="fill:#FFFFFF;" d="M54.363,77.177c-0.738-0.219-1.953-0.29-3.091,0.14c-1.073,0.405-2.398,1.395-2.616,3.808 c-0.016,0.174-0.162,0.304-0.334,0.304c-0.01,0-0.02-0.001-0.031-0.001c-0.184-0.016-0.321-0.179-0.304-0.363 c0.09-0.992,0.351-1.768,0.702-2.386c-0.44-0.007-1.046,0.24-1.573,0.671c-0.67,0.547-1.276,1.458-0.968,2.377 c0.432,1.289-0.064,2.043-0.399,2.377c-0.416,0.417-0.963,0.599-1.399,0.599c-0.14,0-0.268-0.019-0.378-0.054 c-0.176-0.058-0.272-0.247-0.215-0.422c0.058-0.176,0.249-0.27,0.424-0.214c0.222,0.075,0.735-0.023,1.092-0.38 c0.394-0.394,0.476-0.981,0.237-1.694c-0.149-0.447-0.144-0.884-0.041-1.294h-3.882c0.016,3.127,0.501,4.368,1.018,5.67 c0.6,1.512,1.216,3.089,1.235,7.472c0.662,0.201,1.328,0.356,2.001,0.382c0.804,0.031,1.681,0.048,2.549,0.054 c-1.224-0.592-2.003-1.506-2.349-1.919c-0.119-0.142-0.1-0.353,0.043-0.471c0.142-0.119,0.354-0.101,0.473,0.042 c0.895,1.068,2.356,2.46,4.758,2.195c0.115-0.01,0.211,0.053,0.282,0.14c0.813-0.011,1.458-0.025,1.828-0.034 c-0.22-3.335,0.614-6.176,1.37-7.335c-0.274-0.44-0.638-0.731-1.085-0.866c-0.63-0.191-1.389-0.063-2.199,0.373 c-0.163,0.088-0.367,0.028-0.455-0.135c-0.089-0.163-0.028-0.365,0.135-0.453c0.868-0.467,1.704-0.617,2.446-0.473 c0.175-0.468,0.213-0.916,0.072-1.329c-0.018,0.003-0.035,0.002-0.053,0.005c-0.02,0.004-0.041,0.009-0.061,0.009 c-0.003,0-0.004-0.002-0.007-0.002c-1.25,0.206-2.433-0.003-3.219-0.601c-0.148-0.112-0.175-0.322-0.063-0.469 c0.114-0.148,0.324-0.174,0.471-0.063c0.465,0.354,1.335,0.615,2.444,0.493c0.002-1.052,0.844-2.756,1.686-3.609 c0.676-0.686,1.213-0.717,1.543-0.624c0.417,0.118,0.745,0.493,0.977,1.118c0.554-0.724,0.698-1.455,0.39-2.06 c-0.302-0.591-1.008-0.924-1.702-0.822c-1.677,0.257-4.336,1.721-4.757,3.695c-0.038,0.181-0.219,0.291-0.398,0.258 c-0.182-0.039-0.298-0.216-0.259-0.396C51.066,79.201,52.742,77.876,54.363,77.177z M50.572,88.243 c0.011-0.001,0.02-0.003,0.032-0.002c0.454-0.027,0.892,0.028,1.331,0.183c0.175,0.061,0.267,0.252,0.205,0.426 c-0.061,0.175-0.253,0.268-0.428,0.205c-0.166-0.059-0.344-0.103-0.535-0.131c0.297,0.715,0.216,1.598-0.091,2.346 c0.23,0.011,0.455,0.006,0.663-0.041c0.186-0.043,0.361,0.072,0.402,0.251c0.041,0.18-0.072,0.36-0.253,0.4 c-0.216,0.049-0.441,0.071-0.671,0.071c-1.555,0-3.314-1.025-4.012-1.677l-0.294-0.274l0.323-0.238 C48.56,88.792,49.605,88.31,50.572,88.243z"/>
	<path style="fill:#FFFFFF;" d="M64.772,75.986c0.287,0.869-0.027,1.736-0.289,2.448c-0.258,0.7-0.403,1.142-0.151,1.397 c0.034,0.035,0.096,0.099,0.298,0.018c0.644-0.263,1.466-1.513,1.466-2.231c0-0.171,0.13-0.315,0.301-0.332 c0.184-0.022,0.329,0.097,0.363,0.264c0.477,2.271,1.063,3.559,1.792,3.938c0.316,0.164,0.671,0.158,1.089-0.02 c0.398-0.169,1.373-0.701,1.816-1.982c0.561-1.62,0.074-3.92-1.387-6.659C68.397,73.819,66.488,74.954,64.772,75.986z"/>
	<path style="fill:url(#SVGID_587_);" d="M54.712,97.781c-0.558,0.03-2.012,0.11-3.571,0.189l-0.672,0.033 c-1.785,0.089-3.56,0.168-4.17,0.168c-0.123,0-0.22-0.024-0.337-0.028l-0.672-0.055c-1.536-0.181-2.682-0.728-3.85-1.33 l-0.672-0.341c-1.001-0.499-2.086-0.964-3.547-1.189l-0.672-0.077c-0.399-0.038-0.815-0.065-1.271-0.065 c-0.418,0-0.857,0.018-1.309,0.053l-5.434,8.993l9.687,1.066l5.572,4.833l6.882-4.014h7.765L54.712,97.781z"/>
	<path style="fill:#FFFFFF;" d="M50.402,88.931c-0.611,0.094-1.373,0.402-2.409,1.119c0.578,0.43,1.49,0.908,2.387,1.119 C50.726,90.45,50.824,89.528,50.402,88.931z"/>
	<path style="fill:#D64656;" d="M36.955,59.859c0-5.057-1.779-9.894-3.518-13.328c-0.594,2.539-2.992,6.686-6.026,10.309 l8.229,10.132C36.47,64.75,36.955,62.185,36.955,59.859z M34.799,62.556l-0.219,0.569l-4.869-6.518l3.871-5.904l0.21,0.548 C35.543,55.065,35.609,59.749,34.799,62.556z"/>
	<path style="fill:#F1717A;" d="M30.295,56.651l4.112,5.122c0.552-2.616,0.411-6.657-0.91-9.942L30.295,56.651z"/>
	<path style="fill:#FFDD15;" d="M60.906,38.813c-0.019-2.93-0.542-4.145-1.099-5.421c-0.529-1.212-1.07-2.479-1.113-5.22H56.26 c-0.043,0-0.086-0.013-0.13-0.014c0.029,2.66,0.482,3.81,0.964,5.011c0.508,1.263,1.029,2.579,1.047,5.644H60.906z"/>
	<path style="fill:#E6E7E8;" d="M64.619,33.387c0.168-0.468,0.437-0.951,0.767-1.42c-1.032-0.913-1.648-2.425-1.629-4.163 c0.02-1.787,0.676-3.372,1.716-4.207c-0.225-0.388-0.425-0.804-0.584-1.268c-1.609,1.071-2.703,3.664-2.703,5.508 C62.186,30.392,63.383,32.5,64.619,33.387z"/>
	<polygon style="fill:#C1B49A;" points="72.141,20.509 71.124,19.846 70.11,20.486 70.11,42.713 72.141,44.616 "/>
	<path style="fill:url(#SVGID_588_);" d="M38.081,21.926c0.558-0.03,7.803-0.39,8.412-0.39c0.122,0,1.008,0.083,1.008,0.083 c1.537,0.181,2.683,0.728,3.851,1.33l0.672,0.341c1.001,0.499,2.086,0.965,3.547,1.19l0.672,0.077 c0.399,0.038,0.815,0.065,1.273,0.065c0.416,0,0.855-0.018,1.306-0.053l5.435-8.994l-9.688-1.066l-5.572-4.834l-6.883,4.015 h-7.766L38.081,21.926z"/>
	<path style="fill:#FFDD15;" d="M54.372,38.813c-0.019-2.953-0.552-4.465-1.07-5.92c-0.524-1.469-1.063-2.993-1.074-5.907 c-0.134-0.061-0.267-0.117-0.403-0.179c-0.722-0.326-1.455-0.65-2.197-0.921c0.039,4.083,0.618,5.584,1.184,7.011 c0.54,1.363,1.048,2.662,1.065,5.915H54.372z"/>
	<path style="fill:#FFDD15;" d="M57.469,38.813c-0.018-2.936-0.516-4.191-1-5.395c-0.489-1.217-0.99-2.487-1.013-5.331 c-0.83-0.131-1.677-0.425-2.551-0.8c0.045,2.592,0.521,3.958,1.029,5.383c0.537,1.509,1.089,3.075,1.108,6.144H57.469z"/>
	<path style="fill:#D64656;" d="M46.259,52.914h-4.408c0.161,2.121,0.283,4.523,0.336,6.601h4.072V52.914z"/>
	<path style="fill:#FFFFFF;" d="M28.021,43.475c-0.287-0.87,0.027-1.738,0.289-2.449c0.258-0.7,0.403-1.143,0.151-1.398 c-0.035-0.035-0.1-0.099-0.296-0.018c-0.644,0.262-1.467,1.513-1.467,2.231c0,0.171-0.13,0.315-0.301,0.332 c-0.182,0.016-0.329-0.097-0.363-0.264c-0.477-2.272-1.063-3.56-1.792-3.939c-0.315-0.163-0.673-0.157-1.09,0.021 c-0.398,0.169-1.372,0.7-1.815,1.981c-0.562,1.62-0.075,3.923,1.388,6.666C24.389,45.65,26.299,44.512,28.021,43.475z"/>
	<path style="fill:#D64656;" d="M71.696,56.878l-9.64-12.649c-0.494,0.608-1.005,1.291-1.515,2.045l9.361,11.861 C70.495,57.673,71.093,57.253,71.696,56.878z"/>
	<path style="fill:#AA3040;" d="M57.497,51.972l8.226,10.207c1.144-1.317,2.378-2.55,3.664-3.616L60.157,46.87 C59.185,48.382,58.251,50.116,57.497,51.972z"/>
	<path style="fill:#25A9E0;" d="M32.678,45.103c-0.639-1.133-1.234-2.039-1.686-2.65c-3.664,2.254-10.805,6.329-12.145,7.119v1.337 L32.678,45.103z"/>
	<path style="fill:#F1717A;" d="M23.924,49.424l-5.076,1.965v3.886C20.341,54.132,23.182,50.995,23.924,49.424z"/>
	<path style="fill:#D64656;" d="M27.631,47.901l-2.883,1.186c-0.414,1.8-4.28,5.708-5.9,6.774v2.653 C21.661,57.138,26.485,51.963,27.631,47.901z"/>
	<path style="fill:#AA3040;" d="M32.893,45.738l-4.488,1.845c-1.003,4.582-6.531,10.057-9.557,11.348v4.22 C25.529,60.263,32.5,49.748,32.893,45.738z"/>
	<path style="fill:#F1717A;" d="M28.356,77.759c0.533-0.395,1.221-1.171,1.939-2.002l-9.786-12.841 c-0.484,0.27-1.177,0.473-1.661,0.673v5.243L28.356,77.759z"/>
	<path style="fill:url(#SVGID_589_);" d="M27.114,79.977h18.624c0.244-0.449,0.586-0.844,0.953-1.143 c0.694-0.567,1.663-0.979,2.412-0.766c0.58-0.715,1.292-1.135,1.931-1.376c0.308-0.117,0.622-0.191,0.936-0.249 c-0.166-0.894-0.337-2.016-0.502-3.315c-2.891,0.145-7.216,2.402-7.944,4.715l-0.074,0.234H32.63l0.357-0.522 c1.885-2.761,7.041-10.324,4.397-21.014c0.152,1.088,0.243,2.197,0.243,3.318c0,2.566-0.645,5.179-1.608,7.611 c-0.001,0.005-0.005,0.009-0.006,0.014c-1.363,3.435-3.359,6.496-5.086,8.543c-0.001,0.001-0.001,0.003-0.002,0.003 c-0.001,0.001-0.001,0-0.001,0.001c-0.919,1.089-1.763,1.898-2.389,2.31l-0.223,0.146l-9.463-8.955v2.831L27.114,79.977z"/>
	<polygon style="fill:#C1B49A;" points="20.651,98.95 21.67,99.614 22.683,98.973 22.683,76.726 20.651,74.812 "/>
	<path style="fill:#BBBDBF;" d="M26.993,88.017c-0.996,1.188-2.368,2.152-3.639,2.303v2.694c1.587,0.423,2.766,1.171,3.594,2.286 c0.845-0.717,1.398-2.115,1.415-3.651C28.381,90.121,27.862,88.806,26.993,88.017z"/>
	<path style="fill:#E6E7E8;" d="M28.175,86.072c-0.168,0.467-0.437,0.951-0.768,1.42c1.032,0.914,1.648,2.426,1.629,4.164 c-0.02,1.787-0.676,3.371-1.716,4.206c0.225,0.388,0.425,0.804,0.584,1.268c1.609-1.071,2.703-3.664,2.703-5.508 C30.606,89.068,29.41,86.96,28.175,86.072z"/>
	<path style="fill:#FFDD15;" d="M35.323,80.646c0.018,2.937,0.516,4.192,1,5.397c0.489,1.218,0.992,2.486,1.014,5.332 c0.83,0.131,1.677,0.425,2.551,0.8c-0.045-2.592-0.521-3.958-1.029-5.384c-0.537-1.508-1.089-3.075-1.108-6.144H35.323z"/>
	<path style="fill:#FFDD15;" d="M31.888,80.646c0.019,2.93,0.542,4.146,1.099,5.422c0.529,1.212,1.069,2.48,1.112,5.221h2.434 c0.043,0,0.087,0.013,0.13,0.014c-0.029-2.66-0.481-3.81-0.964-5.012c-0.508-1.263-1.03-2.579-1.048-5.645H31.888z"/>
	<path style="fill:url(#SVGID_590_);" d="M36.87,94.269c0.006,0,0.01-0.007,0.016-0.007c0.012,0,0.018,0.011,0.029,0.012 c2.111,0.255,3.529,0.971,4.797,1.624c1.354,0.698,2.633,1.357,4.587,1.357c1.126,0,6.503-0.288,8.127-0.376l-0.87-2.035 c-0.972,0.024-4.83,0.108-7.742-0.006c-1.795-0.071-3.489-0.836-5.126-1.577c-1.484-0.67-2.885-1.304-4.156-1.304h-2.426v2.266 c0.399-0.027,0.799-0.053,1.173-0.053C35.857,94.17,36.376,94.211,36.87,94.269z"/>
	<path style="fill:#FFDD15;" d="M40.565,92.475c0.134,0.06,0.266,0.117,0.402,0.178c0.722,0.326,1.456,0.651,2.198,0.92 c-0.039-4.084-0.618-5.584-1.185-7.012c-0.54-1.363-1.048-2.661-1.064-5.916h-2.495c0.019,2.954,0.552,4.466,1.07,5.921 C40.015,88.036,40.554,89.56,40.565,92.475z"/>
	<path style="fill:url(#SVGID_591_);" d="M59.329,74.317c-0.001-0.001,0.001-0.003,0-0.004c-0.79-1.442-1.624-3.205-2.34-5.177 c-0.003-0.006-0.01-0.008-0.013-0.014c-3.043-6.237-3.388-11.677-2.644-16.111l-3.119-0.097c-0.206,1.76-0.381,4.302-0.197,6.766 c0.045,0.056,0,0.197,0,0.274c0,0.072-0.04,0.042-0.078,0.096c0.143,6.016,0.997,13.039,1.634,16.449 c1.109-0.075,2.115,0.164,2.621,0.498c0.269-0.079,0.709-0.231,0.952-0.268c0.999-0.151,1.686,0.351,2.124,1.212 c0.089,0.174,0.253,0.503,0.29,0.689l2.763-1.22c-0.503-0.69-1.286-1.81-1.985-3.084C59.334,74.322,59.33,74.321,59.329,74.317z  M53.835,67.252c0.315,0,0.571,0.255,0.571,0.569c0,0.313-0.256,0.569-0.571,0.569c-0.315,0-0.572-0.255-0.572-0.569 C53.263,67.507,53.519,67.252,53.835,67.252z M52.852,63.571c-0.315,0-0.571-0.255-0.571-0.569c0-0.313,0.256-0.569,0.571-0.569 s0.571,0.255,0.571,0.569C53.423,63.315,53.167,63.571,52.852,63.571z M55.193,75.082c-1.064,0-1.93-0.862-1.93-1.92 c0-1.059,0.866-1.92,1.93-1.92c1.064,0,1.929,0.861,1.929,1.92C57.122,74.22,56.257,75.082,55.193,75.082z"/>
	<path style="fill:#D64656;" d="M55.837,59.6c0,5.057,1.78,9.895,3.518,13.329c0.595-2.535,2.882-6.608,5.921-10.237l-8.063-10.004 C56.384,54.912,55.837,57.275,55.837,59.6z M57.907,56.827l0.187-0.649l4.988,6.675l-3.887,6.202l-0.26-0.565 C57.185,64.677,57.099,59.636,57.907,56.827z"/>
	<path style="fill:#F1717A;" d="M62.27,62.885l-3.884-5.198c-0.552,2.618-0.41,6.659,0.91,9.942L62.27,62.885z"/>
	<path style="fill:url(#SVGID_592_);" d="M41.76,67.125c-0.014,0-0.03-0.001-0.044-0.003c-0.003-0.001-0.005-0.004-0.008-0.005 h-3.363c-0.945,4.806-3.141,8.351-4.448,10.292h9.069c1.015-2.55,5.334-4.777,8.42-4.946c-0.196-1.618-0.38-3.438-0.534-5.346 h-4.341c-0.007,0.001-0.011,0.007-0.018,0.007c-0.007,0-0.01-0.007-0.018-0.007h-4.696C41.772,67.118,41.767,67.125,41.76,67.125z  M47.311,67.956c1.095,0,1.986,0.886,1.986,1.977c0,1.09-0.891,1.977-1.986,1.977c-1.095,0-1.986-0.887-1.986-1.977 C45.325,68.843,46.215,67.956,47.311,67.956z M37.847,75.43c-0.315,0-0.571-0.255-0.571-0.568c0-0.314,0.256-0.569,0.571-0.569 s0.571,0.255,0.571,0.569C38.418,75.174,38.162,75.43,37.847,75.43z M42.191,74.861c0,0.313-0.256,0.568-0.572,0.568 c-0.315,0-0.571-0.255-0.571-0.568c0-0.314,0.256-0.569,0.571-0.569C41.934,74.292,42.191,74.547,42.191,74.861z"/>
	<ellipse style="fill:#25A9E0;" cx="47.311" cy="69.933" rx="1.314" ry="1.308"/>
	<path style="fill:#25A9E0;" d="M55.193,71.91c-0.694,0-1.258,0.561-1.258,1.252c0,0.691,0.564,1.252,1.258,1.252 c0.693,0,1.257-0.561,1.257-1.252C56.45,72.471,55.886,71.91,55.193,71.91z"/>
	<path style="fill:none;stroke:#000;stroke-width:0.8;" d="M58.977,24.903 c-6.988,0.602-7.814-3.017-12.529-3.017c-1.348,0-8.623,0.402-8.623,0.402l-4.042-8.917h8.195l7.013-4.09l5.675,4.923l10.105,1.112 L58.977,24.903z"/>
	<path style="fill:none;stroke:#000;stroke-width:0.8;" d="M37.825,22.288l1.145,2.683 c0,0,4.581-0.133,7.949,0c3.368,0.134,6.535,2.883,9.296,2.883c1.953,0,2.762,0,2.762,0v-2.95"/>
	<path style="fill:none;stroke:#000;stroke-width:0.8;" d="M58.977,27.853 c0,5.899,2.223,4.961,2.223,11.129"/>
	<path style="fill:none;stroke:#000;stroke-width:0.8;" d="M55.744,27.919 c0,5.901,2.02,4.895,2.02,11.063"/>
	<path style="fill:none;stroke:#000;stroke-width:0.8;" d="M52.517,26.912 c0,5.9,2.149,5.901,2.149,12.07"/>
	<path style="fill:none;stroke:#000;stroke-width:0.8;" d="M49.24,25.493 c0,8.527,2.26,6.516,2.26,13.489"/>
	<path style="fill:none;stroke:#000;stroke-width:0.8;stroke-linecap:round;" d=" M38.97,24.97c0.337,3.821-0.741,6.771-1.415,7.643c0.742,1.407,2.223,1.676,3.84,0.804"/>
	<path style="fill:none;stroke:#000;stroke-width:0.8;stroke-linecap:round;" d=" M46.448,27.383c-0.674-0.804-2.291-2.614-5.053-2.312"/>
	<path style="fill:none;stroke:#000;stroke-width:0.8;stroke-linecap:round;" d=" M40.924,27.919c1.482-0.335,3.57,0.769,4.378,1.525c-2.02,1.492-3.234,1.694-4.378,1.291"/>
	<path style="fill:none;stroke:#000;stroke-width:0.8;stroke-linecap:round;" d=" M42.172,27.919c-0.507,0.873-0.706,2.217,0,2.986"/>
	<path style="fill:none;stroke:#000;stroke-width:0.8;stroke-linecap:round;" d=" M38.836,33.917c-0.337,0.774-0.27,1.445,0,1.981c1.415-0.336,2.631-0.067,3.337,0.469"/>
	<path style="fill:none;stroke:#000;stroke-width:0.8;stroke-linecap:round;" d=" M39.151,35.834c0.426,1.404-2.74,6.836-3.683,2.746c-2.156,2.145-0.539,4.156,1.213,3.888c1.751-0.268,4.576-1.81,5.034-3.956"/>
	<path style="fill:none;stroke:#000;stroke-width:0.8;stroke-linecap:round;" d=" M37.556,42.254c0.944,0.884,6.4,1.353,6.871-3.876"/>
	<path style="fill:none;stroke:#000;stroke-width:0.8;stroke-linecap:round;" d=" M43.531,41.002c1.164,0.662,4.061-1.349,3.388-3.361c-0.674-2.012,1.078-2.718,1.751-2.499"/>
	<line style="fill:none;stroke:#000;stroke-width:0.8;stroke-linecap:round;" x1="41.944" y1="22.071" x2="41.944" y2="17.662"/>
	<line style="fill:none;stroke:#000;stroke-width:0.8;stroke-linecap:round;" x1="40.884" y1="19.061" x2="43.072" y2="19.061"/>
	<line style="fill:none;stroke:#000;stroke-width:0.8;stroke-linecap:round;" x1="47.121" y1="21.844" x2="47.121" y2="18.24"/>
	<line style="fill:none;stroke:#000;stroke-width:0.8;stroke-linecap:round;" x1="46.061" y1="19.64" x2="48.251" y2="19.64"/>
	<line style="fill:none;stroke:#000;stroke-width:0.8;stroke-linecap:round;" x1="51.644" y1="23.512" x2="51.644" y2="19.64"/>
	<line style="fill:none;stroke:#000;stroke-width:0.8;stroke-linecap:round;" x1="50.584" y1="21.039" x2="52.772" y2="21.039"/>
	<line style="fill:none;stroke:#000;stroke-width:0.8;stroke-linecap:round;" x1="55.862" y1="24.879" x2="55.862" y2="20.779"/>
	<line style="fill:none;stroke:#000;stroke-width:0.8;stroke-linecap:round;" x1="54.802" y1="22.179" x2="56.992" y2="22.179"/>
	<line style="fill:none;stroke:#000;stroke-width:0.8;stroke-linecap:round;" x1="37.512" y1="21.43" x2="37.521" y2="18.064"/>
	<line style="fill:none;stroke:#000;stroke-width:0.8;stroke-linecap:round;" x1="36.838" y1="19.488" x2="38.651" y2="19.464"/>
	<polyline style="fill:none;stroke:#000;stroke-width:0.8;stroke-linecap:round;" points=" 72.432,45.413 72.432,20.343 71.082,19.464 69.729,20.318 69.729,42.878 	"/>
	<path style="fill:none;stroke:#000;stroke-width:0.8;stroke-linecap:round;" d=" M69.729,26.21c-2.399-0.57-3.962-1.844-4.69-4.365c-1.953,0.984-3.233,3.996-3.233,6.008c0,3.083,1.617,5.357,2.965,6.065 c0.471-2.043,3.03-4.474,4.959-4.474"/>
	<path style="fill:none;stroke:#000;stroke-width:0.8;stroke-linecap:round;" d=" M65.768,23.763c-2.142,1.519-2.438,6.367,0,8.178"/>
	<polyline style="fill:none;stroke:#000;stroke-width:0.8;stroke-linecap:round;" points=" 74.235,47.092 65.768,39.162 46.886,39.162 	"/>
	<path style="fill:none;stroke:#000;stroke-width:0.8;stroke-linecap:round;" d=" M74.235,50.679L64.4,41.412c-2.525,1.66-8.943,10.108-8.943,18.204c0,8.096,4.497,15.638,6.215,17.85 c3.991-2.464,12.563-7.494,12.563-7.494"/>
	<line style="fill:none;stroke:#000;stroke-width:0.8;stroke-linecap:round;" x1="74.235" y1="68.212" x2="59.595" y2="74.205"/>
	<path style="fill:none;stroke:#000;stroke-width:0.8;stroke-linecap:round;" d=" M74.235,63.653c-1.987,0.956-5.573,5.061-5.944,6.975"/>
	<path style="fill:none;stroke:#000;stroke-width:0.8;stroke-linecap:round;" d=" M74.235,60.602c-3.031,1.056-8.724,7.008-9.608,11.533"/>
	<path style="fill:none;stroke:#000;stroke-width:0.8;stroke-linecap:round;" d=" M74.235,55.959c-7.157,2.665-14.64,14.165-14.751,18.045"/>
	<line style="fill:none;stroke:#000;stroke-width:0.8;stroke-linecap:round;" x1="65.58" y1="62.605" x2="57.063" y2="52.038"/>
	<line style="fill:none;stroke:#000;stroke-width:0.8;stroke-linecap:round;" x1="69.729" y1="58.528" x2="60.089" y2="46.314"/>
	<line style="fill:none;stroke:#000;stroke-width:0.8;stroke-linecap:round;" x1="72.104" y1="56.934" x2="62.027" y2="43.711"/>
	<path style="fill:none;stroke:#000;stroke-width:0.8;stroke-linecap:round;" d=" M59.196,68.364l3.436-5.481l-4.446-5.95C57.327,59.917,57.579,64.844,59.196,68.364z"/>
	<path style="fill:none;stroke:#000;stroke-width:0.8;stroke-linecap:round;" d=" M40.39,42.761c0.971,4.937,2.114,18.01,1.324,24.044"/>
	<path style="fill:none;stroke:#000;stroke-width:0.8;stroke-linecap:round;" d=" M40.991,46.694c3.032,0,7.747-2.394,8.555-4.963c2.829,0,8.357,0,9.938,0c-3.067,4.492-8.71,14.025-2.251,27.26"/>
	<line style="fill:none;stroke:#000;stroke-width:0.8;stroke-linecap:round;" x1="54.666" y1="52.692" x2="41.591" y2="52.692"/>
	<line style="fill:none;stroke:#000;stroke-width:0.8;stroke-linecap:round;" x1="46.448" y1="52.692" x2="46.448" y2="66.805"/>
	<line style="fill:none;stroke:#000;stroke-width:0.8;stroke-linecap:round;" x1="41.957" y1="59.748" x2="50.826" y2="59.748"/>
	<path style="fill:none;stroke:#000;stroke-width:0.8;stroke-linecap:round;" d=" M51.365,44.614c0,0.13-0.105,0.235-0.236,0.235c-0.13,0-0.235-0.105-0.235-0.235c0-0.13,0.106-0.234,0.235-0.234 C51.26,44.379,51.365,44.484,51.365,44.614z"/>
	<path style="fill:none;stroke:#000;stroke-width:0.8;stroke-linecap:round;" d=" M55.138,44.614c0,0.13-0.106,0.235-0.236,0.235c-0.131,0-0.236-0.105-0.236-0.235c0-0.13,0.106-0.234,0.236-0.234 C55.031,44.379,55.138,44.484,55.138,44.614z"/>
	<path style="fill:none;stroke:#000;stroke-width:0.8;stroke-linecap:round;" d=" M47.088,49.542c0,0.907-0.739,1.642-1.65,1.642s-1.65-0.735-1.65-1.642c0-0.907,0.739-1.643,1.65-1.643 S47.088,48.635,47.088,49.542z"/>
	<path style="fill:none;stroke:#000;stroke-width:0.8;stroke-linecap:round;" d=" M39.149,46.314c0,0.875-0.714,1.586-1.594,1.586c-0.88,0-1.593-0.71-1.593-1.586c0-0.877,0.714-1.586,1.593-1.586 C38.436,44.728,39.149,45.437,39.149,46.314z"/>
	<path style="fill:none;stroke:#000;stroke-width:0.8;stroke-linecap:round;" d=" M39.149,51.654c0,0.13-0.106,0.235-0.236,0.235c-0.13,0-0.235-0.105-0.235-0.235c0-0.13,0.106-0.234,0.235-0.234 C39.044,51.419,39.149,51.524,39.149,51.654z"/>
	<path style="fill:none;stroke:#000;stroke-width:0.8;stroke-linecap:round;" d=" M40.133,56.472c0,0.13-0.106,0.236-0.235,0.236c-0.131,0-0.236-0.106-0.236-0.236c0-0.129,0.106-0.234,0.236-0.234 C40.026,56.238,40.133,56.343,40.133,56.472z"/>
	<path style="fill:none;stroke:#000;stroke-width:0.8;stroke-linecap:round;stroke-linejoin:round;" d=" M64.314,75.858c0.794,1.607-1.126,3.351-0.265,4.222c0.729,0.738,2.339-1.307,2.339-2.447c0.611,2.913,1.525,4.927,3.342,4.157 c1.354-0.575,4.07-2.85,0.431-9.42"/>
	<path style="fill:none;stroke:#000;stroke-width:0.8;" d="M33.726,94.587 c6.989-0.604,7.814,3.017,12.529,3.017c1.348,0,8.623-0.403,8.623-0.403l4.041,8.917h-8.194l-7.012,4.089l-5.676-4.922 l-10.104-1.112L33.726,94.587z"/>
	<path style="fill:none;stroke:#000;stroke-width:0.8;" d="M54.879,97.202l-1.146-2.682 c0,0-4.58,0.133-7.948,0c-3.368-0.133-6.534-2.882-9.296-2.882c-1.953,0-2.762,0-2.762,0v2.949"/>
	<path style="fill:none;stroke:#000;stroke-width:0.8;" d="M33.726,91.638 c0-5.901-2.222-4.962-2.222-11.129"/>
	<path style="fill:none;stroke:#000;stroke-width:0.8;" d="M36.96,91.57 c0-5.899-2.021-4.894-2.021-11.061"/>
	<path style="fill:none;stroke:#000;stroke-width:0.8;" d="M40.187,92.578 c0-5.9-2.149-5.902-2.149-12.069"/>
	<path style="fill:none;stroke:#000;stroke-width:0.8;" d="M43.464,93.996 c0-8.527-2.259-6.515-2.259-13.487"/>
	<path style="fill:none;stroke:#000;stroke-width:0.8;stroke-linecap:round;" d=" M53.733,94.519c-0.337-3.82,0.742-6.77,1.415-7.642c-0.741-1.409-2.224-1.676-3.84-0.806"/>
	<path style="fill:none;stroke:#000;stroke-width:0.8;stroke-linecap:round;" d=" M46.255,92.106c0.674,0.805,2.291,2.615,5.052,2.313"/>
	<path style="fill:none;stroke:#000;stroke-width:0.8;stroke-linecap:round;" d=" M51.779,91.57c-1.482,0.336-3.569-0.768-4.379-1.524c2.022-1.493,3.234-1.694,4.379-1.292"/>
	<path style="fill:none;stroke:#000;stroke-width:0.8;stroke-linecap:round;" d=" M50.532,91.57c0.507-0.871,0.705-2.216,0-2.985"/>
	<path style="fill:none;stroke:#000;stroke-width:0.8;stroke-linecap:round;" d=" M53.868,85.572c0.337-0.774,0.269-1.444,0-1.981c-1.414,0.335-2.631,0.067-3.336-0.469"/>
	<path style="fill:none;stroke:#000;stroke-width:0.8;stroke-linecap:round;" d=" M53.553,83.656c-0.426-1.406,2.74-6.836,3.683-2.746c2.156-2.145,0.538-4.157-1.212-3.889c-1.751,0.268-4.577,1.81-5.034,3.956"/>
	<path style="fill:none;stroke:#000;stroke-width:0.8;stroke-linecap:round;" d=" M55.148,77.235c-0.943-0.885-6.399-1.353-6.871,3.876"/>
	<path style="fill:none;stroke:#000;stroke-width:0.8;stroke-linecap:round;" d=" M49.172,78.488c-1.164-0.661-4.061,1.35-3.387,3.361c0.674,2.011-1.078,2.718-1.752,2.498"/>
	<line style="fill:none;stroke:#000;stroke-width:0.8;stroke-linecap:round;" x1="50.761" y1="97.418" x2="50.761" y2="101.828"/>
	<line style="fill:none;stroke:#000;stroke-width:0.8;stroke-linecap:round;" x1="51.821" y1="100.429" x2="49.631" y2="100.429"/>
	<path style="fill:none;stroke:#000;stroke-width:0.8;stroke-linecap:round;" d=" M35.276,103.974"/>
	<line style="fill:none;stroke:#000;stroke-width:0.8;stroke-linecap:round;" x1="45.582" y1="97.645" x2="45.582" y2="101.25"/>
	<line style="fill:none;stroke:#000;stroke-width:0.8;stroke-linecap:round;" x1="46.642" y1="99.85" x2="44.454" y2="99.85"/>
	<line style="fill:none;stroke:#000;stroke-width:0.8;stroke-linecap:round;" x1="41.061" y1="95.978" x2="41.061" y2="99.85"/>
	<line style="fill:none;stroke:#000;stroke-width:0.8;stroke-linecap:round;" x1="42.12" y1="98.45" x2="39.931" y2="98.45"/>
	<line style="fill:none;stroke:#000;stroke-width:0.8;stroke-linecap:round;" x1="36.842" y1="94.611" x2="36.842" y2="98.71"/>
	<line style="fill:none;stroke:#000;stroke-width:0.8;stroke-linecap:round;" x1="37.902" y1="97.311" x2="35.712" y2="97.311"/>
	<line style="fill:none;stroke:#000;stroke-width:0.8;stroke-linecap:round;" x1="55.142" y1="98.502" x2="55.182" y2="101.426"/>
	<line style="fill:none;stroke:#000;stroke-width:0.8;stroke-linecap:round;" x1="55.864" y1="100.009" x2="54.053" y2="100.026"/>
	<polyline style="fill:none;stroke:#000;stroke-width:0.8;stroke-linecap:round;" points=" 20.271,74.077 20.271,99.146 21.622,100.026 22.974,99.172 22.974,76.611 	"/>
	<path style="fill:none;stroke:#000;stroke-width:0.8;stroke-linecap:round;" d=" M22.974,93.279c2.399,0.57,3.961,1.844,4.69,4.366c1.953-0.984,3.233-3.997,3.233-6.008c0-3.084-1.617-5.358-2.963-6.065 c-0.472,2.042-3.032,4.474-4.96,4.474"/>
	<path style="fill:none;stroke:#000;stroke-width:0.8;stroke-linecap:round;" d=" M26.935,95.727c2.143-1.519,2.439-6.367,0-8.179"/>
	<polyline style="fill:none;stroke:#000;stroke-width:0.8;stroke-linecap:round;" points=" 18.594,72.472 26.935,80.326 45.818,80.326 	"/>
	<path style="fill:none;stroke:#000;stroke-width:0.8;stroke-linecap:round;" d=" M18.594,68.901l9.71,9.176c2.527-1.659,8.942-10.107,8.942-18.202s-4.496-15.638-6.214-17.851 c-3.991,2.464-12.438,7.434-12.438,7.434"/>
	<line style="fill:none;stroke:#000;stroke-width:0.8;stroke-linecap:round;" x1="18.594" y1="51.251" x2="33.109" y2="45.284"/>
	<path style="fill:none;stroke:#000;stroke-width:0.8;stroke-linecap:round;" d=" M18.594,55.709c1.415-0.753,5.666-5.191,5.819-6.848"/>
	<path style="fill:none;stroke:#000;stroke-width:0.8;stroke-linecap:round;" d=" M18.594,58.827c3.032-1.056,8.598-6.948,9.482-11.473"/>
	<path style="fill:none;stroke:#000;stroke-width:0.8;stroke-linecap:round;" d=" M18.594,63.453c7.157-2.665,14.515-14.088,14.625-17.967"/>
	<line style="fill:none;stroke:#000;stroke-width:0.8;stroke-linecap:round;" x1="27.124" y1="56.885" x2="35.64" y2="67.451"/>
	<line style="fill:none;stroke:#000;stroke-width:0.8;stroke-linecap:round;" x1="22.974" y1="60.962" x2="32.615" y2="73.176"/>
	<line style="fill:none;stroke:#000;stroke-width:0.8;stroke-linecap:round;" x1="20.6" y1="62.556" x2="30.677" y2="75.779"/>
	<path style="fill:none;stroke:#000;stroke-width:0.8;stroke-linecap:round;" d=" M33.508,51.125l-3.436,5.481l4.445,5.95C35.377,59.573,35.124,54.645,33.508,51.125z"/>
	<path style="fill:none;stroke:#000;stroke-width:0.8;stroke-linecap:round;" d=" M52.314,76.729c-0.972-4.937-2.114-18.011-1.324-24.045"/>
	<path style="fill:none;stroke:#000;stroke-width:0.8;stroke-linecap:round;" d=" M51.713,72.796c-3.032,0-7.746,2.394-8.556,4.963c-2.829,0-8.357,0-9.938,0c3.067-4.492,8.71-14.025,2.25-27.26"/>
	<line style="fill:none;stroke:#000;stroke-width:0.8;stroke-linecap:round;" x1="38.038" y1="66.798" x2="51.113" y2="66.798"/>
	<path style="fill:none;stroke:#000;stroke-width:0.8;stroke-linecap:round;" d=" M41.339,74.876c0-0.13,0.105-0.235,0.235-0.235c0.131,0,0.236,0.105,0.236,0.235c0,0.129-0.106,0.234-0.236,0.234 C41.444,75.11,41.339,75.005,41.339,74.876z"/>
	<path style="fill:none;stroke:#000;stroke-width:0.8;stroke-linecap:round;" d=" M37.567,74.876c0-0.13,0.106-0.235,0.235-0.235c0.131,0,0.235,0.105,0.235,0.235c0,0.129-0.105,0.234-0.235,0.234 C37.672,75.11,37.567,75.005,37.567,74.876z"/>
	<ellipse style="fill:none;stroke:#000;stroke-width:0.8;stroke-linecap:round;" cx="47.266" cy="69.948" rx="1.65" ry="1.643"/>
	<path style="fill:none;stroke:#000;stroke-width:0.8;stroke-linecap:round;" d=" M53.554,73.176c0-0.875,0.714-1.586,1.594-1.586c0.88,0,1.593,0.71,1.593,1.586c0,0.875-0.713,1.586-1.593,1.586 C54.269,74.762,53.554,74.052,53.554,73.176z"/>
	<path style="fill:none;stroke:#000;stroke-width:0.8;stroke-linecap:round;" d=" M53.554,67.836c0-0.13,0.106-0.235,0.236-0.235s0.235,0.105,0.235,0.235c0,0.129-0.105,0.234-0.235,0.234 S53.554,67.965,53.554,67.836z"/>
	<path style="fill:none;stroke:#000;stroke-width:0.8;stroke-linecap:round;" d=" M52.572,63.017c0-0.129,0.105-0.234,0.235-0.234c0.13,0,0.235,0.105,0.235,0.234c0,0.13-0.106,0.234-0.235,0.234 C52.677,63.252,52.572,63.147,52.572,63.017z"/>
	<path style="fill:none;stroke:#000;stroke-width:0.8;stroke-linecap:round;stroke-linejoin:round;" d=" M28.39,43.631c-0.794-1.607,1.126-3.35,0.265-4.222c-0.728-0.738-2.338,1.308-2.338,2.447c-0.611-2.914-1.525-4.929-3.343-4.157 c-1.353,0.574-4.069,2.849-0.431,9.42"/>
	<line style="fill:none;stroke:#000;stroke-width:0.8;stroke-linecap:round;" x1="58.266" y1="78.898" x2="61.672" y2="77.466"/>
	<line style="fill:none;stroke:#000;stroke-width:0.8;stroke-linecap:round;" x1="34.435" y1="40.658" x2="31.032" y2="42.023"/>
	<path style="fill:none;stroke:#000;stroke-width:0.8;stroke-linecap:round;" d=" M60.978,14.898h12.448c0.224,0,0.809,0.335,0.809,0.804c0,0.47,0,87.576,0,87.956c0,0.524-0.585,0.804-0.809,0.804H58.169"/>
	<path style="fill:none;stroke:#000;stroke-width:0.8;stroke-linecap:round;" d=" M30.898,104.462h-11.9c-0.223,0-0.403-0.181-0.403-0.402V15.3c0-0.221,0.18-0.402,0.403-0.402h15.478"/>
</svg>
