
<svg id="SQ" viewBox="0 0 90 123" xmlns="http://www.w3.org/2000/svg">
	<linearGradient id="SVGID_558_" gradientUnits="userSpaceOnUse" x1="45" y1="0" x2="45" y2="123">
		<stop  offset="0" style="stop-color:#F5F5F5"/>
		<stop  offset="1" style="stop-color:#D1D1D1"/>
	</linearGradient>
	<path style="display:inline;fill:url(#SVGID_558_);" d="M90,117.652c0,2.953-2.406,5.348-5.373,5.348H5.373
		C2.406,123,0,120.606,0,117.652V5.348C0,2.394,2.406,0,5.373,0h79.254C87.594,0,90,2.394,90,5.348V117.652z"/>
	<linearGradient id="SVGID_559_" gradientUnits="userSpaceOnUse" x1="9.2373" y1="17.8551" x2="9.2373" y2="29.9477">
		<stop  offset="0" style="stop-color:#4A4A4C"/>
		<stop  offset="0.3" style="stop-color:#404041"/>
		<stop  offset="1" style="stop-color:#231F20"/>
	</linearGradient>
	<path style="display:inline;fill:url(#SVGID_559_);" d="M13.15,21.975c-1.718-2.043-2.908-3.032-4.029-4.12l0,0l0,0l0,0
		c-0.867,0.901-2.245,2.048-4.028,4.12c-2.614,2.79-0.176,7.418,3.345,5.239c-0.235,1.534-1.036,1.757-1.848,2.238v0.495h5.062
		v-0.495c-0.813-0.482-1.614-0.704-1.848-2.238C13.355,29.468,16.278,25.251,13.15,21.975L13.15,21.975z"/>
	
		<text id="Q" transform="matrix(1.0047 0 0 1 3.7217 14.5356)" style="display:inline;fill:#231F20; font-family:'RobotoSlab-SemiBold'; font-size:15.6943px;">Q</text>
	<linearGradient id="SVGID_560_" gradientUnits="userSpaceOnUse" x1="45" y1="42.2251" x2="45" y2="123">
		<stop  offset="0" style="stop-color:#D0D2D3"/>
		<stop  offset="1" style="stop-color:#CCCECF"/>
	</linearGradient>
	<path style="display:inline;opacity:0.3;fill:url(#SVGID_560_);" d="M0,101.015v16.637C0,120.606,2.406,123,5.373,123h79.254
		c2.967,0,5.373-2.394,5.373-5.348V42.225C48.61,43.994,13.744,67.932,0,101.015z"/>
	<linearGradient id="SVGID_561_" gradientUnits="userSpaceOnUse" x1="46.4145" y1="14.9337" x2="46.4145" y2="104.4622">
		<stop  offset="0" style="stop-color:#FFFFFF"/>
		<stop  offset="0.9995" style="stop-color:#BBBDBF"/>
	</linearGradient>
	<path style="display:inline;fill:url(#SVGID_561_);" d="M74.235,103.491c0,0.738-0.181,0.969-0.923,0.969l-53.785,0.002
		c-0.742,0-0.933-0.233-0.933-0.971v-87.46c0-0.738,0.182-1.097,0.924-1.097h53.604c0.742,0,1.113,0.359,1.113,1.097V103.491z"/>
	<g style="display:inline;">
		<path style="fill:#F1717A;" d="M61.432,36.151l-1.547-3.285c-2.529,1.41-7.018,3.513-11.34,3.513
			c-2.704,0-5.329-0.838-7.357-3.176c-1.332,0.538-2.659,1.127-3.971,1.759C43.519,39.812,51.028,40.182,61.432,36.151z"/>
		<path style="fill:#A87C4F;" d="M55.881,24.365c-0.885,0.974-1.345,2.356-1.145,3.684c0.199,1.323,1.093,3.181,4.139,4.595
			c0.241-0.129,0.476-0.248,0.724-0.386L55.881,24.365z"/>
		<linearGradient id="SVGID_562_" gradientUnits="userSpaceOnUse" x1="49.9966" y1="31.0478" x2="49.9966" y2="35.7463">
			<stop  offset="0" style="stop-color:#F9EC31"/>
			<stop  offset="0.9995" style="stop-color:#C3996B"/>
		</linearGradient>
		<path style="fill:url(#SVGID_562_);" d="M58.151,33.031c-1.087-0.56-1.988-1.226-2.662-1.983c-0.678,1.18-2.875,4.181-7.679,4.181
			c-0.954,0-1.814-0.415-2.556-1.235c-0.454-0.501-0.846-1.138-1.189-1.863c-0.739,0.249-1.48,0.522-2.223,0.811
			C43.981,35.272,48.716,37.829,58.151,33.031z"/>
		<linearGradient id="SVGID_563_" gradientUnits="userSpaceOnUse" x1="58.6952" y1="42.4046" x2="58.6952" y2="59.7813">
			<stop  offset="0" style="stop-color:#1B75BB"/>
			<stop  offset="0.9995" style="stop-color:#2B388F"/>
		</linearGradient>
		<path style="fill:url(#SVGID_563_);" d="M56.935,43.686c-0.279,3.243-1.745,7.497-2.933,10.933
			c-0.757,2.189-1.417,4.103-1.565,5.163c0.359,0,0.75-0.025,1.163-0.067c0.661-3.955,3.906-6.791,6.931-6.949
			c0.632-3.829,2.068-6.786,4.423-9.185c-1.527-0.635-2.817-1.079-3.103-1.175C60.259,42.903,58.616,43.34,56.935,43.686z"/>
		<path style="fill:#A87C4F;" d="M53.136,18.538l-1.056-2.241c-0.1-0.001-0.188-0.006-0.292-0.006c-0.947,0-1.916,0.038-2.857,0.1
			c0.067,0.479,0.303,0.903,0.72,1.261C50.469,18.355,51.849,18.68,53.136,18.538z"/>
		<path style="fill:#A87C4F;" d="M42.489,26.47c-2.306,1.345-3.162,5.159-3.029,6.723c1.442-0.622,2.895-1.188,4.345-1.678
			C43.201,30.033,42.779,28.265,42.489,26.47z"/>
		<path style="fill:#ACDFEF;" d="M55.189,16.63c-0.475-0.166-1.285-0.276-2.359-0.317l11.549,24.523
			c0.951-0.353,1.912-0.721,2.904-1.144l-9.885-18.848L55.189,16.63z"/>
		<path style="fill:#FFFFFF;" d="M45.93,18.262c-0.649,0.6-1.644,0.902-2.961,0.902c-0.138,0-0.285-0.01-0.43-0.016
			c0.008,0.725,0.041,1.609,0.102,2.571c1.218-0.055,2.496,0.4,2.986,0.908c0.096,0.1,0.142,0.191,0.176,0.278
			c-0.049-0.947-0.287-1.926-0.81-2.545c-0.119-0.141-0.101-0.352,0.041-0.471c0.143-0.116,0.353-0.1,0.474,0.04
			c1.17,1.382,1.174,4.056,0.662,5.364c-0.273,0.701-0.463,1.714-0.1,2.263c0.182,0.274,0.491,0.416,0.945,0.433
			c0.644,0.024,1.099-0.097,1.325-0.349c0.208-0.232,0.208-0.569,0.172-0.81c-0.028-0.182,0.098-0.352,0.282-0.38
			c0.183-0.027,0.354,0.097,0.382,0.281c0.083,0.548-0.033,1.017-0.336,1.354c-0.342,0.382-0.904,0.575-1.673,0.575
			c-0.058,0-0.117-0.001-0.178-0.003c-0.844-0.032-1.272-0.417-1.481-0.734c-0.633-0.958-0.133-2.441,0.035-2.872
			c0.17-0.435,0.269-1.08,0.271-1.771c-0.214,0.65-1.656,1.159-2.924,1.221c0.409,3.487,1.245,7.26,2.862,9.045
			c0.618,0.683,1.291,1.014,2.057,1.014c4.918-0.001,6.857-3.339,7.228-4.083c-0.51-0.719-0.842-1.502-0.966-2.33
			c-0.248-1.644,0.325-3.323,1.492-4.457l-2.125-4.511c-0.281,0.042-0.563,0.083-0.851,0.083c-1.274,0-2.56-0.404-3.376-1.105
			c-0.552-0.474-0.864-1.064-0.946-1.72c-0.534,0.042-1.052,0.091-1.546,0.147C46.65,17.267,46.393,17.835,45.93,18.262z
			 M49.073,32.389c-0.135,0.127-0.348,0.12-0.475-0.015c-0.251-0.266-1.455-0.339-1.987,0.042c-0.059,0.043-0.128,0.063-0.196,0.063
			c-0.104,0-0.207-0.048-0.272-0.139c-0.109-0.15-0.075-0.358,0.076-0.466c0.756-0.544,2.338-0.52,2.868,0.042
			C49.215,32.05,49.208,32.262,49.073,32.389z M50.38,30.67c-0.163,0.005-0.326,0.008-0.489,0.008c-0.674,0-1.336-0.042-1.934-0.079
			c-1.07-0.067-1.993-0.125-2.613,0.057c-0.182,0.05-0.365-0.049-0.417-0.226c-0.053-0.178,0.049-0.363,0.227-0.415
			c0.735-0.216,1.714-0.154,2.845-0.084c0.761,0.048,1.551,0.098,2.358,0.07c0.21-0.008,0.34,0.139,0.347,0.323
			C50.711,30.509,50.566,30.663,50.38,30.67z M48.287,19.817c2.054-0.377,4.778,0.917,6.333,3.012
			c0.11,0.148,0.079,0.358-0.071,0.467c-0.06,0.044-0.13,0.065-0.2,0.065c-0.103,0-0.204-0.047-0.27-0.136
			c-1.551-2.09-4.096-3.043-5.67-2.752c-0.18,0.036-0.357-0.086-0.391-0.268C47.984,20.024,48.105,19.85,48.287,19.817z
			 M47.302,22.87c0.51-0.826,1.453-1.318,2.521-1.318c0.884,0,1.797,0.326,2.714,0.968l0.316,0.222l-0.265,0.28
			c-0.714,0.757-1.637,1.157-2.671,1.157c-1.137,0-2.084-0.476-2.55-0.884l-0.213-0.186L47.302,22.87z"/>
		<path style="fill:#F1F1F2;" d="M51.804,22.841c-0.681-0.412-1.345-0.62-1.981-0.62c-0.817,0-1.417,0.358-1.768,0.757
			c0.444,0.287,1.125,0.534,1.861,0.534C50.428,23.512,51.141,23.388,51.804,22.841z"/>
		<path style="fill:#A87C4F;" d="M42.538,18.473c1.339,0.064,2.359-0.168,2.936-0.7c0.306-0.283,0.496-0.656,0.57-1.108
			c-1.802,0.228-3.154,0.517-3.47,0.741C42.554,17.646,42.541,18.005,42.538,18.473z"/>
		<path style="fill:#A87C4F;" d="M65.347,34.554c0.046-0.884,0.268-1.979,0.967-2.849c0.606-0.755,1.469-1.216,2.572-1.376
			c-2.207-2.673-4.302-7.289-4.302-12.129c0-0.638-0.277-1.247-0.802-1.759c-0.882-0.861-2.348-1.356-3.908-1.328
			c-0.001,0-0.002-0.001-0.003-0.001c-0.001,0-0.002,0.001-0.003,0.001c-0.08,0-0.16-0.028-0.224-0.086
			c-0.003-0.002-0.001-0.006-0.004-0.008c-0.007-0.006-0.005-0.015-0.011-0.022c-0.054-0.059-0.092-0.13-0.094-0.206
			c0-0.002-0.003-0.003-0.003-0.006c-0.001-0.046,0.03-0.078,0.046-0.117c0.014-0.038,0.011-0.08,0.04-0.112
			c0.152-0.168,0.218-0.735-0.06-1.317c-0.186-0.39-0.601-1.104-1.642-1.13c-1.185,1.541-1.926,2.99-2.137,4.198L65.347,34.554z"/>
		<path style="fill:#D64656;" d="M63.75,41.074l-2.032-4.315c-4.857,1.886-9.107,2.839-12.905,2.839
			c-4.665,0-8.653-1.436-12.274-4.31c-1.593,0.787-3.148,1.627-4.645,2.489C37.662,42.671,47.687,46.824,63.75,41.074z"/>
		<linearGradient id="SVGID_564_" gradientUnits="userSpaceOnUse" x1="48.335" y1="11.0534" x2="48.335" y2="16.772">
			<stop  offset="0" style="stop-color:#F9EC31"/>
			<stop  offset="0.9995" style="stop-color:#C3996B"/>
		</linearGradient>
		<path style="fill:url(#SVGID_564_);" d="M42.377,16.772c1.543-0.72,6.623-1.15,9.411-1.15c1.511,0,2.643,0.099,3.375,0.292
			c0.191-0.853,0.584-1.756,1.19-2.729c-1.495,0.694-3.078,0.77-4.05,0.509c-1.487-0.398-2.177-1.624-2.633-2.436
			c-0.04-0.072-0.079-0.141-0.116-0.206c-0.421,0.799-1.263,2.262-3.091,2.517c-1.608,0.226-2.666-0.402-3.411-1.156
			c-0.101,0.497-0.336,0.957-0.699,1.358c-0.556,0.615-1.32,1.001-2.035,1.188C41.078,15.394,41.92,16.022,42.377,16.772z"/>
		<linearGradient id="SVGID_565_" gradientUnits="userSpaceOnUse" x1="35.3104" y1="38.1327" x2="35.3104" y2="46.514">
			<stop  offset="0" style="stop-color:#1B75BB"/>
			<stop  offset="0.9995" style="stop-color:#2B388F"/>
		</linearGradient>
		<path style="fill:url(#SVGID_565_);" d="M41.586,46.514c-0.335-1.151-0.58-2.214-0.63-3.115c-3.37-0.979-6.644-2.649-9.675-5.266
			c-0.767,0.449-1.519,0.901-2.246,1.355C30.957,41.679,34.953,45.173,41.586,46.514z"/>
		<linearGradient id="SVGID_566_" gradientUnits="userSpaceOnUse" x1="27.0785" y1="39.8508" x2="27.0785" y2="54.4764">
			<stop  offset="0" style="stop-color:#25A9E0"/>
			<stop  offset="0.9995" style="stop-color:#1B75BB"/>
		</linearGradient>
		<path style="fill:url(#SVGID_566_);" d="M22.698,51.097c1.449,0.035,2.136,0.986,2.742,1.825c0.566,0.783,1.088,1.44,2.117,1.555
			c0.531-3.247,2.24-6.552,7.679-9.429c-3.295-1.66-5.498-3.726-6.774-5.196c-4.416,2.805-7.941,5.569-9.54,7.244v3.015
			C19.274,50.561,20.425,51.041,22.698,51.097z M24.361,46.809h1.753v-1.744c0-0.185,0.15-0.334,0.336-0.334
			c0.186,0,0.336,0.149,0.336,0.334v1.744h1.753c0.186,0,0.336,0.15,0.336,0.334c0,0.185-0.15,0.334-0.336,0.334h-1.753v1.745
			c0,0.185-0.15,0.334-0.336,0.334c-0.186,0-0.336-0.149-0.336-0.334v-1.745h-1.753c-0.186,0-0.336-0.15-0.336-0.334
			C24.026,46.959,24.176,46.809,24.361,46.809z"/>
		<path style="fill:#A87C4F;" d="M52.477,13.05c0.272,0.073,0.612,0.111,0.983,0.111c1.13,0,2.685-0.384,3.811-1.39
			c-0.527-1.227-1.669-2.088-3.209-2.353c-1.587-0.272-3.22,0.154-4.096,1.034c0.094,0.142,0.188,0.3,0.289,0.48
			C50.681,11.69,51.264,12.725,52.477,13.05z"/>
		<path style="fill:#A87C4F;" d="M41.853,13.325c0.394-0.435,0.576-0.942,0.57-1.501c-1.774-0.473-2.868,0.154-3.301,0.939
			c-0.326,0.592-0.259,1.247,0.137,1.647C40.004,14.442,41.139,14.114,41.853,13.325z"/>
		<path style="fill:#A87C4F;" d="M46.369,12.908c1.573-0.219,2.271-1.555,2.646-2.273c0.032-0.061,0.056-0.103,0.082-0.152
			c-1.228-1.145-2.794-1.49-4.247-0.907c-0.992,0.399-1.68,1.166-1.737,1.892C44.101,12.694,45.003,13.098,46.369,12.908z"/>
		<path style="fill:#A87C4F;" d="M42.38,25.772c-0.193-1.353-0.317-2.69-0.393-3.899c-4.152,2.188-7.052,8.233-6.232,13.041
			c1.009-0.505,2.033-0.983,3.066-1.441C38.532,31.666,39.54,27.207,42.38,25.772z"/>
		<path style="fill:#F1F1F2;" d="M60.809,58.554c0.076,4.42-0.902,7.807-2.996,10.298c-0.003,0.005,0.001,0.01-0.003,0.015
			c-0.014,0.023-0.037,0.034-0.056,0.051c-1.523,1.783-3.621,3.105-6.339,3.999c2.128,0.418,3.979,1.056,5.604,1.804
			c7.976-4.026,7.999-8.986,8.016-13.363c0.002-0.544,0.005-1.08,0.021-1.601c0.105-3.29,1.308-10.186,5.085-13.295
			c-1.013-0.939-2.848-1.87-4.541-2.607C63.256,46.152,60.663,49.928,60.809,58.554z M59.585,70.762
			c-0.334,0-0.605-0.27-0.605-0.602c0-0.332,0.272-0.603,0.605-0.603c0.334,0,0.605,0.27,0.605,0.603
			C60.19,70.492,59.919,70.762,59.585,70.762z M62.494,64.698c-0.334,0-0.605-0.271-0.605-0.603c0-0.332,0.271-0.602,0.605-0.602
			c0.334,0,0.605,0.27,0.605,0.602C63.1,64.427,62.828,64.698,62.494,64.698z M63.033,58.132c-0.334,0-0.605-0.27-0.605-0.603
			c0-0.332,0.272-0.602,0.605-0.602c0.334,0,0.605,0.27,0.605,0.602C63.639,57.862,63.367,58.132,63.033,58.132z M64.179,52.152
			c-0.333,0-0.605-0.27-0.605-0.603c0-0.332,0.272-0.603,0.605-0.603c0.334,0,0.605,0.27,0.605,0.603
			C64.784,51.882,64.512,52.152,64.179,52.152z M66.873,45.824c0.334,0,0.605,0.27,0.605,0.602c0,0.332-0.272,0.603-0.605,0.603
			c-0.334,0-0.605-0.27-0.605-0.603C66.268,46.094,66.539,45.824,66.873,45.824z"/>
		<linearGradient id="SVGID_567_" gradientUnits="userSpaceOnUse" x1="35.7328" y1="51.8958" x2="35.7328" y2="66.6781">
			<stop  offset="0" style="stop-color:#D0D2D3"/>
			<stop  offset="0.9995" style="stop-color:#6D6E70"/>
		</linearGradient>
		<path style="fill:url(#SVGID_567_);" d="M38.87,58.943c0-4.223-2.279-6.316-3.305-7.047c-0.911,1.142-1.582,2.48-2.027,4.019
			c1.072,0.785,1.683,1.825,1.652,2.904c-0.018,0.596-0.093,2.35-2.32,2.983c0.019,1.767-0.07,3.386-0.273,4.876
			C35.58,66.415,38.87,63.135,38.87,58.943z"/>
		<path style="fill:#ACDFEF;" d="M34.517,58.799c0.012-0.39-0.098-1.327-1.168-2.202c-0.32,1.352-0.473,2.857-0.473,4.51
			C34.261,60.64,34.492,59.645,34.517,58.799z"/>
		<path style="fill:#ACDFEF;" d="M53.367,54.401c1.154-3.334,2.566-7.441,2.877-10.577c-1.926,0.365-3.893,0.592-5.875,0.666v2.087
			l3.389-0.482c0.182-0.024,0.353,0.101,0.38,0.284c0.026,0.182-0.102,0.352-0.285,0.378l-3.483,0.495v1.811l2.625-0.552
			c0.182-0.034,0.359,0.077,0.398,0.258c0.038,0.181-0.078,0.358-0.259,0.396l-2.764,0.581v1.606l2.103-0.331
			c0.177-0.031,0.355,0.095,0.384,0.278c0.029,0.182-0.096,0.354-0.279,0.382l-2.208,0.348v1.822l1.106-0.245
			c0.177-0.037,0.361,0.073,0.401,0.254c0.04,0.18-0.074,0.359-0.255,0.399l-1.252,0.277v4.957c0.413,0.125,0.884,0.201,1.396,0.244
			C51.911,58.615,52.56,56.732,53.367,54.401z"/>
		<linearGradient id="SVGID_568_" gradientUnits="userSpaceOnUse" x1="39.9315" y1="47.7812" x2="39.9315" y2="55.0828">
			<stop  offset="0" style="stop-color:#1B75BB"/>
			<stop  offset="0.9995" style="stop-color:#2B388F"/>
		</linearGradient>
		<path style="fill:url(#SVGID_568_);" d="M43.859,55.083c-0.12-1.781-0.813-3.978-1.514-6.129c-0.13-0.398-0.253-0.785-0.376-1.172
			c-2.529,0.809-4.508,1.998-5.966,3.604c0.685,0.499,1.808,1.52,2.611,3.22h2.386C42.155,54.606,43.077,54.79,43.859,55.083z"/>
		<path style="fill:#F1F1F2;" d="M66.952,52.977l2.656,2.293l3.974-2.286c0.203-0.591,0.277-1.916-0.007-2.225
			c-0.009-0.009-0.02-0.017-0.034-0.023c-0.188,0.343-0.489,0.71-0.989,1.082c-0.06,0.045-0.13,0.067-0.201,0.067
			c-0.102,0-0.203-0.046-0.269-0.135c-0.111-0.148-0.08-0.357,0.068-0.467c0.804-0.598,1.135-1.251,0.933-1.84
			c-0.13-0.379-0.449-0.625-0.739-0.702c-0.375,0.573-0.98,1.042-1.429,1.381c-0.049,0.037-0.096,0.072-0.14,0.106
			c0.176,0.317,0.24,0.691,0.186,1.099c-0.103,0.773-0.621,1.552-1.352,2.034c-0.057,0.037-0.121,0.055-0.185,0.055
			c-0.109,0-0.215-0.053-0.28-0.15c-0.102-0.154-0.06-0.362,0.094-0.464c0.565-0.372,0.98-0.986,1.057-1.565
			c0.031-0.238,0.018-0.578-0.226-0.853l-0.22-0.249l0.247-0.221c0.1-0.09,0.245-0.2,0.412-0.326
			c0.545-0.411,1.368-1.033,1.49-1.698c0.049-0.26-0.007-0.475-0.168-0.655c-0.224-0.252-0.641-0.406-1.066-0.405
			C68.872,48.279,67.692,50.651,66.952,52.977z"/>
		<path style="fill:#EC1C24;" d="M70.838,37.261L70.838,37.261l0.979,0.974c0.177,0.177,0.489,0.177,0.668,0l0.494-0.492
			c0.09-0.089,0.138-0.206,0.138-0.332c0.001-0.126-0.049-0.244-0.138-0.333l-1.216-1.21l1.216-1.21
			c0.089-0.089,0.138-0.207,0.138-0.332c0.001-0.126-0.049-0.244-0.138-0.334l-0.494-0.492c-0.18-0.179-0.491-0.178-0.668,0
			l-1.215,1.21l-1.217-1.21c-0.179-0.18-0.49-0.178-0.666-0.001l-0.495,0.492c-0.184,0.183-0.184,0.482,0,0.666l1.215,1.21
			l-1.215,1.21c-0.184,0.183-0.184,0.482,0,0.665l0.494,0.491c0.178,0.177,0.488,0.177,0.667,0l1.217-1.21L70.838,37.261z"/>
		<path style="fill:#ACDFEF;" d="M42.478,47.17c0.02,0.028,0.053,0.043,0.064,0.078c0.01,0.032-0.009,0.061-0.009,0.093
			c0.145,0.46,0.296,0.929,0.452,1.407c0.758,2.326,1.525,4.718,1.576,6.646c1.013,0.52,1.778,1.227,2.523,1.927
			c0.07,0.066,0.141,0.131,0.211,0.196v-3.015l-1.758-0.657c-0.174-0.065-0.262-0.257-0.196-0.43
			c0.065-0.172,0.261-0.262,0.432-0.195l1.522,0.568v-1.805l-2.155-0.749c-0.175-0.061-0.268-0.251-0.206-0.426
			c0.06-0.174,0.252-0.266,0.428-0.205l1.933,0.672v-1.851l-3.127-0.728c-0.18-0.042-0.293-0.222-0.251-0.402
			c0.043-0.179,0.22-0.293,0.404-0.249l2.974,0.692v-1.512l-3.523-0.875c-0.18-0.045-0.289-0.227-0.245-0.405
			c0.045-0.179,0.223-0.289,0.407-0.244l3.36,0.835v-2.063c-1.891-0.104-3.778-0.383-5.641-0.87
			C41.746,44.614,42.06,45.831,42.478,47.17z"/>
		<linearGradient id="SVGID_569_" gradientUnits="userSpaceOnUse" x1="53.0794" y1="65.0362" x2="53.0794" y2="72.3374">
			<stop  offset="0" style="stop-color:#1B75BB"/>
			<stop  offset="0.9995" style="stop-color:#2B388F"/>
		</linearGradient>
		<path style="fill:url(#SVGID_569_);" d="M54.396,65.513H52.01c-1.154,0-2.076-0.184-2.859-0.477
			c0.119,1.782,0.813,3.978,1.514,6.13c0.129,0.398,0.253,0.785,0.376,1.171c2.53-0.809,4.509-1.998,5.966-3.604
			C56.322,68.234,55.199,67.214,54.396,65.513z"/>
		<path style="fill:#FFFFFF;" d="M47.965,44.496v13.621c0.513,0.438,1.065,0.834,1.732,1.13V44.514
			c-0.203,0.004-0.405,0.022-0.609,0.022C48.714,44.536,48.34,44.509,47.965,44.496z"/>
		<path style="fill:#ACDFEF;" d="M36.768,76.291c1.926-0.365,3.893-0.605,5.875-0.679v-2.069l-3.39,0.482
			c-0.016,0.002-0.032,0.003-0.048,0.003c-0.164,0-0.308-0.12-0.332-0.287c-0.026-0.183,0.102-0.352,0.285-0.378l3.484-0.495v-1.813
			l-2.626,0.552c-0.023,0.005-0.046,0.007-0.07,0.007c-0.155,0-0.294-0.108-0.328-0.265c-0.038-0.181,0.078-0.358,0.259-0.396
			l2.765-0.581v-1.606l-2.104,0.331c-0.018,0.003-0.035,0.004-0.053,0.004c-0.162,0-0.305-0.118-0.331-0.282
			c-0.029-0.182,0.096-0.354,0.279-0.382l2.209-0.348v-1.822l-1.107,0.245c-0.024,0.005-0.049,0.008-0.073,0.008
			c-0.154,0-0.293-0.106-0.328-0.262c-0.04-0.18,0.074-0.358,0.255-0.399l1.253-0.277v-4.957c-0.413-0.125-0.885-0.2-1.398-0.243
			c-0.146,1.125-0.796,3.009-1.602,5.34C38.491,69.051,37.079,73.155,36.768,76.291z"/>
		<path style="fill:#FFFFFF;" d="M45.045,62.002c-0.513-0.438-1.064-0.834-1.731-1.129V75.59c0.577-0.01,1.154-0.003,1.731,0.018
			V62.002z"/>
		<linearGradient id="SVGID_570_" gradientUnits="userSpaceOnUse" x1="57.2775" y1="53.4418" x2="57.2775" y2="68.2232">
			<stop  offset="0" style="stop-color:#D0D2D3"/>
			<stop  offset="0.9995" style="stop-color:#6D6E70"/>
		</linearGradient>
		<path style="fill:url(#SVGID_570_);" d="M54.141,61.176c0,1.535,0.306,2.782,0.739,3.792c0.036,0.042,0.052,0.095,0.063,0.151
			c0.758,1.675,1.87,2.652,2.504,3.104c0.91-1.142,1.582-2.481,2.027-4.02c-1.072-0.785-1.684-1.823-1.652-2.903
			c0.018-0.596,0.094-2.348,2.319-2.983c-0.019-1.766,0.071-3.385,0.274-4.875C57.431,53.704,54.141,56.985,54.141,61.176z"/>
		<path style="fill:#ACDFEF;" d="M50.538,72.969c-0.025-0.032-0.058-0.057-0.07-0.099c-0.01-0.033,0.009-0.061,0.009-0.093
			c-0.145-0.46-0.296-0.928-0.451-1.405c-0.758-2.327-1.525-4.719-1.576-6.648c-1.013-0.52-1.778-1.227-2.523-1.927
			c-0.07-0.066-0.141-0.131-0.211-0.196v3.015l1.758,0.657c0.174,0.064,0.262,0.257,0.196,0.43
			c-0.051,0.134-0.178,0.217-0.314,0.217c-0.039,0-0.079-0.007-0.118-0.022l-1.522-0.569v1.806l2.155,0.749
			c0.175,0.061,0.268,0.251,0.206,0.426c-0.048,0.138-0.178,0.224-0.317,0.224c-0.037,0-0.074-0.006-0.111-0.019l-1.933-0.672v1.851
			l3.127,0.728c0.18,0.042,0.293,0.222,0.251,0.402c-0.037,0.154-0.174,0.258-0.327,0.258c-0.025,0-0.051-0.003-0.077-0.008
			l-2.974-0.692v1.513l3.522,0.875c0.18,0.045,0.289,0.227,0.245,0.405c-0.038,0.152-0.175,0.253-0.326,0.253
			c-0.027,0-0.054-0.003-0.081-0.01l-3.36-0.834v2.048c1.89,0.105,3.777,0.385,5.64,0.871
			C51.262,75.501,50.952,74.295,50.538,72.969z"/>
		<path style="fill:#ACDFEF;" d="M58.493,61.32c-0.012,0.39,0.098,1.326,1.168,2.201c0.32-1.352,0.473-2.857,0.473-4.512
			C58.759,59.47,58.52,60.423,58.493,61.32z"/>
		<linearGradient id="SVGID_571_" gradientUnits="userSpaceOnUse" x1="46.5053" y1="55.2742" x2="46.5053" y2="64.8444">
			<stop  offset="0" style="stop-color:#D0D2D3"/>
			<stop  offset="0.9995" style="stop-color:#6D6E70"/>
		</linearGradient>
		<path style="fill:url(#SVGID_571_);" d="M40.915,59.692c0.014-0.002,0.024-0.015,0.037-0.015c0.018,0.001,0.029,0.017,0.046,0.02
			c2.182,0.108,3.499,0.935,4.606,1.902c0.006,0.005,0.012,0.011,0.018,0.016c0.262,0.229,0.517,0.462,0.767,0.697
			c1.384,1.302,2.692,2.532,5.62,2.532h2.117c-0.385-1.017-0.657-2.214-0.657-3.668c0-0.267,0.016-0.529,0.039-0.788
			c-0.362,0.032-0.722,0.063-1.044,0.063c-0.131,0-0.243-0.016-0.369-0.021c-0.01,0.001-0.018,0.012-0.029,0.012
			c-0.003,0-0.006,0-0.009,0c-0.014-0.001-0.022-0.014-0.035-0.016c-2.193-0.104-3.508-0.938-4.618-1.908
			c-0.005-0.005-0.011-0.009-0.015-0.014c-0.262-0.229-0.518-0.464-0.767-0.699c-1.385-1.303-2.692-2.533-5.62-2.533h-2.117
			c0.385,1.016,0.657,2.214,0.657,3.669c0,0.267-0.016,0.529-0.039,0.788C40.011,59.686,40.481,59.674,40.915,59.692z"/>
		<path style="fill:#F1F1F2;" d="M45.191,23.076c-0.102-0.165-1.225-0.74-2.505-0.688c0.035,0.469,0.08,0.955,0.131,1.449
			C44.019,23.79,45.09,23.298,45.191,23.076z"/>
		<path style="fill:#A87C4F;" d="M46.641,107.211c-1.572,0.219-2.27,1.555-2.645,2.272c-0.031,0.061-0.056,0.103-0.082,0.152
			c1.227,1.146,2.797,1.491,4.247,0.908c0.992-0.399,1.679-1.165,1.737-1.891C48.907,107.425,48.007,107.025,46.641,107.211z"/>
		<path style="fill:#F1717A;" d="M31.58,83.968l1.546,3.283c4.116-2.295,13.438-6.409,18.703-0.322
			c1.362-0.538,2.702-1.12,4.01-1.737C49.528,80.306,42.008,79.928,31.58,83.968z"/>
		<path style="fill:#A87C4F;" d="M27.664,85.567c-0.046,0.884-0.268,1.977-0.967,2.848c-0.606,0.755-1.469,1.216-2.572,1.376
			c2.207,2.674,4.302,7.289,4.302,12.129c0,0.639,0.277,1.248,0.802,1.76c0.882,0.861,2.346,1.359,3.908,1.327
			c0.002,0,0.005,0,0.007,0c0.047,0,0.079,0.031,0.12,0.049c0.035,0.014,0.074,0.01,0.104,0.036
			c0.002,0.002,0.001,0.005,0.004,0.008c0.037,0.035,0.044,0.082,0.061,0.127c0.014,0.036,0.043,0.065,0.045,0.102
			c0,0.002,0.003,0.003,0.003,0.006c0.001,0.044-0.029,0.074-0.045,0.112c-0.014,0.04-0.01,0.084-0.041,0.117
			c-0.152,0.169-0.338,0.933-0.06,1.516c0.187,0.39,0.722,0.93,1.777,0.957c1.184-1.539,1.91-3.013,2.122-4.224L27.664,85.567z"/>
		<path style="fill:#A87C4F;" d="M40.533,107.069c-0.273-0.073-0.613-0.112-0.984-0.112c-1.129,0-2.684,0.384-3.81,1.39
			c0.527,1.227,1.668,2.088,3.208,2.353c1.589,0.274,3.22-0.154,4.097-1.035c-0.094-0.142-0.188-0.299-0.29-0.48
			C42.329,108.429,41.746,107.394,40.533,107.069z"/>
		<path style="fill:#F1F1F2;" d="M41.179,97.284c0.681,0.412,1.345,0.62,1.981,0.62c0.817,0,1.417-0.358,1.768-0.757
			c-0.445-0.287-1.126-0.533-1.862-0.533C42.555,96.614,41.841,96.738,41.179,97.284z"/>
		<linearGradient id="SVGID_572_" gradientUnits="userSpaceOnUse" x1="65.8327" y1="65.6421" x2="65.8327" y2="80.3329">
			<stop  offset="0" style="stop-color:#25A9E0"/>
			<stop  offset="0.9995" style="stop-color:#1B75BB"/>
		</linearGradient>
		<path style="fill:url(#SVGID_572_);" d="M70.312,69.022c-1.448-0.035-2.135-0.986-2.741-1.824
			c-0.566-0.783-1.088-1.44-2.117-1.556c-0.531,3.248-2.24,6.552-7.679,9.43c3.342,1.683,5.565,3.787,6.833,5.261
			c4.221-2.708,7.546-5.412,9.284-7.305v-2.296c-0.064-0.026-0.123-0.063-0.163-0.127C73.418,70.111,72.773,69.082,70.312,69.022z
			 M68.649,73.31h-1.753v1.744c0,0.185-0.15,0.334-0.336,0.334c-0.186,0-0.336-0.149-0.336-0.334V73.31h-1.753
			c-0.186,0-0.336-0.149-0.336-0.334s0.15-0.334,0.336-0.334h1.753v-1.744c0-0.185,0.15-0.334,0.336-0.334
			c0.186,0,0.336,0.15,0.336,0.334v1.744h1.753c0.186,0,0.336,0.149,0.336,0.334S68.835,73.31,68.649,73.31z"/>
		<path style="fill:#A87C4F;" d="M51.157,106.795c-0.394,0.435-0.576,0.941-0.57,1.5c1.776,0.474,2.869-0.154,3.301-0.938
			c0.326-0.592,0.259-1.248-0.136-1.647C53.002,105.677,51.87,106.005,51.157,106.795z"/>
		<linearGradient id="SVGID_573_" gradientUnits="userSpaceOnUse" x1="43.0179" y1="84.373" x2="43.0179" y2="89.072">
			<stop  offset="0" style="stop-color:#F9EC31"/>
			<stop  offset="0.9995" style="stop-color:#C3996B"/>
		</linearGradient>
		<path style="fill:url(#SVGID_573_);" d="M34.86,87.088c1.087,0.559,1.989,1.226,2.662,1.984c0.678-1.18,2.875-4.181,7.68-4.181
			c0.954,0,1.814,0.416,2.557,1.236c0.454,0.501,0.845,1.138,1.188,1.863c0.748-0.252,1.492-0.521,2.23-0.803
			C49.043,84.854,44.307,82.284,34.86,87.088z"/>
		<linearGradient id="SVGID_574_" gradientUnits="userSpaceOnUse" x1="44.6756" y1="103.3472" x2="44.6756" y2="109.0651">
			<stop  offset="0" style="stop-color:#F9EC31"/>
			<stop  offset="0.9995" style="stop-color:#C3996B"/>
		</linearGradient>
		<path style="fill:url(#SVGID_574_);" d="M50.633,103.347c-1.543,0.72-6.622,1.15-9.411,1.15c-1.511,0-2.642-0.099-3.374-0.292
			c-0.191,0.853-0.585,1.756-1.19,2.729c0.99-0.46,2.051-0.644,2.892-0.644c0.429,0,0.83,0.047,1.158,0.135
			c1.486,0.397,2.176,1.623,2.633,2.434c0.041,0.072,0.079,0.142,0.117,0.206c0.421-0.798,1.264-2.261,3.09-2.516
			c1.607-0.228,2.665,0.402,3.411,1.156c0.1-0.496,0.335-0.956,0.699-1.358c0.556-0.616,1.32-1.001,2.036-1.187
			C51.932,104.725,51.09,104.098,50.633,103.347z"/>
		<path style="fill:#A87C4F;" d="M37.13,95.753c0.884-0.973,1.345-2.355,1.144-3.683c-0.199-1.323-1.093-3.18-4.139-4.595
			c-0.241,0.129-0.476,0.248-0.723,0.386L37.13,95.753z"/>
		<path style="fill:#F1F1F2;" d="M47.792,97.048c0.102,0.167,1.236,0.754,2.534,0.688c-0.035-0.469-0.081-0.955-0.131-1.449
			C48.981,96.327,47.894,96.826,47.792,97.048z"/>
		<path style="fill:#A87C4F;" d="M39.876,101.581l1.055,2.241c0.1,0.001,0.187,0.006,0.291,0.006c0.948,0,1.917-0.038,2.858-0.1
			c-0.067-0.478-0.304-0.903-0.72-1.261C42.541,101.764,41.163,101.44,39.876,101.581z"/>
		<path style="fill:#A87C4F;" d="M53.551,86.95c-1.426,0.604-2.877,1.161-4.344,1.656c0.604,1.481,1.026,3.248,1.316,5.043
			C52.819,92.309,53.676,88.524,53.551,86.95z"/>
		<path style="fill:#FFFFFF;" d="M47.079,101.857c0.717-0.661,1.868-0.943,3.393-0.879c-0.008-0.725-0.041-1.61-0.102-2.573
			c-0.075,0.004-0.149,0.012-0.224,0.012c-1.158,0-2.328-0.438-2.791-0.919c-0.079-0.083-0.11-0.157-0.146-0.231
			c0.055,0.931,0.295,1.885,0.808,2.491c0.119,0.141,0.101,0.352-0.041,0.471c-0.063,0.052-0.14,0.078-0.216,0.078
			c-0.096,0-0.19-0.04-0.257-0.119c-1.169-1.381-1.174-4.055-0.662-5.364c0.274-0.7,0.464-1.712,0.1-2.263
			c-0.181-0.274-0.491-0.416-0.945-0.433c-0.647-0.024-1.099,0.097-1.326,0.348c-0.209,0.232-0.209,0.569-0.172,0.809
			c0.027,0.183-0.099,0.353-0.282,0.38c-0.18,0.031-0.354-0.097-0.382-0.281c-0.083-0.549,0.033-1.017,0.336-1.354
			c0.369-0.411,0.999-0.591,1.851-0.571c0.845,0.031,1.272,0.416,1.482,0.734c0.633,0.959,0.132,2.441-0.036,2.872
			c-0.165,0.424-0.265,1.045-0.272,1.714c0.287-0.626,1.693-1.106,2.927-1.16c-0.409-3.487-1.245-7.262-2.863-9.049
			c-0.619-0.683-1.292-1.014-2.058-1.014c-4.971,0-6.863,3.326-7.229,4.081c0.51,0.719,0.841,1.502,0.967,2.33
			c0.248,1.644-0.326,3.323-1.492,4.456l2.126,4.516c1.527-0.23,3.225,0.161,4.225,1.019c0.552,0.474,0.865,1.064,0.947,1.719
			c0.533-0.042,1.051-0.091,1.545-0.146C46.36,102.853,46.617,102.285,47.079,101.857z M43.937,87.731
			c0.135-0.128,0.348-0.121,0.474,0.014c0.253,0.266,1.457,0.339,1.987-0.042c0.15-0.11,0.36-0.074,0.469,0.075
			c0.109,0.15,0.075,0.359-0.075,0.467c-0.367,0.263-0.928,0.394-1.469,0.394c-0.574,0-1.125-0.146-1.399-0.435
			C43.796,88.069,43.802,87.858,43.937,87.731z M42.63,89.449c0.844-0.027,1.679,0.025,2.42,0.071
			c1.069,0.067,1.995,0.124,2.616-0.057c0.181-0.05,0.365,0.048,0.417,0.226c0.053,0.178-0.049,0.363-0.227,0.415
			c-0.382,0.112-0.83,0.149-1.332,0.149c-0.464,0-0.972-0.032-1.516-0.066c-0.762-0.048-1.549-0.097-2.356-0.07
			c-0.004,0-0.008,0-0.011,0c-0.18,0-0.33-0.142-0.336-0.323C42.3,89.61,42.445,89.456,42.63,89.449z M44.723,100.302
			c-0.239,0.044-0.489,0.066-0.744,0.066c-1.93,0-4.214-1.226-5.589-3.078c-0.11-0.148-0.079-0.358,0.071-0.467
			c0.149-0.107,0.359-0.078,0.47,0.07c1.553,2.092,4.1,3.04,5.67,2.752c0.181-0.036,0.358,0.086,0.391,0.268
			C45.026,100.095,44.906,100.269,44.723,100.302z M45.681,97.255c-0.511,0.824-1.453,1.317-2.521,1.317
			c-0.884,0-1.797-0.326-2.713-0.968l-0.315-0.222l0.264-0.28c0.713-0.757,1.636-1.157,2.671-1.157c1.137,0,2.085,0.475,2.551,0.883
			l0.213,0.186L45.681,97.255z"/>
		<linearGradient id="SVGID_575_" gradientUnits="userSpaceOnUse" x1="69.7212" y1="53.5768" x2="69.7212" y2="69.6941">
			<stop  offset="0" style="stop-color:#1B75BB"/>
			<stop  offset="0.9995" style="stop-color:#2B388F"/>
		</linearGradient>
		<path style="fill:url(#SVGID_575_);" d="M66.737,53.677c-0.897,3.166-1.009,6.049-1.01,6.101
			c-0.017,0.516-0.019,1.045-0.021,1.583c-0.005,1.168-0.011,2.377-0.155,3.598c1.323,0.15,1.983,1.043,2.565,1.848
			c0.589,0.815,1.098,1.518,2.213,1.546c2.07,0.051,3.049,0.753,3.562,1.341V53.577l-4.362,2.51L66.737,53.677z M70.309,58.56
			c0-0.185,0.15-0.334,0.336-0.334s0.336,0.149,0.336,0.334v1.225h1.349c0.186,0,0.336,0.149,0.336,0.334s-0.15,0.334-0.336,0.334
			H70.98v4.809c0,0.185-0.15,0.334-0.336,0.334s-0.336-0.15-0.336-0.334v-4.809h-1.549c-0.186,0-0.336-0.149-0.336-0.334
			s0.15-0.334,0.336-0.334h1.549V58.56z"/>
		<path style="fill:#A87C4F;" d="M50.632,94.346c0.193,1.354,0.317,2.691,0.393,3.899c4.137-2.182,7.031-8.193,6.239-12.992
			c-1.002,0.494-2.03,0.964-3.07,1.417C54.471,88.494,53.459,92.916,50.632,94.346z"/>
		<path style="fill:#A87C4F;" d="M50.473,101.646c-1.338-0.061-2.361,0.17-2.936,0.701c-0.306,0.283-0.496,0.655-0.57,1.107
			c1.802-0.228,3.155-0.516,3.47-0.74C50.456,102.474,50.47,102.114,50.473,101.646z"/>
		<path style="fill:#EC1C24;" d="M22.173,82.858l-0.979-0.974c-0.179-0.178-0.491-0.178-0.668,0l-0.495,0.492
			c-0.184,0.183-0.184,0.482,0,0.666l1.216,1.21l-1.216,1.21c-0.184,0.183-0.184,0.482,0.001,0.666l0.494,0.49
			c0.177,0.179,0.489,0.18,0.668,0.001l1.216-1.21l1.215,1.21c0.178,0.179,0.49,0.178,0.668,0l0.494-0.491
			c0.089-0.089,0.139-0.208,0.138-0.333c0-0.125-0.049-0.243-0.138-0.332l-1.216-1.21l1.216-1.21c0.184-0.183,0.184-0.482,0-0.665
			l-0.494-0.492c-0.178-0.178-0.49-0.178-0.668,0l-1.215,1.21L22.173,82.858z"/>
		<linearGradient id="SVGID_576_" gradientUnits="userSpaceOnUse" x1="23.1903" y1="50.9735" x2="23.1903" y2="66.6807">
			<stop  offset="0" style="stop-color:#1B75BB"/>
			<stop  offset="0.9995" style="stop-color:#2B388F"/>
		</linearGradient>
		<path style="fill:url(#SVGID_576_);" d="M26.272,66.441c0.897-3.165,1.011-6.048,1.012-6.1c0.016-0.515,0.018-1.043,0.02-1.581
			c0.005-1.169,0.011-2.377,0.155-3.6c-1.322-0.15-1.983-1.044-2.565-1.848c-0.59-0.815-1.098-1.519-2.214-1.546
			c-2.037-0.05-3.146-0.414-3.76-0.792v15.707l0.07-0.064l4.49-2.584L26.272,66.441z M22.701,61.559c0,0.185-0.15,0.334-0.336,0.334
			c-0.186,0-0.336-0.149-0.336-0.334v-1.225h-1.348c-0.186,0-0.336-0.149-0.336-0.334s0.15-0.334,0.336-0.334h1.348v-4.81
			c0-0.185,0.15-0.334,0.336-0.334c0.186,0,0.336,0.149,0.336,0.334v4.81h1.551c0.186,0,0.336,0.149,0.336,0.334
			s-0.15,0.334-0.336,0.334h-1.551V61.559z"/>
		<linearGradient id="SVGID_577_" gradientUnits="userSpaceOnUse" x1="57.7307" y1="73.6057" x2="57.7307" y2="82.0453">
			<stop  offset="0" style="stop-color:#1B75BB"/>
			<stop  offset="0.9995" style="stop-color:#2B388F"/>
		</linearGradient>
		<path style="fill:url(#SVGID_577_);" d="M51.425,73.606c0.333,1.142,0.575,2.196,0.628,3.092c3.4,0.988,6.703,2.691,9.757,5.347
			c0.762-0.446,1.51-0.894,2.228-1.346C62.137,78.514,58.124,74.96,51.425,73.606z"/>
		<path style="fill:#F1F1F2;" d="M26.058,67.141l-2.654-2.291l-4.004,2.304c-0.393,0.649-0.396,1.751-0.101,2.139
			c0.051,0.069,0.107,0.089,0.171,0.091c0.187-0.342,0.489-0.71,0.99-1.082c0.148-0.112,0.359-0.082,0.47,0.068
			c0.111,0.148,0.081,0.357-0.068,0.467c-0.804,0.598-1.135,1.251-0.933,1.84c0.129,0.376,0.453,0.633,0.737,0.706
			c0.375-0.575,0.981-1.044,1.432-1.385c0.049-0.037,0.096-0.072,0.14-0.106c-0.176-0.317-0.24-0.692-0.185-1.101
			c0.104-0.773,0.622-1.551,1.353-2.031c0.153-0.103,0.362-0.06,0.465,0.095c0.102,0.154,0.06,0.362-0.095,0.463
			c-0.565,0.371-0.98,0.984-1.057,1.562c-0.032,0.238-0.019,0.58,0.225,0.856l0.22,0.248l-0.247,0.221
			c-0.1,0.09-0.245,0.2-0.412,0.326c-0.545,0.412-1.368,1.033-1.49,1.698c-0.048,0.261,0.007,0.475,0.169,0.657
			c0.224,0.252,0.638,0.402,1.065,0.404C24.136,71.84,25.318,69.468,26.058,67.141z"/>
		<linearGradient id="SVGID_578_" gradientUnits="userSpaceOnUse" x1="34.3151" y1="60.3386" x2="34.3151" y2="77.7106">
			<stop  offset="0" style="stop-color:#1B75BB"/>
			<stop  offset="0.9995" style="stop-color:#2B388F"/>
		</linearGradient>
		<path style="fill:url(#SVGID_578_);" d="M36.076,76.425c0.28-3.242,1.744-7.49,2.931-10.922c0.758-2.19,1.418-4.104,1.566-5.164
			c-0.358-0.001-0.75,0.024-1.162,0.066c-0.662,3.955-3.906,6.792-6.933,6.95c-0.632,3.829-2.067,6.785-4.422,9.184
			c1.496,0.622,2.77,1.063,3.091,1.171C32.743,77.211,34.391,76.771,36.076,76.425z"/>
		<path style="fill:#ACDFEF;" d="M35.611,99.274L35.611,99.274l2.211,4.216c0.475,0.166,1.284,0.276,2.359,0.317l-11.55-24.523
			c-0.951,0.352-1.912,0.721-2.905,1.144L35.611,99.274C35.61,99.273,35.611,99.273,35.611,99.274z"/>
		<path style="fill:#F1F1F2;" d="M32.201,61.565c-0.074-4.419,0.903-7.807,2.997-10.298c0.003-0.005-0.001-0.011,0.003-0.016
			c0.007-0.01,0.021-0.01,0.028-0.02c1.525-1.798,3.631-3.13,6.365-4.03c-2.127-0.418-3.978-1.056-5.602-1.804
			c-7.977,4.028-7.999,8.987-8.016,13.364c-0.002,0.545-0.004,1.078-0.02,1.6c-0.107,3.291-1.313,10.187-5.087,13.295
			c1.014,0.938,2.849,1.87,4.543,2.607C29.754,73.966,32.347,70.191,32.201,61.565z M33.427,49.358c0.334,0,0.605,0.27,0.605,0.601
			c0,0.332-0.272,0.603-0.605,0.603c-0.334,0-0.606-0.27-0.606-0.603C32.821,49.627,33.093,49.358,33.427,49.358z M30.516,55.421
			c0.334,0,0.605,0.27,0.605,0.603s-0.272,0.603-0.605,0.603c-0.333,0-0.605-0.271-0.605-0.603S30.183,55.421,30.516,55.421z
			 M29.978,61.987c0.333,0,0.605,0.27,0.605,0.602c0,0.332-0.272,0.603-0.605,0.603c-0.334,0-0.605-0.27-0.605-0.603
			C29.372,62.257,29.644,61.987,29.978,61.987z M28.832,67.967c0.334,0,0.605,0.27,0.605,0.602c0,0.332-0.272,0.603-0.605,0.603
			c-0.334,0-0.605-0.271-0.605-0.603C28.227,68.237,28.498,67.967,28.832,67.967z M26.138,74.296c-0.334,0-0.605-0.27-0.605-0.603
			c0-0.332,0.272-0.603,0.605-0.603c0.334,0,0.605,0.27,0.605,0.603C26.743,74.026,26.471,74.296,26.138,74.296z"/>
		<path style="fill:#D64656;" d="M29.261,79.046l2.033,4.315c10.848-4.21,18.649-3.744,25.229,1.509
			c1.618-0.784,3.178-1.614,4.667-2.466C55.433,77.485,45.391,73.271,29.261,79.046z"/>
	</g>
	<path style="display:inline;fill:none;stroke:#000000;stroke-width:0.8;stroke-linecap:round;stroke-miterlimit:10;" d="
		M42.248,17.252c-0.164,1.579-0.049,17.643,5.562,17.643c5.794-0.001,7.612-4.444,7.612-4.444"/>
	<path style="display:inline;fill:none;stroke:#000000;stroke-width:0.8;stroke-miterlimit:10;" d="M42.349,21.313
		c-4.644,2.045-8.012,8.887-6.848,14.118"/>
	<path style="display:inline;fill:none;stroke:#000000;stroke-width:0.8;stroke-miterlimit:10;" d="M42.755,25.954
		c-3.005,1.279-3.947,6.191-3.569,7.667"/>
	
		<line style="display:inline;fill:none;stroke:#000000;stroke-width:0.8;stroke-miterlimit:10;" x1="52.216" y1="15.795" x2="64.179" y2="41.196"/>
	<path style="display:inline;fill:none;stroke:#000000;stroke-width:0.8;stroke-linecap:round;stroke-miterlimit:10;" d="
		M55.422,16.35l12.327,23.505c-12.26,5.296-26.002,7.054-36.443-2.131"/>
	<path style="display:inline;fill:none;stroke:#000000;stroke-width:0.8;stroke-miterlimit:10;" d="M44.243,31.713
		c-10.849,3.584-22.382,11.743-25.658,15.25"/>
	<path style="display:inline;fill:none;stroke:#000000;stroke-width:0.8;stroke-miterlimit:10;" d="M41.269,32.799
		c2.162,2.632,7.574,5.984,18.768-0.398"/>
	<path style="display:inline;fill:none;stroke:#000000;stroke-width:0.8;stroke-miterlimit:10;" d="M55.967,23.762
		c-2.23,1.947-2.893,6.665,2.928,9.268"/>
	<path style="display:inline;fill:none;stroke:#000000;stroke-width:0.8;stroke-miterlimit:10;" d="M36.571,34.895
		c6.295,5.095,14.004,5.902,25.318,1.443"/>
	<path style="display:inline;fill:none;stroke:#000000;stroke-width:0.8;stroke-miterlimit:10;" d="M42.266,18.803
		c2.714,0.202,4.149-0.737,4.149-2.584"/>
	<path style="display:inline;fill:none;stroke:#000000;stroke-width:0.8;stroke-miterlimit:10;" d="M53.642,18.826
		c-2.195,0.447-5.197-0.573-5.068-2.852"/>
	
		<line style="display:inline;fill:none;stroke:#000000;stroke-width:0.8;stroke-linecap:round;stroke-miterlimit:10;" x1="56.15" y1="17.738" x2="62.697" y2="17.738"/>
	<path style="display:inline;fill:none;stroke:#000000;stroke-width:0.8;stroke-linecap:round;stroke-miterlimit:10;" d="
		M57.696,20.688c0.043,0.083,3.316,0,3.316,0"/>
	
		<line style="display:inline;fill:none;stroke:#000000;stroke-width:0.8;stroke-linecap:round;stroke-miterlimit:10;" x1="59.05" y1="23.268" x2="64.179" y2="23.268"/>
	
		<line style="display:inline;fill:none;stroke:#000000;stroke-width:0.8;stroke-linecap:round;stroke-miterlimit:10;" x1="60.458" y1="25.954" x2="62.697" y2="25.954"/>
	
		<line style="display:inline;fill:none;stroke:#000000;stroke-width:0.8;stroke-linecap:round;stroke-miterlimit:10;" x1="61.889" y1="28.684" x2="65.526" y2="28.684"/>
	<path style="display:inline;fill:none;stroke:#000000;stroke-width:0.8;stroke-linecap:round;stroke-miterlimit:10;" d="
		M59.867,14.778c2.721-0.052,5.052,1.418,5.052,3.421c0,5.364,2.527,10.091,4.649,12.404c-4.817,0.168-3.807,5.462-3.807,5.462"/>
	<path style="display:inline;fill:none;stroke:#000000;stroke-width:0.8;stroke-linecap:round;stroke-miterlimit:10;" d="
		M46.415,32.145c0.653-0.468,2.048-0.402,2.427,0"/>
	<path style="display:inline;fill:none;stroke:#000000;stroke-width:0.8;stroke-linecap:round;stroke-miterlimit:10;" d="
		M45.25,30.335c1.145-0.336,3.099,0.067,5.119,0"/>
	<path style="display:inline;fill:none;stroke:#000000;stroke-width:0.8;stroke-linecap:round;stroke-miterlimit:10;" d="
		M45.25,20.145c1.078,1.274,1.078,3.821,0.606,5.027c-0.471,1.208-0.674,3.084,1.145,3.152c1.819,0.067,1.933-0.939,1.842-1.542"/>
	<path style="display:inline;fill:none;stroke:#000000;stroke-width:0.8;stroke-linecap:round;stroke-miterlimit:10;" d="
		M48.348,20.145c1.819-0.336,4.459,0.804,6.001,2.882"/>
	<path style="display:inline;fill:none;stroke:#000000;stroke-width:0.8;stroke-linecap:round;stroke-miterlimit:10;" d="
		M47.588,23.046c0.673-1.088,2.503-1.83,4.755-0.251C50.754,24.48,48.463,23.811,47.588,23.046z"/>
	<path style="display:inline;fill:none;stroke:#000000;stroke-width:0.8;stroke-linecap:round;stroke-miterlimit:10;" d="
		M42.413,22.065c1.556-0.169,3.173,0.634,3.106,1.078c-0.067,0.445-1.528,1.046-2.915,1.037"/>
	
		<line style="display:inline;fill:none;stroke:#000000;stroke-width:0.8;stroke-linecap:round;stroke-miterlimit:10;" x1="47.63" y1="44.281" x2="47.63" y2="58.278"/>
	
		<line style="display:inline;fill:none;stroke:#000000;stroke-width:0.8;stroke-linecap:round;stroke-miterlimit:10;" x1="50.033" y1="44.281" x2="50.033" y2="59.744"/>
	<path style="display:inline;fill:none;stroke:#000000;stroke-width:0.8;stroke-linecap:round;stroke-miterlimit:10;" d="
		M41.269,43.181c0.074,3.151,2.977,8.803,2.974,12.423"/>
	<path style="display:inline;fill:none;stroke:#000000;stroke-width:0.8;stroke-linecap:round;stroke-miterlimit:10;" d="
		M56.623,43.456c-0.393,5.517-4.489,14.238-4.557,16.652"/>
	
		<line style="display:inline;fill:none;stroke:#000000;stroke-width:0.8;stroke-linecap:round;stroke-miterlimit:10;" x1="50.033" y1="46.963" x2="53.805" y2="46.426"/>
	
		<line style="display:inline;fill:none;stroke:#000000;stroke-width:0.8;stroke-linecap:round;stroke-miterlimit:10;" x1="50.033" y1="49.477" x2="53.063" y2="48.839"/>
	
		<line style="display:inline;fill:none;stroke:#000000;stroke-width:0.8;stroke-linecap:round;stroke-miterlimit:10;" x1="50.033" y1="51.746" x2="52.525" y2="51.353"/>
	
		<line style="display:inline;fill:none;stroke:#000000;stroke-width:0.8;stroke-linecap:round;stroke-miterlimit:10;" x1="50.033" y1="54.27" x2="51.548" y2="53.935"/>
	
		<line style="display:inline;fill:none;stroke:#000000;stroke-width:0.8;stroke-linecap:round;stroke-miterlimit:10;" x1="47.63" y1="54.27" x2="45.654" y2="53.532"/>
	
		<line style="display:inline;fill:none;stroke:#000000;stroke-width:0.8;stroke-linecap:round;stroke-miterlimit:10;" x1="47.63" y1="51.746" x2="45.25" y2="50.918"/>
	
		<line style="display:inline;fill:none;stroke:#000000;stroke-width:0.8;stroke-linecap:round;stroke-miterlimit:10;" x1="47.63" y1="49.158" x2="44.243" y2="48.37"/>
	
		<line style="display:inline;fill:none;stroke:#000000;stroke-width:0.8;stroke-linecap:round;stroke-miterlimit:10;" x1="47.63" y1="46.963" x2="43.852" y2="46.024"/>
	<path style="display:inline;fill:none;stroke:#000000;stroke-width:0.8;stroke-linecap:round;stroke-miterlimit:10;" d="
		M28.52,39.416c2.179,2.585,6.461,6.272,13.515,7.547"/>
	<path style="display:inline;fill:none;stroke:#000000;stroke-width:0.8;stroke-linecap:round;stroke-miterlimit:10;" d="
		M61.889,42.065c0,0,6.735,2.216,8.755,4.428c-4.244,3.15-5.178,10.926-5.253,13.274c-0.154,4.79,0.943,10.661-8.286,15.287"/>
	<path style="display:inline;fill:none;stroke:#000000;stroke-width:0.8;stroke-linecap:round;stroke-miterlimit:10;" d="
		M65.525,43.456c-3.099,2.97-5.186,7.123-5.052,15.103c0.135,7.979-3.199,12.271-9.684,14.214"/>
	<path style="display:inline;fill:none;stroke:#000000;stroke-width:0.8;stroke-linecap:round;stroke-miterlimit:10;" d="
		M60.796,53.082c-3.421,0-6.991,3.669-6.991,8.094c0,4.425,2.46,6.71,3.722,7.511"/>
	<path style="display:inline;fill:none;stroke:#000000;stroke-width:0.8;stroke-linecap:round;stroke-miterlimit:10;" d="
		M59.869,64.095c-1.282-0.841-1.737-1.914-1.712-2.785c0.026-0.872,0.228-2.282,2.316-2.75"/>
	<path style="display:inline;fill:none;stroke:#000000;stroke-width:0.8;stroke-linecap:round;stroke-miterlimit:10;" d="
		M53.805,60.036c-7.288,0.839-6.306-5.096-12.804-5.096c-1.41,0-2.622,0-2.622,0"/>
	<path style="display:inline;fill:none;stroke:#000000;stroke-width:0.8;stroke-linecap:round;stroke-miterlimit:10;" d="
		M66.561,53.082l3.007,2.596l4.283-2.464c0.294-0.672,0.516-3.127-0.519-2.787"/>
	<path style="display:inline;fill:none;stroke:#000000;stroke-width:0.8;stroke-linecap:round;stroke-miterlimit:10;" d="
		M65.167,65.262c2.784,0.003,2.538,3.361,5.153,3.425c2.616,0.065,3.356,1.204,3.693,1.741"/>
	
		<line style="display:inline;fill:none;stroke:#000000;stroke-width:0.8;stroke-linecap:round;stroke-miterlimit:10;" x1="70.644" y1="58.56" x2="70.644" y2="65.262"/>
	
		<line style="display:inline;fill:none;stroke:#000000;stroke-width:0.8;stroke-linecap:round;stroke-miterlimit:10;" x1="68.759" y1="60.119" x2="72.329" y2="60.119"/>
	
		<line style="display:inline;fill:none;stroke:#000000;stroke-width:0.8;stroke-linecap:round;stroke-miterlimit:10;" x1="66.561" y1="70.897" x2="66.561" y2="75.054"/>
	
		<line style="display:inline;fill:none;stroke:#000000;stroke-width:0.8;stroke-linecap:round;stroke-miterlimit:10;" x1="68.649" y1="72.976" x2="64.472" y2="72.976"/>
	<path style="display:inline;fill:none;stroke:#000000;stroke-width:0.8;stroke-linecap:round;stroke-miterlimit:10;" d="
		M67.143,46.426c0,0.148-0.121,0.268-0.27,0.268c-0.149,0-0.27-0.121-0.27-0.268c0-0.148,0.121-0.268,0.27-0.268
		C67.021,46.158,67.143,46.278,67.143,46.426z"/>
	<path style="display:inline;fill:none;stroke:#000000;stroke-width:0.8;stroke-linecap:round;stroke-miterlimit:10;" d="
		M64.448,51.55c0,0.148-0.121,0.268-0.27,0.268c-0.149,0-0.269-0.12-0.269-0.268c0-0.148,0.12-0.268,0.269-0.268
		C64.327,51.281,64.448,51.402,64.448,51.55z"/>
	<path style="display:inline;fill:none;stroke:#000000;stroke-width:0.8;stroke-linecap:round;stroke-miterlimit:10;" d="
		M63.303,57.53c0,0.148-0.121,0.268-0.27,0.268c-0.149,0-0.27-0.12-0.27-0.268c0-0.148,0.121-0.268,0.27-0.268
		C63.182,57.262,63.303,57.381,63.303,57.53z"/>
	<path style="display:inline;fill:none;stroke:#000000;stroke-width:0.8;stroke-linecap:round;stroke-miterlimit:10;" d="
		M62.764,64.095c0,0.148-0.12,0.269-0.27,0.269c-0.148,0-0.269-0.121-0.269-0.269c0-0.147,0.121-0.268,0.269-0.268
		C62.644,63.827,62.764,63.947,62.764,64.095z"/>
	<path style="display:inline;fill:none;stroke:#000000;stroke-width:0.8;stroke-linecap:round;stroke-miterlimit:10;" d="
		M59.854,70.16c0,0.149-0.121,0.268-0.27,0.268c-0.149,0-0.27-0.119-0.27-0.268c0-0.148,0.121-0.268,0.27-0.268
		C59.733,69.891,59.854,70.011,59.854,70.16z"/>
	<path style="display:inline;fill:none;stroke:#000000;stroke-width:0.8;stroke-linecap:round;stroke-miterlimit:10;" d="
		M70.644,46.493c0.843-0.051,1.871,0.452,1.685,1.458c-0.185,1.006-1.559,1.81-2.009,2.213c0.712,0.804,0.168,2.216-0.898,2.918"/>
	<path style="display:inline;fill:none;stroke:#000000;stroke-width:0.8;stroke-linecap:round;stroke-miterlimit:10;" d="
		M72.181,48.37c0.923-0.017,2.298,1.599,0.17,3.18"/>
	
		<line style="display:inline;fill:none;stroke:#000000;stroke-width:0.8;stroke-linecap:round;stroke-miterlimit:10;" x1="70.644" y1="46.493" x2="70.601" y2="37.498"/>
	<path style="display:inline;fill:none;stroke:#000000;stroke-width:0.8;stroke-linecap:round;stroke-miterlimit:10;" d="
		M70.623,43.803c-1.077-0.956-2.218-2.087-2.874-2.137"/>
	<path style="display:inline;fill:none;stroke:#000000;stroke-width:0.8;stroke-linecap:round;stroke-miterlimit:10;" d="
		M70.644,44.632c0.742-1.86,2.212-2.615,2.184-3.62"/>
	<path style="display:inline;fill:none;stroke:#000000;stroke-width:0.8;stroke-linecap:round;stroke-miterlimit:10;" d="
		M73.216,36.842l-0.979-0.974l0.979-0.973c0.316-0.314,0.316-0.824,0-1.139l-0.494-0.491c-0.316-0.314-0.827-0.314-1.143,0
		l-0.978,0.974l-0.979-0.974c-0.315-0.315-0.827-0.315-1.142,0l-0.495,0.491c-0.315,0.315-0.315,0.825,0,1.139l0.978,0.973
		l-0.978,0.974c-0.315,0.315-0.315,0.824,0,1.138l0.495,0.492c0.315,0.314,0.827,0.314,1.142,0l0.979-0.973l0.978,0.973
		c0.316,0.314,0.827,0.314,1.143,0l0.494-0.492C73.532,37.666,73.532,37.156,73.216,36.842z"/>
	
		<path style="display:inline;fill:none;stroke:#000000;stroke-width:0.8;stroke-linecap:round;stroke-linejoin:round;stroke-miterlimit:10;" d="
		M55.422,16.35c-2.392-0.966-12.693,0.046-13.174,0.901c-0.501-1.197-2.265-2.169-3.14-2.505c1.408,0.134,3.883-0.972,3.647-3.185
		c0.912,1.174,1.939,1.916,3.66,1.677c2.167-0.301,2.836-2.515,3.112-2.817c0.511,0.537,1.019,2.458,2.862,2.951
		c1.252,0.335,3.76,0.033,5.306-1.509C56.15,13.838,55.59,15.271,55.422,16.35z"/>
	<path style="display:inline;fill:none;stroke:#000000;stroke-width:0.8;stroke-linecap:round;stroke-miterlimit:10;" d="
		M39.108,14.747c-1.404-1.173,0-4.325,3.647-3.185c0-1.977,3.909-4.089,6.772-1.14c1.75-2.145,6.941-2.01,8.169,1.442
		c2.239-0.1,2.744,2.277,2.17,2.914"/>
	<path style="display:inline;fill:none;stroke:#000000;stroke-width:0.8;stroke-linecap:round;stroke-miterlimit:10;" d="
		M50.763,102.867c0.165-1.579,0.049-17.642-5.561-17.642c-5.794,0-7.612,4.443-7.612,4.443"/>
	<path style="display:inline;fill:none;stroke:#000000;stroke-width:0.8;stroke-miterlimit:10;" d="M50.662,98.806
		c4.643-2.046,8.012-8.887,6.848-14.118"/>
	<path style="display:inline;fill:none;stroke:#000000;stroke-width:0.8;stroke-miterlimit:10;" d="M50.255,94.165
		c3.005-1.279,3.947-6.191,3.568-7.666"/>
	
		<line style="display:inline;fill:none;stroke:#000000;stroke-width:0.8;stroke-miterlimit:10;" x1="40.796" y1="104.324" x2="28.832" y2="78.922"/>
	<path style="display:inline;fill:none;stroke:#000000;stroke-width:0.8;stroke-linecap:round;stroke-miterlimit:10;" d="
		M37.59,103.769L25.261,80.264c12.26-5.297,26.002-7.054,36.444,2.131"/>
	<path style="display:inline;fill:none;stroke:#000000;stroke-width:0.8;stroke-miterlimit:10;" d="M48.768,88.406
		c10.849-3.584,21.641-11.022,25.459-15.249"/>
	<path style="display:inline;fill:none;stroke:#000000;stroke-width:0.8;stroke-miterlimit:10;" d="M51.742,87.321
		c-2.162-2.632-7.575-5.984-18.768,0.396"/>
	<path style="display:inline;fill:none;stroke:#000000;stroke-width:0.8;stroke-miterlimit:10;" d="M37.043,96.358
		c2.229-1.947,2.894-6.665-2.928-9.268"/>
	<path style="display:inline;fill:none;stroke:#000000;stroke-width:0.8;stroke-miterlimit:10;" d="M56.439,85.225
		c-6.294-5.095-14.003-5.903-25.318-1.443"/>
	<path style="display:inline;fill:none;stroke:#000000;stroke-width:0.8;stroke-miterlimit:10;" d="M50.744,101.316
		c-2.715-0.201-4.15,0.738-4.15,2.585"/>
	<path style="display:inline;fill:none;stroke:#000000;stroke-width:0.8;stroke-miterlimit:10;" d="M39.368,101.294
		c2.195-0.448,5.197,0.573,5.069,2.852"/>
	
		<line style="display:inline;fill:none;stroke:#000000;stroke-width:0.8;stroke-linecap:round;stroke-miterlimit:10;" x1="36.861" y1="102.382" x2="30.314" y2="102.382"/>
	<path style="display:inline;fill:none;stroke:#000000;stroke-width:0.8;stroke-linecap:round;stroke-miterlimit:10;" d="
		M35.314,99.43c-0.044-0.082-3.316,0-3.316,0"/>
	
		<line style="display:inline;fill:none;stroke:#000000;stroke-width:0.8;stroke-linecap:round;stroke-miterlimit:10;" x1="33.961" y1="96.85" x2="28.832" y2="96.85"/>
	
		<line style="display:inline;fill:none;stroke:#000000;stroke-width:0.8;stroke-linecap:round;stroke-miterlimit:10;" x1="32.552" y1="94.165" x2="30.314" y2="94.165"/>
	
		<line style="display:inline;fill:none;stroke:#000000;stroke-width:0.8;stroke-linecap:round;stroke-miterlimit:10;" x1="31.12" y1="91.435" x2="27.485" y2="91.435"/>
	<path style="display:inline;fill:none;stroke:#000000;stroke-width:0.8;stroke-linecap:round;stroke-miterlimit:10;" d="
		M33.144,105.34c-2.723,0.053-5.052-1.418-5.052-3.421c0-5.364-2.527-10.09-4.649-12.404c4.817-0.168,3.807-5.462,3.807-5.462"/>
	<path style="display:inline;fill:none;stroke:#000000;stroke-width:0.8;stroke-linecap:round;stroke-miterlimit:10;" d="
		M46.594,87.974c-0.653,0.469-2.046,0.402-2.427,0"/>
	<path style="display:inline;fill:none;stroke:#000000;stroke-width:0.8;stroke-linecap:round;stroke-miterlimit:10;" d="
		M47.761,89.784c-1.145,0.336-3.099-0.067-5.119,0"/>
	<path style="display:inline;fill:none;stroke:#000000;stroke-width:0.8;stroke-linecap:round;stroke-miterlimit:10;" d="
		M47.761,99.974c-1.078-1.273-1.078-3.82-0.606-5.027c0.472-1.207,0.674-3.084-1.145-3.151c-1.819-0.067-1.934,0.937-1.843,1.541"/>
	<path style="display:inline;fill:none;stroke:#000000;stroke-width:0.8;stroke-linecap:round;stroke-miterlimit:10;" d="
		M44.661,99.974c-1.819,0.336-4.458-0.804-6.001-2.882"/>
	
		<line style="display:inline;fill:none;stroke:#000000;stroke-width:0.8;stroke-linecap:round;stroke-miterlimit:10;" x1="45.381" y1="75.838" x2="45.381" y2="61.841"/>
	
		<line style="display:inline;fill:none;stroke:#000000;stroke-width:0.8;stroke-linecap:round;stroke-miterlimit:10;" x1="42.978" y1="75.838" x2="42.978" y2="60.375"/>
	<path style="display:inline;fill:none;stroke:#000000;stroke-width:0.8;stroke-linecap:round;stroke-miterlimit:10;" d="
		M51.742,76.938c-0.074-3.15-2.977-8.803-2.974-12.423"/>
	<path style="display:inline;fill:none;stroke:#000000;stroke-width:0.8;stroke-linecap:round;stroke-miterlimit:10;" d="
		M36.387,76.663c0.393-5.517,4.489-14.239,4.556-16.652"/>
	
		<line style="display:inline;fill:none;stroke:#000000;stroke-width:0.8;stroke-linecap:round;stroke-miterlimit:10;" x1="42.978" y1="73.157" x2="39.206" y2="73.693"/>
	
		<line style="display:inline;fill:none;stroke:#000000;stroke-width:0.8;stroke-linecap:round;stroke-miterlimit:10;" x1="42.978" y1="70.643" x2="39.947" y2="71.28"/>
	
		<line style="display:inline;fill:none;stroke:#000000;stroke-width:0.8;stroke-linecap:round;stroke-miterlimit:10;" x1="42.978" y1="68.373" x2="40.486" y2="68.766"/>
	
		<line style="display:inline;fill:none;stroke:#000000;stroke-width:0.8;stroke-linecap:round;stroke-miterlimit:10;" x1="42.978" y1="65.848" x2="41.463" y2="66.184"/>
	
		<line style="display:inline;fill:none;stroke:#000000;stroke-width:0.8;stroke-linecap:round;stroke-miterlimit:10;" x1="45.381" y1="65.848" x2="47.357" y2="66.587"/>
	
		<line style="display:inline;fill:none;stroke:#000000;stroke-width:0.8;stroke-linecap:round;stroke-miterlimit:10;" x1="45.381" y1="68.373" x2="47.761" y2="69.201"/>
	
		<line style="display:inline;fill:none;stroke:#000000;stroke-width:0.8;stroke-linecap:round;stroke-miterlimit:10;" x1="45.381" y1="70.961" x2="48.768" y2="71.749"/>
	
		<line style="display:inline;fill:none;stroke:#000000;stroke-width:0.8;stroke-linecap:round;stroke-miterlimit:10;" x1="45.381" y1="73.157" x2="49.158" y2="74.095"/>
	<path style="display:inline;fill:none;stroke:#000000;stroke-width:0.8;stroke-linecap:round;stroke-miterlimit:10;" d="
		M64.491,80.704c-2.18-2.586-6.463-6.272-13.516-7.547"/>
	<path style="display:inline;fill:none;stroke:#000000;stroke-width:0.8;stroke-linecap:round;stroke-miterlimit:10;" d="
		M31.12,78.054c0,0-6.734-2.216-8.756-4.427c4.244-3.152,5.179-10.926,5.255-13.275c0.154-4.79-0.943-10.66,8.285-15.287"/>
	<path style="display:inline;fill:none;stroke:#000000;stroke-width:0.8;stroke-linecap:round;stroke-miterlimit:10;" d="
		M27.485,76.663c3.098-2.97,5.186-7.123,5.051-15.103c-0.134-7.979,3.2-12.271,9.684-14.215"/>
	<path style="display:inline;fill:none;stroke:#000000;stroke-width:0.8;stroke-linecap:round;stroke-miterlimit:10;" d="
		M32.214,67.038c3.422,0,6.992-3.669,6.992-8.095c0-4.425-2.46-6.71-3.722-7.512"/>
	<path style="display:inline;fill:none;stroke:#000000;stroke-width:0.8;stroke-linecap:round;stroke-miterlimit:10;" d="
		M33.142,56.024c1.281,0.841,1.737,1.914,1.711,2.785c-0.026,0.872-0.228,2.284-2.317,2.75"/>
	<path style="display:inline;fill:none;stroke:#000000;stroke-width:0.8;stroke-linecap:round;stroke-miterlimit:10;" d="
		M39.206,60.083c7.288-0.839,6.306,5.096,12.804,5.096c1.41,0,2.622,0,2.622,0"/>
	<path style="display:inline;fill:none;stroke:#000000;stroke-width:0.8;stroke-linecap:round;stroke-miterlimit:10;" d="
		M26.45,67.038l-3.008-2.597l-4.283,2.464c-0.668,0.989-0.517,3.126,0.519,2.787"/>
	<path style="display:inline;fill:none;stroke:#000000;stroke-width:0.8;stroke-linecap:round;stroke-miterlimit:10;" d="
		M27.842,54.856c-2.782-0.003-2.537-3.361-5.153-3.425c-2.614-0.064-3.767-0.668-4.104-1.204"/>
	
		<line style="display:inline;fill:none;stroke:#000000;stroke-width:0.8;stroke-linecap:round;stroke-miterlimit:10;" x1="22.365" y1="61.559" x2="22.365" y2="54.856"/>
	
		<line style="display:inline;fill:none;stroke:#000000;stroke-width:0.8;stroke-linecap:round;stroke-miterlimit:10;" x1="24.252" y1="60" x2="20.681" y2="60"/>
	
		<line style="display:inline;fill:none;stroke:#000000;stroke-width:0.8;stroke-linecap:round;stroke-miterlimit:10;" x1="26.45" y1="49.223" x2="26.45" y2="45.065"/>
	
		<line style="display:inline;fill:none;stroke:#000000;stroke-width:0.8;stroke-linecap:round;stroke-miterlimit:10;" x1="24.361" y1="47.143" x2="28.539" y2="47.143"/>
	<path style="display:inline;fill:none;stroke:#000000;stroke-width:0.8;stroke-linecap:round;stroke-miterlimit:10;" d="
		M25.868,73.693c0-0.148,0.121-0.268,0.27-0.268s0.27,0.12,0.27,0.268c0,0.148-0.121,0.268-0.27,0.268S25.868,73.841,25.868,73.693z
		"/>
	<path style="display:inline;fill:none;stroke:#000000;stroke-width:0.8;stroke-linecap:round;stroke-miterlimit:10;" d="
		M28.562,68.569c0-0.147,0.121-0.268,0.27-0.268c0.148,0,0.27,0.12,0.27,0.268c0,0.149-0.121,0.269-0.27,0.269
		C28.684,68.838,28.562,68.717,28.562,68.569z"/>
	<path style="display:inline;fill:none;stroke:#000000;stroke-width:0.8;stroke-linecap:round;stroke-miterlimit:10;" d="
		M29.708,62.589c0-0.149,0.12-0.268,0.27-0.268c0.148,0,0.269,0.119,0.269,0.268c0,0.148-0.121,0.268-0.269,0.268
		C29.828,62.858,29.708,62.738,29.708,62.589z"/>
	<path style="display:inline;fill:none;stroke:#000000;stroke-width:0.8;stroke-linecap:round;stroke-miterlimit:10;" d="
		M30.247,56.024c0-0.148,0.12-0.268,0.269-0.268c0.15,0,0.27,0.12,0.27,0.268c0,0.148-0.12,0.269-0.27,0.269
		C30.367,56.293,30.247,56.172,30.247,56.024z"/>
	<path style="display:inline;fill:none;stroke:#000000;stroke-width:0.8;stroke-linecap:round;stroke-miterlimit:10;" d="
		M33.156,49.959c0-0.148,0.121-0.267,0.27-0.267c0.148,0,0.27,0.119,0.27,0.267c0,0.149-0.121,0.268-0.27,0.268
		C33.277,50.227,33.156,50.108,33.156,49.959z"/>
	<path style="display:inline;fill:none;stroke:#000000;stroke-width:0.8;stroke-linecap:round;stroke-miterlimit:10;" d="
		M22.365,73.627c-0.842,0.05-1.869-0.452-1.684-1.459c0.185-1.005,1.559-1.81,2.008-2.212c-0.712-0.804-0.169-2.216,0.899-2.917"/>
	<path style="display:inline;fill:none;stroke:#000000;stroke-width:0.8;stroke-linecap:round;stroke-miterlimit:10;" d="
		M20.83,71.749c-0.924,0.016-2.298-1.599-0.17-3.18"/>
	
		<line style="display:inline;fill:none;stroke:#000000;stroke-width:0.8;stroke-linecap:round;stroke-miterlimit:10;" x1="22.365" y1="73.627" x2="22.41" y2="82.621"/>
	<path style="display:inline;fill:none;stroke:#000000;stroke-width:0.8;stroke-linecap:round;stroke-miterlimit:10;" d="
		M22.388,76.316c1.078,0.956,2.217,2.087,2.874,2.138"/>
	<path style="display:inline;fill:none;stroke:#000000;stroke-width:0.8;stroke-linecap:round;stroke-miterlimit:10;" d="
		M22.365,75.487c-0.741,1.86-2.21,2.614-2.183,3.62"/>
	<path style="display:inline;fill:none;stroke:#000000;stroke-width:0.8;stroke-linecap:round;stroke-miterlimit:10;" d="
		M19.794,83.278l0.979,0.974l-0.979,0.973c-0.315,0.314-0.315,0.823,0,1.138l0.494,0.491c0.316,0.315,0.828,0.315,1.143,0
		l0.979-0.973l0.978,0.973c0.316,0.315,0.827,0.315,1.143,0l0.494-0.491c0.316-0.315,0.316-0.824,0-1.138l-0.979-0.974l0.979-0.974
		c0.315-0.314,0.315-0.824,0-1.138l-0.494-0.492c-0.316-0.314-0.828-0.314-1.143,0l-0.978,0.973l-0.979-0.973
		c-0.315-0.314-0.828-0.314-1.143,0l-0.494,0.492C19.479,82.453,19.479,82.964,19.794,83.278z"/>
	
		<path style="display:inline;fill:none;stroke:#000000;stroke-width:0.8;stroke-linecap:round;stroke-linejoin:round;stroke-miterlimit:10;" d="
		M37.59,103.769c2.391,0.966,12.693-0.046,13.173-0.901c0.501,1.198,2.264,2.169,3.14,2.505c-1.407-0.134-3.884,0.972-3.647,3.185
		c-0.914-1.174-1.94-1.916-3.661-1.677c-2.166,0.302-2.835,2.514-3.112,2.816c-0.511-0.536-1.019-2.456-2.862-2.949
		c-1.252-0.336-3.76-0.034-5.306,1.508C36.861,106.282,37.421,104.848,37.59,103.769z"/>
	<path style="display:inline;fill:none;stroke:#000000;stroke-width:0.8;stroke-linecap:round;stroke-miterlimit:10;" d="
		M53.902,105.372c1.402,1.173,0,4.324-3.647,3.185c0,1.977-3.909,4.089-6.772,1.139c-1.751,2.146-6.941,2.011-8.169-1.441
		c-2.238,0.101-2.744-2.277-2.17-2.915"/>
	<path style="display:inline;fill:none;stroke:#000000;stroke-width:0.8;stroke-miterlimit:10;" d="M61.996,15.101h11.423
		c0.223,0,0.808,0.335,0.808,0.804c0,0.47,0,87.576,0,87.956c0,0.524-0.585,0.804-0.808,0.804H52.525"/>
	<path style="display:inline;fill:none;stroke:#000000;stroke-width:0.8;stroke-miterlimit:10;" d="M30.052,104.665H18.99
		c-0.224,0-0.405-0.181-0.405-0.402v-88.76c0-0.221,0.181-0.402,0.405-0.402h20.951"/>
	<path style="display:inline;fill:none;stroke:#000000;stroke-width:0.8;stroke-linecap:round;stroke-miterlimit:10;" d="
		M45.395,97.08c-0.674,1.088-2.504,1.829-4.755,0.251C42.229,95.645,44.52,96.314,45.395,97.08z"/>
	<path style="display:inline;fill:none;stroke:#000000;stroke-width:0.8;stroke-linecap:round;stroke-miterlimit:10;" d="
		M50.57,98.061c-1.557,0.168-3.174-0.634-3.106-1.079c0.067-0.445,1.528-1.046,2.915-1.036"/>

</svg>
