
<svg xmlns="http://www.w3.org/2000/svg" viewBox="0 0 55 55">
	<style type="text/css">
		.st0{fill:#11590B;}
		.st1{fill:url(#SVGID_1_);}
		.st2{fill:#231F20;}
		.st3{opacity:0.3;fill:url(#SVGID_2_);enable-background:new;}
		.st4{fill:url(#SVGID_3_);}
		.st5{fill:url(#SVGID_4_);}
		.st6{fill:#B92025;}
		.st7{opacity:0.3;fill:url(#SVGID_5_);enable-background:new;}
		.st8{fill:url(#SVGID_6_);}
		.st9{fill:url(#SVGID_7_);}
		.st10{fill:url(#SVGID_8_);}
		.st11{opacity:0.3;fill:url(#SVGID_9_);enable-background:new;}
		.st12{fill:url(#SVGID_10_);}
		.st13{opacity:0.3;fill:url(#SVGID_11_);enable-background:new;}
		.st14{fill:url(#SVGID_12_);}
		.st15{fill:url(#center_1_);}
	</style>
	<linearGradient id="SVGID_1_" gradientUnits="userSpaceOnUse" x1="125.2456" y1="118.3158" x2="125.2456" y2="81.5737" gradientTransform="matrix(0.9346 -0.3558 -0.3558 -0.9346 -60.9011 167.942)">
		<stop offset="0" style="stop-color:#F5F5F5"/>
		<stop offset="1" style="stop-color:#D1D1D1"/>
	</linearGradient>
	<linearGradient id="SVGID_2_" gradientUnits="userSpaceOnUse" x1="125.2454" y1="105.7022" x2="125.2454" y2="81.5737" gradientTransform="matrix(0.9346 -0.3558 -0.3558 -0.9346 -60.9011 167.942)">
		<stop offset="0" style="stop-color:#D0D2D3"/>
		<stop offset="1" style="stop-color:#CCCECF"/>
	</linearGradient>
	<linearGradient id="SVGID_3_" gradientUnits="userSpaceOnUse" x1="114.5989" y1="112.85" x2="114.5989" y2="109.3698" gradientTransform="matrix(0.9346 -0.3558 -0.3558 -0.9346 -60.9011 167.942)">
		<stop offset="0" style="stop-color:#4A4A4C"/>
		<stop offset="0.3" style="stop-color:#404041"/>
		<stop offset="1" style="stop-color:#231F20"/>
	</linearGradient>
	<linearGradient id="SVGID_4_" gradientUnits="userSpaceOnUse" x1="49.0409" y1="71.361" x2="49.0409" y2="34.6163" gradientTransform="matrix(0.9954 -9.560000e-02 -9.560000e-02 -0.9954 -18.9745 84.146)">
		<stop offset="0" style="stop-color:#F5F5F5"/>
		<stop offset="1" style="stop-color:#D1D1D1"/>
	</linearGradient>
	<linearGradient id="SVGID_5_" gradientUnits="userSpaceOnUse" x1="49.0414" y1="58.747" x2="49.0414" y2="34.6162" gradientTransform="matrix(0.9954 -9.560000e-02 -9.560000e-02 -0.9954 -18.9745 84.146)">
		<stop offset="0" style="stop-color:#D0D2D3"/>
		<stop offset="1" style="stop-color:#CCCECF"/>
	</linearGradient>
	<linearGradient id="SVGID_6_" gradientUnits="userSpaceOnUse" x1="38.4078" y1="65.846" x2="38.4078" y2="61.918" gradientTransform="matrix(0.9954 -9.560000e-02 -9.560000e-02 -0.9954 -18.9745 84.146)">
		<stop offset="0" style="stop-color:#B72026"/>
		<stop offset="0.3" style="stop-color:#B11F24"/>
		<stop offset="1" style="stop-color:#710506"/>
	</linearGradient>
	<linearGradient id="SVGID_7_" gradientUnits="userSpaceOnUse" x1="0.4573" y1="29.5396" x2="0.4573" y2="-7.2036" gradientTransform="matrix(0.9944 0.1057 0.1057 -0.9944 28.2907 36.0835)">
		<stop offset="0" style="stop-color:#F5F5F5"/>
		<stop offset="1" style="stop-color:#D1D1D1"/>
	</linearGradient>
	<linearGradient id="SVGID_8_" gradientUnits="userSpaceOnUse" x1="-10.1756" y1="24.2058" x2="-10.1756" y2="20.5934" gradientTransform="matrix(0.9944 0.1057 0.1057 -0.9944 28.2907 36.0835)">
		<stop offset="0" style="stop-color:#4A4A4C"/>
		<stop offset="0.3" style="stop-color:#404041"/>
		<stop offset="1" style="stop-color:#231F20"/>
	</linearGradient>
	<linearGradient id="SVGID_9_" gradientUnits="userSpaceOnUse" x1="0.4574" y1="16.9259" x2="0.4574" y2="-7.2036" gradientTransform="matrix(0.9944 0.1057 0.1057 -0.9944 28.2907 36.0835)">
		<stop offset="0" style="stop-color:#D0D2D3"/>
		<stop offset="1" style="stop-color:#CCCECF"/>
	</linearGradient>
	<linearGradient id="SVGID_10_" gradientUnits="userSpaceOnUse" x1="-56.2287" y1="-25.8414" x2="-56.2287" y2="-62.5838" gradientTransform="matrix(0.9369 0.3497 0.3497 -0.9369 102.6233 3.236)">
		<stop offset="0" style="stop-color:#F5F5F5"/>
		<stop offset="1" style="stop-color:#D1D1D1"/>
	</linearGradient>
	<linearGradient id="SVGID_11_" gradientUnits="userSpaceOnUse" x1="-56.2288" y1="-38.4551" x2="-56.2288" y2="-62.5837" gradientTransform="matrix(0.9369 0.3497 0.3497 -0.9369 102.6233 3.236)">
		<stop offset="0" style="stop-color:#D0D2D3"/>
		<stop offset="1" style="stop-color:#CCCECF"/>
	</linearGradient>
	<linearGradient id="SVGID_12_" gradientUnits="userSpaceOnUse" x1="-66.8604" y1="-31.3556" x2="-66.8604" y2="-34.6067" gradientTransform="matrix(0.9369 0.3497 0.3497 -0.9369 102.6233 3.236)">
		<stop offset="0" style="stop-color:#B72026"/>
		<stop offset="0.3" style="stop-color:#B11F24"/>
		<stop offset="1" style="stop-color:#710506"/>
	</linearGradient>
	<linearGradient id="center_1_" gradientUnits="userSpaceOnUse" x1="-56.2284" y1="-37.7523" x2="-56.2284" y2="-50.6728" gradientTransform="matrix(0.9369 0.3497 0.3497 -0.9369 102.6233 3.236)">
		<stop offset="0" style="stop-color:#B72026"/>
		<stop offset="0.3" style="stop-color:#B11F24"/>
		<stop offset="1" style="stop-color:#710506"/>
	</linearGradient>
	<filter x="-6.1%" y="-3.9%" width="112.1%" height="113.2%" filterUnits="objectBoundingBox" id="solitaire-filter-1">
		<feOffset dx="0" dy=".75" in="SourceAlpha" result="numbersShadowOffsetOuter2"></feOffset>
		<feGaussianBlur stdDeviation=".75" in="numbersShadowOffsetOuter2" result="numbersShadowBlurOuter2"></feGaussianBlur>
		<feColorMatrix values="0 0 0 0 0   0 0 0 0 0   0 0 0 0 0  0 0 0 0.5 0" type="matrix" in="numbersShadowBlurOuter2" result="numbersShadowMatrixOuter2"></feColorMatrix>
		<feMerge>
			<feMergeNode in="numbersShadowMatrixOuter2"></feMergeNode>
			<feMergeNode in="SourceGraphic"></feMergeNode>
		</feMerge>
	</filter>
	<circle class="st0" cx="27.5" cy="27.5" r="24.9"/>
	<g id="club-ace" filter="url(#solitaire-filter-1)">
		<path class="st1" d="M39.1,40.9c0.3,0.8-0.1,1.7-0.9,2.1l-22,8.4c-0.8,0.3-1.7-0.1-2.1-0.9L2.1,19.1C1.8,18.2,2.2,17.3,3,17l22-8.4 c0.8-0.3,1.7,0.1,2.1,0.9L39.1,40.9z"/>
		<path class="st2" d="M4.1,21.2L4,20.9l0.2-0.1l0-3.1l0.6-0.2l2,2.4l0.2-0.1l0.1,0.4l-1,0.4L6,20.1L6.2,20l-0.3-0.4L4.8,20l0,0.5 l0.2,0l0.1,0.4L4.1,21.2z M4.8,19.5l0.8-0.3l-0.8-1l-0.1-0.1l0,0l0,0.1L4.8,19.5z"/>
		<path class="st3" d="M12.3,45.8l1.8,4.6c0.3,0.8,1.2,1.2,2.1,0.9l22-8.4c0.8-0.3,1.2-1.2,0.9-2.1l-8-21.1 C19.7,24.7,12.6,35.1,12.3,45.8z"/>
		<path class="st4" d="M7.4,22.6C7.3,22.7,7.1,22.9,7,23c0,0.1-0.1,0.2-0.2,0.3c0-0.2,0-0.5,0.1-0.6c0.1-0.2,0.1-0.4,0-0.6 c-0.1-0.4-0.6-0.6-0.9-0.4c-0.4,0.1-0.6,0.6-0.4,0.9C5.7,22.8,5.9,23,6,23.1c0.1,0.1,0.4,0.2,0.5,0.4c-0.1,0-0.2-0.1-0.3-0.1 c-0.2-0.1-0.4-0.1-0.6,0c-0.4,0.1-0.6,0.6-0.4,0.9c0.1,0.4,0.6,0.6,0.9,0.4c0.2-0.1,0.3-0.2,0.4-0.4c0-0.1,0.1-0.2,0.2-0.3 c0.2,0.5,0,0.8-0.1,1.1l0,0.1l1.3-0.5l0-0.1c-0.3-0.1-0.6-0.2-0.8-0.7c0.1,0,0.3,0.1,0.3,0.1c0.2,0.1,0.4,0.1,0.6,0 c0.4-0.1,0.6-0.6,0.4-0.9C8.2,22.7,7.8,22.5,7.4,22.6L7.4,22.6z"/>
	</g>
	<g id="diamond-ace" filter="url(#solitaire-filter-1)">
		<path class="st5" d="M39.7,42.1c0.1,0.9-0.6,1.7-1.4,1.7l-23.5,2.3c-0.9,0.1-1.7-0.6-1.7-1.4L9.9,11.3c-0.1-0.9,0.6-1.7,1.4-1.7 l23.5-2.3c0.9-0.1,1.7,0.6,1.7,1.4L39.7,42.1z"/>
		<path class="st6" d="M11.2,13.9l0-0.4l0.2-0.1l0.8-3l0.6-0.1l1.3,2.8l0.2,0l0,0.4l-1.1,0.1l0-0.4l0.2-0.1l-0.2-0.5l-1.2,0.1 L12,13.4l0.2,0l0,0.4L11.2,13.9z M12.3,12.4l0.9-0.1l-0.5-1.1l0-0.1l0,0l0,0.1L12.3,12.4z"/>
		<path class="st7" d="M12.6,39.7l0.5,4.9c0.1,0.9,0.9,1.5,1.7,1.4l23.5-2.3c0.9-0.1,1.5-0.9,1.4-1.7l-2.2-22.4 C25.3,21.4,15.7,29.5,12.6,39.7z"/>
		<path class="st8" d="M12.8,15.1c-0.1,0.2-1,1.9-1,1.9s1.3,1.7,1.4,1.8c0.1,0.1,0.1,0.1,0.2,0c0.1-0.1,1.1-2,1.1-2s-1.2-1.5-1.3-1.6 C13,14.9,12.9,14.9,12.8,15.1z"/>
	</g>
	<g id="spade-ace" filter="url(#solitaire-filter-1)">
		<path class="st9" d="M41.5,43.1c-0.1,0.9-0.9,1.5-1.8,1.4L16.3,42c-0.9-0.1-1.5-0.9-1.4-1.8l3.5-33.4c0.1-0.9,0.9-1.5,1.8-1.4 L43.6,8c0.9,0.1,1.5,0.9,1.4,1.8L41.5,43.1z"/>
		<path class="st10" d="M21.8,12.3c-0.4-0.7-0.8-1-1.1-1.4l0,0l0,0l0,0c-0.3,0.2-0.7,0.5-1.3,1.1c-0.9,0.7-0.3,2.2,0.8,1.7 c-0.1,0.4-0.4,0.5-0.6,0.6l0,0.1l1.5,0.2l0-0.1c-0.2-0.2-0.5-0.3-0.5-0.7C21.6,14.5,22.6,13.4,21.8,12.3L21.8,12.3z"/>
		<path class="st2" d="M19.2,9.8l0-0.4l0.2,0l1.4-2.8l0.6,0.1l0.8,3l0.2,0.1l0,0.4L21.4,10l0-0.4l0.2,0l-0.1-0.5L20.3,9l-0.2,0.5 l0.2,0.1l0,0.4L19.2,9.8z M20.5,8.5l0.9,0.1l-0.3-1.2l0-0.1l0,0l0,0.1L20.5,8.5z"/>
		<path class="st11" d="M15.4,35.4l-0.5,4.9c-0.1,0.9,0.5,1.7,1.4,1.8l23.4,2.5c0.9,0.1,1.7-0.5,1.8-1.4l2.4-22.4 C31.5,19.9,20.5,26,15.4,35.4z"/>
	</g>
	<g id="heart-ace" filter="url(#solitaire-filter-1)">
		<path class="st12" d="M41.2,45.4c-0.3,0.8-1.2,1.2-2.1,0.9L17,38.1c-0.8-0.3-1.2-1.2-0.9-2.1L27.8,4.6c0.3-0.8,1.2-1.2,2.1-0.9 l22.1,8.2c0.8,0.3,1.2,1.2,0.9,2.1L41.2,45.4z"/>
		<path class="st6" d="M27.9,7.6L28,7.2l0.2,0.1l2-2.4l0.6,0.2l0,3.1l0.2,0.1L31,8.7l-1-0.4L30.1,8l0.2,0l0-0.5l-1.1-0.4l-0.3,0.4 l0.2,0.1l-0.1,0.4L27.9,7.6z M29.5,6.7L30.3,7l0-1.3l0-0.1l0,0l-0.1,0.1L29.5,6.7z"/>
		<path class="st13" d="M17.8,31.4L16.1,36c-0.3,0.8,0.1,1.7,0.9,2.1l22.1,8.2c0.8,0.3,1.7-0.1,2.1-0.9L49,24.3 C37.3,20.5,25.1,23.5,17.8,31.4z"/>
		<path class="st14" d="M29.8,9.5c-0.3-0.1-0.7,0-1,0.3c0-0.3-0.2-0.7-0.6-0.9c-0.5-0.2-1,0.1-1.2,0.5c-0.4,1,0.4,1.9,0.8,2.8 c0.9-0.4,2-0.6,2.5-1.6C30.6,10.2,30.3,9.7,29.8,9.5z"/>
		<path id="center_2_" class="st15" d="M39.8,20.1c-1.4-0.5-3,0.2-4,1.1c-0.1-1.4-0.9-2.9-2.3-3.4c-1.9-0.7-4,0.3-4.7,2.2 c-1.4,3.9,1.4,7.4,3.3,11.1c3.7-1.6,8-2.5,9.8-6.2C42.9,23,41.7,20.8,39.8,20.1z"/>
	</g>
</svg>
