
<svg id="cb-red" xmlns="http://www.w3.org/2000/svg" viewBox="0 0 90 123">
	<style type="text/css">
		.st0{fill:url(#SVGID_1_);}
		.st1{opacity:0.3;fill:url(#SVGID_2_);enable-background:new    ;}
		.st2{fill:none;stroke:#BE2828;stroke-width:0.35;stroke-miterlimit:10;}
		.st3{fill:#FFFFFF;}
		.st4{fill:url(#SVGID_3_);}
		.st5{fill:#FFB3B5;}
	</style>
	<linearGradient id="SVGID_1_" gradientUnits="userSpaceOnUse" x1="45.05" y1="123" x2="45.05" y2="9.999847e-02" gradientTransform="matrix(1 0 0 -1 0 123)">
		<stop  offset="0" style="stop-color:#F5F5F5"/>
		<stop  offset="1" style="stop-color:#D1D1D1"/>
	</linearGradient>
	<rect class="st0" width="90.1" height="122.9"/>
	<linearGradient id="SVGID_2_" gradientUnits="userSpaceOnUse" x1="45.05" y1="42.2" x2="45.05" y2="122.9">
		<stop  offset="0" style="stop-color:#D0D2D3"/>
		<stop  offset="1" style="stop-color:#CCCECF"/>
	</linearGradient>
	<path class="st1" d="M0,101v16.6c0,3,2.4,5.3,5.4,5.3h79.3c3,0,5.4-2.4,5.4-5.3V42.2C48.6,44,13.7,67.9,0,101z"/>
	<path class="st2" d="M83.8,119.2H6.4c-1.3,0-2.4-1-2.4-2.4V6.1c0-1.3,1-2.4,2.4-2.4h77.3c1.3,0,2.4,1,2.4,2.4v110.7
		C86.1,118.1,85.1,119.2,83.8,119.2z"/>
	<path class="st3" d="M45.2,30.9c0-0.1,0-0.2,0-0.3l-0.1-0.1C45.2,30.7,45.2,30.8,45.2,30.9z"/>
	<linearGradient id="SVGID_3_" gradientUnits="userSpaceOnUse" x1="45" y1="117.6" x2="45" y2="5.5" gradientTransform="matrix(1 0 0 -1 0 123)">
		<stop  offset="0" style="stop-color:#D25050"/>
		<stop  offset="1" style="stop-color:#BE3232"/>
	</linearGradient>
	<path class="st4" d="M82.9,117.5H7.1c-0.7,0-1.2-0.5-1.2-1.2V6.6c0-0.7,0.5-1.2,1.2-1.2h75.8c0.7,0,1.2,0.5,1.2,1.2v109.6
		C84.1,116.9,83.6,117.5,82.9,117.5z"/>
	<g>
		<g id="XMLID_2770_">
			<g id="XMLID_2913_">
				<path id="XMLID_2914_" class="st5" d="M66.1,30.5L62,27.8l-4.1,2.7c-0.1,0.1-0.2,0.1-0.3,0L53.9,28c0.1-0.2,0.1-0.3,0.1-0.5
					l3.8,2.5l4.1-2.7c0.1-0.1,0.2-0.1,0.3,0l4.1,2.7l1.7-1.1l0,0.6l-1.6,1C66.3,30.5,66.2,30.5,66.1,30.5z"/>
			</g>
			<g id="XMLID_2911_">
				<path id="XMLID_2912_" class="st5" d="M27.9,94.9c0.1-0.1,0.2-0.1,0.3,0l4.1,2.7c-0.1,0.1-0.1,0.3-0.2,0.4l-4-2.6l-4.1,2.7
					c0,0-0.1,0-0.1,0c0,0-0.1,0-0.1,0L22,97l0-0.6l1.7,1.1L27.9,94.9z"/>
			</g>
			<g id="XMLID_2909_">
				<path id="XMLID_2910_" class="st5" d="M41.8,92.3c-0.2-0.1-0.4-0.1-0.6-0.1l2.8-1.9c0.2,0.1,0.3,0.2,0.5,0.2L41.8,92.3z"/>
			</g>
			<g id="XMLID_2907_">
				<path id="XMLID_2908_" class="st5" d="M48.8,92.1c-0.2,0-0.4,0.1-0.6,0.1l-2.7-1.8c0.2,0,0.4-0.1,0.5-0.2L48.8,92.1z"/>
			</g>
			<g id="XMLID_2905_">
				<path id="XMLID_2906_" class="st5" d="M66.1,27.9L62,25.2l-4.1,2.7c-0.1,0.1-0.2,0.1-0.3,0l-2-1.3c0.2,0,0.4-0.1,0.7-0.1l1.5,1
					l4.1-2.7c0.1-0.1,0.2-0.1,0.3,0l4.1,2.7l1.7-1.1l0,0.6l-1.6,1C66.3,27.9,66.2,27.9,66.1,27.9z"/>
			</g>
			<g id="XMLID_2903_">
				<path id="XMLID_2904_" class="st5" d="M53.6,89.7l4.1,2.7l4.1-2.7c0.1-0.1,0.2-0.1,0.3,0l4.1,2.7l1.7-1.1l0,0.6l-1.6,1
					c-0.1,0.1-0.2,0.1-0.3,0L62,90.2l-4.1,2.7c-0.1,0.1-0.2,0.1-0.3,0l-4.1-2.7l-3,2c-0.1,0-0.3,0-0.4-0.1c-0.1,0-0.2,0-0.3,0
					l3.6-2.4C53.5,89.7,53.6,89.7,53.6,89.7z"/>
			</g>
			<g id="XMLID_2901_">
				<path id="XMLID_2902_" class="st5" d="M49.3,87.2l4.1-2.7c0.1-0.1,0.2-0.1,0.3,0l4.1,2.7l4.1-2.7c0.1-0.1,0.2-0.1,0.3,0l4.1,2.7
					l1.7-1.1l0,0.6l-1.6,1c-0.1,0.1-0.2,0.1-0.3,0L62,85l-4.1,2.7c-0.1,0.1-0.2,0.1-0.3,0L53.5,85l-4.1,2.7c-0.1,0.1-0.2,0.1-0.3,0
					l-1.4-0.9l0.2-0.4L49.3,87.2z"/>
			</g>
			<g id="XMLID_2899_">
				<path id="XMLID_2900_" class="st5" d="M40.9,87.7c-0.1,0.1-0.2,0.1-0.3,0L36.5,85l-4.1,2.7c-0.1,0.1-0.2,0.1-0.3,0L28,85
					l-4.1,2.7c0,0-0.1,0-0.1,0c0,0-0.1,0-0.1,0l-1.6-1l0-0.6l1.7,1.1l4.1-2.7c0.1-0.1,0.2-0.1,0.3,0l4.1,2.7l4.1-2.7
					c0.1-0.1,0.2-0.1,0.3,0l4.1,2.7l1.3-0.9l0.2,0.4L40.9,87.7z"/>
			</g>
			<g id="XMLID_2897_">
				<path id="XMLID_2898_" class="st5" d="M40.9,85.1c-0.1,0.1-0.2,0.1-0.3,0l-4.1-2.7l-4.1,2.7c-0.1,0.1-0.2,0.1-0.3,0L28,82.4
					l-4.1,2.7c0,0-0.1,0-0.1,0c0,0-0.1,0-0.1,0l-1.6-1l0-0.6l1.7,1.1l4.1-2.7c0.1-0.1,0.2-0.1,0.3,0l4.1,2.7l4.1-2.7
					c0.1-0.1,0.2-0.1,0.3,0l4.1,2.7l0.5-0.3l0.2,0.4L40.9,85.1z"/>
			</g>
			<g id="XMLID_2895_">
				<path id="XMLID_2896_" class="st5" d="M49.3,84.6l4.1-2.7c0.1-0.1,0.2-0.1,0.3,0l4.1,2.7l4.1-2.7c0.1-0.1,0.2-0.1,0.3,0l4.1,2.7
					l1.7-1.1l0,0.6l-1.6,1c-0.1,0.1-0.2,0.1-0.3,0L62,82.4l-4.1,2.7c-0.1,0.1-0.2,0.1-0.3,0l-4.1-2.7l-4.1,2.7
					c-0.1,0.1-0.2,0.1-0.3,0l-0.5-0.4l0.2-0.4L49.3,84.6z"/>
			</g>
			<g id="XMLID_2893_">
				<path id="XMLID_2894_" class="st5" d="M27.9,89.7c0.1-0.1,0.2-0.1,0.3,0l4.1,2.7l4.1-2.7c0.1-0.1,0.2-0.1,0.3,0l3.6,2.4
					c-0.1,0-0.2,0-0.3,0c-0.1,0-0.3,0-0.4,0.1l-3-2l-4.1,2.7c-0.1,0.1-0.2,0.1-0.3,0L28,90.2l-4.1,2.7c0,0-0.1,0-0.1,0
					c0,0-0.1,0-0.1,0l-1.6-1l0-0.6l1.7,1.1L27.9,89.7z"/>
			</g>
			<g id="XMLID_2891_">
				<path id="XMLID_2892_" class="st5" d="M27.9,92.3c0.1-0.1,0.2-0.1,0.3,0l4.1,2.7l4.1-2.7c0.1-0.1,0.2-0.1,0.3,0l0.9,0.6
					c-0.1,0.1-0.3,0.2-0.4,0.3l-0.7-0.4l-4.1,2.7c-0.1,0.1-0.2,0.1-0.3,0L28,92.8l-4.1,2.7c0,0-0.1,0-0.1,0c0,0-0.1,0-0.1,0l-1.6-1
					l0-0.6l1.7,1.1L27.9,92.3z"/>
			</g>
			<g id="XMLID_2889_">
				<path id="XMLID_2890_" class="st5" d="M49.3,89.8l4.1-2.7c0.1-0.1,0.2-0.1,0.3,0l4.1,2.7l4.1-2.7c0.1-0.1,0.2-0.1,0.3,0l4.1,2.7
					l1.7-1.1l0,0.6l-1.6,1c-0.1,0.1-0.2,0.1-0.3,0L62,87.6l-4.1,2.7c-0.1,0.1-0.2,0.1-0.3,0l-4.1-2.7l-4.1,2.7
					c-0.1,0.1-0.2,0.1-0.3,0L47,88.9l0.2-0.4L49.3,89.8z"/>
			</g>
			<g id="XMLID_2887_">
				<path id="XMLID_2888_" class="st5" d="M40.9,90.3c-0.1,0.1-0.2,0.1-0.3,0l-4.1-2.7l-4.1,2.7c-0.1,0.1-0.2,0.1-0.3,0L28,87.6
					l-4.1,2.7c0,0-0.1,0-0.1,0c0,0-0.1,0-0.1,0l-1.6-1l0-0.6l1.7,1.1l4.1-2.7c0.1-0.1,0.2-0.1,0.3,0l4.1,2.7l4.1-2.7
					c0.1-0.1,0.2-0.1,0.3,0l4.1,2.7l2.1-1.4l0.2,0.4L40.9,90.3z"/>
			</g>
			<g id="XMLID_2885_">
				<path id="XMLID_2886_" class="st5" d="M28.1,97.5l2.6,1.7l-0.9,0L28,98l-1.9,1.2l-0.9,0l2.6-1.7C28,97.5,28.1,97.5,28.1,97.5z"/>
			</g>
			<g id="XMLID_2883_">
				<path id="XMLID_2884_" class="st5" d="M29.7,23.7l0.9,0l1.4,0.9c0.1,0.3,0.2,0.5,0.3,0.7c0,0-0.1,0-0.1,0L29.7,23.7z"/>
			</g>
			<g id="XMLID_2881_">
				<path id="XMLID_2882_" class="st5" d="M66.1,25.3l-2.4-1.6l0.9,0l1.7,1.1l1.7-1.1l0,0.6l-1.6,1C66.3,25.3,66.2,25.3,66.1,25.3z"
					/>
			</g>
			<g id="XMLID_2879_">
				<path id="XMLID_2880_" class="st5" d="M57.8,25.3c0.1-0.2,0.2-0.4,0.3-0.7l1.4-0.9l0.9,0L57.8,25.3
					C57.9,25.3,57.8,25.3,57.8,25.3z"/>
			</g>
			<g id="XMLID_2877_">
				<path id="XMLID_2878_" class="st5" d="M62.2,97.5l2.6,1.7l-0.9,0L62,98l-1.9,1.2l-0.9,0l2.6-1.7C62,97.5,62.1,97.5,62.2,97.5z"/>
			</g>
			<g id="XMLID_2875_">
				<path id="XMLID_2876_" class="st5" d="M53.4,79.3c0.1-0.1,0.2-0.1,0.3,0l4.1,2.7l4.1-2.7c0.1-0.1,0.2-0.1,0.3,0l4.1,2.7l1.7-1.1
					l0,0.6l-1.6,1c-0.1,0.1-0.2,0.1-0.3,0L62,79.8l-4.1,2.7c-0.1,0.1-0.2,0.1-0.3,0l-4.1-2.7l-4,2.6l0.3-0.8L53.4,79.3z"/>
			</g>
			<g id="XMLID_2873_">
				<path id="XMLID_2874_" class="st5" d="M36.5,79.8l-4.1,2.7c-0.1,0.1-0.2,0.1-0.3,0L28,79.8l-4.1,2.7c0,0-0.1,0-0.1,0
					c0,0-0.1,0-0.1,0l-1.6-1l0-0.6l1.7,1.1l4.1-2.7c0.1-0.1,0.2-0.1,0.3,0l4.1,2.7l4.1-2.7c0.1-0.1,0.2-0.1,0.3,0l3.6,2.3l0.3,0.8
					L36.5,79.8z"/>
			</g>
			<g id="XMLID_2871_">
				<path id="XMLID_2872_" class="st5" d="M35.9,95.8l-0.8,0.5c-0.3,0-0.6,0-1,0.1l1.9-1.3C36,95.4,36,95.6,35.9,95.8z"/>
			</g>
			<g id="XMLID_2869_">
				<path id="XMLID_2870_" class="st5" d="M62.2,94.9l4.1,2.7l1.7-1.1l0,0.6l-1.6,1c-0.1,0.1-0.2,0.1-0.3,0L62,95.4L58,98
					c-0.1-0.2-0.1-0.3-0.2-0.4l4.1-2.7C62,94.9,62.1,94.9,62.2,94.9z"/>
			</g>
			<g id="XMLID_2867_">
				<path id="XMLID_2868_" class="st5" d="M53.6,92.3l4.1,2.7l4.1-2.7c0.1-0.1,0.2-0.1,0.3,0l4.1,2.7l1.7-1.1l0,0.6l-1.6,1
					c-0.1,0.1-0.2,0.1-0.3,0L62,92.8l-4.1,2.7c-0.1,0.1-0.2,0.1-0.3,0l-4.1-2.7l-0.7,0.5c-0.1-0.1-0.2-0.2-0.4-0.3l0.9-0.6
					C53.5,92.3,53.6,92.3,53.6,92.3z"/>
			</g>
			<g id="XMLID_2865_">
				<polygon id="XMLID_2866_" class="st5" points="68,99.2 67.8,99.2 68,99.1 			"/>
			</g>
			<g id="XMLID_2863_">
				<path id="XMLID_2864_" class="st5" d="M54.9,96.3l-0.8-0.5c0-0.2-0.1-0.4-0.1-0.6l1.9,1.3C55.5,96.3,55.2,96.3,54.9,96.3z"/>
			</g>
			<g id="XMLID_2861_">
				<path id="XMLID_2862_" class="st5" d="M45.1,92.3l1.3,0.9c-0.1,0.1-0.3,0.2-0.4,0.3L45,92.8l-1.1,0.7c-0.1-0.1-0.2-0.2-0.4-0.3
					l1.3-0.9C45,92.3,45.1,92.3,45.1,92.3z"/>
			</g>
			<g id="XMLID_2859_">
				<polygon id="XMLID_2860_" class="st5" points="22,99.2 22,99.1 22.2,99.2 			"/>
			</g>
			<g id="XMLID_2857_">
				<path id="XMLID_2858_" class="st5" d="M36.5,40.8l-4.1,2.7c-0.1,0.1-0.2,0.1-0.3,0L28,40.8l-4.1,2.7c0,0-0.1,0-0.1,0
					s-0.1,0-0.1,0l-1.6-1l0-0.6l1.7,1.1l4.1-2.7c0.1-0.1,0.2-0.1,0.3,0l4.1,2.7l4.1-2.7c0.1-0.1,0.2-0.1,0.3,0l3.1,2
					c-0.1,0.2-0.1,0.3-0.1,0.5L36.5,40.8z"/>
			</g>
			<g id="XMLID_2855_">
				<path id="XMLID_2856_" class="st5" d="M53.4,40.3c0.1-0.1,0.2-0.1,0.3,0l4.1,2.7l4.1-2.7c0.1-0.1,0.2-0.1,0.3,0l4.1,2.7l1.7-1.1
					l0,0.6l-1.6,1c-0.1,0.1-0.2,0.1-0.3,0L62,40.8l-4.1,2.7c-0.1,0.1-0.2,0.1-0.3,0l-4.1-2.7l-3.2,2.1c0-0.2,0-0.3-0.1-0.5L53.4,40.3
					z"/>
			</g>
			<g id="XMLID_2853_">
				<path id="XMLID_2854_" class="st5" d="M36.5,38.2l-4.1,2.7c-0.1,0.1-0.2,0.1-0.3,0L28,38.2l-4.1,2.7c0,0-0.1,0-0.1,0
					c0,0-0.1,0-0.1,0l-1.6-1l0-0.6l1.7,1.1l4.1-2.7c0.1-0.1,0.2-0.1,0.3,0l4.1,2.7l4.1-2.7c0.1-0.1,0.2-0.1,0.3,0l3.9,2.6l-0.2,0.4
					L36.5,38.2z"/>
			</g>
			<g id="XMLID_2851_">
				<path id="XMLID_2852_" class="st5" d="M53.4,37.7c0.1-0.1,0.2-0.1,0.3,0l4.1,2.7l4.1-2.7c0.1-0.1,0.2-0.1,0.3,0l4.1,2.7l1.7-1.1
					l0,0.6l-1.6,1c-0.1,0.1-0.2,0.1-0.3,0L62,38.2l-4.1,2.7c-0.1,0.1-0.2,0.1-0.3,0l-4.1-2.7l-3.9,2.6l-0.2-0.4L53.4,37.7z"/>
			</g>
			<g id="XMLID_2849_">
				<path id="XMLID_2850_" class="st5" d="M53.4,42.9c0.1-0.1,0.2-0.1,0.3,0l4.1,2.7l4.1-2.7c0.1-0.1,0.2-0.1,0.3,0l4.1,2.7l1.7-1.1
					l0,0.6l-1.6,1c-0.1,0.1-0.2,0.1-0.3,0L62,43.4l-4.1,2.7c-0.1,0.1-0.2,0.1-0.3,0l-4.1-2.7l-4.1,2.7c-0.1,0-0.1,0-0.2,0l0.3-0.6
					L53.4,42.9z"/>
			</g>
			<g id="XMLID_2847_">
				<path id="XMLID_2848_" class="st5" d="M40.6,46.1l-4.1-2.7l-4.1,2.7c-0.1,0.1-0.2,0.1-0.3,0L28,43.4l-4.1,2.7c0,0-0.1,0-0.1,0
					c0,0-0.1,0-0.1,0l-1.6-1l0-0.6l1.7,1.1l4.1-2.7c0.1-0.1,0.2-0.1,0.3,0l4.1,2.7l4.1-2.7c0.1-0.1,0.2-0.1,0.3,0l3.9,2.6l0.3,0.6
					C40.8,46.1,40.7,46.1,40.6,46.1z"/>
			</g>
			<g id="XMLID_2845_">
				<path id="XMLID_2846_" class="st5" d="M49.2,37.8l4.1-2.7c0.1-0.1,0.2-0.1,0.3,0l4.1,2.7l4.1-2.7c0.1-0.1,0.2-0.1,0.3,0l4.1,2.7
					l1.7-1.1l0,0.6l-1.6,1c-0.1,0.1-0.2,0.1-0.3,0L62,35.6l-4.1,2.7c-0.1,0.1-0.2,0.1-0.3,0l-4.1-2.7l-4.1,2.7
					c-0.1,0.1-0.2,0.1-0.3,0l-0.7-0.4l-0.3-0.8L49.2,37.8z"/>
			</g>
			<g id="XMLID_2843_">
				<path id="XMLID_2844_" class="st5" d="M40.9,38.3c-0.1,0.1-0.2,0.1-0.3,0l-4.1-2.7l-4.1,2.7c-0.1,0.1-0.2,0.1-0.3,0L28,35.6
					l-4.1,2.7c0,0-0.1,0-0.1,0c0,0-0.1,0-0.1,0l-1.6-1l0-0.6l1.7,1.1l4.1-2.7c0.1-0.1,0.2-0.1,0.3,0l4.1,2.7l4.1-2.7
					c0.1-0.1,0.2-0.1,0.3,0l4.1,2.7l1.1-0.7l-0.3,0.8L40.9,38.3z"/>
			</g>
			<g id="XMLID_2841_">
				<path id="XMLID_2842_" class="st5" d="M49.3,48.2l4.1-2.7c0.1-0.1,0.2-0.1,0.3,0l4.1,2.7l4.1-2.7c0.1-0.1,0.2-0.1,0.3,0l4.1,2.7
					l1.7-1.1l0,0.6l-1.6,1c-0.1,0.1-0.2,0.1-0.3,0L62,46l-4.1,2.7c-0.1,0.1-0.2,0.1-0.3,0L53.5,46l-4.1,2.7c-0.1,0.1-0.2,0.1-0.3,0
					l-0.8-0.5l0.2-0.4L49.3,48.2z"/>
			</g>
			<g id="XMLID_2839_">
				<path id="XMLID_2840_" class="st5" d="M40.9,48.7c-0.1,0.1-0.2,0.1-0.3,0L36.5,46l-4.1,2.7c-0.1,0.1-0.2,0.1-0.3,0L28,46
					l-4.1,2.7c0,0-0.1,0-0.1,0c0,0-0.1,0-0.1,0l-1.6-1l0-0.6l1.7,1.1l4.1-2.7c0.1-0.1,0.2-0.1,0.3,0l4.1,2.7l4.1-2.7
					c0.1-0.1,0.2-0.1,0.3,0l4.1,2.7l0.7-0.5l0.2,0.4L40.9,48.7z"/>
			</g>
			<g id="XMLID_2837_">
				<path id="XMLID_2838_" class="st5" d="M49.3,50.8l4.1-2.7c0.1-0.1,0.2-0.1,0.3,0l4.1,2.7l4.1-2.7c0.1-0.1,0.2-0.1,0.3,0l4.1,2.7
					l1.7-1.1l0,0.6l-1.6,1c-0.1,0.1-0.2,0.1-0.3,0L62,48.6l-4.1,2.7c-0.1,0.1-0.2,0.1-0.3,0l-4.1-2.7l-4.1,2.7
					c-0.1,0.1-0.2,0.1-0.3,0l-1.7-1.1l0.2-0.4L49.3,50.8z"/>
			</g>
			<g id="XMLID_2835_">
				<path id="XMLID_2836_" class="st5" d="M40.9,51.3c-0.1,0.1-0.2,0.1-0.3,0l-4.1-2.7l-4.1,2.7c-0.1,0.1-0.2,0.1-0.3,0L28,48.6
					l-4.1,2.7c0,0-0.1,0-0.1,0c0,0-0.1,0-0.1,0l-1.6-1l0-0.6l1.7,1.1l4.1-2.7c0.1-0.1,0.2-0.1,0.3,0l4.1,2.7l4.1-2.7
					c0.1-0.1,0.2-0.1,0.3,0l4.1,2.7l1.6-1l0.2,0.4L40.9,51.3z"/>
			</g>
			<g id="XMLID_2833_">
				<path id="XMLID_2834_" class="st5" d="M27.8,24.7c0.1-0.1,0.2-0.1,0.3,0l4.1,2.7l1.5-1c0.2,0.1,0.4,0.1,0.7,0.1l-2,1.3
					c-0.1,0.1-0.2,0.1-0.3,0L28,25.2l-4.1,2.7c0,0-0.1,0-0.1,0c0,0-0.1,0-0.1,0l-1.6-1l0-0.6l1.7,1.1L27.8,24.7z"/>
			</g>
			<g id="XMLID_2831_">
				<path id="XMLID_2832_" class="st5" d="M23.7,24.8l1.7-1.1l0.9,0l-2.4,1.6c0,0-0.1,0-0.1,0c0,0-0.1,0-0.1,0l-1.6-1l0-0.6
					L23.7,24.8z"/>
			</g>
			<g id="XMLID_2829_">
				<path id="XMLID_2830_" class="st5" d="M27.8,27.3c0.1-0.1,0.2-0.1,0.3,0l4.1,2.7l3.8-2.5c0,0.1,0.1,0.3,0.1,0.5l-3.8,2.5
					c-0.1,0.1-0.2,0.1-0.3,0L28,27.8l-4.1,2.7c0,0-0.1,0-0.1,0c0,0-0.1,0-0.1,0l-1.6-1l0-0.6l1.7,1.1L27.8,27.3z"/>
			</g>
			<g id="XMLID_2827_">
				<path id="XMLID_2828_" class="st5" d="M27.9,32.5c0.1-0.1,0.2-0.1,0.3,0l4.1,2.7l4.1-2.7c0.1-0.1,0.2-0.1,0.3,0l4.1,2.7l2.5-1.6
					l-0.3,0.8l-2.1,1.3c-0.1,0.1-0.2,0.1-0.3,0L36.5,33l-4.1,2.7c-0.1,0.1-0.2,0.1-0.3,0L28,33l-4.1,2.7c0,0-0.1,0-0.1,0
					c0,0-0.1,0-0.1,0l-1.6-1l0-0.6l1.7,1.1L27.9,32.5z"/>
			</g>
			<g id="XMLID_2825_">
				<path id="XMLID_2826_" class="st5" d="M49.2,35.2l4.1-2.7c0.1-0.1,0.2-0.1,0.3,0l4.1,2.7l4.1-2.7c0.1-0.1,0.2-0.1,0.3,0l4.1,2.7
					l1.7-1.1l0,0.6l-1.6,1c-0.1,0.1-0.2,0.1-0.3,0L62,33l-4.1,2.7c-0.1,0.1-0.2,0.1-0.3,0L53.5,33l-4.1,2.7c-0.1,0.1-0.2,0.1-0.3,0
					l-2.1-1.4l-0.3-0.8L49.2,35.2z"/>
			</g>
			<g id="XMLID_2823_">
				<path id="XMLID_2824_" class="st5" d="M27.9,29.9c0.1-0.1,0.2-0.1,0.3,0l4.1,2.7l4.1-2.7c0.1-0.1,0.2-0.1,0.3,0l4.1,2.7l4.1-2.7
					c0.1-0.1,0.2-0.1,0.3,0l4.1,2.7l4.1-2.7c0.1-0.1,0.2-0.1,0.3,0l4.1,2.7l4.1-2.7c0.1-0.1,0.2-0.1,0.3,0l4.1,2.7l1.7-1.1l0,0.6
					l-1.6,1c-0.1,0.1-0.2,0.1-0.3,0L62,30.4l-4.1,2.7c-0.1,0.1-0.2,0.1-0.3,0l-4.1-2.7l-4.1,2.7c-0.1,0.1-0.2,0.1-0.3,0L45,30.4
					l-4.1,2.7c-0.1,0.1-0.2,0.1-0.3,0l-4.1-2.7l-4.1,2.7c-0.1,0.1-0.2,0.1-0.3,0L28,30.4l-4.1,2.7c0,0-0.1,0-0.1,0c0,0-0.1,0-0.1,0
					l-1.6-1l0-0.6l1.7,1.1L27.9,29.9z"/>
			</g>
			<g id="XMLID_2821_">
				<path id="XMLID_2822_" class="st5" d="M36.5,51.2l-4.1,2.7c-0.1,0.1-0.2,0.1-0.3,0L28,51.2l-4.1,2.7c0,0-0.1,0-0.1,0
					c0,0-0.1,0-0.1,0l-1.6-1l0-0.6l1.7,1.1l4.1-2.7c0.1-0.1,0.2-0.1,0.3,0l4.1,2.7l4.1-2.7c0.1-0.1,0.2-0.1,0.3,0l2.7,1.8
					c-0.4-0.1-0.7-0.2-1.1-0.2L36.5,51.2z"/>
			</g>
			<g id="XMLID_2819_">
				<path id="XMLID_2820_" class="st5" d="M48.3,53.4c-0.1-0.2-0.1-0.5-0.2-0.7l0.8,0.5c-0.1,0.1-0.3,0.2-0.4,0.3L48.3,53.4z"/>
			</g>
			<g id="XMLID_2817_">
				<path id="XMLID_2818_" class="st5" d="M53.4,50.7c0.1-0.1,0.2-0.1,0.3,0l4.1,2.7l4.1-2.7c0.1-0.1,0.2-0.1,0.3,0l4.1,2.7l1.7-1.1
					l0,0.6l-1.6,1c-0.1,0.1-0.2,0.1-0.3,0L62,51.2l-4.1,2.7c-0.1,0.1-0.2,0.1-0.3,0l-4.1-2.7l-1.7,1.1c-0.4,0-0.8,0.1-1.1,0.2
					L53.4,50.7z"/>
			</g>
			<g id="XMLID_2815_">
				<path id="XMLID_2816_" class="st5" d="M41.5,53.5c-0.1-0.1-0.3-0.2-0.4-0.3l0.8-0.5c-0.1,0.2-0.1,0.5-0.2,0.7L41.5,53.5z"/>
			</g>
			<g id="XMLID_2813_">
				<path id="XMLID_2814_" class="st5" d="M40.8,71.6l1.3-0.9c0.1,0.1,0.1,0.3,0.2,0.4l-1.4,0.9c-0.1,0.1-0.2,0.1-0.3,0l-2.3-1.5
					c0.2,0,0.5-0.1,0.7-0.1L40.8,71.6z"/>
			</g>
			<g id="XMLID_2811_">
				<path id="XMLID_2812_" class="st5" d="M32.4,72.1c-0.1,0.1-0.2,0.1-0.3,0L28,69.4l-4.1,2.7c0,0-0.1,0-0.1,0c0,0-0.1,0-0.1,0
					l-1.6-1l0-0.6l1.7,1.1l4.1-2.7c0.1-0.1,0.2-0.1,0.3,0l4.1,2.7l2.6-1.7c0.2,0.1,0.3,0.2,0.5,0.2L32.4,72.1z"/>
			</g>
			<g id="XMLID_2809_">
				<path id="XMLID_2810_" class="st5" d="M49.3,71.6l1.7-1.1c0.2,0,0.5,0.1,0.7,0.1l-2.3,1.5c-0.1,0.1-0.2,0.1-0.3,0l-1.4-0.9
					c0.1-0.1,0.1-0.3,0.2-0.4L49.3,71.6z"/>
			</g>
			<g id="XMLID_2807_">
				<path id="XMLID_2808_" class="st5" d="M57.8,71.6l4.1-2.7c0.1-0.1,0.2-0.1,0.3,0l4.1,2.7l1.7-1.1l0,0.6l-1.6,1
					c-0.1,0.1-0.2,0.1-0.3,0L62,69.4l-4.1,2.7c-0.1,0.1-0.2,0.1-0.3,0l-3-1.9c0.2-0.1,0.3-0.1,0.5-0.2L57.8,71.6z"/>
			</g>
			<g id="XMLID_2805_">
				<path id="XMLID_2806_" class="st5" d="M28,64.2l-4.1,2.7c0,0-0.1,0-0.1,0c0,0-0.1,0-0.1,0l-1.6-1l0-0.6l1.7,1.1l4.1-2.7
					c0.1-0.1,0.2-0.1,0.3,0l3.6,2.4c0.1,0.2,0.1,0.5,0.2,0.7L28,64.2z"/>
			</g>
			<g id="XMLID_2803_">
				<path id="XMLID_2804_" class="st5" d="M61.9,63.7c0.1-0.1,0.2-0.1,0.3,0l4.1,2.7l1.7-1.1l0,0.6l-1.6,1c-0.1,0.1-0.2,0.1-0.3,0
					L62,64.2l-4,2.6c0.1-0.2,0.1-0.5,0.2-0.7L61.9,63.7z"/>
			</g>
			<g id="XMLID_2801_">
				<path id="XMLID_2802_" class="st5" d="M33.3,68.9l-1,0.6c-0.1,0.1-0.2,0.1-0.3,0L28,66.8l-4.1,2.7c0,0-0.1,0-0.1,0
					c0,0-0.1,0-0.1,0l-1.6-1l0-0.6l1.7,1.1l4.1-2.7c0.1-0.1,0.2-0.1,0.3,0l4.1,2.7l0.7-0.5C33.1,68.6,33.2,68.7,33.3,68.9
					C33.3,68.8,33.3,68.8,33.3,68.9z"/>
			</g>
			<g id="XMLID_2799_">
				<path id="XMLID_2800_" class="st5" d="M57,68.5l0.8,0.5l4.1-2.7c0.1-0.1,0.2-0.1,0.3,0l4.1,2.7l1.7-1.1l0,0.6l-1.6,1
					c-0.1,0.1-0.2,0.1-0.3,0L62,66.8l-4.1,2.7c-0.1,0.1-0.2,0.1-0.3,0l-1-0.6c0,0,0.1-0.1,0.1-0.1C56.9,68.7,56.9,68.6,57,68.5z"/>
			</g>
			<g id="XMLID_2797_">
				<path id="XMLID_2798_" class="st5" d="M49.3,74.2l4.1-2.7c0.1-0.1,0.2-0.1,0.3,0l4.1,2.7l4.1-2.7c0.1-0.1,0.2-0.1,0.3,0l4.1,2.7
					l1.7-1.1l0,0.6l-1.6,1c-0.1,0.1-0.2,0.1-0.3,0L62,72l-4.1,2.7c-0.1,0.1-0.2,0.1-0.3,0L53.5,72l-4.1,2.7c-0.1,0.1-0.2,0.1-0.3,0
					L48,74l-0.3-0.8L49.3,74.2z"/>
			</g>
			<g id="XMLID_2795_">
				<path id="XMLID_2796_" class="st5" d="M40.9,74.7c-0.1,0.1-0.2,0.1-0.3,0L36.5,72l-4.1,2.7c-0.1,0.1-0.2,0.1-0.3,0L28,72
					l-4.1,2.7c0,0-0.1,0-0.1,0c0,0-0.1,0-0.1,0l-1.6-1l0-0.6l1.7,1.1l4.1-2.7c0.1-0.1,0.2-0.1,0.3,0l4.1,2.7l4.1-2.7
					c0.1-0.1,0.2-0.1,0.3,0l4.1,2.7l1.6-1L42,74L40.9,74.7z"/>
			</g>
			<g id="XMLID_2793_">
				<path id="XMLID_2794_" class="st5" d="M49.3,76.8l4.1-2.7c0.1-0.1,0.2-0.1,0.3,0l4.1,2.7l4.1-2.7c0.1-0.1,0.2-0.1,0.3,0l4.1,2.7
					l1.7-1.1l0,0.6l-1.6,1c-0.1,0.1-0.2,0.1-0.3,0L62,74.6l-4.1,2.7c-0.1,0.1-0.2,0.1-0.3,0l-4.1-2.7l-4.1,2.7L49.3,76.8L49.3,76.8z"
					/>
			</g>
			<g id="XMLID_2791_">
				<path id="XMLID_2792_" class="st5" d="M36.5,74.6l-4.1,2.7c-0.1,0.1-0.2,0.1-0.3,0L28,74.6l-4.1,2.7c0,0-0.1,0-0.1,0
					c0,0-0.1,0-0.1,0l-1.6-1l0-0.6l1.7,1.1l4.1-2.7c0.1-0.1,0.2-0.1,0.3,0l4.1,2.7l4.1-2.7c0.1-0.1,0.2-0.1,0.3,0l4.1,2.7l0.1-0.1
					l-0.2,0.5L36.5,74.6z"/>
			</g>
			<g id="XMLID_2789_">
				<path id="XMLID_2790_" class="st5" d="M39.8,79.3l-3.3-2.1l-4.1,2.7c-0.1,0.1-0.2,0.1-0.3,0L28,77.2l-4.1,2.7c0,0-0.1,0-0.1,0
					c0,0-0.1,0-0.1,0l-1.6-1l0-0.6l1.7,1.1l4.1-2.7c0.1-0.1,0.2-0.1,0.3,0l4.1,2.7l4.1-2.7c0.1-0.1,0.2-0.1,0.3,0l3.3,2.2L39.8,79.3
					C39.8,79.3,39.8,79.3,39.8,79.3z"/>
			</g>
			<g id="XMLID_2787_">
				<path id="XMLID_2788_" class="st5" d="M50.1,78.9l3.3-2.2c0.1-0.1,0.2-0.1,0.3,0l4.1,2.7l4.1-2.7c0.1-0.1,0.2-0.1,0.3,0l4.1,2.7
					l1.7-1.1l0,0.6l-1.6,1c-0.1,0.1-0.2,0.1-0.3,0L62,77.2l-4.1,2.7c-0.1,0.1-0.2,0.1-0.3,0l-4.1-2.7l-3.3,2.1c0,0,0-0.1,0-0.1
					L50.1,78.9z"/>
			</g>
			<g id="XMLID_2785_">
				<path id="XMLID_2786_" class="st5" d="M61.9,55.9c0.1-0.1,0.2-0.1,0.3,0l4.1,2.7l1.7-1.1l0,0.6l-1.6,1c-0.1,0.1-0.2,0.1-0.3,0
					L62,56.4l-3.7,2.4c0-0.2,0-0.4,0.1-0.6L61.9,55.9z"/>
			</g>
			<g id="XMLID_2783_">
				<path id="XMLID_2784_" class="st5" d="M28,56.4l-4.1,2.7c0,0-0.1,0-0.1,0s-0.1,0-0.1,0l-1.6-1l0-0.6l1.7,1.1l4.1-2.7
					c0.1-0.1,0.2-0.1,0.3,0l3.5,2.3c0,0.2,0,0.4,0.1,0.6L28,56.4z"/>
			</g>
			<g id="XMLID_2781_">
				<path id="XMLID_2782_" class="st5" d="M28,53.8l-4.1,2.7c0,0-0.1,0-0.1,0c0,0-0.1,0-0.1,0l-1.6-1l0-0.6l1.7,1.1l4.1-2.7
					c0.1-0.1,0.2-0.1,0.3,0l3.9,2.6c-0.1,0.1-0.1,0.3-0.2,0.4L28,53.8z"/>
			</g>
			<g id="XMLID_2779_">
				<path id="XMLID_2780_" class="st5" d="M61.9,53.3c0.1-0.1,0.2-0.1,0.3,0l4.1,2.7l1.7-1.1l0,0.6l-1.6,1c-0.1,0.1-0.2,0.1-0.3,0
					L62,53.8l-3.9,2.5c0-0.2-0.1-0.3-0.2-0.4L61.9,53.3z"/>
			</g>
			<g id="XMLID_2777_">
				<path id="XMLID_2778_" class="st5" d="M32.4,61.7c-0.1,0.1-0.2,0.1-0.3,0L28,59l-4.1,2.7c0,0-0.1,0-0.1,0c0,0-0.1,0-0.1,0l-1.6-1
					l0-0.6l1.7,1.1l4.1-2.7c0.1-0.1,0.2-0.1,0.3,0l4.1,2.7l0.3-0.2c0.1,0.1,0.2,0.3,0.3,0.4L32.4,61.7z"/>
			</g>
			<g id="XMLID_2775_">
				<path id="XMLID_2776_" class="st5" d="M57.8,61.2l4.1-2.7c0.1-0.1,0.2-0.1,0.3,0l4.1,2.7l1.7-1.1l0,0.6l-1.6,1
					c-0.1,0.1-0.2,0.1-0.3,0L62,59l-4.1,2.7c-0.1,0.1-0.2,0.1-0.3,0l-0.4-0.3c0.1-0.1,0.2-0.2,0.3-0.4L57.8,61.2z"/>
			</g>
			<g id="XMLID_2773_">
				<path id="XMLID_2774_" class="st5" d="M28,61.6l-4.1,2.7c0,0-0.1,0-0.1,0s-0.1,0-0.1,0l-1.6-1l0-0.6l1.7,1.1l4.1-2.7
					c0.1-0.1,0.2-0.1,0.3,0l3.7,2.4c0,0.2-0.1,0.3-0.1,0.5L28,61.6z"/>
			</g>
			<g id="XMLID_2771_">
				<path id="XMLID_2772_" class="st5" d="M61.9,61.1c0.1-0.1,0.2-0.1,0.3,0l4.1,2.7l1.7-1.1l0,0.6l-1.6,1c-0.1,0.1-0.2,0.1-0.3,0
					L62,61.6L58.3,64c0-0.2-0.1-0.3-0.1-0.5L61.9,61.1z"/>
			</g>
		</g>
		<g id="XMLID_2747_">
			<g id="XMLID_2759_">
				<g id="XMLID_2765_">
					<path id="XMLID_2766_" class="st5" d="M12.8,26.9l0,23.1l-0.7,1.5c0,0.1,0,0.1,0,0.2l0.7,1.6c0,0.1,0.1,0.1,0.2,0.1
						c0.1,0,0.2-0.1,0.2-0.1l0.7-1.6c0-0.1,0-0.1,0-0.2l-0.7-1.5l0-23.1l0.7-1.5c0-0.1,0-0.1,0-0.2l-0.7-1.6c0-0.1-0.1-0.1-0.2-0.1
						c-0.1,0-0.2,0.1-0.2,0.1l-0.7,1.6c0,0.1,0,0.1,0,0.2L12.8,26.9z M13.5,25.3l-0.5,1l-0.5-1l0.5-1L13.5,25.3z M12.6,51.7l0.5-1
						l0.5,1l-0.5,1L12.6,51.7z"/>
				</g>
				<g id="XMLID_2760_">
					<path id="XMLID_2761_" class="st5" d="M12.8,72.9l0,23.1l-0.7,1.5c0,0.1,0,0.1,0,0.2l0.7,1.6c0,0.1,0.1,0.1,0.2,0.1
						c0.1,0,0.2-0.1,0.2-0.1l0.7-1.6c0-0.1,0-0.1,0-0.2L13.3,96l0-23.1l0.7-1.5c0-0.1,0-0.1,0-0.2l-0.7-1.6c0-0.1-0.1-0.1-0.2-0.1
						c-0.1,0-0.2,0.1-0.2,0.1l-0.7,1.6c0,0.1,0,0.1,0,0.2L12.8,72.9z M13.5,71.2l-0.5,1l-0.5-1l0.5-1L13.5,71.2z M12.6,97.6l0.5-1
						l0.5,1l-0.5,1L12.6,97.6z"/>
				</g>
			</g>
			<g id="XMLID_2748_">
				<g id="XMLID_2754_">
					<path id="XMLID_2755_" class="st5" d="M76.7,26.9l0,23.1L76,51.6c0,0.1,0,0.1,0,0.2l0.7,1.6c0,0.1,0.1,0.1,0.2,0.1
						c0.1,0,0.2-0.1,0.2-0.1l0.7-1.6c0-0.1,0-0.1,0-0.2L77.2,50l0-23.1l0.7-1.5c0-0.1,0-0.1,0-0.2l-0.7-1.6c0-0.1-0.1-0.1-0.2-0.1
						c-0.1,0-0.2,0.1-0.2,0.1L76,25.2c0,0.1,0,0.1,0,0.2L76.7,26.9z M77.4,25.3l-0.5,1l-0.5-1l0.5-1L77.4,25.3z M76.5,51.7l0.5-1
						l0.5,1l-0.5,1L76.5,51.7z"/>
				</g>
				<g id="XMLID_2749_">
					<path id="XMLID_2750_" class="st5" d="M76.7,72.8l0,23.1l-0.7,1.5c0,0.1,0,0.1,0,0.2l0.7,1.6c0,0.1,0.1,0.1,0.2,0.1
						c0.1,0,0.2-0.1,0.2-0.1l0.7-1.6c0-0.1,0-0.1,0-0.2L77.2,96l0-23.1l0.7-1.5c0-0.1,0-0.1,0-0.2l-0.7-1.6c0-0.1-0.1-0.1-0.2-0.1
						c-0.1,0-0.2,0.1-0.2,0.1L76,71.1c0,0.1,0,0.1,0,0.2L76.7,72.8z M77.4,71.2l-0.5,1l-0.5-1l0.5-1L77.4,71.2z M76.5,97.6l0.5-1
						l0.5,1l-0.5,1L76.5,97.6z"/>
				</g>
			</g>
		</g>
		<g id="XMLID_2745_">
			<path id="XMLID_2746_" class="st5" d="M78.4,19.6c-1.1,0-1.9-0.8-1.9-1.9c0-0.9,0.7-1.6,1.6-1.6c0.7,0,1.3,0.6,1.3,1.3
				c0,0.6-0.5,1.1-1.1,1.1c-0.5,0-0.9-0.4-0.9-0.9c0-0.1,0.1-0.2,0.2-0.2c0.1,0,0.2,0.1,0.2,0.2c0,0.3,0.2,0.5,0.5,0.5
				c0.4,0,0.6-0.3,0.6-0.6c0-0.5-0.4-0.8-0.9-0.8c-0.6,0-1.1,0.5-1.1,1.1c0,0.8,0.7,1.4,1.5,1.4c1,0,1.9-0.8,1.9-1.9
				c0-1.3-1.1-2.4-2.4-2.4c-1.7,0-3.1,1.4-3.1,3l0,2.3c0.4-0.4,0.9-0.7,1.5-0.7c0.9,0,1.6,0.7,1.6,1.6c0,0.7-0.6,1.3-1.3,1.3
				c-0.6,0-1.1-0.5-1.1-1.1c0-0.5,0.4-0.9,0.9-0.9c0.4,0,0.8,0.4,0.8,0.8c0,0.1-0.1,0.2-0.2,0.2c-0.1,0-0.2-0.1-0.2-0.2
				c0-0.2-0.2-0.3-0.3-0.3c-0.3,0-0.5,0.2-0.5,0.5c0,0.4,0.3,0.6,0.7,0.6c0.5,0,0.9-0.4,0.9-0.9c0-0.6-0.5-1.1-1.2-1.1
				c-0.8,0-1.5,0.7-1.5,1.5l0,32.3c0,0.1-0.1,0.2-0.2,0.2c-0.1,0-0.2-0.1-0.2-0.2l0-35.7c0-0.8-0.7-1.5-1.5-1.5
				c-0.6,0-1.2,0.5-1.2,1.1c0,0.5,0.4,0.9,0.9,0.9c0.4,0,0.7-0.3,0.7-0.6c0-0.3-0.2-0.5-0.5-0.5c-0.2,0-0.3,0.2-0.3,0.3
				c0,0.1-0.1,0.2-0.2,0.2c-0.1,0-0.2-0.1-0.2-0.2c0-0.4,0.4-0.8,0.8-0.8c0.5,0,0.9,0.4,0.9,0.9c0,0.6-0.5,1.1-1.1,1.1
				c-0.7,0-1.3-0.6-1.3-1.3c0-0.9,0.7-1.6,1.6-1.6c0.7,0,1.3,0.3,1.6,0.9c0.4-1.5,1.8-2.6,3.4-2.6c1.6,0,2.9,1.3,2.9,2.8
				C80.8,18.6,79.7,19.6,78.4,19.6z"/>
		</g>
		<g id="XMLID_2740_">
			<g id="XMLID_2743_">
				<path id="XMLID_2744_" class="st5" d="M74.8,46.5l0,8.7c0,0.4,0.2,0.8,0.5,1.1c0.8,0.7,1.8,0.2,1.8-0.6c0-0.1,0-0.2-0.1-0.4
					c-0.5-0.7-1.3-0.3-1.2,0.3c0,0.2,0.2,0.3,0.4,0.3c0.1,0,0.2,0.1,0.2,0.2c0,0.1-0.1,0.2-0.2,0.2c-0.7,0-1.2-0.8-0.6-1.5
					c0.2-0.2,0.4-0.3,0.7-0.4c1.1-0.1,1.9,1.2,0.9,2.2c-0.2,0.2-0.5,0.4-0.8,0.4c-0.6,0.1-1.1-0.2-1.5-0.5l0,1.9
					c0.5-0.7,1.3-1.1,2.2-1c0.5,0,1,0.3,1.3,0.6c1.3,1.4,0.2,3.1-1.2,3.1c-0.4,0-0.7-0.2-1-0.5c-0.8-1,0-2.1,0.9-2
					c0.2,0,0.5,0.2,0.6,0.3c0.6,0.7,0.1,1.4-0.6,1.4c-0.1,0-0.2-0.1-0.2-0.2c0-0.1,0.1-0.2,0.2-0.2c0.2,0,0.4-0.2,0.4-0.4
					c-0.1-0.4-0.7-0.7-1.1,0c0,0.1-0.1,0.1-0.1,0.2c-0.1,0.9,1.1,1.5,1.9,0.4c0.1-0.2,0.2-0.3,0.2-0.5c0.1-0.9-0.7-1.7-1.6-1.7
					c-1.1,0-2,0.9-2,2c0,0.1-0.1,0.2-0.2,0.2c-0.1,0-0.2-0.1-0.2-0.2c0-1-0.8-1.9-1.8-2c-0.5-0.1-1,0.2-1.4,0.5
					c-0.9,1-0.2,2.2,0.8,2.2c0.2,0,0.3-0.1,0.5-0.2c0.7-0.6,0.4-1.3-0.1-1.4c-0.2,0-0.3,0-0.4,0.1c-0.4,0.3-0.2,0.7,0.2,0.7
					c0.1,0,0.2,0.1,0.2,0.2c0,0.1-0.1,0.2-0.2,0.2c-0.7,0-1.1-0.8-0.6-1.4c0.2-0.2,0.4-0.3,0.6-0.3c1-0.1,1.7,1,0.9,2
					c-0.2,0.3-0.6,0.5-1,0.5c-1.4,0.1-2.5-1.6-1.2-3.1c0.3-0.4,0.8-0.6,1.3-0.6c0.9-0.1,1.7,0.4,2.2,1l0-1.9
					c-0.4,0.4-0.9,0.6-1.5,0.5c-0.3,0-0.6-0.2-0.8-0.4c-1-1.1-0.2-2.3,0.9-2.2c0.3,0,0.5,0.2,0.7,0.4c0.6,0.7,0.1,1.5-0.6,1.5
					c-0.1,0-0.2-0.1-0.2-0.2c0-0.1,0.1-0.2,0.2-0.2c0.2,0,0.4-0.1,0.4-0.3c0.1-0.5-0.6-1-1.2-0.3c-0.1,0.1-0.1,0.2-0.1,0.4
					c0,0.8,1,1.4,1.8,0.6c0.3-0.3,0.5-0.7,0.5-1.1l0-8.7c0-0.1,0.1-0.2,0.2-0.2l0,0C74.7,46.2,74.8,46.4,74.8,46.5z"/>
			</g>
			<g id="XMLID_2741_">
				<path id="XMLID_2742_" class="st5" d="M74.6,60.4c0.2,0,0.4,0.2,0.4,0.4c0,0.2-0.2,0.4-0.4,0.4c-0.2,0-0.4-0.2-0.4-0.4
					C74.2,60.6,74.4,60.4,74.6,60.4z"/>
			</g>
		</g>
		<g id="XMLID_2738_">
			<path id="XMLID_2739_" class="st5" d="M67.8,9.7c0,1,0.9,1.9,1.9,1.9c0.9,0,1.6-0.7,1.6-1.6c0-0.7-0.6-1.3-1.3-1.3
				c-0.6,0-1.1,0.5-1.1,1.1c0,0.5,0.4,0.9,0.9,0.9c0.1,0,0.2-0.1,0.2-0.2c0-0.1-0.1-0.2-0.2-0.2c-0.3,0-0.5-0.2-0.5-0.5
				c0-0.3,0.3-0.6,0.6-0.6c0.5,0,0.9,0.4,0.9,0.8c0,0.6-0.5,1.1-1.1,1.1c-0.8,0-1.5-0.6-1.5-1.4c0-1,0.8-1.9,1.9-1.9
				c1.3,0,2.4,1.1,2.4,2.4c0,1.7-1.4,3-3.1,3l-2.4,0c0.4-0.4,0.7-0.9,0.7-1.5c0-0.9-0.7-1.6-1.6-1.6c-0.7,0-1.3,0.6-1.3,1.3
				c0,0.6,0.5,1.1,1.1,1.1c0.5,0,0.9-0.4,0.9-0.9c0-0.4-0.4-0.8-0.8-0.8c-0.1,0-0.2,0.1-0.2,0.2c0,0.1,0.1,0.2,0.2,0.2
				c0.2,0,0.3,0.1,0.3,0.3c0,0.3-0.2,0.5-0.5,0.5c-0.4,0-0.7-0.3-0.7-0.6c0-0.5,0.4-0.9,0.9-0.9c0.6,0,1.2,0.5,1.2,1.1
				c0,0.8-0.7,1.5-1.5,1.5l-10.6,0c-0.1,0-0.2,0.1-0.2,0.2c0,0.1,0.1,0.2,0.2,0.2l14.1,0c0.8,0,1.5,0.7,1.5,1.5
				c0,0.6-0.5,1.1-1.2,1.1c-0.5,0-0.9-0.4-0.9-0.9c0-0.4,0.3-0.6,0.7-0.6c0.3,0,0.5,0.2,0.5,0.5c0,0.2-0.2,0.3-0.3,0.3
				c-0.1,0-0.2,0.1-0.2,0.2c0,0.1,0.1,0.2,0.2,0.2c0.4,0,0.8-0.4,0.8-0.8c0-0.5-0.4-0.9-0.9-0.9c-0.6,0-1.1,0.5-1.1,1.1
				c0,0.7,0.6,1.3,1.3,1.3c0.9,0,1.6-0.7,1.6-1.6c0-0.7-0.3-1.3-0.9-1.6c1.5-0.4,2.6-1.8,2.6-3.4c0-1.6-1.3-2.8-2.9-2.8
				C68.8,7.4,67.8,8.4,67.8,9.7z"/>
		</g>
		<g id="XMLID_2725_">
			<g id="XMLID_2733_">
				<path id="XMLID_2734_" class="st5" d="M49.3,11.8c0-1.2-1-2.2-2.2-2.2c-0.8,0-1.6,0.4-2.1,1c-0.5-0.6-1.2-1-2.1-1
					c-1.2,0-2.2,1-2.2,2.2c0,1,0.8,1.8,1.8,1.8c0.8,0,1.5-0.7,1.5-1.5c0-0.7-0.5-1.2-1.2-1.2c-0.6,0-1,0.5-1,1c0,0.5,0.4,0.8,0.9,0.8
					c0.1,0,0.2-0.1,0.2-0.2c0-0.1-0.1-0.2-0.2-0.2c-0.3,0-0.5-0.2-0.5-0.5c0-0.3,0.3-0.6,0.6-0.6c0.5,0,0.8,0.4,0.8,0.8
					c0,0.6-0.5,1.1-1.1,1.1c-0.8,0-1.4-0.6-1.4-1.4c0-1,0.8-1.8,1.8-1.8c0.7,0,1.4,0.4,1.8,0.9c-0.2,0.4-0.4,0.9-0.4,1.4
					c0,0.6,0.1,1.1,0.4,1.6c-1,2.2-1,4.8,0,7c0,0.1,0.1,0.1,0.2,0.1c0.1,0,0.1,0,0.2-0.1c1-2.2,1.1-4.8,0-7c0.3-0.5,0.4-1,0.4-1.6
					c0-0.5-0.1-1-0.4-1.4c0.4-0.5,1.1-0.9,1.8-0.9c1,0,1.8,0.8,1.8,1.8c0,0.8-0.6,1.4-1.4,1.4c-0.6,0-1.1-0.5-1.1-1.1
					c0-0.4,0.4-0.8,0.8-0.8c0.3,0,0.6,0.3,0.6,0.6c0,0.2-0.2,0.5-0.5,0.5c-0.1,0-0.2,0.1-0.2,0.2c0,0.1,0.1,0.2,0.2,0.2
					c0.5,0,0.9-0.4,0.9-0.8c0-0.6-0.5-1-1-1c-0.7,0-1.2,0.5-1.2,1.2c0,0.8,0.7,1.5,1.5,1.5C48.4,13.6,49.3,12.8,49.3,11.8z M45,14.4
					c0.8,1.9,0.8,4,0,6C44.2,18.5,44.2,16.3,45,14.4z M45,11.3c0.1,0.3,0.2,0.6,0.2,1c0,0.4-0.1,0.8-0.2,1.1
					c-0.2-0.4-0.2-0.7-0.2-1.1C44.7,12,44.8,11.6,45,11.3z"/>
			</g>
			<g id="XMLID_2726_">
				<g id="XMLID_2730_">
					<g id="XMLID_2731_">
						<path id="XMLID_2732_" class="st5" d="M55.6,13.3l-3.4,0c0.4-0.3,0.6-0.8,0.6-1.3c0-0.5-0.2-0.9-0.6-1.2c-1-0.7-2.1,0-2.1,0.9
							c0,0.3,0.2,0.6,0.4,0.8c0.7,0.5,1.5,0,1.5-0.7c0-0.1-0.1-0.2-0.2-0.2c-0.1,0-0.2,0.1-0.2,0.2c0,0.2-0.1,0.4-0.3,0.4
							c-0.6,0.1-1.1-0.6-0.3-1.2c0.1-0.1,0.2-0.1,0.4-0.1c0.8,0,1.4,0.9,0.7,1.7c-0.3,0.4-0.8,0.6-1.2,0.6l-1,0
							c-0.7,0-1.4,0.4-1.8,1.1c-0.5,1.1,0.3,2.2,1.3,2.2c0.4,0,0.7-0.2,1-0.5c0.6-0.8,0-1.7-0.8-1.7c-0.5,0-0.9,0.4-0.9,0.9
							c0,0.1,0.1,0.2,0.2,0.2c0.1,0,0.2-0.1,0.2-0.2c0-0.2,0.1-0.4,0.3-0.4c0.6-0.1,1.1,0.6,0.3,1.2c-0.1,0.1-0.2,0.1-0.4,0.1
							c-0.8,0-1.4-0.9-0.7-1.7c0.3-0.4,0.8-0.6,1.2-0.6l5.7,0c0.1,0,0.2-0.1,0.2-0.2l0,0C55.8,13.4,55.7,13.3,55.6,13.3z"/>
					</g>
				</g>
				<g id="XMLID_2727_">
					<g id="XMLID_2728_">
						<path id="XMLID_2729_" class="st5" d="M34.4,13.3l3.4,0c-0.4-0.3-0.6-0.8-0.6-1.3c0-0.5,0.2-0.9,0.6-1.2c1-0.7,2.1,0,2.1,0.9
							c0,0.3-0.2,0.6-0.4,0.8c-0.7,0.5-1.5,0-1.5-0.7c0-0.1,0.1-0.2,0.2-0.2c0.1,0,0.2,0.1,0.2,0.2c0,0.2,0.1,0.4,0.3,0.4
							c0.6,0.1,1.1-0.6,0.3-1.2C38.9,11,38.8,11,38.6,11c-0.8,0-1.4,0.9-0.7,1.8c0.3,0.4,0.8,0.6,1.2,0.6l1,0c0.7,0,1.4,0.4,1.8,1.1
							c0.5,1.1-0.3,2.2-1.3,2.2c-0.4,0-0.7-0.2-1-0.5c-0.6-0.8-0.1-1.7,0.8-1.7c0.5,0,0.9,0.4,0.9,0.9c0,0.1-0.1,0.2-0.2,0.2
							c-0.1,0-0.2-0.1-0.2-0.2c0-0.2-0.1-0.4-0.3-0.4c-0.6-0.1-1.1,0.6-0.3,1.2c0.1,0.1,0.2,0.1,0.4,0.1c0.8,0,1.4-0.9,0.7-1.8
							c-0.3-0.4-0.8-0.6-1.2-0.6l-5.7,0c-0.1,0-0.2-0.1-0.2-0.2l0,0C34.2,13.4,34.3,13.3,34.4,13.3z"/>
					</g>
				</g>
			</g>
		</g>
		<g id="XMLID_2717_">
			<g id="XMLID_2723_">
				<path id="XMLID_2724_" class="st5" d="M78.4,103.2c-1.1,0-1.9,0.9-1.9,1.9c0,0.9,0.7,1.6,1.6,1.6c0.7,0,1.3-0.6,1.3-1.3
					c0-0.6-0.5-1.1-1.1-1.1c-0.5,0-0.9,0.4-0.9,0.9c0,0.1,0.1,0.2,0.2,0.2c0.1,0,0.2-0.1,0.2-0.2c0-0.3,0.2-0.5,0.5-0.5
					c0.4,0,0.6,0.3,0.6,0.6c0,0.5-0.4,0.8-0.9,0.8c-0.6,0-1.1-0.5-1.1-1.1c0-0.8,0.7-1.4,1.5-1.4c1,0,1.9,0.8,1.9,1.9
					c0,1.3-1.1,2.4-2.4,2.4c-1.7,0-3.1-1.4-3.1-3l0-2.3c0.4,0.4,0.9,0.7,1.5,0.7c0.9,0,1.6-0.7,1.6-1.6c0-0.7-0.6-1.3-1.3-1.3
					c-0.6,0-1.1,0.5-1.1,1.1c0,0.5,0.4,0.9,0.9,0.9c0.4,0,0.8-0.4,0.8-0.8c0-0.1-0.1-0.2-0.2-0.2c-0.1,0-0.2,0.1-0.2,0.2
					c0,0.2-0.2,0.3-0.3,0.3c-0.3,0-0.5-0.2-0.5-0.5c0-0.4,0.3-0.6,0.7-0.6c0.5,0,0.9,0.4,0.9,0.9c0,0.6-0.5,1.1-1.2,1.1
					c-0.8,0-1.5-0.7-1.5-1.5l0-32.3c0-0.1-0.1-0.2-0.2-0.2c-0.1,0-0.2,0.1-0.2,0.2l0,35.7c0,0.8-0.7,1.5-1.5,1.5
					c-0.6,0-1.2-0.5-1.2-1.1c0-0.5,0.4-0.9,0.9-0.9c0.4,0,0.7,0.3,0.7,0.6c0,0.3-0.2,0.5-0.5,0.5c-0.2,0-0.3-0.1-0.3-0.3
					c0-0.1-0.1-0.2-0.2-0.2c-0.1,0-0.2,0.1-0.2,0.2c0,0.4,0.4,0.8,0.8,0.8c0.5,0,0.9-0.4,0.9-0.9c0-0.6-0.5-1.1-1.1-1.1
					c-0.7,0-1.3,0.6-1.3,1.3c0,0.9,0.7,1.6,1.6,1.6c0.7,0,1.3-0.3,1.6-0.9c0.4,1.5,1.8,2.6,3.4,2.6c1.6,0,2.9-1.3,2.9-2.8
					C80.8,104.3,79.7,103.2,78.4,103.2z"/>
			</g>
			<g id="XMLID_2718_">
				<g id="XMLID_2721_">
					<path id="XMLID_2722_" class="st5" d="M74.8,76.4l0-8.7c0-0.4,0.2-0.8,0.5-1.1c0.8-0.7,1.8-0.2,1.8,0.6c0,0.1,0,0.2-0.1,0.4
						c-0.5,0.7-1.3,0.3-1.2-0.3c0-0.2,0.2-0.3,0.4-0.3c0.1,0,0.2-0.1,0.2-0.2c0-0.1-0.1-0.2-0.2-0.2c-0.7,0-1.2,0.8-0.6,1.5
						c0.2,0.2,0.4,0.3,0.7,0.4c1.1,0.1,1.9-1.2,0.9-2.2c-0.2-0.2-0.5-0.4-0.8-0.4c-0.6-0.1-1.1,0.2-1.5,0.5l0-1.9
						c0.5,0.7,1.3,1.1,2.2,1c0.5,0,1-0.3,1.3-0.6c1.3-1.4,0.2-3.1-1.2-3.1c-0.4,0-0.7,0.2-1,0.5c-0.8,1,0,2.1,0.9,2
						c0.2,0,0.5-0.2,0.6-0.3c0.6-0.7,0.1-1.4-0.6-1.4c-0.1,0-0.2,0.1-0.2,0.2c0,0.1,0.1,0.2,0.2,0.2c0.2,0,0.4,0.2,0.4,0.4
						c-0.1,0.4-0.7,0.7-1.1,0c0-0.1-0.1-0.1-0.1-0.2c-0.1-0.9,1.1-1.5,1.9-0.4c0.1,0.2,0.2,0.3,0.2,0.5c0.1,0.9-0.7,1.7-1.6,1.7
						c-1.1,0-2-0.9-2-2c0-0.1-0.1-0.2-0.2-0.2c-0.1,0-0.2,0.1-0.2,0.2c0,1-0.8,1.9-1.8,2c-0.5,0.1-1-0.2-1.4-0.5
						c-0.9-1-0.2-2.2,0.8-2.2c0.2,0,0.3,0.1,0.5,0.2c0.7,0.6,0.4,1.3-0.1,1.4c-0.2,0-0.3,0-0.4-0.1c-0.4-0.3-0.2-0.7,0.2-0.7
						c0.1,0,0.2-0.1,0.2-0.2c0-0.1-0.1-0.2-0.2-0.2c-0.7,0-1.1,0.8-0.6,1.4c0.2,0.2,0.4,0.3,0.6,0.3c1,0.1,1.7-1,0.9-2
						c-0.2-0.3-0.6-0.5-1-0.5c-1.4-0.1-2.5,1.6-1.2,3.1c0.3,0.4,0.8,0.6,1.3,0.6c0.9,0.1,1.7-0.4,2.2-1l0,1.9
						c-0.4-0.4-0.9-0.6-1.5-0.5c-0.3,0-0.6,0.2-0.8,0.4c-1,1.1-0.2,2.3,0.9,2.2c0.3,0,0.5-0.2,0.7-0.4c0.6-0.7,0.1-1.5-0.6-1.5
						c-0.1,0-0.2,0.1-0.2,0.2c0,0.1,0.1,0.2,0.2,0.2c0.2,0,0.4,0.1,0.4,0.3c0.1,0.5-0.6,1-1.2,0.3c-0.1-0.1-0.1-0.2-0.1-0.4
						c0-0.8,1-1.4,1.8-0.6c0.3,0.3,0.5,0.7,0.5,1.1l0,8.7c0,0.1,0.1,0.2,0.2,0.2l0,0C74.7,76.6,74.8,76.5,74.8,76.4z"/>
				</g>
				<g id="XMLID_2719_">
					<path id="XMLID_2720_" class="st5" d="M74.6,62.5c0.2,0,0.4-0.2,0.4-0.4c0-0.2-0.2-0.4-0.4-0.4c-0.2,0-0.4,0.2-0.4,0.4
						C74.2,62.3,74.4,62.5,74.6,62.5z"/>
				</g>
			</g>
		</g>
		<g id="XMLID_2715_">
			<path id="XMLID_2716_" class="st5" d="M67.8,113.2c0-1,0.9-1.9,1.9-1.9c0.9,0,1.6,0.7,1.6,1.6c0,0.7-0.6,1.3-1.3,1.3
				c-0.6,0-1.1-0.5-1.1-1.1c0-0.5,0.4-0.9,0.9-0.9c0.1,0,0.2,0.1,0.2,0.2c0,0.1-0.1,0.2-0.2,0.2c-0.3,0-0.5,0.2-0.5,0.5
				c0,0.3,0.3,0.6,0.6,0.6c0.5,0,0.9-0.4,0.9-0.8c0-0.6-0.5-1.1-1.1-1.1c-0.8,0-1.5,0.7-1.5,1.4c0,1,0.8,1.9,1.9,1.9
				c1.3,0,2.4-1.1,2.4-2.4c0-1.7-1.4-3-3.1-3l-2.4,0c0.4,0.4,0.7,0.9,0.7,1.5c0,0.9-0.7,1.6-1.6,1.6c-0.7,0-1.3-0.6-1.3-1.3
				c0-0.6,0.5-1.1,1.1-1.1c0.5,0,0.9,0.4,0.9,0.9c0,0.4-0.4,0.8-0.8,0.8c-0.1,0-0.2-0.1-0.2-0.2c0-0.1,0.1-0.2,0.2-0.2
				c0.2,0,0.3-0.1,0.3-0.3c0-0.3-0.2-0.5-0.5-0.5c-0.4,0-0.7,0.3-0.7,0.6c0,0.5,0.4,0.9,0.9,0.9c0.6,0,1.2-0.5,1.2-1.1
				c0-0.8-0.7-1.5-1.5-1.5l-10.6,0c-0.1,0-0.2-0.1-0.2-0.2c0-0.1,0.1-0.2,0.2-0.2l14.1,0c0.8,0,1.5-0.7,1.5-1.5
				c0-0.6-0.5-1.1-1.2-1.1c-0.5,0-0.9,0.4-0.9,0.9c0,0.4,0.3,0.6,0.7,0.6c0.3,0,0.5-0.2,0.5-0.5c0-0.2-0.2-0.3-0.3-0.3
				c-0.1,0-0.2-0.1-0.2-0.2c0-0.1,0.1-0.2,0.2-0.2c0.4,0,0.8,0.4,0.8,0.8c0,0.5-0.4,0.9-0.9,0.9c-0.6,0-1.1-0.5-1.1-1.1
				c0-0.7,0.6-1.3,1.3-1.3c0.9,0,1.6,0.7,1.6,1.6c0,0.7-0.3,1.3-0.9,1.6c1.5,0.4,2.6,1.8,2.6,3.4c0,1.6-1.3,2.8-2.9,2.8
				C68.9,115.5,67.8,114.4,67.8,113.2z"/>
		</g>
		<g id="XMLID_2702_">
			<g id="XMLID_2710_">
				<path id="XMLID_2711_" class="st5" d="M47.5,109.3c-0.8,0-1.5,0.7-1.5,1.5c0,0.7,0.5,1.2,1.2,1.2c0.6,0,1-0.5,1-1
					c0-0.5-0.4-0.8-0.9-0.8c-0.1,0-0.2,0.1-0.2,0.2c0,0.1,0.1,0.2,0.2,0.2c0.3,0,0.5,0.2,0.5,0.5c0,0.3-0.3,0.6-0.6,0.6
					c-0.5,0-0.8-0.4-0.8-0.8c0-0.6,0.5-1.1,1.1-1.1c0.8,0,1.4,0.6,1.4,1.4c0,1-0.8,1.8-1.8,1.8c-0.7,0-1.4-0.4-1.8-0.9
					c0.2-0.4,0.4-0.9,0.4-1.4c0-0.6-0.1-1.1-0.4-1.6c1-2.2,1-4.8,0-7c0-0.1-0.1-0.1-0.2-0.1c-0.1,0-0.1,0-0.2,0.1c-1,2.2-1.1,4.8,0,7
					c-0.3,0.5-0.4,1-0.4,1.6c0,0.5,0.1,1,0.4,1.4c-0.4,0.5-1.1,0.9-1.8,0.9c-1,0-1.8-0.8-1.8-1.8c0-0.8,0.6-1.4,1.4-1.4
					c0.6,0,1.1,0.5,1.1,1.1c0,0.5-0.4,0.8-0.8,0.8c-0.3,0-0.6-0.3-0.6-0.6c0-0.2,0.2-0.5,0.5-0.5c0.1,0,0.2-0.1,0.2-0.2
					c0-0.1-0.1-0.2-0.2-0.2c-0.5,0-0.9,0.4-0.9,0.8c0,0.6,0.5,1,1,1c0.7,0,1.2-0.5,1.2-1.2c0-0.8-0.7-1.5-1.5-1.5
					c-1,0-1.8,0.8-1.8,1.8c0,1.2,1,2.2,2.2,2.2c0.8,0,1.6-0.4,2.1-1c0.5,0.6,1.2,1,2.1,1c1.2,0,2.2-1,2.2-2.2
					C49.3,110.1,48.5,109.3,47.5,109.3z M45,102.5c0.8,1.9,0.8,4,0,6C44.3,106.6,44.2,104.4,45,102.5z M44.8,110.6
					c0-0.4,0.1-0.8,0.2-1.1c0.2,0.4,0.2,0.7,0.2,1.1c0,0.4-0.1,0.7-0.2,1C44.9,111.3,44.8,110.9,44.8,110.6z"/>
			</g>
			<g id="XMLID_2703_">
				<g id="XMLID_2707_">
					<g id="XMLID_2708_">
						<path id="XMLID_2709_" class="st5" d="M55.6,109.6l-3.4,0c0.4,0.3,0.6,0.8,0.6,1.3c0,0.5-0.2,0.9-0.6,1.2c-1,0.7-2.1,0-2.1-0.9
							c0-0.3,0.2-0.6,0.4-0.8c0.7-0.5,1.5,0,1.5,0.7c0,0.1-0.1,0.2-0.2,0.2c-0.1,0-0.2-0.1-0.2-0.2c0-0.2-0.1-0.4-0.3-0.4
							c-0.6-0.1-1.1,0.6-0.3,1.2c0.1,0.1,0.2,0.1,0.4,0.1c0.8,0,1.4-0.9,0.7-1.8c-0.3-0.4-0.8-0.6-1.2-0.6l-1,0
							c-0.7,0-1.4-0.4-1.8-1.1c-0.5-1.1,0.3-2.2,1.3-2.2c0.4,0,0.7,0.2,1,0.5c0.6,0.8,0.1,1.7-0.8,1.7c-0.5,0-0.9-0.4-0.9-0.9
							c0-0.1,0.1-0.2,0.2-0.2c0.1,0,0.2,0.1,0.2,0.2c0,0.2,0.1,0.4,0.3,0.4c0.6,0.1,1.1-0.6,0.3-1.2c-0.1-0.1-0.2-0.1-0.4-0.1
							c-0.8,0-1.4,0.9-0.7,1.8c0.3,0.4,0.8,0.6,1.2,0.6l5.7,0c0.1,0,0.2,0.1,0.2,0.2l0,0C55.8,109.5,55.7,109.6,55.6,109.6z"/>
					</g>
				</g>
				<g id="XMLID_2704_">
					<g id="XMLID_2705_">
						<path id="XMLID_2706_" class="st5" d="M34.4,109.6l3.4,0c-0.4,0.3-0.6,0.8-0.6,1.3c0,0.5,0.2,0.9,0.6,1.2c1,0.7,2.1,0,2.1-0.9
							c0-0.3-0.2-0.6-0.4-0.8c-0.7-0.5-1.5,0-1.5,0.7c0,0.1,0.1,0.2,0.2,0.2c0.1,0,0.2-0.1,0.2-0.2c0-0.2,0.1-0.4,0.3-0.4
							c0.6-0.1,1.1,0.6,0.3,1.2c-0.1,0.1-0.2,0.1-0.4,0.1c-0.8,0-1.4-0.9-0.7-1.7c0.3-0.4,0.8-0.6,1.2-0.6l1,0c0.7,0,1.4-0.4,1.8-1.1
							c0.5-1.1-0.3-2.2-1.3-2.2c-0.4,0-0.7,0.2-1,0.5c-0.6,0.8,0,1.7,0.8,1.7c0.5,0,0.9-0.4,0.9-0.9c0-0.1-0.1-0.2-0.2-0.2
							c-0.1,0-0.2,0.1-0.2,0.2c0,0.2-0.1,0.4-0.3,0.4c-0.6,0.1-1.1-0.6-0.3-1.2c0.1-0.1,0.2-0.1,0.4-0.1c0.8,0,1.4,0.9,0.7,1.7
							c-0.3,0.4-0.8,0.6-1.2,0.6l-5.7,0c-0.1,0-0.2,0.1-0.2,0.2l0,0C34.2,109.5,34.3,109.6,34.4,109.6z"/>
					</g>
				</g>
			</g>
		</g>
		<g id="XMLID_2682_">
			<g id="XMLID_2700_">
				<path id="XMLID_2701_" class="st5" d="M11.6,19.7c1.1,0,1.9-0.9,1.9-1.9c0-0.9-0.7-1.6-1.6-1.6c-0.7,0-1.3,0.6-1.3,1.3
					c0,0.6,0.5,1.1,1.1,1.1c0.5,0,0.9-0.4,0.9-0.9c0-0.1-0.1-0.2-0.2-0.2c-0.1,0-0.2,0.1-0.2,0.2c0,0.3-0.2,0.5-0.5,0.5
					c-0.4,0-0.6-0.3-0.6-0.6c0-0.5,0.4-0.8,0.9-0.8c0.6,0,1.1,0.5,1.1,1.1c0,0.8-0.7,1.4-1.5,1.4c-1,0-1.9-0.8-1.9-1.9
					c0-1.3,1.1-2.4,2.4-2.4c1.7,0,3.1,1.4,3.1,3l0,2.3c-0.4-0.4-0.9-0.7-1.5-0.7c-0.9,0-1.6,0.7-1.6,1.6c0,0.7,0.6,1.3,1.3,1.3
					c0.6,0,1.1-0.5,1.1-1.1c0-0.5-0.4-0.9-0.9-0.9c-0.4,0-0.8,0.4-0.8,0.8c0,0.1,0.1,0.2,0.2,0.2c0.1,0,0.2-0.1,0.2-0.2
					c0-0.2,0.2-0.3,0.3-0.3c0.3,0,0.5,0.2,0.5,0.5c0,0.4-0.3,0.6-0.7,0.6c-0.5,0-0.9-0.4-0.9-0.9c0-0.6,0.5-1.1,1.2-1.1
					c0.8,0,1.5,0.7,1.5,1.5l0,32.3c0,0.1,0.1,0.2,0.2,0.2c0.1,0,0.2-0.1,0.2-0.2l0-35.7c0-0.8,0.7-1.5,1.5-1.5c0.6,0,1.2,0.5,1.2,1.1
					c0,0.5-0.4,0.9-0.9,0.9c-0.4,0-0.7-0.3-0.7-0.6c0-0.3,0.2-0.5,0.5-0.5c0.2,0,0.3,0.1,0.3,0.3c0,0.1,0.1,0.2,0.2,0.2
					c0.1,0,0.2-0.1,0.2-0.2c0-0.4-0.4-0.8-0.8-0.8c-0.5,0-0.9,0.4-0.9,0.9c0,0.6,0.5,1.1,1.1,1.1c0.7,0,1.3-0.6,1.3-1.3
					c0-0.9-0.7-1.6-1.6-1.6c-0.7,0-1.3,0.3-1.6,0.9c-0.4-1.5-1.8-2.6-3.4-2.6c-1.6,0-2.9,1.3-2.9,2.8C9.2,18.6,10.3,19.7,11.6,19.7z"
					/>
			</g>
			<g id="XMLID_2695_">
				<g id="XMLID_2698_">
					<path id="XMLID_2699_" class="st5" d="M15.2,46.5l0,8.7c0,0.4-0.2,0.8-0.5,1.1c-0.8,0.7-1.8,0.2-1.8-0.6c0-0.1,0-0.2,0.1-0.4
						c0.5-0.7,1.3-0.3,1.2,0.3c0,0.2-0.2,0.3-0.4,0.3c-0.1,0-0.2,0.1-0.2,0.2c0,0.1,0.1,0.2,0.2,0.2c0.7,0,1.2-0.8,0.6-1.5
						c-0.2-0.2-0.4-0.3-0.7-0.4c-1.1-0.1-1.9,1.2-0.9,2.2c0.2,0.2,0.5,0.4,0.8,0.4c0.6,0.1,1.1-0.2,1.5-0.5l0,1.9
						c-0.5-0.7-1.3-1.1-2.2-1c-0.5,0-1,0.3-1.3,0.6c-1.3,1.4-0.2,3.1,1.2,3.1c0.4,0,0.7-0.2,1-0.5c0.8-1,0-2.1-0.9-2
						c-0.2,0-0.5,0.2-0.6,0.3c-0.6,0.7-0.1,1.4,0.6,1.4c0.1,0,0.2-0.1,0.2-0.2c0-0.1-0.1-0.2-0.2-0.2c-0.2,0-0.4-0.2-0.4-0.4
						c0.1-0.4,0.7-0.7,1.1,0c0,0.1,0.1,0.1,0.1,0.2c0.1,0.9-1.1,1.5-1.9,0.4c-0.1-0.2-0.2-0.3-0.2-0.5c-0.1-0.9,0.7-1.7,1.6-1.7
						c1.1,0,2,0.9,2,2c0,0.1,0.1,0.2,0.2,0.2c0.1,0,0.2-0.1,0.2-0.2c0-1,0.8-1.9,1.8-2c0.5-0.1,1,0.2,1.4,0.5c0.9,1,0.2,2.2-0.8,2.2
						c-0.2,0-0.3-0.1-0.5-0.2c-0.7-0.6-0.4-1.3,0.1-1.4c0.2,0,0.3,0,0.4,0.1c0.4,0.3,0.2,0.7-0.2,0.7c-0.1,0-0.2,0.1-0.2,0.2
						c0,0.1,0.1,0.2,0.2,0.2c0.7,0,1.1-0.8,0.6-1.4c-0.2-0.2-0.4-0.3-0.6-0.3c-1-0.1-1.7,1-0.9,2c0.2,0.3,0.6,0.5,1,0.5
						c1.4,0.1,2.5-1.6,1.2-3.1c-0.3-0.4-0.8-0.6-1.3-0.6c-0.9-0.1-1.7,0.4-2.2,1l0-1.9c0.4,0.4,0.9,0.6,1.5,0.5
						c0.3,0,0.6-0.2,0.8-0.4c1-1.1,0.2-2.3-0.9-2.2c-0.3,0-0.5,0.2-0.7,0.4c-0.6,0.7-0.1,1.5,0.6,1.5c0.1,0,0.2-0.1,0.2-0.2
						c0-0.1-0.1-0.2-0.2-0.2c-0.2,0-0.4-0.1-0.4-0.3c-0.1-0.5,0.6-1,1.2-0.3c0.1,0.1,0.1,0.2,0.1,0.4c0,0.8-1,1.4-1.8,0.6
						c-0.3-0.3-0.5-0.7-0.5-1.1l0-8.7c0-0.1-0.1-0.2-0.2-0.2l0,0C15.3,46.3,15.2,46.4,15.2,46.5z"/>
				</g>
				<g id="XMLID_2696_">
					<path id="XMLID_2697_" class="st5" d="M15.4,60.4c-0.2,0-0.4,0.2-0.4,0.4c0,0.2,0.2,0.4,0.4,0.4c0.2,0,0.4-0.2,0.4-0.4
						C15.8,60.6,15.6,60.4,15.4,60.4z"/>
				</g>
			</g>
			<g id="XMLID_2693_">
				<path id="XMLID_2694_" class="st5" d="M22.2,9.7c0,1-0.9,1.9-1.9,1.9c-0.9,0-1.6-0.7-1.6-1.6c0-0.7,0.6-1.3,1.3-1.3
					c0.6,0,1.1,0.5,1.1,1.1c0,0.5-0.4,0.9-0.9,0.9c-0.1,0-0.2-0.1-0.2-0.2c0-0.1,0.1-0.2,0.2-0.2c0.3,0,0.5-0.2,0.5-0.5
					c0-0.3-0.3-0.6-0.6-0.6c-0.5,0-0.9,0.4-0.9,0.8c0,0.6,0.5,1.1,1.1,1.1c0.8,0,1.5-0.7,1.5-1.4c0-1-0.8-1.9-1.9-1.9
					c-1.3,0-2.4,1.1-2.4,2.4c0,1.7,1.4,3,3.1,3l2.4,0c-0.4-0.4-0.7-0.9-0.7-1.5c0-0.9,0.7-1.6,1.6-1.6c0.7,0,1.3,0.6,1.3,1.3
					c0,0.6-0.5,1.1-1.1,1.1c-0.5,0-0.9-0.4-0.9-0.9c0-0.4,0.4-0.8,0.8-0.8c0.1,0,0.2,0.1,0.2,0.2c0,0.1-0.1,0.2-0.2,0.2
					c-0.2,0-0.3,0.2-0.3,0.3c0,0.3,0.2,0.5,0.5,0.5c0.4,0,0.7-0.3,0.7-0.6c0-0.5-0.4-0.9-0.9-0.9c-0.6,0-1.2,0.5-1.2,1.1
					c0,0.8,0.7,1.5,1.5,1.5l10.6,0c0.1,0,0.2,0.1,0.2,0.2c0,0.1-0.1,0.2-0.2,0.2l-14.1,0c-0.8,0-1.5,0.7-1.5,1.5
					c0,0.6,0.5,1.1,1.2,1.1c0.5,0,0.9-0.4,0.9-0.9c0-0.4-0.3-0.6-0.7-0.6c-0.3,0-0.5,0.2-0.5,0.5c0,0.2,0.2,0.3,0.3,0.3
					c0.1,0,0.2,0.1,0.2,0.2c0,0.1-0.1,0.2-0.2,0.2c-0.4,0-0.8-0.4-0.8-0.8c0-0.5,0.4-0.9,0.9-0.9c0.6,0,1.1,0.5,1.1,1.1
					c0,0.7-0.6,1.3-1.3,1.3c-0.9,0-1.6-0.7-1.6-1.6c0-0.7,0.3-1.3,0.9-1.6c-1.5-0.4-2.6-1.8-2.6-3.4c0-1.6,1.3-2.8,2.9-2.8
					C21.1,7.4,22.2,8.5,22.2,9.7z"/>
			</g>
			<g id="XMLID_2685_">
				<g id="XMLID_2691_">
					<path id="XMLID_2692_" class="st5" d="M11.6,103.3c1.1,0,1.9,0.8,1.9,1.9c0,0.9-0.7,1.6-1.6,1.6c-0.7,0-1.3-0.6-1.3-1.3
						c0-0.6,0.5-1.1,1.1-1.1c0.5,0,0.9,0.4,0.9,0.9c0,0.1-0.1,0.2-0.2,0.2c-0.1,0-0.2-0.1-0.2-0.2c0-0.3-0.2-0.5-0.5-0.5
						c-0.4,0-0.6,0.3-0.6,0.6c0,0.5,0.4,0.8,0.9,0.8c0.6,0,1.1-0.5,1.1-1.1c0-0.8-0.7-1.4-1.5-1.4c-1,0-1.9,0.8-1.9,1.9
						c0,1.3,1.1,2.4,2.4,2.4c1.7,0,3.1-1.4,3.1-3l0-2.3c-0.4,0.4-0.9,0.7-1.5,0.7c-0.9,0-1.6-0.7-1.6-1.6c0-0.7,0.6-1.3,1.3-1.3
						c0.6,0,1.1,0.5,1.1,1.1c0,0.5-0.4,0.9-0.9,0.9c-0.4,0-0.8-0.4-0.8-0.8c0-0.1,0.1-0.2,0.2-0.2c0.1,0,0.2,0.1,0.2,0.2
						c0,0.2,0.2,0.3,0.3,0.3c0.3,0,0.5-0.2,0.5-0.5c0-0.4-0.3-0.6-0.7-0.6c-0.5,0-0.9,0.4-0.9,0.9c0,0.6,0.5,1.1,1.2,1.1
						c0.8,0,1.5-0.7,1.5-1.5l0-32.3c0-0.1,0.1-0.2,0.2-0.2c0.1,0,0.2,0.1,0.2,0.2l0,35.7c0,0.8,0.7,1.5,1.5,1.5
						c0.6,0,1.2-0.5,1.2-1.1c0-0.5-0.4-0.9-0.9-0.9c-0.4,0-0.7,0.3-0.7,0.6c0,0.3,0.2,0.5,0.5,0.5c0.2,0,0.3-0.2,0.3-0.3
						c0-0.1,0.1-0.2,0.2-0.2c0.1,0,0.2,0.1,0.2,0.2c0,0.4-0.4,0.8-0.8,0.8c-0.5,0-0.9-0.4-0.9-0.9c0-0.6,0.5-1.1,1.1-1.1
						c0.7,0,1.3,0.6,1.3,1.3c0,0.9-0.7,1.6-1.6,1.6c-0.7,0-1.3-0.3-1.6-0.9c-0.4,1.5-1.8,2.6-3.4,2.6c-1.6,0-2.9-1.3-2.9-2.8
						C9.2,104.3,10.3,103.3,11.6,103.3z"/>
				</g>
				<g id="XMLID_2686_">
					<g id="XMLID_2689_">
						<path id="XMLID_2690_" class="st5" d="M15.2,76.4l0-8.7c0-0.4-0.2-0.8-0.5-1.1c-0.8-0.7-1.8-0.2-1.8,0.6c0,0.1,0,0.2,0.1,0.4
							c0.5,0.7,1.3,0.3,1.2-0.3c0-0.2-0.2-0.3-0.4-0.3c-0.1,0-0.2-0.1-0.2-0.2c0-0.1,0.1-0.2,0.2-0.2c0.7,0,1.2,0.8,0.6,1.5
							c-0.2,0.2-0.4,0.3-0.7,0.4c-1.1,0.1-1.9-1.2-0.9-2.2c0.2-0.2,0.5-0.4,0.8-0.4c0.6-0.1,1.1,0.2,1.5,0.5l0-1.9
							c-0.5,0.7-1.3,1.1-2.2,1c-0.5,0-1-0.3-1.3-0.6c-1.3-1.4-0.2-3.1,1.2-3.1c0.4,0,0.7,0.2,1,0.5c0.8,1,0,2.1-0.9,2
							c-0.2,0-0.5-0.2-0.6-0.3c-0.6-0.7-0.1-1.4,0.6-1.4c0.1,0,0.2,0.1,0.2,0.2c0,0.1-0.1,0.2-0.2,0.2c-0.2,0-0.4,0.2-0.4,0.4
							c0.1,0.4,0.7,0.7,1.1,0c0-0.1,0.1-0.1,0.1-0.2c0.1-0.9-1.1-1.5-1.9-0.4c-0.1,0.2-0.2,0.3-0.2,0.5c-0.1,0.9,0.7,1.7,1.6,1.7
							c1.1,0,2-0.9,2-2c0-0.1,0.1-0.2,0.2-0.2c0.1,0,0.2,0.1,0.2,0.2c0,1,0.8,1.9,1.8,2c0.5,0.1,1-0.2,1.4-0.5c0.9-1,0.2-2.2-0.8-2.2
							c-0.2,0-0.3,0.1-0.5,0.2c-0.7,0.6-0.4,1.3,0.1,1.4c0.2,0,0.3,0,0.4-0.1c0.4-0.3,0.2-0.7-0.2-0.7c-0.1,0-0.2-0.1-0.2-0.2
							c0-0.1,0.1-0.2,0.2-0.2c0.7,0,1.1,0.8,0.6,1.4c-0.2,0.2-0.4,0.3-0.6,0.3c-1,0.1-1.7-1-0.9-2c0.2-0.3,0.6-0.5,1-0.5
							c1.4-0.1,2.5,1.6,1.2,3.1c-0.3,0.4-0.8,0.6-1.3,0.6c-0.9,0.1-1.7-0.4-2.2-1l0,1.9c0.4-0.4,0.9-0.6,1.5-0.5
							c0.3,0,0.6,0.2,0.8,0.4c1,1.1,0.2,2.3-0.9,2.2c-0.3,0-0.5-0.2-0.7-0.4c-0.6-0.7-0.1-1.5,0.6-1.5c0.1,0,0.2,0.1,0.2,0.2
							c0,0.1-0.1,0.2-0.2,0.2c-0.2,0-0.4,0.1-0.4,0.3c-0.1,0.5,0.6,1,1.2,0.3c0.1-0.1,0.1-0.2,0.1-0.4c0-0.8-1-1.4-1.8-0.6
							c-0.3,0.3-0.5,0.7-0.5,1.1l0,8.7c0,0.1-0.1,0.2-0.2,0.2l0,0C15.3,76.7,15.2,76.5,15.2,76.4z"/>
					</g>
					<g id="XMLID_2687_">
						<path id="XMLID_2688_" class="st5" d="M15.4,62.5c-0.2,0-0.4-0.2-0.4-0.4c0-0.2,0.2-0.4,0.4-0.4c0.2,0,0.4,0.2,0.4,0.4
							C15.8,62.3,15.6,62.5,15.4,62.5z"/>
					</g>
				</g>
			</g>
			<g id="XMLID_2683_">
				<path id="XMLID_2684_" class="st5" d="M22.2,113.2c0-1-0.9-1.9-1.9-1.9c-0.9,0-1.6,0.7-1.6,1.6c0,0.7,0.6,1.3,1.3,1.3
					c0.6,0,1.1-0.5,1.1-1.1c0-0.5-0.4-0.9-0.9-0.9c-0.1,0-0.2,0.1-0.2,0.2c0,0.1,0.1,0.2,0.2,0.2c0.3,0,0.5,0.2,0.5,0.5
					c0,0.3-0.3,0.6-0.6,0.6c-0.5,0-0.9-0.4-0.9-0.8c0-0.6,0.5-1.1,1.1-1.1c0.8,0,1.5,0.6,1.5,1.4c0,1-0.8,1.9-1.9,1.9
					c-1.3,0-2.4-1.1-2.4-2.4c0-1.7,1.4-3,3.1-3l2.4,0c-0.4,0.4-0.7,0.9-0.7,1.5c0,0.9,0.7,1.6,1.6,1.6c0.7,0,1.3-0.6,1.3-1.3
					c0-0.6-0.5-1.1-1.1-1.1c-0.5,0-0.9,0.4-0.9,0.9c0,0.4,0.4,0.8,0.8,0.8c0.1,0,0.2-0.1,0.2-0.2c0-0.1-0.1-0.2-0.2-0.2
					c-0.2,0-0.3-0.1-0.3-0.3c0-0.3,0.2-0.5,0.5-0.5c0.4,0,0.7,0.3,0.7,0.6c0,0.5-0.4,0.9-0.9,0.9c-0.6,0-1.2-0.5-1.2-1.1
					c0-0.8,0.7-1.5,1.5-1.5l10.6,0c0.1,0,0.2-0.1,0.2-0.2c0-0.1-0.1-0.2-0.2-0.2l-14.1,0c-0.8,0-1.5-0.7-1.5-1.5
					c0-0.6,0.5-1.1,1.2-1.1c0.5,0,0.9,0.4,0.9,0.9c0,0.4-0.3,0.6-0.7,0.6c-0.3,0-0.5-0.2-0.5-0.5c0-0.2,0.2-0.3,0.3-0.3
					c0.1,0,0.2-0.1,0.2-0.2c0-0.1-0.1-0.2-0.2-0.2c-0.4,0-0.8,0.4-0.8,0.8c0,0.5,0.4,0.9,0.9,0.9c0.6,0,1.1-0.5,1.1-1.1
					c0-0.7-0.6-1.3-1.3-1.3c-0.9,0-1.6,0.7-1.6,1.6c0,0.7,0.3,1.3,0.9,1.6c-1.5,0.4-2.6,1.8-2.6,3.4c0,1.6,1.3,2.8,2.9,2.8
					C21.2,115.5,22.2,114.5,22.2,113.2z"/>
			</g>
		</g>
		<g id="XMLID_2675_">
			<g id="XMLID_2680_">
				<path id="XMLID_2681_" class="st5" d="M69.3,21.3l-13.6,0c-1.2,0-2.1,0.9-2.1,2.1c0,0.9,0.7,1.6,1.7,1.6c0.7,0,1.3-0.6,1.3-1.3
					c0-0.5-0.4-1-1-1c-0.4,0-0.8,0.3-0.8,0.7c0,0.3,0.3,0.6,0.6,0.6c0.1,0,0.2,0.1,0.2,0.2c0,0.1-0.1,0.2-0.2,0.2c-0.5,0-1-0.4-1-0.9
					c0-0.6,0.5-1.1,1.1-1.1c0.8,0,1.4,0.6,1.4,1.4c0,0.9-0.8,1.7-1.7,1.7c-1.1,0-2.1-0.9-2.1-2c0-0.9,0.5-1.7,1.2-2.1l-3.5,0
					c-2.3,0-4.3,1.9-4.3,4.2c0,1.8,1.5,3.3,3.4,3.3c1.5,0,2.7-1.2,2.7-2.6c0-1.1-0.9-2.1-2.1-2.1c-0.9,0-1.6,0.7-1.6,1.6
					c0,0.7,0.6,1.2,1.3,1.2c0.5,0,1-0.4,1-1c0-0.4-0.3-0.7-0.7-0.7c-0.1,0-0.2-0.1-0.2-0.2s0.1-0.2,0.2-0.2c0.6,0,1.1,0.5,1.1,1.1
					c0,0.7-0.6,1.3-1.4,1.3c-0.9,0-1.7-0.7-1.7-1.6c0-1.1,0.9-2,2-2c1.4,0,2.5,1.1,2.5,2.4c0,1.7-1.4,3-3,3c-2.1,0-3.8-1.7-3.8-3.7
					c0-2.2,1.6-4.1,3.7-4.5c-0.8-0.4-1.4-1.2-1.4-2.2c0-1.1,0.9-2,2.1-2c0.9,0,1.7,0.7,1.7,1.7c0,0.8-0.6,1.4-1.4,1.4
					c-0.6,0-1.1-0.5-1.1-1.1c0-0.5,0.4-0.9,1-0.9c0.1,0,0.2,0.1,0.2,0.2c0,0.1-0.1,0.2-0.2,0.2c-0.3,0-0.6,0.3-0.6,0.6
					c0,0.4,0.3,0.7,0.8,0.7c0.5,0,1-0.4,1-1c0-0.7-0.6-1.3-1.3-1.3c-0.9,0-1.7,0.7-1.7,1.6c0,1.2,1,2.1,2.1,2.1l18.3,0
					c0.1,0,0.2,0.1,0.2,0.2C69.5,21.2,69.4,21.3,69.3,21.3z"/>
			</g>
			<g id="XMLID_2678_">
				<path id="XMLID_2679_" class="st5" d="M70.5,21.5c-0.3,0-0.5-0.2-0.5-0.4c0-0.2,0.2-0.4,0.5-0.4c0.3,0,0.5,0.2,0.5,0.4
					C71,21.3,70.7,21.5,70.5,21.5z"/>
			</g>
			<g id="XMLID_2676_">
				<path id="XMLID_2677_" class="st5" d="M70.5,59.6c0.1,0,0.2-0.1,0.2-0.2l0-37.1c0-0.1-0.1-0.2-0.2-0.2c-0.1,0-0.2,0.1-0.2,0.2
					l0,37.1C70.3,59.5,70.4,59.6,70.5,59.6z"/>
			</g>
		</g>
		<g id="XMLID_2668_">
			<g id="XMLID_2673_">
				<path id="XMLID_2674_" class="st5" d="M20.7,21.3l13.6,0c1.2,0,2.1,0.9,2.1,2.1c0,0.9-0.7,1.6-1.7,1.6c-0.7,0-1.3-0.6-1.3-1.3
					c0-0.5,0.4-1,1-1c0.4,0,0.8,0.3,0.8,0.7c0,0.3-0.3,0.6-0.6,0.6c-0.1,0-0.2,0.1-0.2,0.2c0,0.1,0.1,0.2,0.2,0.2c0.5,0,1-0.4,1-0.9
					c0-0.6-0.5-1.1-1.1-1.1c-0.8,0-1.4,0.6-1.4,1.4c0,0.9,0.8,1.7,1.7,1.7c1.1,0,2.1-0.9,2.1-2c0-0.9-0.5-1.7-1.2-2.1l3.5,0
					c2.3,0,4.3,1.9,4.3,4.2c0,1.8-1.5,3.3-3.4,3.3c-1.5,0-2.7-1.2-2.7-2.6c0-1.1,0.9-2.1,2.1-2.1c0.9,0,1.6,0.7,1.6,1.6
					c0,0.7-0.6,1.2-1.3,1.3c-0.5,0-1-0.4-1-1c0-0.4,0.3-0.7,0.7-0.7c0.1,0,0.2-0.1,0.2-0.2s-0.1-0.2-0.2-0.2c-0.6,0-1.1,0.5-1.1,1.1
					c0,0.7,0.6,1.3,1.4,1.3c0.9,0,1.7-0.7,1.7-1.6c0-1.1-0.9-2-2-2c-1.4,0-2.5,1.1-2.5,2.4c0,1.7,1.4,3,3,3c2.1,0,3.8-1.7,3.8-3.7
					c0-2.2-1.6-4-3.7-4.5c0.8-0.4,1.4-1.2,1.4-2.2c0-1.1-0.9-2-2.1-2c-0.9,0-1.7,0.7-1.7,1.7c0,0.8,0.6,1.4,1.4,1.4
					c0.6,0,1.1-0.5,1.1-1.1c0-0.5-0.4-0.9-1-0.9c-0.1,0-0.2,0.1-0.2,0.2s0.1,0.2,0.2,0.2c0.3,0,0.6,0.3,0.6,0.6
					c0,0.4-0.3,0.7-0.8,0.7c-0.5,0-1-0.4-1-1c0-0.7,0.6-1.3,1.3-1.3c0.9,0,1.7,0.7,1.7,1.6c0,1.2-1,2.1-2.1,2.1l-18.3,0
					c-0.1,0-0.2,0.1-0.2,0.2S20.6,21.3,20.7,21.3z"/>
			</g>
			<g id="XMLID_2671_">
				<path id="XMLID_2672_" class="st5" d="M19.5,21.6c0.3,0,0.5-0.2,0.5-0.4c0-0.2-0.2-0.4-0.5-0.4c-0.3,0-0.5,0.2-0.5,0.4
					C19,21.4,19.2,21.6,19.5,21.6z"/>
			</g>
			<g id="XMLID_2669_">
				<path id="XMLID_2670_" class="st5" d="M19.5,59.6c0.1,0,0.2-0.1,0.2-0.2l0-37.1c0-0.1-0.1-0.2-0.2-0.2c-0.1,0-0.2,0.1-0.2,0.2
					l0,37.1C19.2,59.5,19.4,59.6,19.5,59.6z"/>
			</g>
		</g>
		<g id="XMLID_2661_">
			<g id="XMLID_2666_">
				<path id="XMLID_2667_" class="st5" d="M69.3,101.5l-13.6,0c-1.2,0-2.1-0.9-2.1-2.1c0-0.9,0.7-1.6,1.7-1.6c0.7,0,1.3,0.6,1.3,1.3
					c0,0.5-0.4,1-1,1c-0.4,0-0.8-0.3-0.8-0.7c0-0.3,0.3-0.6,0.6-0.6c0.1,0,0.2-0.1,0.2-0.2s-0.1-0.2-0.2-0.2c-0.5,0-1,0.4-1,0.9
					c0,0.6,0.5,1.1,1.1,1.1c0.8,0,1.4-0.6,1.4-1.4c0-0.9-0.8-1.7-1.7-1.7c-1.1,0-2.1,0.9-2.1,2c0,0.9,0.5,1.7,1.2,2.1l-3.5,0
					c-2.3,0-4.3-1.9-4.3-4.2c0-1.8,1.5-3.3,3.4-3.3c1.5,0,2.7,1.2,2.7,2.6c0,1.1-0.9,2.1-2.1,2.1c-0.9,0-1.6-0.7-1.6-1.6
					c0-0.7,0.6-1.2,1.3-1.3c0.5,0,1,0.4,1,1c0,0.4-0.3,0.7-0.7,0.7c-0.1,0-0.2,0.1-0.2,0.2c0,0.1,0.1,0.2,0.2,0.2
					c0.6,0,1.1-0.5,1.1-1.1c0-0.7-0.6-1.3-1.4-1.3c-0.9,0-1.7,0.7-1.7,1.6c0,1.1,0.9,2,2,2c1.4,0,2.5-1.1,2.5-2.4c0-1.7-1.4-3-3-3
					c-2.1,0-3.8,1.7-3.8,3.7c0,2.2,1.6,4,3.7,4.5c-0.8,0.4-1.4,1.2-1.4,2.2c0,1.1,0.9,2,2.1,2c0.9,0,1.7-0.7,1.7-1.7
					c0-0.8-0.6-1.4-1.4-1.4c-0.6,0-1.1,0.5-1.1,1.1c0,0.5,0.4,0.9,1,0.9c0.1,0,0.2-0.1,0.2-0.2c0-0.1-0.1-0.2-0.2-0.2
					c-0.3,0-0.6-0.3-0.6-0.6c0-0.4,0.3-0.7,0.8-0.7c0.5,0,1,0.4,1,1c0,0.7-0.6,1.3-1.3,1.3c-0.9,0-1.7-0.7-1.7-1.6
					c0-1.2,1-2.1,2.1-2.1l18.3,0c0.1,0,0.2-0.1,0.2-0.2C69.5,101.6,69.4,101.5,69.3,101.5z"/>
			</g>
			<g id="XMLID_2664_">
				<path id="XMLID_2665_" class="st5" d="M70.5,101.2c-0.3,0-0.5,0.2-0.5,0.4c0,0.2,0.2,0.4,0.5,0.4c0.3,0,0.5-0.2,0.5-0.4
					C71,101.4,70.8,101.2,70.5,101.2z"/>
			</g>
			<g id="XMLID_2662_">
				<path id="XMLID_2663_" class="st5" d="M70.5,100.8c0.1,0,0.2-0.1,0.2-0.2l0-37.1c0-0.1-0.1-0.2-0.2-0.2c-0.1,0-0.2,0.1-0.2,0.2
					l0,37.1C70.3,100.7,70.4,100.8,70.5,100.8z"/>
			</g>
		</g>
		<g id="XMLID_2654_">
			<g id="XMLID_2659_">
				<path id="XMLID_2660_" class="st5" d="M20.7,101.5l13.6,0c1.2,0,2.1-0.9,2.1-2.1c0-0.9-0.7-1.6-1.7-1.6c-0.7,0-1.3,0.6-1.3,1.3
					c0,0.5,0.4,1,1,1c0.4,0,0.8-0.3,0.8-0.7c0-0.3-0.3-0.6-0.6-0.6c-0.1,0-0.2-0.1-0.2-0.2c0-0.1,0.1-0.2,0.2-0.2c0.5,0,1,0.4,1,0.9
					c0,0.6-0.5,1.1-1.1,1.1c-0.8,0-1.4-0.6-1.4-1.4c0-0.9,0.8-1.7,1.7-1.7c1.1,0,2.1,0.9,2.1,2c0,0.9-0.5,1.7-1.2,2.1l3.5,0
					c2.3,0,4.3-1.9,4.3-4.2c0-1.8-1.5-3.3-3.4-3.3c-1.5,0-2.7,1.2-2.7,2.6c0,1.1,0.9,2.1,2.1,2.1c0.9,0,1.6-0.7,1.6-1.6
					c0-0.7-0.6-1.2-1.3-1.2c-0.5,0-1,0.4-1,1c0,0.4,0.3,0.7,0.7,0.7c0.1,0,0.2,0.1,0.2,0.2c0,0.1-0.1,0.2-0.2,0.2
					c-0.6,0-1.1-0.5-1.1-1.1c0-0.7,0.6-1.3,1.4-1.3c0.9,0,1.7,0.7,1.7,1.6c0,1.1-0.9,2-2,2c-1.4,0-2.5-1.1-2.5-2.4c0-1.7,1.4-3,3-3
					c2.1,0,3.8,1.7,3.8,3.7c0,2.2-1.6,4.1-3.7,4.5c0.8,0.4,1.4,1.2,1.4,2.2c0,1.1-0.9,2-2.1,2c-0.9,0-1.7-0.7-1.7-1.7
					c0-0.8,0.6-1.4,1.4-1.4c0.6,0,1.1,0.5,1.1,1.1c0,0.5-0.4,0.9-1,0.9c-0.1,0-0.2-0.1-0.2-0.2c0-0.1,0.1-0.2,0.2-0.2
					c0.3,0,0.6-0.3,0.6-0.6c0-0.4-0.3-0.7-0.8-0.7c-0.5,0-1,0.4-1,1c0,0.7,0.6,1.3,1.3,1.3c0.9,0,1.7-0.7,1.7-1.6
					c0-1.2-1-2.1-2.1-2.1l-18.3,0c-0.1,0-0.2-0.1-0.2-0.2C20.5,101.6,20.6,101.5,20.7,101.5z"/>
			</g>
			<g id="XMLID_2657_">
				<path id="XMLID_2658_" class="st5" d="M19.5,101.3c0.3,0,0.5,0.2,0.5,0.4c0,0.2-0.2,0.4-0.5,0.4c-0.3,0-0.5-0.2-0.5-0.4
					C19,101.5,19.3,101.3,19.5,101.3z"/>
			</g>
			<g id="XMLID_2655_">
				<path id="XMLID_2656_" class="st5" d="M19.5,100.8c0.1,0,0.2-0.1,0.2-0.2l0-37.1c0-0.1-0.1-0.2-0.2-0.2c-0.1,0-0.2,0.1-0.2,0.2
					l0,37.1C19.3,100.7,19.4,100.8,19.5,100.8z"/>
			</g>
		</g>
		<g id="XMLID_2635_">
			<g id="XMLID_2645_">
				<g id="XMLID_2650_">
					<path id="XMLID_2651_" class="st5" d="M60.3,16.1L58,17.2l-4.2,0c-0.1,0-0.2,0.1-0.2,0.2c0,0.1,0.1,0.2,0.2,0.2l4.2,0l2.2,1.1
						c0,0,0.1,0,0.1,0c0,0,0.1,0,0.1,0l2.2-1.1l4.2,0c0.1,0,0.2-0.1,0.2-0.2c0-0.1-0.1-0.2-0.2-0.2l-4.2,0l-2.2-1.1
						C60.4,16.1,60.4,16.1,60.3,16.1C60.3,16.1,60.3,16.1,60.3,16.1z M60.4,16.5l1.8,0.9l-1.8,0.9l-1.8-0.9L60.4,16.5z"/>
				</g>
				<g id="XMLID_2646_">
					<path id="XMLID_2647_" class="st5" d="M29.5,16.1l-2.2,1.1l-4.2,0c-0.1,0-0.2,0.1-0.2,0.2c0,0.1,0.1,0.2,0.2,0.2l4.2,0l2.2,1.1
						c0,0,0.1,0,0.1,0c0,0,0.1,0,0.1,0l2.2-1.1l4.2,0c0.1,0,0.2-0.1,0.2-0.2c0-0.1-0.1-0.2-0.2-0.2l-4.2,0l-2.2-1.1
						C29.7,16.1,29.6,16.1,29.5,16.1C29.6,16.1,29.5,16.1,29.5,16.1z M29.6,16.5l1.8,0.9l-1.8,0.9l-1.8-0.9L29.6,16.5z"/>
				</g>
			</g>
			<g id="XMLID_2636_">
				<g id="XMLID_2641_">
					<path id="XMLID_2642_" class="st5" d="M60.3,104.1l-2.2,1.1l-4.2,0c-0.1,0-0.2,0.1-0.2,0.2c0,0.1,0.1,0.2,0.2,0.2l4.2,0l2.2,1.1
						c0,0,0.1,0,0.1,0c0,0,0.1,0,0.1,0l2.2-1.1l4.2,0c0.1,0,0.2-0.1,0.2-0.2c0-0.1-0.1-0.2-0.2-0.2l-4.2,0l-2.2-1.1
						C60.5,104.1,60.4,104.1,60.3,104.1C60.4,104.1,60.3,104.1,60.3,104.1z M60.4,104.5l1.8,0.9l-1.8,0.9l-1.8-0.9L60.4,104.5z"/>
				</g>
				<g id="XMLID_2637_">
					<path id="XMLID_2638_" class="st5" d="M29.5,104.1l-2.2,1.1l-4.2,0c-0.1,0-0.2,0.1-0.2,0.2c0,0.1,0.1,0.2,0.2,0.2l4.2,0l2.2,1.1
						c0,0,0.1,0,0.1,0c0,0,0.1,0,0.1,0l2.2-1.1l4.2,0c0.1,0,0.2-0.1,0.2-0.2c0-0.1-0.1-0.2-0.2-0.2l-4.2,0l-2.2-1.1
						C29.7,104.1,29.7,104.1,29.5,104.1C29.6,104.1,29.6,104.1,29.5,104.1z M29.6,104.5l1.8,0.9l-1.8,0.9l-1.8-0.9L29.6,104.5z"/>
				</g>
			</g>
		</g>
		<g id="XMLID_2626_">
			<path id="XMLID_2627_" class="st5" d="M33.3,64.9c0,1,0.4,2,1.1,2.7c1.8,1.8,4.8,1.8,6.6,0c0,0,0,0,0,0l2.6-3.7
				c-1.2,3.5-0.4,6.3,1,8l-3.3,8c0,0.1,0,0.1,0,0.2l3.5,8.7c0,0.1,0.1,0.1,0.2,0.1c0.1,0,0.2-0.1,0.2-0.1l3.5-8.7c0-0.1,0-0.1,0-0.2
				l-3.3-8c1.4-1.6,2.3-4.4,1-8l2.6,3.7c0,0,0,0,0,0c1.8,1.8,4.8,1.8,6.6,0c0.7-0.7,1.1-1.7,1.1-2.7c0-1-0.4-2-1.1-2.7
				c-0.3-0.3-0.7-0.6-1.1-0.7c0.4-0.2,0.8-0.4,1.1-0.7c1.5-1.5,1.5-4,0-5.5c-1.8-1.8-4.8-1.8-6.6,0c0,0,0,0,0,0L46.4,59
				c1.2-3.5,0.4-6.3-1-8l3.3-8c0-0.1,0-0.1,0-0.2l-3.5-8.7c0-0.1-0.1-0.1-0.2-0.1c-0.1,0-0.2,0.1-0.2,0.1l-3.5,8.7c0,0.1,0,0.1,0,0.2
				l3.3,8c-1.4,1.6-2.3,4.4-1,8l-2.6-3.7c0,0,0,0,0,0c-1.8-1.8-4.8-1.8-6.6,0c-1.5,1.5-1.5,4,0,5.5c0.3,0.3,0.7,0.6,1.1,0.7
				c-0.4,0.2-0.8,0.4-1.1,0.7C33.7,62.9,33.3,63.9,33.3,64.9z M45,50.7l-3.2-7.7l3.2-8.1l3.2,8.1L45,50.7z M45,61
				c-2.4-4.4-1.5-7.9,0-9.6C46.5,53.1,47.4,56.6,45,61z M45.3,61.5l4-5.9c1.6-1.6,4.3-1.6,6,0c1.3,1.3,1.3,3.5,0,4.8
				c-1.1,1.1-2.9,1.1-4,0c-0.9-0.9-0.9-2.3,0-3.2c0.4-0.4,0.8-0.5,1.3-0.5c0.5,0,1,0.2,1.3,0.5c0.6,0.6,0.6,1.6,0,2.2
				c-0.1,0.1-0.1,0.2,0,0.3c0.1,0.1,0.2,0.1,0.3,0c0.8-0.8,0.8-2.1,0-2.9c-0.4-0.4-1-0.7-1.7-0.7c-0.6,0-1.2,0.2-1.7,0.7
				c-1.1,1.1-1.1,2.8,0,3.9c0.3,0.3,0.7,0.6,1.1,0.7c-0.4,0.2-0.8,0.4-1.1,0.7c-0.5,0.5-0.8,1.2-0.8,1.9c0,0.7,0.3,1.4,0.8,1.9
				c0.4,0.4,1,0.7,1.7,0.7c0.6,0,1.2-0.2,1.7-0.7c0.8-0.8,0.8-2.1,0-2.9c-0.1-0.1-0.2-0.1-0.3,0c-0.1,0.1-0.1,0.2,0,0.3
				c0.6,0.6,0.6,1.6,0,2.2c-0.4,0.4-0.8,0.5-1.3,0.5c-0.5,0-1-0.2-1.3-0.5c-0.4-0.4-0.7-1-0.7-1.6c0-0.6,0.2-1.2,0.7-1.6
				c0.5-0.5,1.2-0.8,2-0.8c0.7,0,1.5,0.3,2,0.8c0.6,0.6,1,1.5,1,2.4c0,0.9-0.4,1.8-1,2.4c-1.6,1.6-4.3,1.6-6,0L45.3,61.5z M45,72.2
				l3.2,7.7L45,88L41.8,80L45,72.2z M45,61.9c2.4,4.4,1.5,7.9,0,9.6C43.5,69.8,42.6,66.3,45,61.9z M33.7,64.9c0-0.9,0.4-1.8,1-2.4
				c0.5-0.5,1.2-0.8,2-0.8c0.8,0,1.5,0.3,2,0.8c0.4,0.4,0.7,1,0.7,1.6c0,0.6-0.2,1.2-0.7,1.6c-0.4,0.4-0.8,0.5-1.3,0.5
				c-0.5,0-1-0.2-1.3-0.5c-0.6-0.6-0.6-1.6,0-2.2c0.1-0.1,0.1-0.2,0-0.3c-0.1-0.1-0.2-0.1-0.3,0c-0.8,0.8-0.8,2.1,0,2.9
				c0.4,0.4,1,0.7,1.7,0.7c0.6,0,1.2-0.2,1.7-0.7c0.5-0.5,0.8-1.2,0.8-1.9c0-0.7-0.3-1.4-0.8-1.9c-0.3-0.3-0.7-0.6-1.1-0.7
				c0.4-0.2,0.8-0.4,1.1-0.7c1.1-1.1,1.1-2.8,0-3.9c-0.4-0.4-1-0.7-1.7-0.7c-0.6,0-1.2,0.2-1.7,0.7c-0.8,0.8-0.8,2.1,0,2.9
				c0.1,0.1,0.2,0.1,0.3,0c0.1-0.1,0.1-0.2,0-0.3c-0.6-0.6-0.6-1.6,0-2.2c0.4-0.4,0.8-0.5,1.3-0.5c0.5,0,1,0.2,1.3,0.5
				c0.9,0.9,0.9,2.3,0,3.2c-1.1,1.1-2.9,1.1-4,0c-1.3-1.3-1.3-3.5,0-4.8c1.6-1.6,4.3-1.6,6,0l4,5.9l-4,5.9c-1.6,1.6-4.3,1.6-6,0
				C34.1,66.7,33.7,65.8,33.7,64.9z"/>
		</g>
	</g>
</svg>
