
<svg id="icon-sound-on" viewBox="0 0 500 500">
	<path d="M462.4,46.5v309.7c0,39-58.3,53.1-88.5,53.1s-88.5-14.1-88.5-53.1s58.3-53.1,88.5-53.1c18.3,0,36.5,3.3,53.1,10.8V165.4
		l-212.4,65.5V427c0,39-58.3,53.1-88.5,53.1S37.6,466,37.6,427s58.3-53.1,88.5-53.1c18.3,0,36.5,3.3,53.1,10.8V117.3
		c0-11.6,7.7-21.8,18.8-25.4L428.1,21c2.5-0.8,5-1.1,7.7-1.1C450.5,19.9,462.4,31.8,462.4,46.5z"/>
</svg>

<svg id="icon-sound-off" viewBox="0 0 500 500">
	<path d="M462.2,412.9l-19-23.4c11.4-8.1,19.2-19.1,19.2-33.3V46.5c0-14.7-11.9-26.5-26.5-26.5c-2.8,0-5.3,0.3-7.7,1.1L200.4,91.1
		l-54.8-67.4c-3.3-4.1-9.3-4.7-13.3-1.4l-31.8,25.9c-4.1,3.3-4.7,9.3-1.4,13.3l80.2,98.5v0l53.1,65.3l0,0l76.8,94.4c0,0,0,0,0,0
		l72.5,89.1c0,0,0,0,0,0l34,41.7c3.3,4.1,9.3,4.7,13.3,1.4l31.8-25.9C464.9,422.9,465.5,416.9,462.2,412.9z M294.2,206.4l132.8-41
		v148.5c-16.6-7.5-34.8-10.8-53.1-10.8c-0.3,0-0.7,0-1,0L294.2,206.4z"/>
	<path d="M179.2,384.7c-16.6-7.5-34.8-10.8-53.1-10.8C96,373.9,37.6,388,37.6,427c0,39,58.3,53.1,88.5,53.1s88.5-14.1,88.5-53.1
		V298.7l-35.4-43.5V384.7z"/>
</svg>
