<svg id="icon-help" viewBox="0 0 500 500">
	<style type="text/css">
		.st0{fill:#010101;}
	</style>
	<path class="st0" d="M250,61.8c104,0,188.2,84.3,188.2,188.2S354,438.2,250,438.2S61.8,354,61.8,250S146,61.8,250,61.8 M250,20.5
		C123.2,20.5,20.5,123.2,20.5,250S123.2,479.5,250,479.5S479.5,376.8,479.5,250S376.8,20.5,250,20.5z"/>
	<path class="st0" d="M248.8,298.7H232c-2.8,0.2-5.3-1.9-5.5-4.7c0-0.2,0-0.4,0-0.6c-0.7-14.4,0.5-28.8,3.4-43
		c1.7-6.9,5.3-13.3,10.3-18.4c4.6-4.9,9.5-9.2,14.5-13.8c5-4.6,10.9-9.6,16.5-14.2c11-9.2,9.7-25.2-4.1-32.7
		c-15.6-8.5-35.1-2.7-43.6,12.9c-0.5,1-1,1.9-1.4,2.9c-1.1,2.8-2,5.7-2.8,8.6c-1.1,4-2.9,5.4-7.1,4.9l-32.7-3.9
		c-3.2-0.1-5.7-2.8-5.5-6c0-0.3,0.1-0.6,0.1-1c3.1-30,25.8-54.2,55.5-59.2c19.4-4.3,39.6-2.4,57.8,5.3c16.4,6.7,29.2,20.1,35.1,36.7
		c6.4,16.3,3.5,34.9-7.6,48.5c-7.9,9.5-16.7,18.2-26.4,25.8c-3.1,2.7-6,5.5-9.2,8.1c-5,4.1-7.8,10.3-7.6,16.8c0,7-0.5,14-0.6,21
		c0.3,3.1-1.9,5.9-5,6.2c-0.4,0-0.8,0-1.2,0h-16.2V298.7z"/>
	<path class="st0" d="M272.4,348.7c0,12.7-10.3,23-23,23s-23-10.3-23-23c0-12.7,10.3-23,23-23S272.4,336,272.4,348.7z"/>
</svg>
