<svg xmlns="http://www.w3.org/2000/svg" width="0" height="0">

	<svg id="icon-undo" viewBox="0 0 500 500">
		<path fill="#333" d="M474,314c0,35-17.5,80.75-31.75,112.75c-2.75,5.75-5.5,13.75-9.25,19c-1.75,2.5-3.5,4.25-7,4.25 c-5,0-8-4-8-8.75c0-4,1-8.5,1.25-12.5c0.75-10.25,1.25-20.5,1.25-30.75c0-119.25-70.75-140-178.5-140h-56v64c0,8.75-7.25,16-16,16 c-4.25,0-8.25-1.75-11.25-4.75l-128-128c-3-3-4.75-7-4.75-11.25s1.75-8.25,4.75-11.25l128-128c3-3,7-4.75,11.25-4.75 c8.75,0,16,7.25,16,16v64h56c82,0,184,14.5,218.75,100.75C471.25,257.25,474,286,474,314z"/>
	</svg>

	<svg id="icon-redo" viewBox="0 0 500 500">
		<path fill="#333" d="M474,194c0,4.25-1.75,8.25-4.75,11.25l-128,128c-3,3-7,4.75-11.25,4.75c-8.75,0-16-7.25-16-16v-64h-56 c-107.75,0-178.5,20.75-178.5,140c0,10.25,0.5,20.5,1.25,30.75c0.25,4,1.25,8.5,1.25,12.5c0,4.75-3,8.75-8,8.75 c-3.5,0-5.25-1.75-7-4.25c-3.75-5.25-6.5-13.25-9.25-19C43.5,394.75,26,349,26,314c0-28,2.75-56.75,13.25-83.25 C74,144.5,176,130,258,130h56V66c0-8.75,7.25-16,16-16c4.25,0,8.25,1.75,11.25,4.75l128,128C472.25,185.75,474,189.75,474,194z"/>
	</svg>
	
</svg>