<svg xmlns="http://www.w3.org/2000/svg" width="0" height="0">

	<svg id="icon-undo" viewBox="0 0 13 13">
		<path fill="#333" d="M6.5,1.9C5,1.9,3.6,2.5,2.6,3.5L1,1.9V6h4.1L3.6,4.5c0.7-0.7,1.8-1.2,2.9-1.2c2.3,0,4.1,1.8,4.1,4.1c0,1.2-0.5,2.3-1.4,3.1 l0.9,1c1.1-1,1.9-2.5,1.9-4.1C12,4.3,9.5,1.9,6.5,1.9z"/>
	</svg>

	<svg id="icon-redo" viewBox="0 0 13 13">
		<path fill="#333" d="M1,7.4c0,1.6,0.7,3.1,1.8,4.1l0.9-1C2.9,9.7,2.4,8.6,2.4,7.4c0-2.3,1.8-4.1,4.1-4.1c1.1,0,2.2,0.5,2.9,1.2L7.9,6H12V1.9 l-1.6,1.6c-1-1-2.4-1.6-3.9-1.6C3.5,1.9,1,4.4,1,7.4z"/>
	</svg>

	<svg id="icon-automatic" viewBox="0 0 13 13">
		<style type="text/css">
			.st0{fill:#333333;}
		</style>
		<polygon class="st0" points="6.2,2.3 10.5,6.5 6.2,10.7 6.9,11.4 11.2,7.2 11.9,6.5 11.2,5.8 6.9,1.6 "/>
		<polygon class="st0" points="1.2,2.3 5.5,6.5 1.2,10.7 1.9,11.4 6.2,7.2 6.9,6.5 6.2,5.8 1.9,1.6 "/>
	</svg>

	@import "cb-red.svg"
	@import "cards-clubs.svg"
	@import "cards-diamonds.svg"
	@import "cards-hearts.svg"
	@import "cards-spades.svg"

</svg>