<svg xmlns="http://www.w3.org/2000/svg" width="0" height="0">

	<svg id="icon-undo" viewBox="0 0 13 13">
		<path fill="#333" d="M6.5,1.9C5,1.9,3.6,2.5,2.6,3.5L1,1.9V6h4.1L3.6,4.5c0.7-0.7,1.8-1.2,2.9-1.2c2.3,0,4.1,1.8,4.1,4.1c0,1.2-0.5,2.3-1.4,3.1 l0.9,1c1.1-1,1.9-2.5,1.9-4.1C12,4.3,9.5,1.9,6.5,1.9z"/>
	</svg>

	<svg id="icon-redo" viewBox="0 0 13 13">
		<path fill="#333" d="M1,7.4c0,1.6,0.7,3.1,1.8,4.1l0.9-1C2.9,9.7,2.4,8.6,2.4,7.4c0-2.3,1.8-4.1,4.1-4.1c1.1,0,2.2,0.5,2.9,1.2L7.9,6H12V1.9 l-1.6,1.6c-1-1-2.4-1.6-3.9-1.6C3.5,1.9,1,4.4,1,7.4z"/>
	</svg>

	<svg id="icon-automatic" viewBox="0 0 13 13">
		<style type="text/css">
			.st0{fill:#333333;}
		</style>
		<polygon class="st0" points="6.2,2.3 10.5,6.5 6.2,10.7 6.9,11.4 11.2,7.2 11.9,6.5 11.2,5.8 6.9,1.6 "/>
		<polygon class="st0" points="1.2,2.3 5.5,6.5 1.2,10.7 1.9,11.4 6.2,7.2 6.9,6.5 6.2,5.8 1.9,1.6 "/>
	</svg>

	<svg id="icon-gear" viewBox="0 0 13 13">
		<path fill="#333" d="M10.6,7c0-0.2,0-0.3,0-0.5c0-0.2,0-0.4,0-0.5l1.2-0.9c0.1-0.1,0.1-0.2,0.1-0.3l-1.1-1.9c-0.1-0.1-0.2-0.2-0.3-0.1L9,3.2
			C8.7,3,8.4,2.8,8.1,2.7L7.9,1.2C7.8,1.1,7.7,1,7.6,1H5.4C5.3,1,5.2,1.1,5.1,1.2L4.9,2.7C4.6,2.8,4.3,3,4,3.2L2.6,2.7
			c-0.1,0-0.3,0-0.3,0.1L1.2,4.7C1.1,4.8,1.2,5,1.3,5.1L2.4,6c0,0.2-0.1,0.4-0.1,0.5s0,0.4,0,0.5L1.3,7.9C1.2,8,1.1,8.2,1.2,8.3
			l1.1,1.9c0.1,0.1,0.2,0.2,0.3,0.1L4,9.8c0.3,0.2,0.6,0.4,0.9,0.5l0.2,1.5c0,0.1,0.1,0.2,0.3,0.2h2.2c0.1,0,0.3-0.1,0.3-0.2l0.2-1.5
			C8.4,10.2,8.7,10,9,9.8l1.4,0.5c0.1,0,0.3,0,0.3-0.1l1.1-1.9c0.1-0.1,0-0.3-0.1-0.3L10.6,7z M6.5,8.9c-1.3,0-2.4-1.1-2.4-2.4
			s1.1-2.4,2.4-2.4s2.4,1.1,2.4,2.4S7.8,8.9,6.5,8.9z"/>
	</svg>

	@import "cb-red.svg"
	@import "cards-clubs.svg"
	@import "cards-diamonds.svg"
	@import "cards-hearts.svg"
	@import "cards-spades.svg"

</svg>