<svg id="icon-cog" viewBox="0 0 500 500">
	<path d="M326.3,250c0-42-34.3-76.3-76.3-76.3S173.7,208,173.7,250c0,42,34.3,76.3,76.3,76.3C292,326.3,326.3,292,326.3,250
		L326.3,250z M478.9,217.5v66.2c0,4.5-3.6,9.8-8.3,10.7l-55.1,8.3c-3.3,9.5-6.9,18.5-11.6,27.1c10.1,14.6,20.9,27.7,31.9,41.1
		c1.8,2.1,3,4.8,3,7.5c0,2.7-0.9,4.8-2.7,6.9c-7.2,9.5-47.4,53.3-57.5,53.3c-2.7,0-5.4-1.2-7.7-2.7l-41.1-32.2
		c-8.6,4.5-17.9,8.3-27.1,11.3c-2.1,18.2-3.9,37.6-8.6,55.4c-1.2,4.8-5.4,8.3-10.7,8.3h-66.2c-5.4,0-10.1-3.9-10.7-8.9l-8.3-54.8
		c-9.2-3-18.2-6.6-26.8-11L129,436c-2.1,1.8-4.8,2.7-7.5,2.7c-2.7,0-5.4-1.2-7.5-3.3c-15.8-14.3-36.7-32.8-49.2-50.1
		c-1.5-2.1-2.1-4.5-2.1-6.9c0-2.7,0.9-4.8,2.4-6.9c10.1-13.7,21.2-26.8,31.3-40.8c-5.1-9.5-9.2-19.4-12.2-29.5l-54.5-8
		c-5.1-0.9-8.6-5.7-8.6-10.7v-66.2c0-4.5,3.6-9.8,8-10.7l55.4-8.3c3-9.5,6.9-18.5,11.6-27.4c-10.1-14.3-20.9-27.7-31.9-41.1
		c-1.8-2.1-3-4.5-3-7.2c0-2.7,1.2-4.8,2.7-6.9c7.2-9.8,47.4-53.3,57.5-53.3c2.7,0,5.4,1.2,7.7,3l41.1,31.9
		c8.6-4.5,17.9-8.3,27.1-11.3c2.1-18.2,3.9-37.6,8.6-55.4c1.2-4.8,5.4-8.3,10.7-8.3h66.2c5.4,0,10.1,3.9,10.7,8.9l8.3,54.8
		c9.2,3,18.2,6.6,26.8,11L371.3,64c1.8-1.8,4.5-2.7,7.2-2.7s5.4,1.2,7.5,3c15.8,14.6,36.7,33.1,49.2,50.7c1.5,1.8,2.1,4.2,2.1,6.6
		c0,2.7-0.9,4.8-2.4,6.9c-10.1,13.7-21.2,26.8-31.3,40.8c5.1,9.5,9.2,19.4,12.2,29.2l54.5,8.3C475.3,207.7,478.9,212.4,478.9,217.5
		L478.9,217.5z"/>
</svg>
