<svg xmlns="http://www.w3.org/2000/svg" width="0" height="0">

	<svg id="icon-undo" viewBox="0 0 13 13">
		<polygon fill="#333" points="9.2,1.6 8.5,0.8 3.5,5.8 3.5,5.8 2.8,6.5 3.5,7.2 8.5,12.2 9.2,11.4 4.2,6.5 "/>
	</svg>

	<svg id="icon-redo" viewBox="0 0 13 13">
		<polygon fill="#333" points="2.8,11.4 3.5,12.2 8.5,7.2 8.5,7.2 9.2,6.5 8.5,5.8 3.5,0.8 2.8,1.6 7.8,6.5 "/>
	</svg>

	<svg id="icon-automatic" viewBox="0 0 13 13">
		<polygon fill="#333" points="6.4,10.6 7,11.2 11.1,7.1 11.1,7.1 11.7,6.5 11.1,5.9 7,1.8 6.4,2.4 10.6,6.5 "/>
		<polygon fill="#333" points="1.3,10.6 1.9,11.2 6,7.1 6,7.1 6.6,6.5 6,5.9 1.9,1.8 1.3,2.4 5.4,6.5 "/>
	</svg>

	<svg id="icon-gear" viewBox="0 0 13 13">
		<path fill="#333" d="M10.6,7c0-0.2,0-0.3,0-0.5c0-0.2,0-0.4,0-0.5l1.2-0.9c0.1-0.1,0.1-0.2,0.1-0.3l-1.1-1.9c-0.1-0.1-0.2-0.2-0.3-0.1L9,3.2
			C8.7,3,8.4,2.8,8.1,2.7L7.9,1.2C7.8,1.1,7.7,1,7.6,1H5.4C5.3,1,5.2,1.1,5.1,1.2L4.9,2.7C4.6,2.8,4.3,3,4,3.2L2.6,2.7
			c-0.1,0-0.3,0-0.3,0.1L1.2,4.7C1.1,4.8,1.2,5,1.3,5.1L2.4,6c0,0.2-0.1,0.4-0.1,0.5s0,0.4,0,0.5L1.3,7.9C1.2,8,1.1,8.2,1.2,8.3
			l1.1,1.9c0.1,0.1,0.2,0.2,0.3,0.1L4,9.8c0.3,0.2,0.6,0.4,0.9,0.5l0.2,1.5c0,0.1,0.1,0.2,0.3,0.2h2.2c0.1,0,0.3-0.1,0.3-0.2l0.2-1.5
			C8.4,10.2,8.7,10,9,9.8l1.4,0.5c0.1,0,0.3,0,0.3-0.1l1.1-1.9c0.1-0.1,0-0.3-0.1-0.3L10.6,7z M6.5,8.9c-1.3,0-2.4-1.1-2.4-2.4
			s1.1-2.4,2.4-2.4s2.4,1.1,2.4,2.4S7.8,8.9,6.5,8.9z"/>
	</svg>

	@import "cb-red.svg"
	@import "cards-clubs.svg"
	@import "cards-diamonds.svg"
	@import "cards-hearts.svg"
	@import "cards-spades.svg"

</svg>